<?xml version="1.0" encoding="UTF-8"?>
<svg width="20px" height="20px" viewBox="0 0 20 20" version="1.1" xmlns="http://www.w3.org/2000/svg" xmlns:xlink="http://www.w3.org/1999/xlink">
    <title>A021AB89-B8C6-4106-8DDF-B71AC4D20010</title>
    <g id="Symbols_assets" stroke="none" stroke-width="1" fill="none" fill-rule="evenodd">
        <g id="btn_my">
            <circle id="btn_photo" fill="#666666" cx="10" cy="10" r="10"></circle>
            <g transform="translate(3.000000, 6.999650)" fill="#FEFEFE">
                <path d="M0,0.14 L1.199,0.14 L1.299,0.89 L1.339,0.89 C1.809,0.4 2.328,0 3.058,0 C3.857,0 4.327,0.36 4.597,0.98 C5.106,0.44 5.646,0 6.376,0 C7.565,0 8.115,0.84 8.115,2.249 L8.115,5.737 L6.646,5.737 L6.646,2.429 C6.646,1.57 6.396,1.26 5.866,1.26 C5.547,1.26 5.187,1.47 4.787,1.89 L4.787,5.737 L3.317,5.737 L3.317,2.429 C3.317,1.57 3.067,1.26 2.538,1.26 C2.219,1.26 1.858,1.47 1.459,1.89 L1.459,5.737 L0,5.737 L0,0.14 Z" id="Fill-1"></path>
                <path d="M9.3594,7.8758 L9.6294,6.7468 C9.7294,6.7768 9.8884,6.8168 10.0184,6.8168 C10.5884,6.8168 10.9084,6.4568 11.0684,5.9668 L11.1684,5.6368 L8.9894,0.1398 L10.4684,0.1398 L11.3584,2.7388 C11.5284,3.2388 11.6684,3.7778 11.8284,4.3178 L11.8784,4.3178 C12.0074,3.7978 12.1474,3.2588 12.2774,2.7388 L13.0474,0.1398 L14.4564,0.1398 L12.4674,5.9068 C11.9774,7.2268 11.3784,7.9858 10.1294,7.9858 C9.7984,7.9858 9.5794,7.9458 9.3594,7.8758" id="Fill-4"></path>
            </g>
        </g>
    </g>
</svg>