<svg xmlns="http://www.w3.org/2000/svg" width="14" height="14" viewBox="0 0 14 14">
    <g fill="none" fill-rule="evenodd">
        <g fill="#EA644D">
            <g>
                <g>
                    <g>
                        <g transform="translate(-1025 -263) translate(400 159) translate(0 96) translate(614) translate(11 8)">
                            <circle cx="5" cy="5" r="3"/>
                            <path d="M10 13c0-1.727-.876-3.25-2.207-4.148C6.995 8.314 6.034 8 5 8c-2.761 0-5 2.239-5 5h10z"/>
                            <path d="M9 2c1.657 0 3 1.343 3 3s-1.343 3-3 3c1.034 0 1.995.314 2.793.852 1.268.856 2.123 2.277 2.201 3.903L14 13h-3l-.006-.245c-.078-1.626-.933-3.047-2.201-3.903-.395-.266-.83-.478-1.293-.623l.158-.047-.158.022v-.516l.301.063c-.104-.046-.205-.097-.302-.153C8.397 7.08 9 6.11 9 5c0-1.11-.603-2.08-1.5-2.599C7.94 2.146 8.454 2 9 2z"/>
                        </g>
                    </g>
                </g>
            </g>
        </g>
    </g>
</svg>
