<svg width="16" height="16" viewBox="0 0 16 16" xmlns="http://www.w3.org/2000/svg">
    <g fill="none" fill-rule="evenodd">
        <path stroke="#666" fill="#666" d="M4.708 9 2 3.049 6.464 1 9 6.575"/>
        <path stroke="#666" fill="#666" d="M11.292 9 14 3.049 9.536 1 7 6.575"/>
        <path d="M8 5.5c1.243 0 2.368.504 3.182 1.318A4.486 4.486 0 0 1 12.5 10a4.486 4.486 0 0 1-1.318 3.182A4.486 4.486 0 0 1 8 14.5a4.486 4.486 0 0 1-3.182-1.318A4.486 4.486 0 0 1 3.5 10c0-1.243.504-2.368 1.318-3.182A4.486 4.486 0 0 1 8 5.5z" stroke="#666" fill="#FFF"/>
        <path d="M5 10a3 3 0 1 1 6 0 3 3 0 0 1-6 0" fill="#EA644D"/>
    </g>
</svg>
