<?xml version="1.0" encoding="UTF-8"?>
<svg width="24px" height="24px" viewBox="0 0 24 24" version="1.1" xmlns="http://www.w3.org/2000/svg" xmlns:xlink="http://www.w3.org/1999/xlink">
    <title>19216AFD-D928-4000-B643-C9C12448F43D</title>
    <g id="Symbols_assets" stroke="none" stroke-width="1" fill="none" fill-rule="evenodd">
        <g id="icon-/-24px-/-cancle" fill="#777777" fill-rule="nonzero">
            <g id="icon_cancel_x24px">
                <path d="M12,4.5 C7.8525,4.5 4.5,7.8525 4.5,12 C4.5,16.1475 7.8525,19.5 12,19.5 C16.1475,19.5 19.5,16.1475 19.5,12 C19.5,7.8525 16.1475,4.5 12,4.5 Z M12,18 C8.6925,18 6,15.3075 6,12 C6,8.6925 8.6925,6 12,6 C15.3075,6 18,8.6925 18,12 C18,15.3075 15.3075,18 12,18 Z M14.6925,8.25 L12,10.9425 L9.3075,8.25 L8.25,9.3075 L10.9425,12 L8.25,14.6925 L9.3075,15.75 L12,13.0575 L14.6925,15.75 L15.75,14.6925 L13.0575,12 L15.75,9.3075 L14.6925,8.25 Z"></path>
            </g>
        </g>
    </g>
</svg>