<svg xmlns="http://www.w3.org/2000/svg" width="24" height="24" viewBox="0 0 24 24">
    <g fill="none" fill-rule="evenodd">
        <g>
            <g>
                <g>
                    <g>
                        <g>
                            <g>
                                <path stroke="#6C788F" stroke-width="1.6" d="M7 1.3c1.712 0 3.262.694 4.384 1.816C12.506 4.238 13.2 5.788 13.2 7.5c0 1.669-.66 3.183-1.731 4.298-.295.306-1.559 1.533-1.907 1.778-.17.12-.325.232-.468.337C8.426 14.4 8.05 14.7 7 14.7c-1.028 0-1.396-.288-2.049-.76-.146-.106-.304-.22-.479-.34-.328-.228-1.577-1.436-1.858-1.718C1.494 10.76.8 9.212.8 7.5c0-1.712.694-3.262 1.816-4.384C3.738 1.994 5.288 1.3 7 1.3h0z" transform="translate(-400 -1018) translate(400 159) translate(0 413) translate(0 87) translate(0 359) translate(5 2)"/>
                                <path fill="#FFF" stroke="#6C788F" stroke-width="1.5" d="M9.25 14.1v4.178c-.556.56-1.308.822-2.236.822-.933 0-1.693-.266-2.264-.828h0V14.1h4.5z" transform="translate(-400 -1018) translate(400 159) translate(0 413) translate(0 87) translate(0 359) translate(5 2)"/>
                                <path fill="#6C788F" d="M4 15.85H10V17.35H4zM4.504 8.507L7 4.569 6.472 7.014 9.048 7.014 7 11 7 8.5z" transform="translate(-400 -1018) translate(400 159) translate(0 413) translate(0 87) translate(0 359) translate(5 2)"/>
                            </g>
                        </g>
                    </g>
                </g>
            </g>
        </g>
    </g>
</svg>
