<?xml version="1.0" encoding="UTF-8"?>
<svg width="24px" height="24px" viewBox="0 0 24 24" version="1.1" xmlns="http://www.w3.org/2000/svg" xmlns:xlink="http://www.w3.org/1999/xlink">
    <title>3C6E1F4A-85F6-484F-A21F-60FCAE413716</title>
    <g id="Symbols_assets" stroke="none" stroke-width="1" fill="none" fill-rule="evenodd">
        <g id="icon-/-24px-/-tag" fill="#777777" fill-rule="nonzero">
            <g id="icon_tag_24px">
                <path d="M20.3203125,11.9609375 L19.7421875,5.85546875 C19.7128906,5.5390625 19.4609375,5.2890625 19.1445313,5.2578125 L13.0390625,4.6796875 L13.03125,4.6796875 C12.96875,4.6796875 12.9199219,4.69921875 12.8828125,4.73632812 L3.73632813,13.8828125 C3.69976014,13.9193056 3.67921015,13.9688458 3.67921015,14.0205078 C3.67921015,14.0721698 3.69976014,14.12171 3.73632813,14.1582031 L10.8417969,21.2636719 C10.8789063,21.3007812 10.9277344,21.3203125 10.9804688,21.3203125 C11.0332031,21.3203125 11.0820313,21.3007812 11.1191406,21.2636719 L20.265625,12.1171875 C20.3046875,12.0761719 20.3242188,12.0195313 20.3203125,11.9609375 Z M10.9785156,19.3027344 L5.69726563,14.0214844 L13.5039063,6.21484375 L18.328125,6.671875 L18.7851563,11.4960938 L10.9785156,19.3027344 Z M15.28125,8 C14.3339844,8 13.5625,8.77148437 13.5625,9.71875 C13.5625,10.6660156 14.3339844,11.4375 15.28125,11.4375 C16.2285156,11.4375 17,10.6660156 17,9.71875 C17,8.77148437 16.2285156,8 15.28125,8 Z M15.28125,10.34375 C14.9355469,10.34375 14.65625,10.0644531 14.65625,9.71875 C14.65625,9.37304688 14.9355469,9.09375 15.28125,9.09375 C15.6269531,9.09375 15.90625,9.37304688 15.90625,9.71875 C15.90625,10.0644531 15.6269531,10.34375 15.28125,10.34375 Z"></path>
            </g>
        </g>
    </g>
</svg>