<?xml version="1.0" encoding="UTF-8"?>
<svg width="24px" height="24px" viewBox="0 0 24 24" version="1.1" xmlns="http://www.w3.org/2000/svg" xmlns:xlink="http://www.w3.org/1999/xlink">
    <title>8F88EA32-0912-459A-87CA-9795934A9610</title>
    <g id="Symbols_assets" stroke="none" stroke-width="1" fill="none" fill-rule="evenodd">
        <g id="icon-/-24px-/-url" fill="#777777" fill-rule="nonzero">
            <g id="icon_url_24px">
                <path d="M12,4 C16.418278,4 20,7.581722 20,12 C20,16.418278 16.418278,20 12,20 C7.581722,20 4,16.418278 4,12 C4,7.581722 7.581722,4 12,4 Z M13.9674452,13.0014818 L10.0325548,13.0014818 C10.1221259,14.3671077 10.3927786,15.6107207 10.7978247,16.5558282 C11.2165949,17.5329588 11.6898276,18 12,18 C12.3101724,18 12.7834051,17.5329588 13.2021753,16.5558282 C13.6072214,15.6107207 13.8778741,14.3671077 13.9674452,13.0014818 Z M8.02786497,13.0012675 L6.08309386,13.0008069 C6.37475316,14.7378166 7.41275997,16.2216778 8.85605486,17.111331 C8.40171942,15.9611957 8.11463559,14.5443861 8.02786497,13.0012675 Z M17.9169061,13.0008069 L15.972135,13.0012675 C15.8853644,14.5443861 15.5982806,15.9611957 15.1437325,17.1104079 C16.58724,16.2216778 17.6252468,14.7378166 17.9169061,13.0008069 Z M8.85626754,6.88959207 L8.73293719,6.96663707 C7.35358818,7.86378292 6.36600264,9.31254965 6.08292631,11.0001915 L8.02780874,10.999733 C8.11451151,9.45622633 8.40162119,8.03905264 8.85626754,6.88959207 Z M12,6 C11.6898276,6 11.2165949,6.46704125 10.7978247,7.44417183 C10.3926801,8.38950928 10.1219942,9.63349747 10.0324895,10.999515 L13.9675105,10.999515 C13.8780058,9.63349747 13.6073199,8.38950928 13.2021753,7.44417183 C12.8113231,6.53218328 12.373028,6.06453923 12.0641442,6.00623997 L12,6 L12,6 Z M15.1439451,6.88866903 L15.2171233,7.08138888 C15.6293124,8.19510625 15.8902505,9.54100125 15.9721913,10.999733 L17.9170737,11.0001915 C17.6256446,9.26275197 16.5875165,7.77849265 15.1439451,6.88866903 Z"></path>
            </g>
        </g>
    </g>
</svg>