<?xml version="1.0" encoding="UTF-8"?>
<svg width="24px" height="24px" viewBox="0 0 24 24" version="1.1" xmlns="http://www.w3.org/2000/svg" xmlns:xlink="http://www.w3.org/1999/xlink">
    <title>778AA7D6-C2F7-49B4-A0C1-0EF825C59AF7</title>
    <g id="Symbols_assets" stroke="none" stroke-width="1" fill="none" fill-rule="evenodd">
        <g id="icon-/-24px-/-period" fill="#777777" fill-rule="nonzero">
            <g id="icon_period_24px">
                <path d="M7,3.66666667 L17,3.66666667 L17,8.66666667 L13.6666667,12 L17,15.3333333 L17,20.3333333 L7,20.3333333 L7,15.3333333 L10.3333333,12 L7,8.66666667 L7,3.66666667 L7,3.66666667 Z M15.3333333,15.75 L12,12.4166667 L8.66666667,15.75 L8.66666667,18.6666667 L15.3333333,18.6666667 L15.3333333,15.75 L15.3333333,15.75 Z M12,11.5833333 L15.3333333,8.25 L15.3333333,5.33333333 L8.66666667,5.33333333 L8.66666667,8.25 L12,11.5833333 L12,11.5833333 Z M10.3333333,7 L13.6666667,7 L13.6666667,7.625 L12,9.29166667 L10.3333333,7.625 L10.3333333,7 Z"></path>
            </g>
        </g>
    </g>
</svg>