<?xml version="1.0" encoding="UTF-8"?>
<svg width="24px" height="24px" viewBox="0 0 24 24" version="1.1" xmlns="http://www.w3.org/2000/svg" xmlns:xlink="http://www.w3.org/1999/xlink">
    <title>8E7BDBE1-9507-44C9-A912-20F4F3C74E84</title>
    <g id="Symbols_assets" stroke="none" stroke-width="1" fill="none" fill-rule="evenodd">
        <g id="icon-/-24px-/-filter_type1" stroke="#777777" stroke-width="2">
            <g id="icon_filler_24px">
                <path d="M12.0000144,7 L12.0010217,13.0000421 C12.6768624,12.9997822 13.2729937,13.3354287 13.6350353,13.847763 C13.8651571,14.1734141 14,14.5709949 14,15 C14,15.5522847 13.7761424,16.0522847 13.4142136,16.4142136 C13.0522847,16.7761424 12.5522847,17 12,17 C11.4477153,17 10.9477153,16.7761424 10.5857864,16.4142136 C10.2238576,16.0522847 10,15.5522847 10,15 C10,14.5708689 10.1349224,14.1731806 10.3651675,13.847476 C10.7274294,13.3350203 11.3239236,12.9994099 12.0001009,13.0000439 L12.0001009,13.0000439 L12.0000144,7 Z M6,7 C6.55228475,7 7.05228475,7.22385763 7.41421356,7.58578644 C7.77614237,7.94771525 8,8.44771525 8,9 C8,9.42900511 7.86515715,9.82658589 7.63503534,10.152237 C7.27299372,10.6645713 6.67686238,11.0002178 6.00102172,10.9999579 L6.00102172,10.9999579 L6.00014595,17 L6.00010088,10.9999561 C5.32392362,11.0005901 4.72742942,10.6649797 4.36516749,10.152524 C4.13492243,9.82681937 4,9.42913115 4,9 C4,8.44771525 4.22385763,7.94771525 4.58578644,7.58578644 C4.94771525,7.22385763 5.44771525,7 6,7 Z M18,7 C18.5522847,7 19.0522847,7.22385763 19.4142136,7.58578644 C19.7761424,7.94771525 20,8.44771525 20,9 C20,9.42900511 19.8651571,9.82658589 19.6350353,10.152237 C19.2729937,10.6645713 18.6768624,11.0002178 18.0010217,10.9999579 L18.0010217,10.9999579 L18.0001459,17 L18.0001009,10.9999561 C17.3239236,11.0005901 16.7274294,10.6649797 16.3651675,10.152524 C16.1349224,9.82681937 16,9.42913115 16,9 C16,8.44771525 16.2238576,7.94771525 16.5857864,7.58578644 C16.9477153,7.22385763 17.4477153,7 18,7 Z" id="icon"></path>
            </g>
        </g>
    </g>
</svg>