<svg xmlns="http://www.w3.org/2000/svg" xmlns:xlink="http://www.w3.org/1999/xlink" width="1200" height="789" viewBox="0 0 1200 789">
    <defs>
        <path id="2kmedi25nd" d="M0 0h79c43.63 0 79 35.37 79 79s-35.37 79-79 79S0 122.63 0 79V0z"/>
        <path id="tfvgdmu1ve" d="M0.182 0.113L8.092 0.113 8.092 12.071 0.182 12.071z"/>
        <path id="c34wbirgah" d="M0 0h79c43.63 0 79 35.37 79 79s-35.37 79-79 79S0 122.63 0 79V0z"/>
        <path id="kh5h2nyfxi" d="M0.182 0.113L8.092 0.113 8.092 12.071 0.182 12.071z"/>
        <path id="qwy96fgg9l" d="M0 0h79c43.63 0 79 35.37 79 79s-35.37 79-79 79S0 122.63 0 79V0z"/>
        <path id="qwy0i928ym" d="M0.182 0.113L8.092 0.113 8.092 12.071 0.182 12.071z"/>
        <path id="kbvn9tui1p" d="M0.415 0.271L55.451 0.271 55.451 54.324 0.415 54.324z"/>
        <filter id="e75jdw38bc" width="112.7%" height="112.7%" x="-6.3%" y="-5.1%" filterUnits="objectBoundingBox">
            <feOffset dy="2" in="SourceAlpha" result="shadowOffsetOuter1"/>
            <feGaussianBlur in="shadowOffsetOuter1" result="shadowBlurOuter1" stdDeviation="3"/>
            <feColorMatrix in="shadowBlurOuter1" values="0 0 0 0 0.8 0 0 0 0 0.831372549 0 0 0 0 0.905882353 0 0 0 1 0"/>
        </filter>
        <filter id="209wf4iyfg" width="112.7%" height="112.7%" x="-6.3%" y="-5.1%" filterUnits="objectBoundingBox">
            <feOffset dy="2" in="SourceAlpha" result="shadowOffsetOuter1"/>
            <feGaussianBlur in="shadowOffsetOuter1" result="shadowBlurOuter1" stdDeviation="3"/>
            <feColorMatrix in="shadowBlurOuter1" values="0 0 0 0 0.8 0 0 0 0 0.831372549 0 0 0 0 0.905882353 0 0 0 1 0"/>
        </filter>
        <filter id="v3tk2qwgbk" width="112.7%" height="112.7%" x="-6.3%" y="-5.1%" filterUnits="objectBoundingBox">
            <feOffset dy="2" in="SourceAlpha" result="shadowOffsetOuter1"/>
            <feGaussianBlur in="shadowOffsetOuter1" result="shadowBlurOuter1" stdDeviation="3"/>
            <feColorMatrix in="shadowBlurOuter1" values="0 0 0 0 0.8 0 0 0 0 0.831372549 0 0 0 0 0.905882353 0 0 0 1 0"/>
        </filter>
        <circle id="wy4n4k72ka" cx="90" cy="90" r="90"/>
        <circle id="lfwwf232rb" cx="90" cy="90" r="90"/>
        <mask id="lr1ihqgz6o" width="180" height="180" x="0" y="0" fill="#fff" maskContentUnits="userSpaceOnUse" maskUnits="objectBoundingBox">
            <use xlink:href="#wy4n4k72ka"/>
        </mask>
        <mask id="xwha07yicr" width="180" height="180" x="0" y="0" fill="#fff" maskContentUnits="userSpaceOnUse" maskUnits="objectBoundingBox">
            <use xlink:href="#lfwwf232rb"/>
        </mask>
    </defs>
    <g fill="none" fill-rule="evenodd">
        <g transform="translate(0 240)">
            <g>
                <text fill="#666" font-family="NotoSansCJKkr-Regular, Noto Sans CJK KR" font-size="20" letter-spacing="-.6" transform="translate(20 280)">
                    <tspan x="0" y="201">- 해당 분야를 이해하는 수준</tspan>
                </text>
                <text fill="#666" font-family="NotoSansCJKkr-Regular, Noto Sans CJK KR" font-size="20" letter-spacing="-.6" transform="translate(20 280)">
                    <tspan x="0" y="234">- 업무수행과 역량 향상에 간접적으로</tspan> <tspan x="0" y="263"> 도움이 되는 Badge</tspan>
                </text>
                <text fill="#BD8F72" font-family="NotoSansCJKkr-Regular, Noto Sans CJK KR" font-size="20" transform="translate(20 280)">
                    <tspan x="208" y="69">Lv.1</tspan>
                </text>
                <path fill="#BD8F72" fill-rule="nonzero" d="M12 18L4.947 21.708 6.294 13.854 0.587 8.292 8.473 7.146 12 0 15.527 7.146 23.413 8.292 17.706 13.854 19.053 21.708z" transform="translate(20 280) translate(178 49)"/>
                <text fill="#222" font-family="NotoSansCJKkr-Bold, Noto Sans CJK KR" font-size="20" font-weight="bold" letter-spacing="-.6" transform="translate(20 280)">
                    <tspan x="178" y="107">이해</tspan>
                </text>
                <g fill-rule="nonzero" transform="translate(20 280)">
                    <use fill="#000" filter="url(#e75jdw38bc)" xlink:href="#2kmedi25nd"/>
                    <use fill="#BD8F72" xlink:href="#2kmedi25nd"/>
                    <circle cx="79" cy="79" r="67.509" fill="#FFF"/>
                    <path fill="#E9D6CA" d="M146.131 71.817c.25 2.36.378 4.757.378 7.183 0 10.841-2.555 21.086-7.097 30.164H18.588C14.046 100.086 11.49 89.84 11.49 79c0-2.426.128-4.823.378-7.183z"/>
                </g>
                <text fill="#000" font-family="NotoSansCJKkr-Bold, Noto Sans CJK KR" font-size="16" font-weight="bold" transform="translate(20 280)">
                    <tspan x="54.248" y="96">Badge</tspan>
                </text>
                <g>
                    <g transform="translate(20 280) translate(52.127 40) translate(18.328)">
                        <mask id="p08me8b82f" fill="#fff">
                            <use xlink:href="#tfvgdmu1ve"/>
                        </mask>
                        <path fill="#E1002A" d="M7.001 2.69c-.181-.11-.376-.21-.583-.302-.208-.092-.42-.17-.639-.235-.218-.066-.436-.116-.656-.153-.219-.037-.43-.055-.631-.055-.268 0-.516.023-.742.07-.226.046-.422.117-.586.212-.164.094-.293.213-.386.356-.092.143-.138.308-.138.498 0 .141.021.268.062.38.043.112.1.212.172.301.072.089.155.168.249.24.093.07.192.135.296.195.25.141.513.283.787.426l.82.428c.272.143.537.287.793.43.254.144.49.288.706.429.289.19.533.387.732.596.2.208.36.426.485.656.124.231.213.472.268.726.054.253.082.516.082.79 0 .397-.057.755-.17 1.076-.115.321-.274.608-.477.858-.203.252-.444.47-.722.654-.28.183-.582.335-.909.454-.328.119-.672.207-1.035.265-.361.058-.729.086-1.1.086-.358 0-.714-.019-1.067-.058-.354-.04-.706-.11-1.058-.208-.175-.051-.345-.106-.508-.166-.164-.059-.308-.133-.433-.223s-.226-.199-.3-.33C.236 10.954.2 10.79.2 10.595c0-.152.029-.287.084-.403.056-.116.134-.214.234-.293.099-.08.216-.139.35-.178.135-.04.278-.06.43-.06.148 0 .293.02.435.058.144.039.284.081.422.13.297.098.59.168.88.21.288.04.548.062.782.062.225 0 .449-.02.671-.054.222-.035.421-.1.597-.19.175-.093.318-.218.428-.379.11-.159.164-.365.164-.617 0-.126-.019-.243-.057-.347-.04-.105-.092-.2-.157-.287-.064-.086-.14-.163-.224-.233-.086-.07-.176-.134-.271-.193-.119-.073-.262-.157-.431-.25-.168-.093-.347-.19-.536-.29-.189-.1-.381-.202-.577-.303l-.556-.289c-.175-.091-.332-.173-.47-.248-.139-.075-.245-.135-.32-.18-.289-.178-.55-.363-.783-.556-.234-.192-.433-.404-.597-.638-.165-.233-.292-.495-.381-.787-.09-.29-.135-.623-.135-.996 0-.402.058-.76.174-1.071.115-.313.274-.586.477-.82.204-.235.443-.434.717-.598.274-.165.57-.296.89-.397.317-.1.65-.172.996-.219.346-.045.692-.067 1.039-.067.348 0 .688.018 1.017.057.329.038.642.092.941.161.298.069.578.152.838.249.262.095.5.2.717.313L7 2.69z" mask="url(#p08me8b82f)"/>
                    </g>
                    <path fill="#E1002A" d="M30.929.14v7.018c0 .363.008.685.023.964.016.28.047.529.094.743.045.214.108.402.186.56.077.157.18.296.306.415.121.116.252.21.39.28.138.073.279.126.42.164.143.037.285.064.426.076.142.013.276.02.403.02.115 0 .24-.013.377-.037.138-.024.276-.063.414-.113.138-.05.273-.116.406-.196.132-.08.253-.175.363-.285.115-.116.207-.251.274-.405.069-.155.12-.337.156-.551.037-.213.06-.46.07-.742.01-.282.015-.608.015-.98V1.127c0-.182.03-.343.088-.484.059-.14.142-.26.249-.356.106-.094.231-.167.375-.215.146-.048.302-.072.472-.072.179 0 .34.027.486.08.146.05.27.125.374.223.104.098.184.216.24.355.057.14.084.296.084.47v5.89c0 .131 0 .266-.002.406-.001.14-.003.25-.006.334-.009.373-.042.733-.1 1.08-.058.35-.153.685-.285 1.01-.19.469-.434.857-.728 1.167-.295.312-.624.56-.984.747-.36.188-.744.32-1.15.399-.406.078-.813.117-1.223.117-.32 0-.648-.025-.984-.072-.335-.047-.664-.128-.985-.239-.322-.112-.628-.258-.921-.438-.292-.18-.555-.403-.789-.666-.204-.229-.37-.464-.498-.707-.13-.242-.23-.494-.303-.756-.074-.26-.125-.533-.154-.815-.028-.284-.045-.579-.048-.887-.003-.114-.003-.225-.003-.335V.139h2.472zM43.468.472l2.376 4.412.309.581c.115.218.236.45.364.7.128.248.261.509.398.783s.274.552.41.833c.138.28.271.563.403.847.13.284.254.56.37.83h.07c-.046-.417-.088-.826-.124-1.229-.037-.402-.068-.808-.094-1.22-.026-.411-.046-.835-.058-1.271-.014-.436-.02-.896-.02-1.382V.472h2.289v10.161c0 .336-.048.601-.144.797-.07.142-.16.264-.27.368-.109.104-.231.19-.366.257-.135.07-.282.12-.437.154-.156.034-.316.05-.479.05-.332 0-.641-.083-.928-.248-.287-.166-.537-.44-.75-.82l-1.974-3.53c-.169-.301-.34-.614-.515-.94-.175-.324-.355-.672-.54-1.045-.185-.372-.375-.773-.572-1.205-.197-.431-.4-.903-.61-1.417h-.082c.05.439.093.882.133 1.328.039.446.072.884.098 1.318.026.432.047.856.06 1.269.013.413.018.809.018 1.186v2.858c0 .204-.022.376-.066.517-.046.14-.117.268-.213.38-.093.111-.21.2-.352.266-.14.068-.312.102-.513.102s-.373-.034-.515-.102c-.143-.066-.26-.155-.354-.265-.096-.113-.166-.24-.21-.38-.043-.142-.066-.314-.066-.518V.473h2.954zM55.466.472V10.93c0 .217-.024.4-.071.55-.048.15-.122.286-.22.405-.098.12-.223.215-.375.287-.152.07-.331.106-.54.106-.208 0-.388-.035-.54-.106-.152-.072-.277-.167-.375-.287-.099-.119-.17-.254-.219-.404-.048-.151-.071-.334-.071-.551V.472h2.411z" transform="translate(20 280) translate(52.127 40)"/>
                    <path fill="#000" d="M4.487 11.955l-.84.323.017-.149.045-.39.04-.37.284-2.373.04-.27c.015-.14.022-.277.022-.412 0-.341-.11-.512-.333-.512-.347 0-.752.332-1.214.993-.46.663-.728 1.293-.8 1.892l-.144 1.268-.845.323.016-.149.046-.39.045-.37.29-2.452.033-.28c.027-.218.04-.395.04-.528 0-.226-.06-.338-.181-.338-.284 0-.59.299-.918.898C.043 8.602 0 8.543 0 8.495c0-.212.207-.5.62-.865.413-.364.74-.547.982-.547.324 0 .486.194.486.581 0 .1-.01.231-.028.397l-.046.428-.046.36-.047.374.159-.232c.845-1.272 1.63-1.908 2.357-1.908.35 0 .526.237.526.709 0 .08-.015.252-.045.512l-.057.486-.078.66c.35-.68.765-1.244 1.246-1.693.48-.45.908-.674 1.285-.674.373 0 .56.226.56.677 0 .193-.022.424-.066.692l-.3 1.96c-.067.405-.1.72-.1.941 0 .186.055.28.165.28.129 0 .29-.1.486-.3.195-.202.351-.43.469-.683.103.064.154.121.154.175 0 .221-.212.519-.634.893-.42.373-.757.56-1.007.56-.32 0-.481-.201-.481-.603 0-.253.04-.646.124-1.178l.202-1.274c.006-.046.02-.146.039-.3.007-.064.02-.172.04-.323.017-.151.028-.268.028-.349 0-.3-.106-.449-.317-.449-.352 0-.763.332-1.231.993-.468.663-.737 1.293-.808 1.892l-.15 1.268zM13.377 10.172c-.388.676-.795 1.236-1.218 1.677-.425.44-.772.662-1.04.662-.37 0-.574-.371-.611-1.113l-.041-.766-.074-1.56-.018-.445c-.034-.591-.147-.888-.34-.888-.3 0-.59.271-.874.811-.1-.066-.15-.137-.15-.215 0-.199.186-.456.559-.772.373-.316.676-.474.911-.474.242 0 .413.104.513.312.1.208.165.591.196 1.15l.106 1.93c.038.735.16 1.103.368 1.103.31 0 .695-.341 1.154-1.024.46-.682.755-1.352.885-2.01l.223-1.124 1.026-.343c-.13.324-.265.813-.403 1.467l-.772 3.699c-.302 1.447-.771 2.517-1.404 3.208C11.425 16.486 10.327 17 9.08 17c-.261 0-.555-.056-.88-.167l.708-.748c.36.154.737.231 1.129.231.798 0 1.397-.248 1.797-.743.4-.495.733-1.404 1.003-2.726l.54-2.675z" transform="translate(20 280) translate(52.127 40)"/>
                </g>
                <path fill="#BD8F72" fill-rule="nonzero" d="M6.5 9.75L2.733 11.759 3.452 7.504 0.405 4.491 4.616 3.871 6.5 0 8.384 3.871 12.595 4.491 9.548 7.504 10.267 11.759z" transform="translate(20 280) translate(73 119)"/>
                <text fill="#666" font-family="NotoSansCJKkr-Regular, Noto Sans CJK KR" font-size="20" letter-spacing="-.6" transform="translate(20 280)">
                    <tspan x="389" y="201">- 해당 분야를 관련 업무에 적용 가능한 수준</tspan>
                </text>
                <text fill="#666" font-family="NotoSansCJKkr-Regular, Noto Sans CJK KR" font-size="20" letter-spacing="-.6" transform="translate(20 280)">
                    <tspan x="389" y="234">- 유관 업무를 담당하는 Junior 수준 Badge</tspan>
                </text>
                <text fill="#B3BBC2" font-family="NotoSansCJKkr-Regular, Noto Sans CJK KR" font-size="20" transform="translate(20 280)">
                    <tspan x="625" y="69">Lv.2</tspan>
                </text>
                <path fill="#B3BBC2" fill-rule="nonzero" d="M12 18L4.947 21.708 6.294 13.854 0.587 8.292 8.473 7.146 12 0 15.527 7.146 23.413 8.292 17.706 13.854 19.053 21.708z" transform="translate(20 280) translate(567 49)"/>
                <path fill="#B3BBC2" fill-rule="nonzero" d="M12 18L4.947 21.708 6.294 13.854 0.587 8.292 8.473 7.146 12 0 15.527 7.146 23.413 8.292 17.706 13.854 19.053 21.708z" transform="translate(20 280) translate(595 49)"/>
                <text fill="#222" font-family="NotoSansCJKkr-Bold, Noto Sans CJK KR" font-size="20" font-weight="bold" letter-spacing="-.6" transform="translate(20 280)">
                    <tspan x="567" y="107">적용</tspan>
                </text>
                <g>
                    <g fill-rule="nonzero" transform="translate(20 280) translate(826)">
                        <use fill="#000" filter="url(#209wf4iyfg)" xlink:href="#c34wbirgah"/>
                        <use fill="#EDA739" xlink:href="#c34wbirgah"/>
                        <circle cx="79" cy="79" r="67.509" fill="#FFF"/>
                        <path fill="#F3E5BB" d="M146.131 71.817c.25 2.36.378 4.757.378 7.183 0 10.841-2.555 21.086-7.097 30.164H18.588C14.046 100.086 11.49 89.84 11.49 79c0-2.426.128-4.823.378-7.183z"/>
                    </g>
                    <text fill="#000" font-family="NotoSansCJKkr-Bold, Noto Sans CJK KR" font-size="16" font-weight="bold" transform="translate(20 280) translate(826)">
                        <tspan x="54.248" y="96">Badge</tspan>
                    </text>
                    <g>
                        <g transform="translate(20 280) translate(826) translate(52.127 40) translate(18.328)">
                            <mask id="ayx2z08iej" fill="#fff">
                                <use xlink:href="#kh5h2nyfxi"/>
                            </mask>
                            <path fill="#E1002A" d="M7.001 2.69c-.181-.11-.376-.21-.583-.302-.208-.092-.42-.17-.639-.235-.218-.066-.436-.116-.656-.153-.219-.037-.43-.055-.631-.055-.268 0-.516.023-.742.07-.226.046-.422.117-.586.212-.164.094-.293.213-.386.356-.092.143-.138.308-.138.498 0 .141.021.268.062.38.043.112.1.212.172.301.072.089.155.168.249.24.093.07.192.135.296.195.25.141.513.283.787.426l.82.428c.272.143.537.287.793.43.254.144.49.288.706.429.289.19.533.387.732.596.2.208.36.426.485.656.124.231.213.472.268.726.054.253.082.516.082.79 0 .397-.057.755-.17 1.076-.115.321-.274.608-.477.858-.203.252-.444.47-.722.654-.28.183-.582.335-.909.454-.328.119-.672.207-1.035.265-.361.058-.729.086-1.1.086-.358 0-.714-.019-1.067-.058-.354-.04-.706-.11-1.058-.208-.175-.051-.345-.106-.508-.166-.164-.059-.308-.133-.433-.223s-.226-.199-.3-.33C.236 10.954.2 10.79.2 10.595c0-.152.029-.287.084-.403.056-.116.134-.214.234-.293.099-.08.216-.139.35-.178.135-.04.278-.06.43-.06.148 0 .293.02.435.058.144.039.284.081.422.13.297.098.59.168.88.21.288.04.548.062.782.062.225 0 .449-.02.671-.054.222-.035.421-.1.597-.19.175-.093.318-.218.428-.379.11-.159.164-.365.164-.617 0-.126-.019-.243-.057-.347-.04-.105-.092-.2-.157-.287-.064-.086-.14-.163-.224-.233-.086-.07-.176-.134-.271-.193-.119-.073-.262-.157-.431-.25-.168-.093-.347-.19-.536-.29-.189-.1-.381-.202-.577-.303l-.556-.289c-.175-.091-.332-.173-.47-.248-.139-.075-.245-.135-.32-.18-.289-.178-.55-.363-.783-.556-.234-.192-.433-.404-.597-.638-.165-.233-.292-.495-.381-.787-.09-.29-.135-.623-.135-.996 0-.402.058-.76.174-1.071.115-.313.274-.586.477-.82.204-.235.443-.434.717-.598.274-.165.57-.296.89-.397.317-.1.65-.172.996-.219.346-.045.692-.067 1.039-.067.348 0 .688.018 1.017.057.329.038.642.092.941.161.298.069.578.152.838.249.262.095.5.2.717.313L7 2.69z" mask="url(#ayx2z08iej)"/>
                        </g>
                        <path fill="#E1002A" d="M30.929.14v7.018c0 .363.008.685.023.964.016.28.047.529.094.743.045.214.108.402.186.56.077.157.18.296.306.415.121.116.252.21.39.28.138.073.279.126.42.164.143.037.285.064.426.076.142.013.276.02.403.02.115 0 .24-.013.377-.037.138-.024.276-.063.414-.113.138-.05.273-.116.406-.196.132-.08.253-.175.363-.285.115-.116.207-.251.274-.405.069-.155.12-.337.156-.551.037-.213.06-.46.07-.742.01-.282.015-.608.015-.98V1.127c0-.182.03-.343.088-.484.059-.14.142-.26.249-.356.106-.094.231-.167.375-.215.146-.048.302-.072.472-.072.179 0 .34.027.486.08.146.05.27.125.374.223.104.098.184.216.24.355.057.14.084.296.084.47v5.89c0 .131 0 .266-.002.406-.001.14-.003.25-.006.334-.009.373-.042.733-.1 1.08-.058.35-.153.685-.285 1.01-.19.469-.434.857-.728 1.167-.295.312-.624.56-.984.747-.36.188-.744.32-1.15.399-.406.078-.813.117-1.223.117-.32 0-.648-.025-.984-.072-.335-.047-.664-.128-.985-.239-.322-.112-.628-.258-.921-.438-.292-.18-.555-.403-.789-.666-.204-.229-.37-.464-.498-.707-.13-.242-.23-.494-.303-.756-.074-.26-.125-.533-.154-.815-.028-.284-.045-.579-.048-.887-.003-.114-.003-.225-.003-.335V.139h2.472zM43.468.472l2.376 4.412.309.581c.115.218.236.45.364.7.128.248.261.509.398.783s.274.552.41.833c.138.28.271.563.403.847.13.284.254.56.37.83h.07c-.046-.417-.088-.826-.124-1.229-.037-.402-.068-.808-.094-1.22-.026-.411-.046-.835-.058-1.271-.014-.436-.02-.896-.02-1.382V.472h2.289v10.161c0 .336-.048.601-.144.797-.07.142-.16.264-.27.368-.109.104-.231.19-.366.257-.135.07-.282.12-.437.154-.156.034-.316.05-.479.05-.332 0-.641-.083-.928-.248-.287-.166-.537-.44-.75-.82l-1.974-3.53c-.169-.301-.34-.614-.515-.94-.175-.324-.355-.672-.54-1.045-.185-.372-.375-.773-.572-1.205-.197-.431-.4-.903-.61-1.417h-.082c.05.439.093.882.133 1.328.039.446.072.884.098 1.318.026.432.047.856.06 1.269.013.413.018.809.018 1.186v2.858c0 .204-.022.376-.066.517-.046.14-.117.268-.213.38-.093.111-.21.2-.352.266-.14.068-.312.102-.513.102s-.373-.034-.515-.102c-.143-.066-.26-.155-.354-.265-.096-.113-.166-.24-.21-.38-.043-.142-.066-.314-.066-.518V.473h2.954zM55.466.472V10.93c0 .217-.024.4-.071.55-.048.15-.122.286-.22.405-.098.12-.223.215-.375.287-.152.07-.331.106-.54.106-.208 0-.388-.035-.54-.106-.152-.072-.277-.167-.375-.287-.099-.119-.17-.254-.219-.404-.048-.151-.071-.334-.071-.551V.472h2.411z" transform="translate(20 280) translate(826) translate(52.127 40)"/>
                        <path fill="#000" d="M4.487 11.955l-.84.323.017-.149.045-.39.04-.37.284-2.373.04-.27c.015-.14.022-.277.022-.412 0-.341-.11-.512-.333-.512-.347 0-.752.332-1.214.993-.46.663-.728 1.293-.8 1.892l-.144 1.268-.845.323.016-.149.046-.39.045-.37.29-2.452.033-.28c.027-.218.04-.395.04-.528 0-.226-.06-.338-.181-.338-.284 0-.59.299-.918.898C.043 8.602 0 8.543 0 8.495c0-.212.207-.5.62-.865.413-.364.74-.547.982-.547.324 0 .486.194.486.581 0 .1-.01.231-.028.397l-.046.428-.046.36-.047.374.159-.232c.845-1.272 1.63-1.908 2.357-1.908.35 0 .526.237.526.709 0 .08-.015.252-.045.512l-.057.486-.078.66c.35-.68.765-1.244 1.246-1.693.48-.45.908-.674 1.285-.674.373 0 .56.226.56.677 0 .193-.022.424-.066.692l-.3 1.96c-.067.405-.1.72-.1.941 0 .186.055.28.165.28.129 0 .29-.1.486-.3.195-.202.351-.43.469-.683.103.064.154.121.154.175 0 .221-.212.519-.634.893-.42.373-.757.56-1.007.56-.32 0-.481-.201-.481-.603 0-.253.04-.646.124-1.178l.202-1.274c.006-.046.02-.146.039-.3.007-.064.02-.172.04-.323.017-.151.028-.268.028-.349 0-.3-.106-.449-.317-.449-.352 0-.763.332-1.231.993-.468.663-.737 1.293-.808 1.892l-.15 1.268zM13.377 10.172c-.388.676-.795 1.236-1.218 1.677-.425.44-.772.662-1.04.662-.37 0-.574-.371-.611-1.113l-.041-.766-.074-1.56-.018-.445c-.034-.591-.147-.888-.34-.888-.3 0-.59.271-.874.811-.1-.066-.15-.137-.15-.215 0-.199.186-.456.559-.772.373-.316.676-.474.911-.474.242 0 .413.104.513.312.1.208.165.591.196 1.15l.106 1.93c.038.735.16 1.103.368 1.103.31 0 .695-.341 1.154-1.024.46-.682.755-1.352.885-2.01l.223-1.124 1.026-.343c-.13.324-.265.813-.403 1.467l-.772 3.699c-.302 1.447-.771 2.517-1.404 3.208C11.425 16.486 10.327 17 9.08 17c-.261 0-.555-.056-.88-.167l.708-.748c.36.154.737.231 1.129.231.798 0 1.397-.248 1.797-.743.4-.495.733-1.404 1.003-2.726l.54-2.675z" transform="translate(20 280) translate(826) translate(52.127 40)"/>
                    </g>
                    <g fill="#EDA739" fill-rule="nonzero">
                        <path d="M6.409 9.75L2.642 11.759 3.361 7.504.314 4.491 4.526 3.871 6.409 0 8.293 3.871 12.504 4.491 9.457 7.504 10.176 11.759zM23.5 9.75L19.733 11.759 20.452 7.504 17.405 4.491 21.616 3.871 23.5 0 25.384 3.871 29.595 4.491 26.548 7.504 27.267 11.759zM40.591 9.75L36.824 11.759 37.543 7.504 34.496 4.491 38.707 3.871 40.591 0 42.474 3.871 46.686 4.491 43.639 7.504 44.358 11.759z" transform="translate(20 280) translate(826) translate(56 119)"/>
                    </g>
                </g>
                <g>
                    <g fill-rule="nonzero" transform="translate(20 280) translate(389)">
                        <use fill="#000" filter="url(#v3tk2qwgbk)" xlink:href="#qwy96fgg9l"/>
                        <use fill="#B3BBC2" xlink:href="#qwy96fgg9l"/>
                        <circle cx="79" cy="79" r="67.509" fill="#FFF"/>
                        <path fill="#DADFE3" d="M146.131 71.817c.25 2.36.378 4.757.378 7.183 0 10.841-2.555 21.086-7.097 30.164H18.588C14.046 100.086 11.49 89.84 11.49 79c0-2.426.128-4.823.378-7.183z"/>
                    </g>
                    <text fill="#000" font-family="NotoSansCJKkr-Bold, Noto Sans CJK KR" font-size="16" font-weight="bold" transform="translate(20 280) translate(389)">
                        <tspan x="54.248" y="96">Badge</tspan>
                    </text>
                    <g>
                        <g transform="translate(20 280) translate(389) translate(52.127 40) translate(18.328)">
                            <mask id="cg7yna8t1n" fill="#fff">
                                <use xlink:href="#qwy0i928ym"/>
                            </mask>
                            <path fill="#E1002A" d="M7.001 2.69c-.181-.11-.376-.21-.583-.302-.208-.092-.42-.17-.639-.235-.218-.066-.436-.116-.656-.153-.219-.037-.43-.055-.631-.055-.268 0-.516.023-.742.07-.226.046-.422.117-.586.212-.164.094-.293.213-.386.356-.092.143-.138.308-.138.498 0 .141.021.268.062.38.043.112.1.212.172.301.072.089.155.168.249.24.093.07.192.135.296.195.25.141.513.283.787.426l.82.428c.272.143.537.287.793.43.254.144.49.288.706.429.289.19.533.387.732.596.2.208.36.426.485.656.124.231.213.472.268.726.054.253.082.516.082.79 0 .397-.057.755-.17 1.076-.115.321-.274.608-.477.858-.203.252-.444.47-.722.654-.28.183-.582.335-.909.454-.328.119-.672.207-1.035.265-.361.058-.729.086-1.1.086-.358 0-.714-.019-1.067-.058-.354-.04-.706-.11-1.058-.208-.175-.051-.345-.106-.508-.166-.164-.059-.308-.133-.433-.223s-.226-.199-.3-.33C.236 10.954.2 10.79.2 10.595c0-.152.029-.287.084-.403.056-.116.134-.214.234-.293.099-.08.216-.139.35-.178.135-.04.278-.06.43-.06.148 0 .293.02.435.058.144.039.284.081.422.13.297.098.59.168.88.21.288.04.548.062.782.062.225 0 .449-.02.671-.054.222-.035.421-.1.597-.19.175-.093.318-.218.428-.379.11-.159.164-.365.164-.617 0-.126-.019-.243-.057-.347-.04-.105-.092-.2-.157-.287-.064-.086-.14-.163-.224-.233-.086-.07-.176-.134-.271-.193-.119-.073-.262-.157-.431-.25-.168-.093-.347-.19-.536-.29-.189-.1-.381-.202-.577-.303l-.556-.289c-.175-.091-.332-.173-.47-.248-.139-.075-.245-.135-.32-.18-.289-.178-.55-.363-.783-.556-.234-.192-.433-.404-.597-.638-.165-.233-.292-.495-.381-.787-.09-.29-.135-.623-.135-.996 0-.402.058-.76.174-1.071.115-.313.274-.586.477-.82.204-.235.443-.434.717-.598.274-.165.57-.296.89-.397.317-.1.65-.172.996-.219.346-.045.692-.067 1.039-.067.348 0 .688.018 1.017.057.329.038.642.092.941.161.298.069.578.152.838.249.262.095.5.2.717.313L7 2.69z" mask="url(#cg7yna8t1n)"/>
                        </g>
                        <path fill="#E1002A" d="M30.929.14v7.018c0 .363.008.685.023.964.016.28.047.529.094.743.045.214.108.402.186.56.077.157.18.296.306.415.121.116.252.21.39.28.138.073.279.126.42.164.143.037.285.064.426.076.142.013.276.02.403.02.115 0 .24-.013.377-.037.138-.024.276-.063.414-.113.138-.05.273-.116.406-.196.132-.08.253-.175.363-.285.115-.116.207-.251.274-.405.069-.155.12-.337.156-.551.037-.213.06-.46.07-.742.01-.282.015-.608.015-.98V1.127c0-.182.03-.343.088-.484.059-.14.142-.26.249-.356.106-.094.231-.167.375-.215.146-.048.302-.072.472-.072.179 0 .34.027.486.08.146.05.27.125.374.223.104.098.184.216.24.355.057.14.084.296.084.47v5.89c0 .131 0 .266-.002.406-.001.14-.003.25-.006.334-.009.373-.042.733-.1 1.08-.058.35-.153.685-.285 1.01-.19.469-.434.857-.728 1.167-.295.312-.624.56-.984.747-.36.188-.744.32-1.15.399-.406.078-.813.117-1.223.117-.32 0-.648-.025-.984-.072-.335-.047-.664-.128-.985-.239-.322-.112-.628-.258-.921-.438-.292-.18-.555-.403-.789-.666-.204-.229-.37-.464-.498-.707-.13-.242-.23-.494-.303-.756-.074-.26-.125-.533-.154-.815-.028-.284-.045-.579-.048-.887-.003-.114-.003-.225-.003-.335V.139h2.472zM43.468.472l2.376 4.412.309.581c.115.218.236.45.364.7.128.248.261.509.398.783s.274.552.41.833c.138.28.271.563.403.847.13.284.254.56.37.83h.07c-.046-.417-.088-.826-.124-1.229-.037-.402-.068-.808-.094-1.22-.026-.411-.046-.835-.058-1.271-.014-.436-.02-.896-.02-1.382V.472h2.289v10.161c0 .336-.048.601-.144.797-.07.142-.16.264-.27.368-.109.104-.231.19-.366.257-.135.07-.282.12-.437.154-.156.034-.316.05-.479.05-.332 0-.641-.083-.928-.248-.287-.166-.537-.44-.75-.82l-1.974-3.53c-.169-.301-.34-.614-.515-.94-.175-.324-.355-.672-.54-1.045-.185-.372-.375-.773-.572-1.205-.197-.431-.4-.903-.61-1.417h-.082c.05.439.093.882.133 1.328.039.446.072.884.098 1.318.026.432.047.856.06 1.269.013.413.018.809.018 1.186v2.858c0 .204-.022.376-.066.517-.046.14-.117.268-.213.38-.093.111-.21.2-.352.266-.14.068-.312.102-.513.102s-.373-.034-.515-.102c-.143-.066-.26-.155-.354-.265-.096-.113-.166-.24-.21-.38-.043-.142-.066-.314-.066-.518V.473h2.954zM55.466.472V10.93c0 .217-.024.4-.071.55-.048.15-.122.286-.22.405-.098.12-.223.215-.375.287-.152.07-.331.106-.54.106-.208 0-.388-.035-.54-.106-.152-.072-.277-.167-.375-.287-.099-.119-.17-.254-.219-.404-.048-.151-.071-.334-.071-.551V.472h2.411z" transform="translate(20 280) translate(389) translate(52.127 40)"/>
                        <path fill="#000" d="M4.487 11.955l-.84.323.017-.149.045-.39.04-.37.284-2.373.04-.27c.015-.14.022-.277.022-.412 0-.341-.11-.512-.333-.512-.347 0-.752.332-1.214.993-.46.663-.728 1.293-.8 1.892l-.144 1.268-.845.323.016-.149.046-.39.045-.37.29-2.452.033-.28c.027-.218.04-.395.04-.528 0-.226-.06-.338-.181-.338-.284 0-.59.299-.918.898C.043 8.602 0 8.543 0 8.495c0-.212.207-.5.62-.865.413-.364.74-.547.982-.547.324 0 .486.194.486.581 0 .1-.01.231-.028.397l-.046.428-.046.36-.047.374.159-.232c.845-1.272 1.63-1.908 2.357-1.908.35 0 .526.237.526.709 0 .08-.015.252-.045.512l-.057.486-.078.66c.35-.68.765-1.244 1.246-1.693.48-.45.908-.674 1.285-.674.373 0 .56.226.56.677 0 .193-.022.424-.066.692l-.3 1.96c-.067.405-.1.72-.1.941 0 .186.055.28.165.28.129 0 .29-.1.486-.3.195-.202.351-.43.469-.683.103.064.154.121.154.175 0 .221-.212.519-.634.893-.42.373-.757.56-1.007.56-.32 0-.481-.201-.481-.603 0-.253.04-.646.124-1.178l.202-1.274c.006-.046.02-.146.039-.3.007-.064.02-.172.04-.323.017-.151.028-.268.028-.349 0-.3-.106-.449-.317-.449-.352 0-.763.332-1.231.993-.468.663-.737 1.293-.808 1.892l-.15 1.268zM13.377 10.172c-.388.676-.795 1.236-1.218 1.677-.425.44-.772.662-1.04.662-.37 0-.574-.371-.611-1.113l-.041-.766-.074-1.56-.018-.445c-.034-.591-.147-.888-.34-.888-.3 0-.59.271-.874.811-.1-.066-.15-.137-.15-.215 0-.199.186-.456.559-.772.373-.316.676-.474.911-.474.242 0 .413.104.513.312.1.208.165.591.196 1.15l.106 1.93c.038.735.16 1.103.368 1.103.31 0 .695-.341 1.154-1.024.46-.682.755-1.352.885-2.01l.223-1.124 1.026-.343c-.13.324-.265.813-.403 1.467l-.772 3.699c-.302 1.447-.771 2.517-1.404 3.208C11.425 16.486 10.327 17 9.08 17c-.261 0-.555-.056-.88-.167l.708-.748c.36.154.737.231 1.129.231.798 0 1.397-.248 1.797-.743.4-.495.733-1.404 1.003-2.726l.54-2.675z" transform="translate(20 280) translate(389) translate(52.127 40)"/>
                    </g>
                    <g fill="#B3BBC2" fill-rule="nonzero">
                        <path d="M6.429 9.75L2.65 11.759 3.372 7.504.315 4.491 4.539 3.871 6.429 0 8.318 3.871 12.543 4.491 9.486 7.504 10.207 11.759zM23.571 9.75L19.793 11.759 20.514 7.504 17.457 4.491 21.682 3.871 23.571 0 25.461 3.871 29.685 4.491 26.628 7.504 27.35 11.759z" transform="translate(20 280) translate(389) translate(64 119)"/>
                    </g>
                </g>
                <text fill="#666" font-family="NotoSansCJKkr-Regular, Noto Sans CJK KR" font-size="20" letter-spacing="-.6" transform="translate(20 280)">
                    <tspan x="828" y="201">- 해당 분야 업무를 L/H/C 할 수 있는 수준</tspan>
                </text>
                <text fill="#666" font-family="NotoSansCJKkr-Regular, Noto Sans CJK KR" font-size="20" letter-spacing="-.6" transform="translate(20 280)">
                    <tspan x="828" y="234">- 유관 업무를 담당하는 관리자 수준 Badge</tspan>
                </text>
                <text fill="#EDA739" font-family="NotoSansCJKkr-Regular, Noto Sans CJK KR" font-size="20" transform="translate(20 280)">
                    <tspan x="1091" y="69">Lv.3</tspan>
                </text>
                <path fill="#EDA739" fill-rule="nonzero" d="M12 18L4.947 21.708 6.294 13.854 0.587 8.292 8.473 7.146 12 0 15.527 7.146 23.413 8.292 17.706 13.854 19.053 21.708z" transform="translate(20 280) translate(1006 48)"/>
                <g fill="#EDA739" fill-rule="nonzero">
                    <path d="M12 18L4.947 21.708 6.294 13.854 0.587 8.292 8.473 7.146 12 0 15.527 7.146 23.413 8.292 17.706 13.854 19.053 21.708z" transform="translate(20 280) translate(1033 48)"/>
                </g>
                <g fill="#EDA739" fill-rule="nonzero">
                    <path d="M12 18L4.947 21.708 6.294 13.854 0.587 8.292 8.473 7.146 12 0 15.527 7.146 23.413 8.292 17.706 13.854 19.053 21.708z" transform="translate(20 280) translate(1061 48)"/>
                </g>
                <text fill="#222" font-family="NotoSansCJKkr-Bold, Noto Sans CJK KR" font-size="20" font-weight="bold" letter-spacing="-.6" transform="translate(20 280)">
                    <tspan x="1006" y="107">응용</tspan>
                </text>
            </g>
            <g stroke="#222" stroke-dasharray="4" stroke-linecap="square">
                <path d="M0.5 91.538L0.5 0.5" transform="translate(89 177) matrix(1 0 0 -1 0 92)"/>
                <path d="M838.5 47.003L0.5 47.003" transform="translate(89 177) matrix(1 0 0 -1 0 93.503)"/>
                <path d="M399 91.511L398.5 46.489" transform="translate(89 177) matrix(1 0 0 -1 0 138)"/>
                <path d="M838 91.511L837.5 46.489" transform="translate(89 177) matrix(1 0 0 -1 0 138)"/>
            </g>
            <text fill="#666" font-family="NotoSansCJKkr-Regular, Noto Sans CJK KR" font-size="20" letter-spacing="-.6">
                <tspan x="220" y="82">- 해당 분야의 역량을 일정 수준 확보했음을 인증</tspan> <tspan x="220" y="118">- Badge가 제시한 全 과정을 이수하고 특정 요건(Test, Report 작성 등)을 충족하면 획득</tspan> <tspan x="220" y="154">- 학습난이도와 역량 수준에 따라 3종류로 구분</tspan>
            </text>
            <text fill="#FF664D" font-family="NotoSansCJKkr-Bold, Noto Sans CJK KR" font-size="20" font-weight="bold">
                <tspan x="220.06" y="37">Badge</tspan>
            </text>
            <use fill="#FFF" stroke="#222" stroke-dasharray="4" stroke-width="2" mask="url(#lr1ihqgz6o)" xlink:href="#wy4n4k72ka"/>
            <text fill="#222" font-family="NotoSansCJKkr-Bold, Noto Sans CJK KR" font-size="24" font-weight="bold">
                <tspan x="52.372" y="149">Badge</tspan>
            </text>
            <g>
                <path fill="#368279" d="M17 35.066L35.718 81 58 73.934 39.283 28z" transform="translate(62 26)"/>
                <path fill="#419A8F" d="M0 73.382L23.047 80 41 33.618 17.952 27z" transform="translate(62 26)"/>
                <g transform="translate(62 26) translate(1)">
                    <mask id="ludez608gq" fill="#fff">
                        <use xlink:href="#kbvn9tui1p"/>
                    </mask>
                    <path fill="#F4AA4C" d="M.415 27.185C.478 12.259 12.849.209 28.047.27c15.198.061 27.467 12.212 27.404 27.14-.062 14.924-12.435 26.975-27.632 26.914C12.622 54.262.352 42.11.415 27.184" mask="url(#ludez608gq)"/>
                    <path fill="#F9DEBC" d="M8 27.49C8.046 16.682 17.004 7.957 28.01 8c11.004.045 19.89 8.843 19.844 19.653-.046 10.807-9.004 19.533-20.01 19.49C16.84 47.096 7.956 38.298 8 27.49"/>
                    <path fill="#E99B38" fill-rule="nonzero" d="M28 34L20.947 37.708 22.294 29.854 16.587 24.292 24.473 23.146 28 16 31.527 23.146 39.413 24.292 33.706 29.854 35.053 37.708z"/>
                </g>
            </g>
        </g>
        <text fill="#666" font-family="NotoSansCJKkr-Regular, Noto Sans CJK KR" font-size="20" letter-spacing="-.6">
            <tspan x="220" y="82">- 학습/성장 노력에 대한 인증</tspan> <tspan x="220" y="118">- Stamp가 발급되는 Course 이수 시 자동 획득</tspan>
        </text>
        <text fill="#FF664D" font-family="NotoSansCJKkr-Bold, Noto Sans CJK KR" font-size="20" font-weight="bold">
            <tspan x="220.07" y="37">Stamp</tspan>
        </text>
        <use fill="#FFF" stroke="#222" stroke-dasharray="4" stroke-width="2" mask="url(#xwha07yicr)" xlink:href="#lfwwf232rb"/>
        <text fill="#222" font-family="NotoSansCJKkr-Bold, Noto Sans CJK KR" font-size="24" font-weight="bold">
            <tspan x="51.084" y="149">Stamp</tspan>
        </text>
        <g>
            <text fill="#222" font-family="NotoSansCJKkr-Bold, Noto Sans CJK KR" font-size="24" font-weight="bold" letter-spacing="-.6" transform="translate(55 28)">
                <tspan x="29" y="28">s</tspan>
            </text>
            <path fill="#4C4848" d="M10 74H60V79H10z" transform="translate(55 28)"/>
            <path fill="#B97A4C" d="M47.668 47v-4.69c.088-4.27 1.356-8.433 3.669-12.04 4.808-7.972 2.956-18.218-4.35-24.056C41.797 2.04 34.763.87 28.474 3.14c-6.289 2.27-10.901 7.64-12.139 14.134-.872 4.486-.028 9.132 2.368 13.04 2.273 3.489 3.532 7.525 3.64 11.671V47h25.325z" transform="translate(55 28)"/>
            <path fill="#DAAC71" d="M2 57h66c1.105 0 2 .895 2 2v16H0V59c0-1.105.895-2 2-2z" transform="translate(55 28)"/>
            <path fill="#000" d="M48 57H62V75H48zM40 57H44V75H40z" opacity=".065" transform="translate(55 28)"/>
            <path fill="#AE5F26" d="M15 45H55V57H15z" transform="translate(55 28)"/>
            <path fill="#A46D45" d="M22 39H48V42H22z" transform="translate(55 28)"/>
        </g>
    </g>
</svg>
