<svg xmlns="http://www.w3.org/2000/svg" width="49" height="16" viewBox="0 0 49 16">
    <defs>
        <filter id="it82v16bva">
            <feColorMatrix in="SourceGraphic" values="0 0 0 0 1.000000 0 0 0 0 1.000000 0 0 0 0 1.000000 0 0 0 1.000000 0"/>
        </filter>
    </defs>
    <g fill="none" fill-rule="evenodd">
        <g>
            <g>
                <g>
                    <path fill-rule="nonzero" d="M1 1H49V16H1z" transform="translate(-100 -1777) translate(0 1740) translate(100 37)"/>
                    <g filter="url(#it82v16bva)" transform="translate(-100 -1777) translate(0 1740) translate(100 37)">
                        <g fill-rule="nonzero">
                            <path fill="#E1002A" d="M22.57 7.403h-3.443c-.624 0-1.024-.42-1.024-.94 0-.519.4-.939 1.024-.939h4.732c.328.009.636-.16.803-.44.166-.28.166-.628 0-.908-.167-.28-.475-.449-.803-.44h-5.05C17.186 3.736 16 4.956 16 6.464c0 1.507 1.19 2.728 2.808 2.728h3.358c.623 0 1.024.42 1.026.938 0 .519-.403.94-1.026.942H17.17c-.489.013-.879.41-.879.894 0 .485.39.881.88.894h5.424c1.615-.01 2.796-1.228 2.792-2.733-.004-1.504-1.195-2.729-2.817-2.724zm11.24-2.532c-.612 0-1.11.493-1.11 1.1v5.222c0 .592-.484 1.07-1.081 1.071h-2.036c-.597 0-1.082-.48-1.082-1.07V5.967c0-.607-.497-1.1-1.11-1.1-.614 0-1.11.493-1.11 1.1v5.35c0 .71.284 1.39.791 1.893.508.502 1.196.784 1.913.784h3.228c.717 0 1.405-.282 1.912-.784.507-.502.792-1.183.792-1.894V5.968c0-.605-.495-1.096-1.106-1.098v.001zm8.154-2.87h-3.228c-1.493 0-2.704 1.2-2.704 2.678v5.349c0 .607.497 1.1 1.11 1.1.614 0 1.11-.493 1.11-1.1V4.805c0-.284.114-.557.317-.758.203-.2.478-.313.765-.313h2.037c.287 0 .563.112.765.313.203.201.317.474.317.758v5.222c0 .607.497 1.099 1.11 1.099.614 0 1.11-.492 1.11-1.1V4.679c0-.711-.285-1.393-.793-1.895-.508-.503-1.197-.784-1.916-.783v.001zm4.926 2.87c-.614 0-1.11.493-1.11 1.1v6.93c0 .607.496 1.099 1.11 1.099.613 0 1.11-.492 1.11-1.1V5.969c0-.606-.498-1.098-1.11-1.098v.001z" transform="translate(0 1)"/>
                            <path fill="#61C1BE" d="M7.734 6.321c-.124-.198-.353-.32-.601-.32s-.477.122-.601.32l-1.85 2.96-1.85-2.96C2.706 6.122 2.477 6 2.23 6c-.247 0-.476.122-.6.32L.093 8.785c-.124.199-.124.443 0 .642.124.198.353.32.601.32h7.981c.248 0 .478-.122.602-.32.124-.199.124-.443 0-.642L7.734 6.321zm5.568-.32h-3.076c-.248-.001-.477.121-.6.32-.125.198-.125.443 0 .64l1.74 2.785c.081.133.234.216.4.216s.319-.083.4-.216l1.741-2.784c.124-.199.124-.444 0-.643-.126-.198-.356-.32-.605-.319zm-1.54 4.37c-.356 0-.677.198-.814.503-.136.304-.06.654.191.887.252.233.632.303.961.177.33-.126.544-.423.544-.753 0-.45-.394-.814-.881-.814zm0 1.252c-.26 0-.473-.196-.473-.438 0-.241.212-.437.474-.437.261 0 .474.196.474.437 0 .117-.05.228-.139.31-.089.083-.21.13-.335.13v-.002z" transform="translate(0 1)"/>
                            <path stroke="#61C1BE" d="M46.707.529c.285-.057.587-.03.867.085.28.116.512.311.673.553.162.242.253.53.253.833 0 .414-.168.788-.44 1.06-.27.271-.645.44-1.058.44-.304 0-.592-.09-.834-.252-.242-.161-.437-.393-.553-.673-.117-.28-.143-.582-.086-.867.056-.285.196-.554.41-.768.215-.215.483-.354.768-.411z" transform="translate(0 1)"/>
                        </g>
                    </g>
                </g>
            </g>
        </g>
    </g>
</svg>
