<svg xmlns="http://www.w3.org/2000/svg" viewBox="0 0 40.03 22.17"><defs><style>.cls-1{fill:#ea634d;}.cls-2{fill:#bb5137;}.cls-3{fill:#1f1613;}.cls-4,.cls-5,.cls-6{fill:none;}.cls-5,.cls-6,.cls-7{stroke:#6c788f;stroke-miterlimit:10;}.cls-6{stroke-dasharray:3.21 2.14;}.cls-7{fill:#fff;}</style></defs><title>icon-folder-exist-over-01</title><g id="레이어_2" data-name="레이어 2"><g id="Layer_1" data-name="Layer 1"><path class="cls-1" d="M22.66,20.23a1.15,1.15,0,0,0,1.15,1.15H38.24a1.15,1.15,0,0,0,1.15-1.15V13.86a1.14,1.14,0,0,0-1.15-1.15H23.81a1.14,1.14,0,0,0-1.15,1.15Z"/><path class="cls-2" d="M39.39,12.71V10.29a1.15,1.15,0,0,0-1.15-1.16h-6.6a1.17,1.17,0,0,1-1-.51l-.46-.7a1.18,1.18,0,0,0-1-.52H23.81a1.16,1.16,0,0,0-1.15,1.16v4.15Z"/><path class="cls-3" d="M38.24,8.21h-6.6A.52.52,0,0,1,31.21,8l-.47-.71a1.8,1.8,0,0,0-1.48-.79H23.81A1.82,1.82,0,0,0,22,8.4V20.52a1.76,1.76,0,0,0,1.78,1.65H38.24A1.79,1.79,0,0,0,40,20.39V10.13A1.82,1.82,0,0,0,38.24,8.21Zm-15,.06a.52.52,0,0,1,.52-.53h5.45a.54.54,0,0,1,.43.23l.47.71a1.77,1.77,0,0,0,1.48.8h6.6a.52.52,0,0,1,.52.52v2.29a1.77,1.77,0,0,0-.52-.08H23.81a1.82,1.82,0,0,0-.52.08Zm15,12.64H23.81a.52.52,0,0,1-.52-.52V14a.52.52,0,0,1,.52-.52H38.24a.52.52,0,0,1,.52.52v6.39A.52.52,0,0,1,38.24,20.91Z"/><path class="cls-3" d="M34.09,16.56H28a.63.63,0,1,0,0,1.26h6.13a.63.63,0,1,0,0-1.26Z"/><line class="cls-4" x1="9.63" y1="15.25" x2="20.13" y2="15.25"/><line class="cls-5" x1="9.63" y1="15.25" x2="11.13" y2="15.25"/><line class="cls-6" x1="13.27" y1="15.25" x2="17.56" y2="15.25"/><line class="cls-5" x1="18.63" y1="15.25" x2="20.13" y2="15.25"/><line class="cls-4" x1="5" x2="5" y2="10.5"/><line class="cls-5" x1="5" x2="5" y2="1.5"/><line class="cls-6" x1="5" y1="3.64" x2="5" y2="7.93"/><line class="cls-5" x1="5" y1="9" x2="5" y2="10.5"/><rect class="cls-7" x="0.5" y="10.75" width="9" height="9"/><line class="cls-5" x1="2.14" y1="15.25" x2="7.86" y2="15.25"/></g></g></svg>