<svg xmlns="http://www.w3.org/2000/svg" xmlns:xlink="http://www.w3.org/1999/xlink" width="42" height="18" viewBox="0 0 42 18">
    <defs>
        <filter id="k11s6bfeka" width="109.1%" height="109.1%" x="-4.5%" y="-3.6%" filterUnits="objectBoundingBox">
            <feOffset dy="2" in="SourceAlpha" result="shadowOffsetOuter1"/>
            <feGaussianBlur in="shadowOffsetOuter1" result="shadowBlurOuter1" stdDeviation="3"/>
            <feColorMatrix in="shadowBlurOuter1" values="0 0 0 0 0.8 0 0 0 0 0.831372549 0 0 0 0 0.905882353 0 0 0 1 0"/>
        </filter>
        <circle id="glfznjfd5b" cx="110" cy="110" r="110"/>
        <path id="hsn8yedgwc" d="M0 0.012L12.023 0.012 12.023 5.523 0 5.523z"/>
    </defs>
    <g fill="none" fill-rule="evenodd">
        <g>
            <path fill="#F4F7FD" d="M0 0H1400V1687H0z" transform="translate(-518 -517)"/>
            <g>
                <g>
                    <g>
                        <g transform="translate(-518 -517) translate(100 421) translate(0 58) translate(323) translate(6 4)">
                            <g>
                                <use fill="#000" filter="url(#k11s6bfeka)" xlink:href="#glfznjfd5b"/>
                                <use fill="#FFB136" xlink:href="#glfznjfd5b"/>
                            </g>
                            <circle cx="110" cy="110" r="94" fill="#FFF"/>
                            <circle cx="110" cy="110" r="88" stroke="#FFB136"/>
                        </g>
                        <g>
                            <path fill="#E0002B" d="M40.217 4.278c-.525 0-.951.44-.951.981v6.189c0 .542.426.98.951.98.526 0 .951-.438.951-.98V5.259c0-.542-.425-.98-.95-.98m-4.225-2.565h-2.769c-1.28 0-2.319 1.071-2.319 2.392v4.778c0 .541.426.98.951.98.526 0 .951-.439.951-.98V4.22c0-.529.416-.957.928-.957h1.747c.512 0 .928.428.928.957v4.664c0 .541.426.98.951.98.525 0 .951-.439.951-.98V4.106c0-1.32-1.038-2.392-2.32-2.392M29 4.278c-.525 0-.951.44-.951.981v4.664c0 .529-.416.957-.928.957h-1.747c-.512 0-.928-.428-.928-.957V5.26c0-.542-.425-.98-.95-.98-.526 0-.952.438-.952.98v4.778c0 1.32 1.039 2.392 2.32 2.392h2.768c1.28 0 2.32-1.071 2.32-2.392V5.259c0-.542-.427-.98-.952-.98m-9.64 2.26h-2.953c-.535 0-.878-.376-.878-.84 0-.463.343-.839.878-.839h4.06c.429 0 .775-.357.775-.798 0-.441-.346-.8-.774-.8h-4.334c-1.39 0-2.411 1.092-2.411 2.438s1.02 2.437 2.41 2.437h2.88c.535-.001.879.374.88.838 0 .463-.345.84-.88.84h-4.284c-.428 0-.774.358-.774.8 0 .44.346.798.774.798h4.652c1.385-.01 2.398-1.1 2.395-2.442-.003-1.345-1.026-2.435-2.416-2.432" transform="translate(-518 -517) translate(100 421) translate(0 58) translate(323) translate(95 38)"/>
                            <g transform="translate(-518 -517) translate(100 421) translate(0 58) translate(323) translate(95 38) translate(0 4.286)">
                                <mask id="e260k9crvd" fill="#fff">
                                    <use xlink:href="#hsn8yedgwc"/>
                                </mask>
                                <path fill="#60C0BD" d="M10.104 5.176c-.224 0-.407-.18-.407-.402 0-.221.183-.402.407-.402.225 0 .407.18.407.402 0 .222-.182.402-.407.402zm0-1.15c-.417 0-.757.336-.757.748 0 .413.34.749.757.749.418 0 .757-.336.757-.749 0-.412-.34-.748-.757-.748zM11.426.012H8.782c-.459 0-.745.49-.516.883L9.76 3.452c.153.262.535.262.688 0L11.942.895c.23-.392-.057-.883-.516-.883zM6.645.307c-.23-.393-.803-.393-1.033 0L4.024 3.026 2.434.306c-.228-.392-.802-.392-1.031 0L.08 2.57c-.23.393.057.883.516.883H7.45c.46 0 .746-.49.516-.883L6.645.307z" mask="url(#e260k9crvd)"/>
                            </g>
                            <path fill="#60C0BD" d="M40.286.659c-.582 0-1.056.473-1.056 1.055s.474 1.056 1.056 1.056c.582 0 1.055-.474 1.055-1.056 0-.582-.473-1.055-1.055-1.055m0 2.77c-.946 0-1.715-.77-1.715-1.715 0-.945.77-1.714 1.715-1.714C41.23 0 42 .77 42 1.714c0 .946-.769 1.715-1.714 1.715" transform="translate(-518 -517) translate(100 421) translate(0 58) translate(323) translate(95 38)"/>
                            <g fill="#C8C9C9">
                                <path d="M9.659 1.369H8.34c-.191 0-.347-.152-.347-.339 0-.187.156-.338.347-.338h1.852c.195 0 .354-.155.354-.346 0-.19-.159-.346-.354-.346H8.34C7.76 0 7.286.462 7.286 1.03c0 .568.473 1.03 1.055 1.03H9.66c.191 0 .347.152.347.339 0 .187-.156.338-.347.338H7.766c-.196 0-.355.155-.355.346 0 .19.159.346.355.346h1.893c.582 0 1.055-.463 1.055-1.03 0-.568-.473-1.03-1.055-1.03M14.208 0c-.2 0-.363.155-.363.346v1.929c0 .254-.218.462-.486.462h-1.004c-.268 0-.486-.208-.486-.462V.346c0-.19-.162-.346-.363-.346-.2 0-.363.155-.363.346v1.929c0 .636.544 1.154 1.212 1.154h1.004c.669 0 1.212-.518 1.212-1.154V.346c0-.19-.162-.346-.363-.346M19.179 0c-.178 0-.322.155-.322.346v2.737c0 .19.144.346.322.346.177 0 .321-.155.321-.346V.346c0-.191-.144-.346-.321-.346M17.217 0h-1.005C15.544 0 15 .518 15 1.154v1.929c0 .19.163.346.363.346.2 0 .363-.155.363-.346V1.154c0-.255.218-.462.486-.462h1.005c.267 0 .485.207.485.462v1.929c0 .19.163.346.363.346.2 0 .364-.155.364-.346V1.154C18.429.518 17.884 0 17.217 0M2.131.857c-.248 0-.472.121-.63.314C1.34.978 1.116.857.868.857c-.48 0-.869.448-.869.998v1.303c0 .36.475.36.475 0V1.855c0-.599.788-.599.788 0v1.303c0 .36.474.36.474 0V1.855c0-.598.789-.599.789 0v1.303c0 .36.474.36.474 0V1.855c0-.55-.39-.998-.869-.998M5.889.917C5.766.826 5.592.851 5.5.973l-.783 1.048L3.928.968C3.837.846 3.663.821 3.54.912c-.123.092-.148.266-.056.388l.953 1.272v.58c0 .152.124.277.277.277.154 0 .278-.125.278-.277v-.573l.953-1.274c.091-.122.066-.296-.056-.388" transform="translate(-518 -517) translate(100 421) translate(0 58) translate(323) translate(95 38) translate(12.857 14.571)"/>
                            </g>
                        </g>
                    </g>
                </g>
            </g>
        </g>
    </g>
</svg>
