<svg xmlns="http://www.w3.org/2000/svg" width="26" height="26" viewBox="0 0 26 26">
    <defs>
        <filter id="n7pyx4fpha" color-interpolation-filters="auto">
            <feColorMatrix in="SourceGraphic" values="0 0 0 0 0.717647 0 0 0 0 0.752941 0 0 0 0 0.819608 0 0 0 1.000000 0"/>
        </filter>
    </defs>
    <g fill="none" fill-rule="evenodd">
        <g>
            <path fill="#FFF" d="M0 0H1400V1871H0z" transform="translate(-1258.000000, -1323.000000)"/>
            <path fill="#FFF" d="M0 0H1400V1530H0z" transform="translate(-1258.000000, -1323.000000)"/>
            <g>
                <g>
                    <g>
                        <g>
                            <g>
                                <g filter="url(#n7pyx4fpha)" transform="translate(-1258.000000, -1323.000000) translate(410.000000, 137.000000) translate(0.000000, 123.000000) translate(0.000000, 41.000000) translate(0.000000, 926.000000) translate(0.000000, 44.000000) translate(0.000000, 52.000000) translate(784.000000, 0.000000)">
                                    <g transform="translate(64.000000, 0.000000)">
                                        <rect width="25" height="25" x=".5" y=".5" stroke="#466197" rx="4"/>
                                        <path fill="#466197" d="M17.243 7.343l1.414 1.414L14.414 13l4.243 4.243-1.414 1.414L13 14.414l-4.243 4.243-1.414-1.414L11.586 13 7.343 8.757l1.414-1.414L13 11.586l4.243-4.243z" transform="translate(13.000000, 13.000000) rotate(-270.000000) translate(-13.000000, -13.000000)"/>
                                    </g>
                                </g>
                            </g>
                        </g>
                    </g>
                </g>
            </g>
        </g>
    </g>
</svg>
