<?xml version="1.0" encoding="UTF-8"?>
<svg width="30px" height="30px" viewBox="0 0 30 30" version="1.1" xmlns="http://www.w3.org/2000/svg" xmlns:xlink="http://www.w3.org/1999/xlink">
    <title>1EA1E82F-A275-450C-A36A-ED7C0270EBBD</title>
    <g id="최종본" stroke="none" stroke-width="1" fill="none" fill-rule="evenodd">
        <g id="New_Main_01" transform="translate(-792.000000, -332.000000)" stroke="#4C4C4C">
            <g id="[+]-Welcome" transform="translate(360.000000, 163.000000)">
                <g id="goal" transform="translate(0.000000, 157.000000)">
                    <g id="btn_goal_setting" transform="translate(432.000000, 12.000000)">
                        <path d="M12,14.9998187 C12,13.3457842 13.3460655,12 15.0007253,12 C16.6546597,12 18,13.3457842 18,14.9998187 C18,16.6542158 16.6546597,18 15.0007253,18 C13.3460655,18 12,16.6542158 12,14.9998187 Z" id="Path"></path>
                        <path d="M16.5081738,25 L13.4856133,25 C12.9431523,25 12.5016503,24.5530881 12.5016503,24.0034378 L12.5016503,22.1091002 C12.4834,21.9869996 12.1789694,21.6728573 12.050829,21.6072628 C12.0104454,21.6163512 11.8562886,21.6744379 11.7316429,21.7985142 L10.389275,23.13925 C10.0145614,23.5134548 9.36609327,23.5130596 8.9968159,23.1356937 L6.86075409,21.0042676 C6.67359143,20.8185482 6.57030249,20.568815 6.56991418,20.3013 C6.56991418,20.03339 6.67281482,19.7828664 6.86114239,19.5959616 L8.20273366,18.2524598 C8.27806469,18.1544632 8.28699569,17.7237523 8.24311731,17.5886118 C8.22913835,17.5830798 8.0788646,17.5004939 7.87966451,17.5004939 L5.98512795,17.5004939 C5.44189027,17.5004939 5,17.0547675 5,16.5070929 L5,13.4857944 C5,12.9397005 5.44189027,12.4955546 5.98512795,12.4955546 L7.87966451,12.4955546 C7.9969324,12.4829099 8.28738399,12.2114435 8.38407176,12.065634 C8.37552906,12.0059667 8.32271968,11.8660845 8.20118044,11.7431936 L6.86075409,10.4060141 C6.67009669,10.2123918 6.56719605,9.95949737 6.56874927,9.69198246 C6.57069079,9.42762872 6.67436803,9.17987118 6.861919,8.99494211 L8.99992234,6.85719366 C9.36686988,6.48852096 10.0133965,6.48654522 10.3865569,6.85640337 L11.7320312,8.20069546 C11.7584359,8.22124313 11.8935658,8.26787055 12.1277133,8.26787055 C12.2814818,8.26787055 12.39409,8.24771802 12.4216596,8.23862963 C12.4232128,8.22638005 12.5016503,8.08333663 12.5016503,7.89169005 L12.5016503,5.99182044 C12.5016503,5.44493618 12.9431523,5 13.4856133,5 L16.5081738,5 C17.053353,5 17.4967965,5.44493618 17.4967965,5.99182044 L17.4967965,7.89169005 C17.5142702,8.01458095 17.8175358,8.32753784 17.9452879,8.39234204 C17.9860599,8.38364879 18.1394401,8.3255621 18.2636974,8.20109061 L19.6130548,6.85679851 C19.9792257,6.48812581 20.6280822,6.48733552 20.9965829,6.8583791 L23.1357512,8.99612755 C23.3221372,9.17908089 23.4269794,9.42723357 23.4289209,9.69198246 C23.4304741,9.95989252 23.3267969,10.2131821 23.1373044,10.4044336 L21.7926067,11.7451693 C21.7227119,11.8376339 21.7102862,12.2300154 21.7460102,12.3876793 C21.7926067,12.4256135 21.9370559,12.4955546 22.1152875,12.4955546 L24.0152604,12.4955546 C24.5581097,12.4955546 25,12.9397005 25,13.4857944 L25,16.5070929 C25,17.0547675 24.5581097,17.5004939 24.0152604,17.5004939 L22.1152875,17.5004939 C21.9987963,17.513929 21.7102862,17.7853953 21.6124335,17.9327854 C21.6213645,17.993243 21.6737856,18.1323349 21.7945482,18.2540404 L23.1361395,19.5967519 C23.3240787,19.7812858 23.4289209,20.0325997 23.4289209,20.3013 C23.4285326,20.5700004 23.3233021,20.8201288 23.133033,21.0070336 L20.995418,23.13925 C20.6331301,23.5102936 19.9792257,23.5138499 19.6091717,23.1356937 L18.264474,21.7985142 C18.2380694,21.7779666 18.1002213,21.7297586 17.8629674,21.7297586 C17.7177416,21.7297586 17.6125112,21.7483305 17.5868831,21.7570237 C17.574069,21.7732248 17.4967965,21.9174537 17.4967965,22.1091002 L17.4967965,24.0034378 C17.4967965,24.5530881 17.053353,25 16.5081738,25" id="Path" stroke-linecap="round" stroke-linejoin="round"></path>
                    </g>
                </g>
            </g>
        </g>
    </g>
</svg>