<?xml version="1.0" encoding="UTF-8"?>
<svg width="12px" height="12px" viewBox="0 0 12 12" version="1.1" xmlns="http://www.w3.org/2000/svg" xmlns:xlink="http://www.w3.org/1999/xlink">
    <title>FB77753A-23EC-4A1B-AA80-D62B24B48218</title>
    <g id="Front" stroke="none" stroke-width="1" fill="none" fill-rule="evenodd">
        <g id="CommunityTemplate_Sample_C" transform="translate(-185.000000, -101.000000)">
            <g id="@-center" transform="translate(100.000000, 77.000000)">
                <g id="tag_new" transform="translate(30.000000, 20.000000)">
                    <g transform="translate(55.000000, 4.000000)">
                        <rect id="Rectangle" x="0" y="0" width="12" height="12"></rect>
                        <path d="M3.44436508,2.23015152 L7.899,6.6842583 L7.9,3 C7.9,2.44771525 8.34771525,2 8.9,2 C9.45228475,2 9.9,2.44771525 9.9,3 L9.9,9 C9.9,9.55228475 9.45228475,10 8.9,10 C8.67793366,10 8.47277346,9.92761622 8.30682621,9.80515548 C8.18399834,9.75732374 8.06908886,9.68330242 7.96984848,9.58406204 L3.7,5.3142583 L3.7,9 C3.7,9.55228475 3.25228475,10 2.7,10 C2.14771525,10 1.7,9.55228475 1.7,9 L1.7,3 C1.7,2.79699325 1.76049184,2.60811512 1.86443349,2.45040763 C1.90758926,2.3713697 1.96311708,2.29718596 2.03015152,2.23015152 C2.42067581,1.83962723 3.05384079,1.83962723 3.44436508,2.23015152 Z" id="Combined-Shape" fill="#E0002B"></path>
                    </g>
                </g>
            </g>
        </g>
    </g>
</svg>