<svg xmlns="http://www.w3.org/2000/svg" xmlns:xlink="http://www.w3.org/1999/xlink" width="33" height="33" viewBox="0 0 33 33">
    <defs>
        <path id="bwi2sh56za" d="M0 0H34V36H0z"/>
    </defs>
    <g fill="none" fill-rule="evenodd">
        <g>
            <g>
                <g>
                    <g>
                        <g>
                            <g transform="translate(-810 -694) translate(380 148) translate(5 526) translate(225 15) translate(190) translate(10 2)">
                                <mask id="mipjroh86b" fill="#fff">
                                    <use xlink:href="#bwi2sh56za"/>
                                </mask>
                                <g mask="url(#mipjroh86b)">
                                    <g>
                                        <g>
                                            <path fill="#FFE207" stroke="#FF5740" stroke-width="2" d="M21.848 7.65c.266-.071.537-.028.758.1.222.128.395.34.466.607h0l3.106 11.592c.072.266.028.537-.1.758-.128.222-.34.395-.607.466h0L6.153 26.35c-.267.071-.538.028-.76-.1-.22-.128-.394-.34-.465-.607h0L1.822 14.05c-.071-.266-.028-.537.1-.758.128-.222.34-.395.607-.466h0z" transform="translate(1 4) translate(4)"/>
                                            <path stroke="#FF5740" stroke-linecap="round" d="M16.5 2.5L14.245 5.495" transform="translate(1 4) translate(4)"/>
                                            <path stroke="#FF5740" stroke-linecap="round" d="M9.245 2.485L6.833 5.495" transform="translate(1 4) translate(4) matrix(-1 0 0 1 16.077 0)"/>
                                            <path stroke="#FF5740" stroke-linecap="round" d="M11.797 0.495L11.692 5.495" transform="translate(1 4) translate(4) matrix(-1 0 0 1 23.49 0)"/>
                                            <path fill="#FF5740" d="M6.585 13.399H20.585V15.899H6.585z" transform="translate(1 4) translate(4) rotate(165 13.585 14.649)"/>
                                        </g>
                                        <path fill="#FFF" stroke="#FF5740" stroke-linecap="round" stroke-linejoin="round" stroke-width="2" d="M1.175 35c-1.512-6.902-1.195-11.93.951-15.082 1.16-.754 2.639-1.727 4.435-2.918l1.532 5.56-.582 2.086c2.974-4.48 5.137-6.056 6.489-4.728 1.352 1.33.956 2.905-1.19 4.728-.153 1.445-.256 2.594-.31 3.447-.15 2.415-3.471 3.815-2.526 5.907.88 1.945-2.054 2.278-8.799 1z" transform="translate(1 4)"/>
                                    </g>
                                </g>
                            </g>
                        </g>
                    </g>
                </g>
            </g>
        </g>
    </g>
</svg>
