<?xml version="1.0" encoding="UTF-8"?>
<svg width="90px" height="18px" viewBox="0 0 90 18" version="1.1" xmlns="http://www.w3.org/2000/svg" xmlns:xlink="http://www.w3.org/1999/xlink">
    <title>label_reward</title>
    <g id="Stamp-Event" stroke="none" stroke-width="1" fill="none" fill-rule="evenodd">
        <g id="StampEvent_02_Popup_02" transform="translate(-420.000000, -454.000000)" fill="#FF5740">
            <g id="@-Quiz" transform="translate(380.000000, 148.000000)">
                <g id="Left" transform="translate(40.000000, 214.000000)">
                    <g id="label_reward" transform="translate(0.000000, 92.000000)">
                        <path d="M7.032,7.492 L7.032,6.22 L3.312,6.22 L3.312,7.492 L7.032,7.492 Z M1.56,10.792 C3.216,10.792 4.584,10.372 5.184,9.676 C5.76,10.36 7.176,10.792 8.712,10.792 L8.964,10.792 L9.588,9.52 L9.384,9.52 C8.028,9.52 7.164,9.316 6.708,8.98 L9.18,8.98 L9.18,7.72 L1.2,7.72 L1.2,8.98 L3.636,8.98 C3.18,9.28 2.328,9.46 0.996,9.46 L0.756,9.46 L1.368,10.792 L1.56,10.792 Z M9.192,16.924 L9.192,15.736 L3.24,15.736 L3.24,15.412 L8.94,15.412 L8.94,12.748 L6.072,12.748 L6.072,12.376 L10.068,12.376 L10.068,11.032 L0.3,11.032 L0.3,12.376 L4.2,12.376 L4.2,12.748 L1.344,12.748 L1.344,13.936 L7.032,13.936 L7.032,14.296 L1.344,14.296 L1.344,16.924 L9.192,16.924 Z M19.824,12.46 L19.824,6.196 L17.928,6.196 L17.928,8.2 L16.392,8.2 L16.392,9.7 L17.928,9.7 L17.928,12.46 L19.824,12.46 Z M11.544,12.532 C12.636,12.136 13.704,11.248 14.016,10.3 C14.4,11.176 15.456,11.932 16.236,12.196 L17.22,10.672 C15.852,10.216 14.988,9.328 14.988,7.636 L14.988,6.628 L13.044,6.628 L13.044,7.744 C13.044,9.352 12.168,10.48 10.56,11.008 L11.544,12.532 Z M19.836,17.008 L19.836,12.952 L12.288,12.952 L12.288,14.416 L17.952,14.416 L17.952,17.008 L19.836,17.008 Z M33.984,15.784 L33.984,14.356 L30.024,14.356 L30.024,12.34 L32.988,12.34 L32.988,10.888 L27.192,10.888 L27.192,8.368 L32.94,8.368 L32.94,6.892 L25.296,6.892 L25.296,12.34 L28.152,12.34 L28.152,14.356 L24.216,14.356 L24.216,15.784 L33.984,15.784 Z M43.176,12.592 L43.176,10.324 L44.496,10.324 L44.496,8.812 L43.176,8.812 L43.176,6.196 L41.292,6.196 L41.292,12.592 L43.176,12.592 Z M35.376,12.784 C36.372,12.484 37.536,11.5 37.848,10.54 C38.256,11.452 39.3,12.148 40.104,12.388 L41.124,10.9 C39.936,10.528 38.916,9.892 38.796,8.428 L40.716,8.428 L40.716,6.892 L34.86,6.892 L34.86,8.428 L36.84,8.428 C36.732,9.952 35.784,10.864 34.404,11.284 L35.376,12.784 Z M39.372,16.9 C41.796,16.9 43.32,16.096 43.32,14.764 C43.32,13.384 41.796,12.58 39.372,12.58 C36.96,12.58 35.424,13.396 35.424,14.764 C35.424,16.084 36.96,16.9 39.372,16.9 Z M39.372,15.484 C38.136,15.484 37.428,15.232 37.428,14.764 C37.428,14.26 38.136,14.008 39.372,14.008 C40.644,14.008 41.316,14.272 41.316,14.764 C41.316,15.22 40.644,15.484 39.372,15.484 Z M49.848,10.204 C52.344,10.204 53.832,9.388 53.832,8.308 C53.832,7.228 52.344,6.412 49.848,6.412 C47.352,6.412 45.888,7.228 45.888,8.308 C45.888,9.388 47.352,10.204 49.848,10.204 Z M49.848,8.872 C48.6,8.872 47.928,8.608 47.928,8.32 C47.928,8.044 48.6,7.792 49.848,7.792 C51.108,7.792 51.78,8.044 51.78,8.32 C51.78,8.608 51.108,8.872 49.848,8.872 Z M54.744,11.944 L54.744,10.432 L44.976,10.432 L44.976,11.944 L54.744,11.944 Z M53.904,16.9 L53.904,15.496 L47.904,15.496 L47.904,15.136 L53.676,15.136 L53.676,12.304 L46.02,12.304 L46.02,13.636 L51.78,13.636 L51.78,13.996 L46.02,13.996 L46.02,16.9 L53.904,16.9 Z M67.788,17.008 L67.788,13.024 L59.856,13.024 L59.856,14.488 L65.928,14.488 L65.928,17.008 L67.788,17.008 Z M63.732,10.985 C63.936,11.512 64.584,12.196 64.92,12.376 L65.928,11.2 L65.928,12.628 L67.776,12.628 L67.776,6.196 L65.928,6.196 L65.928,11.128 C65.016,10.492 64.716,9.532 64.644,8.392 L65.496,8.392 L65.496,6.952 L62.412,6.952 L62.412,8.392 L62.844,8.392 C62.808,9.1 62.7,9.688 62.436,10.228 C61.908,9.82 61.668,9.184 61.596,8.392 L62.064,8.392 L62.064,6.952 L58.716,6.952 L58.716,8.392 L59.772,8.392 C59.7,9.772 59.256,10.648 58.236,11.392 L59.364,12.508 C60.024,12.076 60.612,11.308 60.816,10.648 C60.936,10.924 61.188,11.2 61.452,11.416 C61.356,11.5 61.248,11.572 61.152,11.644 L62.268,12.64 C62.8025455,12.3345455 63.366843,11.7315702 63.6543561,11.1556424 L63.732,10.985 Z M73.776,12.892 C76.272,12.892 77.88,11.608 77.88,9.832 C77.88,8.068 76.26,6.796 73.776,6.796 C71.304,6.796 69.672,8.068 69.672,9.832 C69.672,11.608 71.304,12.892 73.776,12.892 Z M73.776,11.38 C72.48,11.38 71.628,10.792 71.628,9.856 C71.628,8.932 72.48,8.344 73.776,8.344 C75.072,8.344 75.924,8.932 75.924,9.856 C75.924,10.792 75.06,11.38 73.776,11.38 Z M78.66,15.772 L78.66,14.164 L68.892,14.164 L68.892,15.772 L78.66,15.772 Z M88.44,14.044 L88.44,6.196 L86.544,6.196 L86.544,7.756 L84.912,7.756 L84.912,6.964 L79.68,6.964 L79.68,12.484 L84.912,12.484 L84.912,11.56 L86.544,11.56 L86.544,14.044 L88.44,14.044 Z M83.04,11.02 L81.528,11.02 L81.528,8.392 L83.04,8.392 L83.04,11.02 Z M86.544,10.108 L84.912,10.108 L84.912,9.196 L86.544,9.196 L86.544,10.108 Z M88.572,16.792 L88.572,15.328 L82.776,15.328 L82.776,13.384 L80.88,13.384 L80.88,16.792 L88.572,16.792 Z" id="출석도장을찍으면" fill-rule="nonzero"></path>
                        <rect id="Rectangle" x="0" y="0" width="90" height="2"></rect>
                        <rect id="Rectangle" x="0" y="3" width="90" height="1"></rect>
                    </g>
                </g>
            </g>
        </g>
    </g>
</svg>