<?xml version="1.0" encoding="UTF-8"?>
<svg width="60px" height="60px" viewBox="0 0 60 60" version="1.1" xmlns="http://www.w3.org/2000/svg" xmlns:xlink="http://www.w3.org/1999/xlink">
    <title>stamp_present_before</title>
    <defs>
        <circle id="path-1" cx="30" cy="30" r="30"></circle>
    </defs>
    <g id="Stamp-Event" stroke="none" stroke-width="1" fill="none" fill-rule="evenodd">
        <g id="StampEvent_02_Popup_02" transform="translate(-910.000000, -362.000000)">
            <g id="@-Quiz" transform="translate(380.000000, 148.000000)">
                <g id="Check" transform="translate(240.000000, 214.000000)">
                    <g id="icon" transform="translate(290.000000, 0.000000)">
                        <mask id="mask-2" fill="white">
                            <use xlink:href="#path-1"></use>
                        </mask>
                        <g id="Mask"></g>
                        <line x1="23" y1="10.7324784" x2="25.9766199" y2="14.3436047" id="Path-5" stroke="#CECECE" stroke-width="2" stroke-linecap="round" mask="url(#mask-2)"></line>
                        <line x1="34" y1="10.7324784" x2="36.9766199" y2="14.3436047" id="Path-5-Copy" stroke="#CECECE" stroke-width="2" stroke-linecap="round" mask="url(#mask-2)" transform="translate(35.488310, 12.538042) scale(-1, 1) translate(-35.488310, -12.538042) "></line>
                        <rect id="Rectangle" fill="#CECECE" mask="url(#mask-2)" x="29" y="6" width="2" height="9" rx="1"></rect>
                        <g mask="url(#mask-2)">
                            <g transform="translate(14.000000, 33.000000)">
                                <g id="Group" transform="translate(3.874862, 0.000024)">
                                    <path d="M22.1547258,3.99997569 C22.4226978,3.99997569 22.6653009,4.10859279 22.840911,4.28420288 C23.0165211,4.45981297 23.1251382,4.70241605 23.1251382,4.97038801 L23.1251382,4.97038801 L23.1251382,14.9999757 C23.1251382,15.2761181 23.0132094,15.5261181 22.8322449,15.7070825 C22.6512805,15.8880469 22.4012805,15.9999757 22.1251382,15.9999757 L22.1251382,15.9999757 L4.12513817,15.9999757 C3.84899579,15.9999757 3.59899579,15.8880469 3.41803139,15.7070825 C3.23706698,15.5261181 3.12513817,15.2761181 3.12513817,14.9999757 L3.12513817,14.9999757 L3.12513817,4.99997569 C3.12513817,4.72383331 3.23706698,4.47383331 3.41803139,4.29286891 C3.59899579,4.1119045 3.84899579,3.99997569 4.12513817,3.99997569 L4.12513817,3.99997569 Z" id="Combined-Shape" stroke="#CECECE" stroke-width="2" fill="#CECECE" transform="translate(13.125138, 9.999976) rotate(-15.000000) translate(-13.125138, -9.999976) "></path>
                                    <polygon id="Rectangle-Copy-12" fill="#FFFFFF" transform="translate(13.046534, 7.888140) rotate(-195.000000) translate(-13.046534, -7.888140) " points="6.54653386 6.88813962 19.545136 6.8935123 19.5465339 8.88813962 6.54793176 8.88276693"></polygon>
                                </g>
                                <path d="M1.13827556,26.0333333 C-0.326257035,19.3609835 -0.0191664726,14.5013721 2.05954724,11.4544991 C3.18389683,10.7251102 4.71090763,9.7836261 6.64057964,8.63004667 L8.10522982,14.3492031 L7.27621487,16.3666667 C10.157128,11.8075194 12.2525564,10.1701302 13.5625,11.4544991 C14.8724436,12.7388679 14.4882524,14.2623044 12.4099265,16.0248086 C12.2618831,17.4209114 12.1619183,18.5315982 12.1100322,19.356869 C11.9633048,21.6906316 8.75947797,22.7103602 9.48830993,24.9004499 C10.4805166,27.8819622 7.69717176,28.25959 1.13827556,26.0333333 Z" id="Path-7" stroke="#CDCDCD" stroke-width="2" fill="#FFFFFF" stroke-linecap="round" stroke-linejoin="round"></path>
                            </g>
                        </g>
                        <path d="M20.4854167,26.55 L20.4854167,24.825 L16.3729167,24.825 L16.3729167,24.2 L19.9104167,24.2 L19.9104167,19.625 L17.4604167,19.625 L17.4604167,20.3375 L12.4854167,20.3375 L12.4854167,19.625 L10.0354167,19.625 L10.0354167,24.2 L13.5729167,24.2 L13.5729167,24.825 L9.46041667,24.825 L9.46041667,26.55 L20.4854167,26.55 Z M17.4604167,22.525 L12.4854167,22.525 L12.4854167,21.9375 L17.4604167,21.9375 L17.4604167,22.525 Z M19.9229167,30.75 L19.9229167,27.0875 L10.0479167,27.0875 L10.0479167,28.775 L17.4729167,28.775 L17.4729167,30.75 L19.9229167,30.75 Z M31.55625,28.1 L31.55625,19.65 L29.10625,19.65 L29.10625,23.3375 L28.21875,23.3375 L28.21875,19.6875 L21.21875,19.6875 L21.21875,21.4875 L25.76875,21.4875 L25.76875,23.3375 L20.85625,23.3375 L20.85625,25.125 L23.09375,25.125 L23.09375,27.2375 L25.66875,27.2375 L25.66875,25.125 L28.19375,25.125 L29.10625,24.2125 L29.10625,25.5875 L26.34375,25.5875 L26.34375,27.3875 L29.10625,27.3875 L29.10625,28.1 L31.55625,28.1 Z M31.60625,30.6875 L31.60625,28.9375 L24.25625,28.9375 L24.25625,27.525 L21.80625,27.525 L21.80625,30.6875 L31.60625,30.6875 Z M39.0479167,30.1 L39.0479167,20.0625 L35.2229167,20.0625 L35.2229167,22.3125 L36.4229167,22.3125 L36.4229167,30.1 L39.0479167,30.1 Z M50.13125,25.6 L50.13125,23.475 L51.35625,23.475 L51.35625,21.375 L50.13125,21.375 L50.13125,19.65 L47.68125,19.65 L47.68125,25.6 L50.13125,25.6 Z M40.81875,25.6875 C41.79375,25.1625 42.70625,24.6 43.51875,24.0125 C44.30625,24.575 45.05625,25.0375 46.01875,25.5625 L47.31875,24.0375 C46.51875,23.55 45.69375,23 45.03125,22.4375 C44.81875,22.2625 44.81875,22.075 44.81875,21.8375 L46.98125,21.8375 L46.98125,19.775 L40.08125,19.775 L40.08125,21.8375 L42.19375,21.8375 C42.19375,22.15 42.16875,22.3125 41.89375,22.525 C41.23125,23.0375 40.40625,23.5625 39.53125,24.0625 L40.81875,25.6875 Z M48.00625,30.8875 C49.74375,30.8875 50.55625,29.725 50.55625,28.3875 C50.55625,27.05 49.78125,25.8875 48.04375,25.8875 L42.89375,25.8875 C41.15625,25.8875 40.38125,27.05 40.38125,28.3875 C40.38125,29.725 41.11875,30.8875 42.85625,30.8875 L48.00625,30.8875 Z M47.48125,28.85 L43.45625,28.85 C43.06875,28.85 42.83125,28.6625 42.83125,28.3875 C42.83125,28.1 43.05625,27.9125 43.45625,27.9125 L47.48125,27.9125 C47.88125,27.9125 48.10625,28.1 48.10625,28.3875 C48.10625,28.6625 47.86875,28.85 47.48125,28.85 Z" id="복권1장" fill="#CECECE" fill-rule="nonzero" mask="url(#mask-2)"></path>
                    </g>
                </g>
            </g>
        </g>
    </g>
</svg>