<svg width="114" height="88" viewBox="0 0 114 88" xmlns="http://www.w3.org/2000/svg" xmlns:xlink="http://www.w3.org/1999/xlink">
    <defs>
        <path id="a" d="M0 0h114v86H0z"/>
        <path id="c" d="M0 0h18.248v12.48H0z"/>
    </defs>
    <g transform="translate(0 -2)" fill="none" fill-rule="evenodd">
        <mask id="b" fill="#fff">
            <use xlink:href="#a"/>
        </mask>
        <g mask="url(#b)">
            <path d="M61.108 9.76c1.644 4.605 5.83 3.917 8.215 7.473 2.77 4.131-2.278 8.41-.536 12.307 1.566 3.504 3.89 2.143 6.289 5.07 1.757 2.14 6.034 6.626 4.646 14.538l-11.332 4.54-12.711-17.913 2.247-18.466M49.395 9.76c-1.644 4.605-5.83 3.917-8.214 7.473-2.77 4.131 2.277 8.41.535 12.307-1.567 3.504-3.888 2.143-6.288 5.07-1.758 2.14-5.106 4.812-4.494 9.85l23.742 4.688-2.099-31.84" fill="#7C1C1C"/>
            <path d="M53.2 31.462c10.676.875 19.574 7.734 22.202 19.824 1.026 4.719-.056 29.191.813 35.263l-42.808-.079s.855-40.91 6.112-52.344c0 0 7.59-3.162 13.681-2.664z" fill="#5DB0DD"/>
            <path d="M35.122 36.977s4.078-5.55 8.915-2.313c4.838 3.238 11.99 8.03.391 20.665-11.46 12.484-20.483 19.069-20.703 19.23-5.393 3.92-11.39-3.486-10.415-8.556.874-4.552 6.372-9.582 9.092-13.008l12.72-16.018z" fill="#5DB0DD"/>
            <path fill="#FFF" d="M56.278 77.904H35.73V48.806h20.548z"/>
            <path d="M55.37 47.596s-3.803-4.85.153-8.238c3.956-3.385 9.807-8.39 17.905 4.646 8.096 13.033 11.586 22.462 11.586 22.462s3.524 8.019-4.208 10.19c0 0-5.705 2.633-17.08-13.929L55.37 47.596z" fill="#5DB0DD"/>
            <path d="m52.267 61.49 22.19.082 5.538 14.918S55.5 74.419 52.68 74.017l-.413-12.528z" fill="#5DB0DD"/>
            <g>
                <path d="m17.672 39.99-1.291-3.426s-.833-1.514-4.734-1.378c-3.9.136-6.295-1.324-8.27-2.026-1.977-.704-4.695-.222-2.65 2.407 2.045 2.629 6.388 4.02 7.962 4.351 1.574.332 3.591 2.19 3.591 2.19l5.392-2.117z" fill="#FCC7AC"/>
                <path d="M14.076 66.987c-1.66-8.918-4.263-26.368-3.43-28.032 2.644-1.702 5.916-2.468 6.855.37 2.212 6.689 9.686 29.06 5.885 32.235-4.293 3.586-8.476-.078-9.31-4.573M48.542 25.39s.807 5.395 1.005 8.384c0 0 1.928 4.686 9.991-.88 0 0-.43-3.95-1.059-9.002" fill="#FCC7AC"/>
                <path d="M48.188 31.724c.107 4.788.966 8.32 2.576 10.598 5.43-4.144 8.649-7.186 9.658-9.125" stroke="#216387" stroke-width=".5"/>
                <path d="M48.129 37.023c1.97 1.896 4.284 2.37 6.942 1.422" stroke="#216387" stroke-width=".5"/>
                <path d="M48.736 26.052s1.825 1.138 4.056-.25l-3.635 4.982-.42-4.732z" fill="#D99B7C"/>
                <path d="M53.208 25.577c-1.825.453-4.518 1.053-6.061.05-3.72-2.426-2.653-9.084-2.603-11.143.039-1.665.194-3.935 1.327-5.295.929-1.107 2.543-1.039 3.857-1.235 1.641-.247 3.322-.478 4.968-.138 1.715.352 3.627 1.326 4.97 2.438 0 0-1.417 6.855-1.082 13.908 0 .006-4.66 1.226-5.03 1.326-.111.03-.227.06-.346.09" fill="#FCC7AC"/>
                <path d="M48.542 17.297c-.348 1.611-.737 2.542-1.165 2.793-.429.25-.1.598.985 1.043" stroke="#46130A" stroke-width=".5"/>
                <path d="M57.8 15.928c-3.318-.745-9.109-3.245-10.002-6.785-.918 1.926-1.907 4.25-3.343 5.766.209-.22-2.332-3.701-.142-7.408 1.397-2.19 4.48-3.293 6.975-3.474 3.71-.27 14.124 1.282 10.094 12.344" fill="#7C1C1C"/>
                <path d="M51.869 16.409c.566-.452.819.74.698 1.094-.29.851-.907-.292-.756-.929l.058-.165z" fill="#46130A"/>
                <path d="M51.869 16.409c.566-.452.819.74.698 1.094-.29.851-.907-.292-.756-.929l.058-.165z" stroke="#46130A" stroke-width=".5"/>
                <path d="M46.091 16.042c.5-.398.724.652.616.965-.252.751-.802-.258-.666-.82l.05-.145z" fill="#46130A"/>
                <path d="M46.091 16.042c.5-.398.724.652.616.965-.252.751-.802-.258-.666-.82l.05-.145z" stroke="#46130A" stroke-width=".5"/>
                <path d="M56.903 15.988s1.293-2.458 3.153-1.19c1.86 1.27 1.25 4.442-3.302 4.968" fill="#FCC7AC"/>
                <path stroke="#46130A" stroke-width=".5" stroke-linecap="round" stroke-linejoin="round" d="m58.988 16.3-1.088.997"/>
                <path d="M47.868 22.629c1.397.852 2.339.727 2.826-.375" stroke="#46130A" stroke-width=".5"/>
            </g>
            <g>
                <g transform="matrix(-1 0 0 1 52.583 59.68)">
                    <mask id="d" fill="#fff">
                        <use xlink:href="#c"/>
                    </mask>
                    <path d="M-.847 6.005c-.719-.35 2.197-1.57 2.701-1.923 1.243-.875 2.167-.718 3.654-.625 1.389.087 2.757.154 4.142.262 1.891.15 2.27.112 3.811-1.036.942-.702 3.473-4.117 4.35-2 1.476 3.561-1.099 8.134-3.093 9.108-3.068 1.496-7.544.833-10.823 1.369-.985.163-3.705 1.344-4.694 1.32" fill="#FCC7AC" mask="url(#d)"/>
                </g>
                <path d="M34.724 60.64s1.662 2.803 3.044 3.606c1.38.8 2.672.52 2.672.52M34.334 62.198s1.139 2.483 2.446 3.252c1.307.771 3.27.922 3.27.922M34.334 64.146s1.14 2.481 2.444 3.252c1.307.77 3.273.922 3.273.922" stroke="#C08262" stroke-width=".5"/>
                <path d="M49.564 63.155c-3.591-1.592-6.056-6.122-7.847-3.772-.987 1.297 1.937 2.804 2.529 4.48" fill="#FCC7AC"/>
            </g>
            <g stroke="#216387" stroke-width=".5">
                <path d="m52.583 61.451 20.598.993-3.994-7.564M79.17 76.49l-26.587-3.006"/>
            </g>
        </g>
    </g>
</svg>
