<?xml version="1.0" encoding="UTF-8"?>
<svg width="28px" height="28px" viewBox="0 0 28 28" version="1.1" xmlns="http://www.w3.org/2000/svg" xmlns:xlink="http://www.w3.org/1999/xlink">
    <title>B67D2B5D-28EE-4AC5-BC06-2E4F1EF2D67A</title>
    <defs>
        <circle id="path-1" cx="13" cy="13" r="13"></circle>
    </defs>
    <g id="Page-1" stroke="none" stroke-width="1" fill="none" fill-rule="evenodd">
        <g id="Language_1_LA-GN-10_A" transform="translate(-1125.000000, -237.000000)">
            <g id="#-커뮤니티알림" transform="translate(1100.000000, 70.000000)">
                <g id="list" transform="translate(1.000000, 49.000000)">
                    <g id="003" transform="translate(0.000000, 106.000000)">
                        <g id="003_img" transform="translate(24.000000, 12.000000)">
                            <g id="국기">
                                <circle id="Oval" stroke="#E8E8E8" fill="#FFFFFF" cx="14" cy="14" r="13.5"></circle>
                                <g id="Group-33" transform="translate(5.000000, 6.750000)">
                                    <path d="M5.24965795,4.79201759 C6.63049373,2.72085406 9.42894431,2.16123606 11.5001078,3.54189156 C13.5712714,4.92272734 14.1310697,7.72117792 12.7502339,9.79234144 C11.3693981,11.8636853 8.57094751,12.4233033 6.49996428,11.0424675 C4.42862046,9.6616317 3.86900246,6.86318112 5.24965795,4.79201759" id="Fill-11" fill="#C60C30"></path>
                                    <path d="M5.24965795,4.79201759 C4.55933021,5.82759935 4.83913921,7.22682464 5.87472097,7.91715239 C6.91048302,8.60766043 8.30970831,8.32785143 9.00003606,7.29226966 C9.6903638,6.2566879 11.0895891,5.97669861 12.1251709,6.66720664 C13.1607526,7.35753439 13.4407419,8.75675968 12.7502339,9.79234144 C11.3693981,11.8636853 8.57094751,12.4233033 6.49996428,11.0424675 C4.42862046,9.6616317 3.86900246,6.86318112 5.24965795,4.79201759" id="Fill-13" fill="#003478"></path>
                                    <polygon id="Fill-15" fill="#000000" points="4.37520675 13.3342871 5.00026977 12.9176385 2.50019798 9.16744069 1.87513497 9.58408927"></polygon>
                                    <polygon id="Fill-17" fill="#000000" points="0.625063018 10.4174405 0 10.8340891 2.50007178 14.5842869 3.1251348 14.1676383"></polygon>
                                    <polygon id="Fill-19" fill="#000000" points="16.4373965 4.79210774 17.0624596 4.37527886 14.5623878 0.625081047 13.9373248 1.04190992"></polygon>
                                    <polygon id="Fill-21" fill="#000000" points="15.4998561 9.01446521e-05 14.8747931 0.416919016 16.0207119 2.13561695 16.6455946 1.71896837"></polygon>
                                    <polygon id="Fill-23" fill="#000000" points="17.374937 4.16708078 18 3.7502519 16.8540812 2.03137368 16.2291985 2.44820255"></polygon>
                                    <polygon id="Fill-25" fill="#000000" points="15.4998561 5.4171347 16.1249191 5.00030582 14.97882 3.28160789 14.3539373 3.69825647"></polygon>
                                    <polygon id="Fill-27" fill="#000000" points="13.6247933 1.25014406 12.9997302 1.66697294 14.1456491 3.38567087 14.7705318 2.96902229"></polygon>
                                    <polygon id="Fill-29" fill="#000000" points="2.7084141 11.5112377 1.56267557 9.79235947 0.937612556 10.2090081 2.08335108 11.9280666"></polygon>
                                    <polygon id="Fill-31" fill="#000000" points="2.91688262 11.8237512 2.29181961 12.2405801 3.43773842 13.959278 4.06262115 13.5426294"></polygon>
                                    <polygon id="Fill-2" fill="#000000" points="0.937576498 4.37536901 1.56263952 4.79219788 4.0627113 1.04181977 3.43764828 0.625171191"></polygon>
                                    <polygon id="Fill-3" fill="#000000" points="4.37520675 1.25014406 1.87513497 5.00034188 2.50019798 5.41717075 5.00026977 1.66697294"></polygon>
                                    <polygon id="Fill-4" fill="#000000" points="3.12517086 0.416828871 2.50010784 0 3.60578607e-05 3.75037811 0.625099076 4.16702669"></polygon>
                                    <polygon id="Fill-5" fill="#000000" points="13.9373067 13.5426474 14.5623697 13.959296 15.7081083 12.2404178 15.0830453 11.8237692"></polygon>
                                    <polygon id="Fill-6" fill="#000000" points="17.0624235 10.2090621 16.4373605 9.79241356 15.291622 11.5112918 15.9165047 11.9279404"></polygon>
                                    <polygon id="Fill-7" fill="#000000" points="12.9997663 12.9176205 13.6248293 13.3342691 14.7705678 11.6153908 14.1455048 11.1987422"></polygon>
                                    <polygon id="Fill-8" fill="#000000" points="16.1248831 9.58403518 15.49982 9.1673866 14.3539012 10.8862648 14.9789642 11.3029134"></polygon>
                                    <polygon id="Fill-9" fill="#000000" points="14.8748291 14.1676744 15.4998922 14.584323 16.6456307 12.8654448 16.0205677 12.4487962"></polygon>
                                    <polygon id="Fill-10" fill="#000000" points="17.9999639 10.8340891 17.3749009 10.4174405 16.2291624 12.1363187 16.8542254 12.5529673"></polygon>
                                </g>
                            </g>
                            <g id="Group-65" transform="translate(1.000000, 1.000000)">
                                <mask id="mask-2" fill="white">
                                    <use xlink:href="#path-1"></use>
                                </mask>
                                <g id="Mask"></g>
                                <g mask="url(#mask-2)">
                                    <g transform="translate(-4.000000, 0.000000)">
                                        <polygon id="Fill-1" fill="#FFFFFF" points="0 24.4343891 36 24.4343891 36 22.39819 0 22.39819"></polygon>
                                        <polygon id="Fill-2" fill="#FFFFFF" points="0 20.361991 36 20.361991 36 18.3257919 0 18.3257919"></polygon>
                                        <polygon id="Fill-3" fill="#FFFFFF" points="0 16.2895928 36 16.2895928 36 14.2533937 0 14.2533937"></polygon>
                                        <polygon id="Fill-4" fill="#FFFFFF" points="0 12.2464569 36 12.2464569 36 10.2102578 0 10.2102578"></polygon>
                                        <polygon id="Fill-5" fill="#FFFFFF" points="0 8.14479638 36 8.14479638 36 6.10859729 0 6.10859729"></polygon>
                                        <polygon id="Fill-6" fill="#FFFFFF" points="0 4.07239819 36 4.07239819 36 2.0361991 0 2.0361991"></polygon>
                                        <path d="M2.0361991,26.4705882 L33.9638009,26.4705882 C35.0883626,26.4705882 36,25.5589508 36,24.4343891 L36,24.4343891 L36,24.4343891 L0,24.4343891 C1.3771909e-16,25.5589508 0.911637387,26.4705882 2.0361991,26.4705882 Z" id="Fill-7" fill="#A3041F"></path>
                                        <polygon id="Fill-8" fill="#A3041F" points="0 22.39819 36 22.39819 36 20.361991 0 20.361991"></polygon>
                                        <polygon id="Fill-9" fill="#A3041F" points="0 18.3257919 36 18.3257919 36 16.2895928 0 16.2895928"></polygon>
                                        <polygon id="Fill-10" fill="#A3041F" points="0 14.2533937 36 14.2533937 36 12.2171946 0 12.2171946"></polygon>
                                        <polygon id="Fill-11" fill="#A3041F" points="0 10.1809955 36 10.1809955 36 8.14479638 0 8.14479638"></polygon>
                                        <polygon id="Fill-12" fill="#A3041F" points="0 6.10859729 36 6.10859729 36 4.07239819 0 4.07239819"></polygon>
                                        <path d="M0,2.0361991 L36,2.0361991 C36,0.911637387 35.0883626,-1.53884626e-15 33.9638009,0 L2.0361991,0 C0.911637387,2.06578634e-16 -1.3771909e-16,0.911637387 0,2.0361991 L0,2.0361991 L0,2.0361991 Z" id="Fill-13" fill="#A3041F"></path>
                                        <path d="M0,14.294284 L17,14.294284 L17,0 L3,0 C1.34314575,3.04359188e-16 -2.02906125e-16,1.34314575 0,3 L0,14.294284 L0,14.294284 Z" id="Fill-14" fill="#1B213F"></path>
                                        <polygon id="Fill-16" fill="#FFFFFF" points="4.71319331 0.160673527 4.86198258 0.608464834 5.3437486 0.608464834 4.95397908 0.885109765 5.10276834 1.33270856 4.71319331 1.05606363 4.32342379 1.33270856 4.47240755 0.885109765 4.08263803 0.608464834 4.56420955 0.608464834"></polygon>
                                        <polygon id="Fill-17" fill="#FFFFFF" points="7.42712894 0.160673527 7.57611269 0.608464834 8.05768422 0.608464834 7.6679147 0.885109765 7.81689846 1.33270856 7.42712894 1.05606363 7.03735941 1.33270856 7.18634317 0.885109765 6.79657365 0.608464834 7.27814518 0.608464834"></polygon>
                                        <polygon id="Fill-18" fill="#FFFFFF" points="10.1410451 0.160673527 10.2900289 0.608464834 10.7716004 0.608464834 10.3818309 0.885109765 10.5308146 1.33270856 10.1410451 1.05606363 9.75127559 1.33270856 9.90025934 0.885109765 9.51048982 0.608464834 9.99206135 0.608464834"></polygon>
                                        <polygon id="Fill-19" fill="#FFFFFF" points="12.8549613 0.160673527 13.003945 0.608464834 13.4855166 0.608464834 13.095747 0.885109765 13.2447308 1.33270856 12.8549613 1.05606363 12.4651918 1.33270856 12.6141755 0.885109765 12.224406 0.608464834 12.706172 0.608464834"></polygon>
                                        <polygon id="Fill-20" fill="#FFFFFF" points="15.5689747 0.160673527 15.717764 0.608464834 16.19953 0.608464834 15.8097605 0.885109765 15.9585497 1.33270856 15.5689747 1.05606363 15.1792052 1.33270856 15.3281889 0.885109765 14.9384194 0.608464834 15.4199909 0.608464834"></polygon>
                                        <polygon id="Fill-22" fill="#FFFFFF" points="4.69648613 3.29355704 4.84527539 3.74134835 5.32704141 3.74134835 4.93727189 4.01799328 5.08606115 4.46559207 4.69648613 4.18894714 4.3067166 4.46559207 4.45570036 4.01799328 4.06593084 3.74134835 4.54750237 3.74134835"></polygon>
                                        <polygon id="Fill-23" fill="#FFFFFF" points="7.4104023 3.29355704 7.55938606 3.74134835 8.04095758 3.74134835 7.65118806 4.01799328 7.80017182 4.46559207 7.4104023 4.18894714 7.02063278 4.46559207 7.16961654 4.01799328 6.77984701 3.74134835 7.26141854 3.74134835"></polygon>
                                        <polygon id="Fill-24" fill="#FFFFFF" points="10.1243185 3.29355704 10.2733022 3.74134835 10.7548738 3.74134835 10.3651042 4.01799328 10.514088 4.46559207 10.1243185 4.18894714 9.73454895 4.46559207 9.88353271 4.01799328 9.49376319 3.74134835 9.97533471 3.74134835"></polygon>
                                        <polygon id="Fill-25" fill="#FFFFFF" points="12.8382346 3.29355704 12.9872184 3.74134835 13.4687899 3.74134835 13.0790204 4.01799328 13.2280042 4.46559207 12.8382346 4.18894714 12.4486596 4.46559207 12.5974489 4.01799328 12.2076794 3.74134835 12.6894454 3.74134835"></polygon>
                                        <polygon id="Fill-26" fill="#FFFFFF" points="15.5521703 3.29355704 15.701154 3.74134835 16.1827256 3.74134835 15.7931505 4.01799328 15.9419398 4.46559207 15.5521703 4.18894714 15.1625952 4.46559207 15.3113845 4.01799328 14.921615 3.74134835 15.403381 3.74134835"></polygon>
                                        <polygon id="Fill-28" fill="#FFFFFF" points="4.69648613 6.56106672 4.84527539 7.00885803 5.32704141 7.00885803 4.93727189 7.28531044 5.08606115 7.73310175 4.69648613 7.45645682 4.3067166 7.73310175 4.45570036 7.28531044 4.06593084 7.00885803 4.54750237 7.00885803"></polygon>
                                        <polygon id="Fill-29" fill="#FFFFFF" points="7.4104023 6.56106672 7.55938606 7.00885803 8.04095758 7.00885803 7.65118806 7.28531044 7.80017182 7.73310175 7.4104023 7.45645682 7.02063278 7.73310175 7.16961654 7.28531044 6.77984701 7.00885803 7.26141854 7.00885803"></polygon>
                                        <polygon id="Fill-30" fill="#FFFFFF" points="10.1243185 6.56106672 10.2733022 7.00885803 10.7548738 7.00885803 10.3651042 7.28531044 10.514088 7.73310175 10.1243185 7.45645682 9.73454895 7.73310175 9.88353271 7.28531044 9.49376319 7.00885803 9.97533471 7.00885803"></polygon>
                                        <polygon id="Fill-31" fill="#FFFFFF" points="12.8382346 6.56106672 12.9872184 7.00885803 13.4687899 7.00885803 13.0790204 7.28531044 13.2280042 7.73310175 12.8382346 7.45645682 12.4486596 7.73310175 12.5974489 7.28531044 12.2076794 7.00885803 12.6894454 7.00885803"></polygon>
                                        <polygon id="Fill-32" fill="#FFFFFF" points="15.5521703 6.56106672 15.701154 7.00885803 16.1827256 7.00885803 15.7931505 7.28531044 15.9419398 7.73310175 15.5521703 7.45645682 15.1625952 7.73310175 15.3113845 7.28531044 14.921615 7.00885803 15.403381 7.00885803"></polygon>
                                        <polygon id="Fill-34" fill="#FFFFFF" points="4.69648613 9.87179616 4.84527539 10.3195875 5.32704141 10.3195875 4.93727189 10.5962324 5.08606115 11.0438312 4.69648613 10.7671863 4.3067166 11.0438312 4.45570036 10.5962324 4.06593084 10.3195875 4.54750237 10.3195875"></polygon>
                                        <polygon id="Fill-35" fill="#FFFFFF" points="7.4104023 9.87179616 7.55938606 10.3195875 8.04095758 10.3195875 7.65118806 10.5962324 7.80017182 11.0438312 7.4104023 10.7671863 7.02063278 11.0438312 7.16961654 10.5962324 6.77984701 10.3195875 7.26141854 10.3195875"></polygon>
                                        <polygon id="Fill-36" fill="#FFFFFF" points="10.1243185 9.87179616 10.2733022 10.3195875 10.7548738 10.3195875 10.3651042 10.5962324 10.514088 11.0438312 10.1243185 10.7671863 9.73454895 11.0438312 9.88353271 10.5962324 9.49376319 10.3195875 9.97533471 10.3195875"></polygon>
                                        <polygon id="Fill-37" fill="#FFFFFF" points="12.8382346 9.87179616 12.9872184 10.3195875 13.4687899 10.3195875 13.0790204 10.5962324 13.2280042 11.0438312 12.8382346 10.7671863 12.4486596 11.0438312 12.5974489 10.5962324 12.2076794 10.3195875 12.6894454 10.3195875"></polygon>
                                        <polygon id="Fill-38" fill="#FFFFFF" points="15.5521703 9.87179616 15.701154 10.3195875 16.1827256 10.3195875 15.7931505 10.5962324 15.9419398 11.0438312 15.5521703 10.7671863 15.1625952 11.0438312 15.3113845 10.5962324 14.921615 10.3195875 15.403381 10.3195875"></polygon>
                                        <polygon id="Fill-40" fill="#FFFFFF" points="4.69648613 12.4051476 4.84527539 12.8529389 5.32704141 12.8529389 4.93727189 13.1295838 5.08606115 13.5771826 4.69648613 13.3005377 4.3067166 13.5771826 4.45570036 13.1295838 4.06593084 12.8529389 4.54750237 12.8529389"></polygon>
                                        <polygon id="Fill-41" fill="#FFFFFF" points="7.4104023 12.4051476 7.55938606 12.8529389 8.04095758 12.8529389 7.65118806 13.1295838 7.80017182 13.5771826 7.4104023 13.3005377 7.02063278 13.5771826 7.16961654 13.1295838 6.77984701 12.8529389 7.26141854 12.8529389"></polygon>
                                        <polygon id="Fill-42" fill="#FFFFFF" points="10.1243185 12.4051476 10.2733022 12.8529389 10.7548738 12.8529389 10.3651042 13.1295838 10.514088 13.5771826 10.1243185 13.3005377 9.73454895 13.5771826 9.88353271 13.1295838 9.49376319 12.8529389 9.97533471 12.8529389"></polygon>
                                        <polygon id="Fill-43" fill="#FFFFFF" points="12.8382346 12.4051476 12.9872184 12.8529389 13.4687899 12.8529389 13.0790204 13.1295838 13.2280042 13.5771826 12.8382346 13.3005377 12.4486596 13.5771826 12.5974489 13.1295838 12.2076794 12.8529389 12.6894454 12.8529389"></polygon>
                                        <polygon id="Fill-44" fill="#FFFFFF" points="15.5521703 12.4051476 15.701154 12.8529389 16.1827256 12.8529389 15.7931505 13.1295838 15.9419398 13.5771826 15.5521703 13.3005377 15.1625952 13.5771826 15.3113845 13.1295838 14.921615 12.8529389 15.403381 12.8529389"></polygon>
                                        <polygon id="Fill-45" fill="#FFFFFF" points="3.35287045 1.74488448 3.50185421 2.19248327 3.98342574 2.19248327 3.59365621 2.4691282 3.74263997 2.91672699 3.35287045 2.64008206 2.96310093 2.91672699 3.11208469 2.4691282 2.72231517 2.19248327 3.20388669 2.19248327"></polygon>
                                        <polygon id="Fill-46" fill="#FFFFFF" points="6.06013487 1.74488448 6.20892413 2.19248327 6.69069015 2.19248327 6.30092063 2.4691282 6.44990439 2.91672699 6.06013487 2.64008206 5.67036534 2.91672699 5.8193491 2.4691282 5.42957958 2.19248327 5.91115111 2.19248327"></polygon>
                                        <polygon id="Fill-47" fill="#FFFFFF" points="8.76732149 1.74488448 8.91630525 2.19248327 9.39787677 2.19248327 9.00810725 2.4691282 9.15709101 2.91672699 8.76732149 2.64008206 8.37774646 2.91672699 8.52653572 2.4691282 8.1367662 2.19248327 8.61853222 2.19248327"></polygon>
                                        <polygon id="Fill-48" fill="#FFFFFF" points="11.4745859 1.74488448 11.6235697 2.19248327 12.1051412 2.19248327 11.7153717 2.4691282 11.8643554 2.91672699 11.4745859 2.64008206 11.0850109 2.91672699 11.2338001 2.4691282 10.8440306 2.19248327 11.3256021 2.19248327"></polygon>
                                        <polygon id="Fill-49" fill="#FFFFFF" points="14.1818698 1.74488448 14.3308535 2.19248327 14.8124251 2.19248327 14.4226555 2.4691282 14.5716393 2.91672699 14.1818698 2.64008206 13.7921002 2.91672699 13.941084 2.4691282 13.5513145 2.19248327 14.032886 2.19248327"></polygon>
                                        <polygon id="Fill-50" fill="#FFFFFF" points="3.35287045 4.95410043 3.50185421 5.40169922 3.98342574 5.40169922 3.59365621 5.67834415 3.74263997 6.12594294 3.35287045 5.84929801 2.96310093 6.12594294 3.11208469 5.67834415 2.72231517 5.40169922 3.20388669 5.40169922"></polygon>
                                        <polygon id="Fill-51" fill="#FFFFFF" points="6.06013487 4.95410043 6.20892413 5.40169922 6.69069015 5.40169922 6.30092063 5.67834415 6.44990439 6.12594294 6.06013487 5.84929801 5.67036534 6.12594294 5.8193491 5.67834415 5.42957958 5.40169922 5.91115111 5.40169922"></polygon>
                                        <polygon id="Fill-52" fill="#FFFFFF" points="8.76732149 4.95410043 8.91630525 5.40169922 9.39787677 5.40169922 9.00810725 5.67834415 9.15709101 6.12594294 8.76732149 5.84929801 8.37774646 6.12594294 8.52653572 5.67834415 8.1367662 5.40169922 8.61853222 5.40169922"></polygon>
                                        <polygon id="Fill-53" fill="#FFFFFF" points="11.4745859 4.95410043 11.6235697 5.40169922 12.1051412 5.40169922 11.7153717 5.67834415 11.8643554 6.12594294 11.4745859 5.84929801 11.0850109 6.12594294 11.2338001 5.67834415 10.8440306 5.40169922 11.3256021 5.40169922"></polygon>
                                        <polygon id="Fill-54" fill="#FFFFFF" points="14.1818698 4.95410043 14.3308535 5.40169922 14.8124251 5.40169922 14.4226555 5.67834415 14.5716393 6.12594294 14.1818698 5.84929801 13.7921002 6.12594294 13.941084 5.67834415 13.5513145 5.40169922 14.032886 5.40169922"></polygon>
                                        <polygon id="Fill-55" fill="#FFFFFF" points="3.35287045 8.1326679 3.50185421 8.5804592 3.98342574 8.5804592 3.59365621 8.85710413 3.74263997 9.30470293 3.35287045 9.02805799 2.96310093 9.30470293 3.11208469 8.85710413 2.72231517 8.5804592 3.20388669 8.5804592"></polygon>
                                        <polygon id="Fill-56" fill="#FFFFFF" points="6.06013487 8.1326679 6.20892413 8.5804592 6.69069015 8.5804592 6.30092063 8.85710413 6.44990439 9.30470293 6.06013487 9.02805799 5.67036534 9.30470293 5.8193491 8.85710413 5.42957958 8.5804592 5.91115111 8.5804592"></polygon>
                                        <polygon id="Fill-57" fill="#FFFFFF" points="8.76732149 8.1326679 8.91630525 8.5804592 9.39787677 8.5804592 9.00810725 8.85710413 9.15709101 9.30470293 8.76732149 9.02805799 8.37774646 9.30470293 8.52653572 8.85710413 8.1367662 8.5804592 8.61853222 8.5804592"></polygon>
                                        <polygon id="Fill-58" fill="#FFFFFF" points="11.4745859 8.1326679 11.6235697 8.5804592 12.1051412 8.5804592 11.7153717 8.85710413 11.8643554 9.30470293 11.4745859 9.02805799 11.0850109 9.30470293 11.2338001 8.85710413 10.8440306 8.5804592 11.3256021 8.5804592"></polygon>
                                        <polygon id="Fill-59" fill="#FFFFFF" points="14.1818698 8.1326679 14.3308535 8.5804592 14.8124251 8.5804592 14.4226555 8.85710413 14.5716393 9.30470293 14.1818698 9.02805799 13.7921002 9.30470293 13.941084 8.85710413 13.5513145 8.5804592 14.032886 8.5804592"></polygon>
                                        <polygon id="Fill-60" fill="#FFFFFF" points="3.43796235 11.2331318 3.58694611 11.6809231 4.06851764 11.6809231 3.67874811 11.957568 3.82773187 12.4051668 3.43796235 12.1285219 3.04819283 12.4051668 3.19717659 11.957568 2.80740706 11.6809231 3.28897859 11.6809231"></polygon>
                                        <polygon id="Fill-61" fill="#FFFFFF" points="6.14514897 11.2331318 6.29413273 11.6809231 6.77570425 11.6809231 6.38593473 11.957568 6.53491849 12.4051668 6.14514897 12.1285219 5.75557394 12.4051668 5.90436321 11.957568 5.51459368 11.6809231 5.9963597 11.6809231"></polygon>
                                        <polygon id="Fill-62" fill="#FFFFFF" points="8.85241339 11.2331318 9.00139714 11.6809231 9.48296867 11.6809231 9.09319915 11.957568 9.24218291 12.4051668 8.85241339 12.1285219 8.46264386 12.4051668 8.61162762 11.957568 8.2218581 11.6809231 8.70342963 11.6809231"></polygon>
                                        <polygon id="Fill-63" fill="#FFFFFF" points="11.5596778 11.2331318 11.7086616 11.6809231 12.1902331 11.6809231 11.8004636 11.957568 11.9494473 12.4051668 11.5596778 12.1285219 11.1699083 12.4051668 11.318892 11.957568 10.9291225 11.6809231 11.410694 11.6809231"></polygon>
                                        <polygon id="Fill-64" fill="#FFFFFF" points="14.2668644 11.2331318 14.4158482 11.6809231 14.8974197 11.6809231 14.5078447 11.957568 14.6566339 12.4051668 14.2668644 12.1285219 13.8772894 12.4051668 14.0260787 11.957568 13.6363091 11.6809231 14.1180752 11.6809231"></polygon>
                                    </g>
                                </g>
                            </g>
                        </g>
                    </g>
                </g>
            </g>
        </g>
    </g>
</svg>