<?xml version="1.0" encoding="UTF-8"?>
<svg width="28px" height="28px" viewBox="0 0 28 28" version="1.1" xmlns="http://www.w3.org/2000/svg" xmlns:xlink="http://www.w3.org/1999/xlink">
    <title>F9E522C2-FF09-437A-AF98-DC978794B3AF</title>
    <g id="Page-1" stroke="none" stroke-width="1" fill="none" fill-rule="evenodd">
        <g id="Language_1_LA-GN-10_A" transform="translate(-1125.000000, -184.000000)">
            <g id="#-커뮤니티알림" transform="translate(1100.000000, 70.000000)">
                <g id="list" transform="translate(1.000000, 49.000000)">
                    <g id="002" transform="translate(0.000000, 53.000000)">
                        <g id="002_img" transform="translate(24.000000, 12.000000)">
                            <circle id="Oval" stroke="#E8E8E8" fill="#DE2910" cx="14" cy="14" r="13.5"></circle>
                            <g id="Group-7" transform="translate(6.860831, 9.070981)" fill="#FFDE00">
                                <polygon id="Fill-2" points="4.24765578 3.69778778 3.43642669 1.13686836 2.62519759 3.69778778 0 3.69778778 2.12382789 5.28018936 1.31286777 7.84138466 3.43642669 6.25870721 5.56052355 7.84138466 4.74902548 5.28018936 6.87339132 3.69778778"></polygon>
                                <polygon id="Fill-3" points="9.27937416 1.57109083 9.7293696 2.34049773 9.8062965 1.44667257 10.6589478 1.24501017 9.85363613 0.89410103 9.93056303 0 9.3557631 0.676713924 8.55072044 0.325528916 9.00098486 1.09521169 8.42618494 1.77220149"></polygon>
                                <polygon id="Fill-4" points="11.5380931 3.93592046 11.6620906 4.8250558 12.0712019 4.03137216 12.9332673 4.18503284 12.3240385 3.54059594 12.7326118 2.74718818 11.9472043 3.14278857 11.3377066 2.49835167 11.4614352 3.38693526 10.6762967 3.78225978"></polygon>
                                <polygon id="Fill-5" points="12.3106167 7.44360487 13 6.89020572 12.1252928 6.92248274 11.8251165 6.07941802 11.5849217 6.94234552 10.7099455 6.97434667 11.4364474 7.47533015 11.1954456 8.33853352 11.884829 7.78541024 12.6110619 8.28639372"></polygon>
                                <polygon id="Fill-6" points="9.84360336 9.52530711 9.88421861 8.62872324 9.3373921 9.32943802 8.5186317 9.01273701 8.99955929 9.762557 8.45300176 10.4635477 9.29704583 10.2260219 9.77770444 10.9761178 9.81831969 10.0795339 10.6623638 9.84173226"></polygon>
                            </g>
                        </g>
                    </g>
                </g>
            </g>
        </g>
    </g>
</svg>