<?xml version="1.0" encoding="UTF-8"?>
<svg width="28px" height="28px" viewBox="0 0 28 28" version="1.1" xmlns="http://www.w3.org/2000/svg" xmlns:xlink="http://www.w3.org/1999/xlink">
    <title>11040707-0ECF-406C-9CCB-FBEBB9A947B5</title>
    <g id="Page-1" stroke="none" stroke-width="1" fill="none" fill-rule="evenodd">
        <g id="Language_1_LA-GN-10_A" transform="translate(-1125.000000, -131.000000)">
            <g id="#-커뮤니티알림" transform="translate(1100.000000, 70.000000)">
                <g id="list" transform="translate(1.000000, 49.000000)">
                    <g id="001_img" transform="translate(24.000000, 12.000000)">
                        <circle id="Oval" stroke="#E8E8E8" fill="#FFFFFF" cx="14" cy="14" r="13.5"></circle>
                        <g id="Group-33" transform="translate(5.000000, 6.750000)">
                            <path d="M5.24965795,4.79201759 C6.63049373,2.72085406 9.42894431,2.16123606 11.5001078,3.54189156 C13.5712714,4.92272734 14.1310697,7.72117792 12.7502339,9.79234144 C11.3693981,11.8636853 8.57094751,12.4233033 6.49996428,11.0424675 C4.42862046,9.6616317 3.86900246,6.86318112 5.24965795,4.79201759" id="Fill-11" fill="#C60C30"></path>
                            <path d="M5.24965795,4.79201759 C4.55933021,5.82759935 4.83913921,7.22682464 5.87472097,7.91715239 C6.91048302,8.60766043 8.30970831,8.32785143 9.00003606,7.29226966 C9.6903638,6.2566879 11.0895891,5.97669861 12.1251709,6.66720664 C13.1607526,7.35753439 13.4407419,8.75675968 12.7502339,9.79234144 C11.3693981,11.8636853 8.57094751,12.4233033 6.49996428,11.0424675 C4.42862046,9.6616317 3.86900246,6.86318112 5.24965795,4.79201759" id="Fill-13" fill="#003478"></path>
                            <polygon id="Fill-15" fill="#000000" points="4.37520675 13.3342871 5.00026977 12.9176385 2.50019798 9.16744069 1.87513497 9.58408927"></polygon>
                            <polygon id="Fill-17" fill="#000000" points="0.625063018 10.4174405 0 10.8340891 2.50007178 14.5842869 3.1251348 14.1676383"></polygon>
                            <polygon id="Fill-19" fill="#000000" points="16.4373965 4.79210774 17.0624596 4.37527886 14.5623878 0.625081047 13.9373248 1.04190992"></polygon>
                            <polygon id="Fill-21" fill="#000000" points="15.4998561 9.01446521e-05 14.8747931 0.416919016 16.0207119 2.13561695 16.6455946 1.71896837"></polygon>
                            <polygon id="Fill-23" fill="#000000" points="17.374937 4.16708078 18 3.7502519 16.8540812 2.03137368 16.2291985 2.44820255"></polygon>
                            <polygon id="Fill-25" fill="#000000" points="15.4998561 5.4171347 16.1249191 5.00030582 14.97882 3.28160789 14.3539373 3.69825647"></polygon>
                            <polygon id="Fill-27" fill="#000000" points="13.6247933 1.25014406 12.9997302 1.66697294 14.1456491 3.38567087 14.7705318 2.96902229"></polygon>
                            <polygon id="Fill-29" fill="#000000" points="2.7084141 11.5112377 1.56267557 9.79235947 0.937612556 10.2090081 2.08335108 11.9280666"></polygon>
                            <polygon id="Fill-31" fill="#000000" points="2.91688262 11.8237512 2.29181961 12.2405801 3.43773842 13.959278 4.06262115 13.5426294"></polygon>
                            <polygon id="Fill-2" fill="#000000" points="0.937576498 4.37536901 1.56263952 4.79219788 4.0627113 1.04181977 3.43764828 0.625171191"></polygon>
                            <polygon id="Fill-3" fill="#000000" points="4.37520675 1.25014406 1.87513497 5.00034188 2.50019798 5.41717075 5.00026977 1.66697294"></polygon>
                            <polygon id="Fill-4" fill="#000000" points="3.12517086 0.416828871 2.50010784 0 3.60578607e-05 3.75037811 0.625099076 4.16702669"></polygon>
                            <polygon id="Fill-5" fill="#000000" points="13.9373067 13.5426474 14.5623697 13.959296 15.7081083 12.2404178 15.0830453 11.8237692"></polygon>
                            <polygon id="Fill-6" fill="#000000" points="17.0624235 10.2090621 16.4373605 9.79241356 15.291622 11.5112918 15.9165047 11.9279404"></polygon>
                            <polygon id="Fill-7" fill="#000000" points="12.9997663 12.9176205 13.6248293 13.3342691 14.7705678 11.6153908 14.1455048 11.1987422"></polygon>
                            <polygon id="Fill-8" fill="#000000" points="16.1248831 9.58403518 15.49982 9.1673866 14.3539012 10.8862648 14.9789642 11.3029134"></polygon>
                            <polygon id="Fill-9" fill="#000000" points="14.8748291 14.1676744 15.4998922 14.584323 16.6456307 12.8654448 16.0205677 12.4487962"></polygon>
                            <polygon id="Fill-10" fill="#000000" points="17.9999639 10.8340891 17.3749009 10.4174405 16.2291624 12.1363187 16.8542254 12.5529673"></polygon>
                        </g>
                    </g>
                </g>
            </g>
        </g>
    </g>
</svg>