<?xml version="1.0" encoding="UTF-8"?>
<svg width="20px" height="20px" viewBox="0 0 20 20" version="1.1" xmlns="http://www.w3.org/2000/svg" xmlns:xlink="http://www.w3.org/1999/xlink">
    <title>icon / 20px / like / 2-2</title>
    <defs>
        <polygon id="path-1" points="0 0 19.9999062 0 19.9999062 19.9999375 0 19.9999375"></polygon>
    </defs>
    <g id="icon-/-20px-/-like-/-2-2" stroke="none" stroke-width="1" fill="none" fill-rule="evenodd">
        <g id="Group-10">
            <g id="Group-3">
                <mask id="mask-2" fill="white">
                    <use xlink:href="#path-1"></use>
                </mask>
                <g id="Clip-2"></g>
                <path d="M20,10 C20,15.5228125 15.5228125,20 10,20 C4.476875,20 0,15.5228125 0,10 C0,4.4771875 4.476875,0 10,0 C15.5228125,0 20,4.4771875 20,10" id="Fill-1" fill="#FCD462" mask="url(#mask-2)"></path>
            </g>
            <path d="M7.1380625,7.7969375 C7.1380625,8.599125 6.48775,9.249125 5.685875,9.249125 C4.8836875,9.249125 4.2336875,8.599125 4.2336875,7.7969375 C4.2336875,6.9950625 4.8836875,6.34475 5.685875,6.34475 C6.48775,6.34475 7.1380625,6.9950625 7.1380625,7.7969375" id="Fill-4" fill="#3C3C3B"></path>
            <path d="M12.861625,7.7969375 C12.861625,8.599125 13.5119375,9.249125 14.3138125,9.249125 C15.116,9.249125 15.7663125,8.599125 15.7663125,7.7969375 C15.7663125,6.9950625 15.116,6.34475 14.3138125,6.34475 C13.5119375,6.34475 12.861625,6.9950625 12.861625,7.7969375" id="Fill-6" fill="#3C3C3B"></path>
            <path d="M9.999875,11.6629062 C12.2532091,11.6629062 14.1476875,12.9965865 14.1476875,14.7679062 C14.1476875,15.1130842 13.8678655,15.3929062 13.5226875,15.3929062 C13.1775095,15.3929062 12.8976875,15.1130842 12.8976875,14.7679062 C12.8976875,13.7998514 11.6377915,12.9129062 9.999875,12.9129062 C8.39372007,12.9129062 7.15097056,13.7660885 7.10376649,14.7121539 L7.102375,14.7679062 C7.102375,15.1130842 6.82255297,15.3929062 6.477375,15.3929062 C6.13219703,15.3929062 5.852375,15.1130842 5.852375,14.7679062 C5.852375,12.9966313 7.7468009,11.6629062 9.999875,11.6629062 Z" id="Stroke-8" fill="#3C3C3B" fill-rule="nonzero"></path>
        </g>
    </g>
</svg>