<?xml version="1.0" encoding="UTF-8"?>
<svg width="18px" height="18px" viewBox="0 0 18 18" version="1.1" xmlns="http://www.w3.org/2000/svg" xmlns:xlink="http://www.w3.org/1999/xlink">
    <title>icon / 18px / like / 5-2</title>
    <defs>
        <polygon id="path-1" points="0 0 17.9998875 0 17.9998875 17.9999438 0 17.9999438"></polygon>
    </defs>
    <g id="icon-/-18px-/-like-/-5-2" stroke="none" stroke-width="1" fill="none" fill-rule="evenodd">
        <g id="Group-10" transform="translate(0.000000, -0.000000)">
            <g id="Group-3">
                <mask id="mask-2" fill="white">
                    <use xlink:href="#path-1"></use>
                </mask>
                <g id="Clip-2"></g>
                <path d="M18,8.99994375 C18,13.9707563 13.9705313,17.9999437 9,17.9999437 C4.0291875,17.9999437 0,13.9707563 0,8.99994375 C0,4.0294125 4.0291875,-5.625e-05 9,-5.625e-05 C13.9705313,-5.625e-05 18,4.0294125 18,8.99994375" id="Fill-1" fill="#FCD462" mask="url(#mask-2)"></path>
            </g>
            <path d="M7.14054375,5.10184688 C6.31760625,5.02337812 5.62545,5.66828438 5.62545,6.47490938 C5.62545,5.66828438 4.93329375,5.02337812 4.1106375,5.10184688 C3.39345,5.17019063 2.86666875,5.81369063 2.86666875,6.53425313 C2.86666875,7.24890938 3.158325,7.93262813 3.6741375,8.42762813 L5.62545,10.2990656 L7.57704375,8.42762813 C8.09285625,7.93262813 8.3845125,7.24890938 8.3845125,6.53425313 C8.3845125,5.81369063 7.85773125,5.17019063 7.14054375,5.10184688" id="Fill-4" fill="#E56353"></path>
            <path d="M10.8591469,5.10184688 C11.6820844,5.02337812 12.3742406,5.66828438 12.3742406,6.47490938 C12.3742406,5.66828438 13.0663969,5.02337812 13.8890531,5.10184688 C14.6062406,5.17019063 15.1330219,5.81369063 15.1330219,6.53425313 C15.1330219,7.24890938 14.8413656,7.93262813 14.3255531,8.42762813 L12.3742406,10.2990656 L10.4226469,8.42762813 C9.90683437,7.93262813 9.61517812,7.24890938 9.61517812,6.53425313 C9.61517812,5.81369063 10.1419594,5.17019063 10.8591469,5.10184688" id="Fill-6" fill="#E56353"></path>
            <path d="M11.5812281,14.648625 L6.69985313,14.648625 C5.98097813,14.648625 5.11725937,13.7849062 5.11725937,13.0663125 L5.11725937,12.09375 L12.8825719,12.09375 L12.8825719,13.0663125 C12.8825719,13.7849062 12.0188531,14.648625 11.2999781,14.648625" id="Fill-8" fill="#FFFFFF"></path>
        </g>
    </g>
</svg>