<?xml version="1.0" encoding="UTF-8"?>
<svg width="20px" height="20px" viewBox="0 0 20 20" version="1.1" xmlns="http://www.w3.org/2000/svg" xmlns:xlink="http://www.w3.org/1999/xlink">
    <title>icon / 20px / like / 1-2_gray</title>
    <defs>
        <polygon id="path-1" points="0 0 19.999875 0 19.999875 20 0 20"></polygon>
    </defs>
    <g id="icon-/-20px-/-like-/-1-2_gray" stroke="none" stroke-width="1" fill="none" fill-rule="evenodd">
        <g id="icon-/-64px-/-like-/-1-2">
            <g id="Group-14">
                <g id="Group-3">
                    <mask id="mask-2" fill="white">
                        <use xlink:href="#path-1"></use>
                    </mask>
                    <g id="Clip-2"></g>
                    <path d="M19.999875,10 C19.999875,15.5228125 15.523,20 9.999875,20 C4.4770625,20 -0.000125,15.5228125 -0.000125,10 C-0.000125,4.4771875 4.4770625,0 9.999875,0 C15.523,0 19.999875,4.4771875 19.999875,10" id="Fill-1" fill="#CCCCCC" mask="url(#mask-2)"></path>
                </g>
                <path d="M10.085,12.1875 C12.3383341,12.1875 14.2328125,13.5211803 14.2328125,15.2925 C14.2328125,15.637678 13.9529905,15.9175 13.6078125,15.9175 C13.2626345,15.9175 12.9828125,15.637678 12.9828125,15.2925 C12.9828125,14.3244452 11.7229165,13.4375 10.085,13.4375 C8.47884507,13.4375 7.23609556,14.2906823 7.18889149,15.2367477 L7.1875,15.2925 C7.1875,15.637678 6.90767797,15.9175 6.5625,15.9175 C6.21732203,15.9175 5.9375,15.637678 5.9375,15.2925 C5.9375,13.5212251 7.8319259,12.1875 10.085,12.1875 Z" id="Stroke-8" fill="#FFFFFF" fill-rule="nonzero"></path>
                <path d="M4.76677235,5.60336219 C4.91983239,5.3360792 5.24636018,5.23827363 5.51333009,5.3720472 L5.55289977,5.39385784 L8.77909366,7.33982897 C9.0525468,7.50477005 9.1439407,7.86599067 8.98322765,8.14663781 C8.83016761,8.4139208 8.50363982,8.51172637 8.23666991,8.3779528 L8.19710023,8.35614216 L4.97090634,6.41017103 C4.6974532,6.24522995 4.6060593,5.88400933 4.76677235,5.60336219 Z" id="Stroke-8" fill="#FFFFFF" fill-rule="nonzero"></path>
                <path d="M14.4471002,5.39385784 C14.7205534,5.22891676 15.0725146,5.32271505 15.2332277,5.60336219 C15.3862877,5.87064518 15.3106793,6.2110107 15.0669123,6.38530268 L15.0290937,6.41017103 L11.8028998,8.35614216 C11.5294466,8.52108324 11.1774854,8.42728495 11.0167723,8.14663781 C10.8637123,7.87935482 10.9393207,7.5389893 11.1830877,7.36469732 L11.2209063,7.33982897 L14.4471002,5.39385784 Z" id="Stroke-12" fill="#FFFFFF" fill-rule="nonzero"></path>
            </g>
            <path d="M8.0755625,8.7344375 C8.0755625,9.536625 7.42525,10.186625 6.623375,10.186625 C5.8211875,10.186625 5.1711875,9.536625 5.1711875,8.7344375 C5.1711875,7.9325625 5.8211875,7.28225 6.623375,7.28225 C7.42525,7.28225 8.0755625,7.9325625 8.0755625,8.7344375" id="Fill-4-Copy" fill="#FFFFFF"></path>
            <path d="M11.924125,8.7344375 C11.924125,9.536625 12.5744375,10.186625 13.3763125,10.186625 C14.1785,10.186625 14.8288125,9.536625 14.8288125,8.7344375 C14.8288125,7.9325625 14.1785,7.28225 13.3763125,7.28225 C12.5744375,7.28225 11.924125,7.9325625 11.924125,8.7344375" id="Fill-6-Copy" fill="#FFFFFF"></path>
        </g>
    </g>
</svg>