<?xml version="1.0" encoding="UTF-8"?>
<svg width="18px" height="18px" viewBox="0 0 18 18" version="1.1" xmlns="http://www.w3.org/2000/svg" xmlns:xlink="http://www.w3.org/1999/xlink">
    <title>icon / 18px / like / 4-2</title>
    <defs>
        <polygon id="path-1" points="0 0 17.9999438 0 17.9999438 17.9998875 0 17.9998875"></polygon>
    </defs>
    <g id="icon-/-18px-/-like-/-4-2" stroke="none" stroke-width="1" fill="none" fill-rule="evenodd">
        <g id="Group-10" transform="translate(-0.000000, 0.000000)">
            <g id="Group-3">
                <mask id="mask-2" fill="white">
                    <use xlink:href="#path-1"></use>
                </mask>
                <g id="Clip-2"></g>
                <path d="M18,9 C18,13.9705313 13.9705313,18 9,18 C4.02946875,18 0,13.9705313 0,9 C0,4.0291875 4.02946875,0 9,0 C13.9705313,0 18,4.0291875 18,9" id="Fill-1" fill="#FCD462" mask="url(#mask-2)"></path>
            </g>
            <path d="M6.42425625,7.01721563 C6.42425625,7.73890313 5.83925625,8.32418437 5.1172875,8.32418437 C4.39531875,8.32418437 3.81031875,7.73890313 3.81031875,7.01721563 C3.81031875,6.29552812 4.39531875,5.71024688 5.1172875,5.71024688 C5.83925625,5.71024688 6.42425625,6.29552812 6.42425625,7.01721563" id="Fill-4" fill="#3C3C3B"></path>
            <path d="M11.5754625,7.01721563 C11.5754625,7.73890313 12.1607438,8.32418437 12.8824313,8.32418437 C13.6044,8.32418437 14.1896813,7.73890313 14.1896813,7.01721563 C14.1896813,6.29552812 13.6044,5.71024688 12.8824313,5.71024688 C12.1607438,5.71024688 11.5754625,6.29552812 11.5754625,7.01721563" id="Fill-6" fill="#3C3C3B"></path>
            <path d="M12.1703625,10.4965875 C12.4810227,10.4965875 12.7328625,10.7484273 12.7328625,11.0590875 C12.7328625,12.653235 11.0278792,13.8535875 9.0001125,13.8535875 C6.97211179,13.8535875 5.26708125,12.6532753 5.26708125,11.0590875 C5.26708125,10.7484273 5.51892108,10.4965875 5.82958125,10.4965875 C6.14024142,10.4965875 6.39208125,10.7484273 6.39208125,11.0590875 C6.39208125,11.9303368 7.52598765,12.7285875 9.0001125,12.7285875 C10.4456519,12.7285875 11.5641265,11.9607235 11.6066102,11.1092646 L11.6078625,11.0590875 C11.6078625,10.7484273 11.8597023,10.4965875 12.1703625,10.4965875 Z" id="Stroke-8" fill="#3C3C3B" fill-rule="nonzero"></path>
        </g>
    </g>
</svg>