<?xml version="1.0" encoding="UTF-8"?>
<svg width="20px" height="20px" viewBox="0 0 20 20" version="1.1" xmlns="http://www.w3.org/2000/svg" xmlns:xlink="http://www.w3.org/1999/xlink">
    <title>icon / 20px / like / 3-2</title>
    <defs>
        <polygon id="path-1" points="0 0 19.9999375 0 19.9999375 19.9999375 0 19.9999375"></polygon>
    </defs>
    <g id="icon-/-20px-/-like-/-3-2" stroke="none" stroke-width="1" fill="none" fill-rule="evenodd">
        <g id="Group-10">
            <g id="Group-3">
                <mask id="mask-2" fill="white">
                    <use xlink:href="#path-1"></use>
                </mask>
                <g id="Clip-2"></g>
                <path d="M20,10 C20,15.5228125 15.5228125,20 10,20 C4.4771875,20 0,15.5228125 0,10 C0,4.4771875 4.4771875,0 10,0 C15.5228125,0 20,4.4771875 20,10" id="Fill-1" fill="#FCD462" mask="url(#mask-2)"></path>
            </g>
            <path d="M7.1380625,7.7969375 C7.1380625,8.599125 6.4880625,9.249125 5.685875,9.249125 C4.8836875,9.249125 4.2336875,8.599125 4.2336875,7.7969375 C4.2336875,6.9950625 4.8836875,6.34475 5.685875,6.34475 C6.4880625,6.34475 7.1380625,6.9950625 7.1380625,7.7969375" id="Fill-4" fill="#3C3C3B"></path>
            <path d="M12.861625,7.7969375 C12.861625,8.599125 13.5119375,9.249125 14.3138125,9.249125 C15.116,9.249125 15.7663125,8.599125 15.7663125,7.7969375 C15.7663125,6.9950625 15.116,6.34475 14.3138125,6.34475 C13.5119375,6.34475 12.861625,6.9950625 12.861625,7.7969375" id="Fill-6" fill="#3C3C3B"></path>
            <path d="M13.4375,12.7006563 C13.782678,12.7006563 14.0625,12.9804783 14.0625,13.3256563 C14.0625,13.6551443 13.8075382,13.9250829 13.4841445,13.948942 L13.4375,13.9506563 L6.5625,13.9506563 C6.21732203,13.9506563 5.9375,13.6708342 5.9375,13.3256563 C5.9375,12.9961682 6.19246181,12.7262296 6.51585552,12.7023705 L6.5625,12.7006563 L13.4375,12.7006563 Z" id="Stroke-8" fill="#3C3C3B" fill-rule="nonzero"></path>
        </g>
    </g>
</svg>