<?xml version="1.0" encoding="UTF-8"?>
<svg width="20px" height="20px" viewBox="0 0 20 20" version="1.1" xmlns="http://www.w3.org/2000/svg" xmlns:xlink="http://www.w3.org/1999/xlink">
    <title>icon / 20px / like / 5-2</title>
    <defs>
        <polygon id="path-1" points="0 0 19.999875 0 19.999875 19.9999375 0 19.9999375"></polygon>
    </defs>
    <g id="icon-/-20px-/-like-/-5-2" stroke="none" stroke-width="1" fill="none" fill-rule="evenodd">
        <g id="Group-10" transform="translate(0.000000, -0.000000)">
            <g id="Group-3">
                <mask id="mask-2" fill="white">
                    <use xlink:href="#path-1"></use>
                </mask>
                <g id="Clip-2"></g>
                <path d="M20,9.9999375 C20,15.5230625 15.5228125,19.9999375 10,19.9999375 C4.476875,19.9999375 0,15.5230625 0,9.9999375 C0,4.477125 4.476875,-6.25e-05 10,-6.25e-05 C15.5228125,-6.25e-05 20,4.477125 20,9.9999375" id="Fill-1" fill="#FCD462" mask="url(#mask-2)"></path>
            </g>
            <path d="M7.9339375,5.66871875 C7.0195625,5.58153125 6.2505,6.29809375 6.2505,7.19434375 C6.2505,6.29809375 5.4814375,5.58153125 4.567375,5.66871875 C3.7705,5.74465625 3.1851875,6.45965625 3.1851875,7.26028125 C3.1851875,8.05434375 3.50925,8.81403125 4.082375,9.36403125 L6.2505,11.4434063 L8.4189375,9.36403125 C8.9920625,8.81403125 9.316125,8.05434375 9.316125,7.26028125 C9.316125,6.45965625 8.7308125,5.74465625 7.9339375,5.66871875" id="Fill-4" fill="#E56353"></path>
            <path d="M12.0657188,5.66871875 C12.9800938,5.58153125 13.7491563,6.29809375 13.7491563,7.19434375 C13.7491563,6.29809375 14.5182188,5.58153125 15.4322813,5.66871875 C16.2291563,5.74465625 16.8144688,6.45965625 16.8144688,7.26028125 C16.8144688,8.05434375 16.4904063,8.81403125 15.9172813,9.36403125 L13.7491563,11.4434063 L11.5807188,9.36403125 C11.0075938,8.81403125 10.6835313,8.05434375 10.6835313,7.26028125 C10.6835313,6.45965625 11.2688438,5.74465625 12.0657188,5.66871875" id="Fill-6" fill="#E56353"></path>
            <path d="M12.8680312,16.27625 L7.44428125,16.27625 C6.64553125,16.27625 5.68584375,15.3165625 5.68584375,14.518125 L5.68584375,13.4375 L14.3139687,13.4375 L14.3139687,14.518125 C14.3139687,15.3165625 13.3542813,16.27625 12.5555313,16.27625" id="Fill-8" fill="#FFFFFF"></path>
        </g>
    </g>
</svg>