<?xml version="1.0" encoding="UTF-8"?>
<svg width="18px" height="18px" viewBox="0 0 18 18" version="1.1" xmlns="http://www.w3.org/2000/svg" xmlns:xlink="http://www.w3.org/1999/xlink">
    <title>icon / 18px / like / 3-2</title>
    <defs>
        <polygon id="path-1" points="0 0 17.9999438 0 17.9999438 17.9999438 0 17.9999438"></polygon>
    </defs>
    <g id="icon-/-18px-/-like-/-3-2" stroke="none" stroke-width="1" fill="none" fill-rule="evenodd">
        <g id="Group-10">
            <g id="Group-3">
                <mask id="mask-2" fill="white">
                    <use xlink:href="#path-1"></use>
                </mask>
                <g id="Clip-2"></g>
                <path d="M18,9 C18,13.9705313 13.9705313,18 9,18 C4.02946875,18 0,13.9705313 0,9 C0,4.02946875 4.02946875,0 9,0 C13.9705313,0 18,4.02946875 18,9" id="Fill-1" fill="#FCD462" mask="url(#mask-2)"></path>
            </g>
            <path d="M6.42425625,7.01724375 C6.42425625,7.7392125 5.83925625,8.3242125 5.1172875,8.3242125 C4.39531875,8.3242125 3.81031875,7.7392125 3.81031875,7.01724375 C3.81031875,6.29555625 4.39531875,5.710275 5.1172875,5.710275 C5.83925625,5.710275 6.42425625,6.29555625 6.42425625,7.01724375" id="Fill-4" fill="#3C3C3B"></path>
            <path d="M11.5754625,7.01724375 C11.5754625,7.7392125 12.1607438,8.3242125 12.8824312,8.3242125 C13.6044,8.3242125 14.1896813,7.7392125 14.1896813,7.01724375 C14.1896813,6.29555625 13.6044,5.710275 12.8824312,5.710275 C12.1607438,5.710275 11.5754625,6.29555625 11.5754625,7.01724375" id="Fill-6" fill="#3C3C3B"></path>
            <path d="M12.09375,11.4305906 C12.4044102,11.4305906 12.65625,11.6824305 12.65625,11.9930906 C12.65625,12.2896299 12.4267844,12.5325746 12.13573,12.5540478 L12.09375,12.5555906 L5.90625,12.5555906 C5.59558983,12.5555906 5.34375,12.3037508 5.34375,11.9930906 C5.34375,11.6965514 5.57321563,11.4536067 5.86426997,11.4321335 L5.90625,11.4305906 L12.09375,11.4305906 Z" id="Stroke-8" fill="#3C3C3B" fill-rule="nonzero"></path>
        </g>
    </g>
</svg>