<?xml version="1.0" encoding="UTF-8"?>
<svg width="18px" height="18px" viewBox="0 0 18 18" version="1.1" xmlns="http://www.w3.org/2000/svg" xmlns:xlink="http://www.w3.org/1999/xlink">
    <title>icon / 18px / like / 2-2</title>
    <defs>
        <polygon id="path-1" points="0 0 17.9999156 0 17.9999156 17.9999437 0 17.9999437"></polygon>
    </defs>
    <g id="icon-/-18px-/-like-/-2-2" stroke="none" stroke-width="1" fill="none" fill-rule="evenodd">
        <g id="Group-10">
            <g id="Group-3">
                <mask id="mask-2" fill="white">
                    <use xlink:href="#path-1"></use>
                </mask>
                <g id="Clip-2"></g>
                <path d="M18,9 C18,13.9705313 13.9705313,18 9,18 C4.0291875,18 0,13.9705313 0,9 C0,4.02946875 4.0291875,0 9,0 C13.9705313,0 18,4.02946875 18,9" id="Fill-1" fill="#FCD462" mask="url(#mask-2)"></path>
            </g>
            <path d="M6.42425625,7.01724375 C6.42425625,7.7392125 5.838975,8.3242125 5.1172875,8.3242125 C4.39531875,8.3242125 3.81031875,7.7392125 3.81031875,7.01724375 C3.81031875,6.29555625 4.39531875,5.710275 5.1172875,5.710275 C5.838975,5.710275 6.42425625,6.29555625 6.42425625,7.01724375" id="Fill-4" fill="#3C3C3B"></path>
            <path d="M11.5754625,7.01724375 C11.5754625,7.7392125 12.1607437,8.3242125 12.8824312,8.3242125 C13.6044,8.3242125 14.1896812,7.7392125 14.1896812,7.01724375 C14.1896812,6.29555625 13.6044,5.710275 12.8824312,5.710275 C12.1607437,5.710275 11.5754625,6.29555625 11.5754625,7.01724375" id="Fill-6" fill="#3C3C3B"></path>
            <path d="M8.9998875,10.4966156 C11.0278882,10.4966156 12.7329187,11.6969279 12.7329187,13.2911156 C12.7329187,13.6017758 12.4810789,13.8536156 12.1704187,13.8536156 C11.8597586,13.8536156 11.6079187,13.6017758 11.6079187,13.2911156 C11.6079187,12.4198663 10.4740124,11.6216156 8.9998875,11.6216156 C7.55434806,11.6216156 6.4358735,12.3894797 6.39338984,13.2409385 L6.3921375,13.2911156 C6.3921375,13.6017758 6.14029767,13.8536156 5.8296375,13.8536156 C5.51897733,13.8536156 5.2671375,13.6017758 5.2671375,13.2911156 C5.2671375,11.6969682 6.97212081,10.4966156 8.9998875,10.4966156 Z" id="Stroke-8" fill="#3C3C3B" fill-rule="nonzero"></path>
        </g>
    </g>
</svg>