<?xml version="1.0" encoding="UTF-8"?>
<svg width="18px" height="18px" viewBox="0 0 18 18" version="1.1" xmlns="http://www.w3.org/2000/svg" xmlns:xlink="http://www.w3.org/1999/xlink">
    <title>icon / 18px / like / 1-2</title>
    <defs>
        <polygon id="path-1" points="0 0 17.9998875 0 17.9998875 18 0 18"></polygon>
        <linearGradient x1="50%" y1="2.77555756e-15%" x2="50%" y2="61.3440785%" id="linearGradient-3">
            <stop stop-color="#FF4F00" offset="0%"></stop>
            <stop stop-color="#FCD462" offset="100%"></stop>
        </linearGradient>
    </defs>
    <g id="icon-/-18px-/-like-/-1-2" stroke="none" stroke-width="1" fill="none" fill-rule="evenodd">
        <g id="icon-/-64px-/-like-/-1-2">
            <g id="Group-14" transform="translate(0.000000, 0.000000)">
                <g id="Group-3">
                    <mask id="mask-2" fill="white">
                        <use xlink:href="#path-1"></use>
                    </mask>
                    <g id="Clip-2"></g>
                    <path d="M17.9998875,9 C17.9998875,13.9705313 13.9707,18 8.9998875,18 C4.02935625,18 -0.0001125,13.9705313 -0.0001125,9 C-0.0001125,4.02946875 4.02935625,0 8.9998875,0 C13.9707,0 17.9998875,4.02946875 17.9998875,9" id="Fill-1" fill="url(#linearGradient-3)" mask="url(#mask-2)"></path>
                </g>
                <path d="M9.0765,10.96875 C11.1045007,10.96875 12.8095313,12.1690622 12.8095313,13.76325 C12.8095313,14.0739102 12.5576914,14.32575 12.2470313,14.32575 C11.9363711,14.32575 11.6845313,14.0739102 11.6845313,13.76325 C11.6845313,12.8920007 10.5506249,12.09375 9.0765,12.09375 C7.63096056,12.09375 6.512486,12.861614 6.47000234,13.7130729 L6.46875,13.76325 C6.46875,14.0739102 6.21691017,14.32575 5.90625,14.32575 C5.59558983,14.32575 5.34375,14.0739102 5.34375,13.76325 C5.34375,12.1691025 7.04873331,10.96875 9.0765,10.96875 Z" id="Stroke-8" fill="#3C3C3B" fill-rule="nonzero"></path>
                <path d="M4.29009511,5.04302597 C4.42784915,4.80247128 4.72172416,4.71444626 4.96199708,4.83484248 L4.99760979,4.85447206 L7.90118429,6.60584607 C8.14729212,6.75429304 8.22954663,7.0793916 8.08490489,7.33197403 C7.94715085,7.57252872 7.65327584,7.66055374 7.41300292,7.54015752 L7.37739021,7.52052794 L4.47381571,5.76915393 C4.22770788,5.62070696 4.14545337,5.2956084 4.29009511,5.04302597 Z" id="Stroke-8" fill="#3C3C3B" fill-rule="nonzero"></path>
                <path d="M13.0023902,4.85447206 C13.248498,4.70602509 13.5652631,4.79044355 13.7099049,5.04302597 C13.8476589,5.28358066 13.7796114,5.58990963 13.5602211,5.74677241 L13.5261843,5.76915393 L10.6226098,7.52052794 C10.376502,7.66897491 10.0597369,7.58455645 9.91509511,7.33197403 C9.77734107,7.09141934 9.84538862,6.78509037 10.0647789,6.62822759 L10.0988157,6.60584607 L13.0023902,4.85447206 Z" id="Stroke-12" fill="#3C3C3B" fill-rule="nonzero"></path>
            </g>
            <path d="M7.26800625,7.86099375 C7.26800625,8.5829625 6.682725,9.1679625 5.9610375,9.1679625 C5.23906875,9.1679625 4.65406875,8.5829625 4.65406875,7.86099375 C4.65406875,7.13930625 5.23906875,6.554025 5.9610375,6.554025 C6.682725,6.554025 7.26800625,7.13930625 7.26800625,7.86099375" id="Fill-4-Copy" fill="#3C3C3B"></path>
            <path d="M10.7317125,7.86099375 C10.7317125,8.5829625 11.3169938,9.1679625 12.0386813,9.1679625 C12.76065,9.1679625 13.3459313,8.5829625 13.3459313,7.86099375 C13.3459313,7.13930625 12.76065,6.554025 12.0386813,6.554025 C11.3169938,6.554025 10.7317125,7.13930625 10.7317125,7.86099375" id="Fill-6-Copy" fill="#3C3C3B"></path>
        </g>
    </g>
</svg>