<?xml version="1.0" encoding="UTF-8"?>
<svg width="20px" height="20px" viewBox="0 0 20 20" version="1.1" xmlns="http://www.w3.org/2000/svg" xmlns:xlink="http://www.w3.org/1999/xlink">
    <title>icon / 20px / like / 4-2_gray</title>
    <defs>
        <polygon id="path-1" points="0 0 19.9999375 0 19.9999375 19.999875 0 19.999875"></polygon>
    </defs>
    <g id="icon-/-20px-/-like-/-4-2_gray" stroke="none" stroke-width="1" fill="none" fill-rule="evenodd">
        <g id="Group-10">
            <g id="Group-3">
                <mask id="mask-2" fill="white">
                    <use xlink:href="#path-1"></use>
                </mask>
                <g id="Clip-2"></g>
                <path d="M20,10 C20,15.5228125 15.5228125,20 10,20 C4.4771875,20 0,15.5228125 0,10 C0,4.476875 4.4771875,0 10,0 C15.5228125,0 20,4.476875 20,10" id="Fill-1" fill="#CCCCCC" mask="url(#mask-2)"></path>
            </g>
            <path d="M7.1380625,7.79690625 C7.1380625,8.59878125 6.4880625,9.24909375 5.685875,9.24909375 C4.8836875,9.24909375 4.2336875,8.59878125 4.2336875,7.79690625 C4.2336875,6.99503125 4.8836875,6.34471875 5.685875,6.34471875 C6.4880625,6.34471875 7.1380625,6.99503125 7.1380625,7.79690625" id="Fill-4" fill="#FFFFFF"></path>
            <path d="M12.861625,7.79690625 C12.861625,8.59878125 13.5119375,9.24909375 14.3138125,9.24909375 C15.116,9.24909375 15.7663125,8.59878125 15.7663125,7.79690625 C15.7663125,6.99503125 15.116,6.34471875 14.3138125,6.34471875 C13.5119375,6.34471875 12.861625,6.99503125 12.861625,7.79690625" id="Fill-6" fill="#FFFFFF"></path>
            <path d="M13.522625,11.662875 C13.867803,11.662875 14.147625,11.942697 14.147625,12.287875 C14.147625,14.0591499 12.2531991,15.392875 10.000125,15.392875 C7.74679087,15.392875 5.8523125,14.0591947 5.8523125,12.287875 C5.8523125,11.942697 6.13213453,11.662875 6.4773125,11.662875 C6.82249047,11.662875 7.1023125,11.942697 7.1023125,12.287875 C7.1023125,13.2559298 8.3622085,14.142875 10.000125,14.142875 C11.6062799,14.142875 12.8490294,13.2896927 12.8962335,12.3436273 L12.897625,12.287875 C12.897625,11.942697 13.177447,11.662875 13.522625,11.662875 Z" id="Stroke-8" fill="#FFFFFF" fill-rule="nonzero"></path>
        </g>
    </g>
</svg>