<svg xmlns="http://www.w3.org/2000/svg" width="98" height="31" viewBox="0 0 98 31">
    <g fill="none" fill-rule="evenodd">
        <g fill-rule="nonzero">
            <g>
                <path d="M1.21 0H98V30.019H1.21z" transform="translate(-100 -23) translate(100 23.303)"/>
                <path fill="#E1002A" d="M44.179 15.911h-6.876c-1.246 0-2.045-.859-2.045-1.92s.8-1.92 2.045-1.92h9.45c.657.017 1.27-.327 1.604-.9.333-.572.333-1.283 0-1.856-.334-.572-.947-.917-1.603-.899H36.666c-3.237 0-5.609 2.496-5.609 5.575 0 3.08 2.377 5.576 5.61 5.576h6.704c1.246 0 2.047.856 2.05 1.916.002 1.06-.804 1.922-2.05 1.926h-9.976c-.977.026-1.756.837-1.756 1.827s.779 1.8 1.756 1.827h10.833c3.226-.022 5.585-2.511 5.577-5.585-.008-3.074-2.387-5.577-5.626-5.567zm22.45-5.174c-1.224 0-2.217 1.006-2.217 2.247v10.672c0 1.208-.967 2.188-2.16 2.188h-4.066c-1.193 0-2.16-.98-2.161-2.188V12.979c0-1.241-.993-2.247-2.218-2.247s-2.218 1.006-2.218 2.247v10.93c0 1.452.57 2.844 1.583 3.87 1.013 1.026 2.387 1.602 3.82 1.602h6.446c1.432 0 2.806-.576 3.82-1.602 1.012-1.026 1.581-2.418 1.581-3.87V12.98c-.001-1.237-.989-2.24-2.21-2.245v.003zm16.285-5.865h-6.447c-2.983 0-5.4 2.45-5.4 5.473v10.93c0 1.24.992 2.246 2.217 2.246 1.224 0 2.217-1.006 2.217-2.247V10.601c0-.58.227-1.137.633-1.548.405-.41.954-.641 1.527-.64h4.069c.573-.001 1.123.23 1.528.64.405.41.632.967.632 1.548v10.67c0 1.242.993 2.247 2.218 2.247 1.224 0 2.217-1.005 2.217-2.246v-10.93c0-1.453-.57-2.847-1.585-3.874-1.015-1.026-2.391-1.602-3.826-1.599v.003zm9.837 5.865c-1.224 0-2.217 1.006-2.217 2.247v14.16c0 1.242.993 2.248 2.217 2.248 1.225 0 2.218-1.006 2.218-2.247V12.979c-.002-1.24-.994-2.245-2.218-2.245v.003z" transform="translate(-100 -23) translate(100 23.303)"/>
                <path fill="#61C1BE" d="M15.332 11.781c-.246-.431-.7-.697-1.191-.697-.492 0-.946.266-1.192.697l-3.668 6.436-3.668-6.437c-.246-.431-.7-.697-1.191-.697-.492 0-.946.266-1.191.697L.185 17.136c-.246.431-.247.963 0 1.394.245.432.7.698 1.19.697H17.2c.491 0 .946-.265 1.192-.697.245-.43.246-.962 0-1.394l-3.059-5.355zm11.04-.698h-6.099c-.491 0-.946.266-1.191.697-.246.431-.246.963 0 1.394l3.45 6.053c.162.29.465.47.794.47s.632-.18.794-.47l3.45-6.053c.247-.432.246-.965-.002-1.397-.247-.431-.704-.696-1.196-.694zm-3.053 9.503c-.707 0-1.344.431-1.615 1.093-.27.662-.12 1.423.38 1.93.5.506 1.251.658 1.904.384s1.08-.92 1.08-1.636c-.001-.978-.784-1.77-1.749-1.771zm0 2.722c-.518 0-.939-.426-.939-.951 0-.526.42-.952.94-.952.518 0 .939.426.939.952 0 .253-.098.496-.275.675-.176.179-.415.28-.665.28v-.004zM92.751 9.039c-1.605.001-3.052-.977-3.668-2.479-.615-1.502-.276-3.231.858-4.381 1.135-1.15 2.842-1.495 4.324-.872 1.483.622 2.45 2.088 2.45 3.714-.004 2.217-1.776 4.013-3.964 4.018zm0-6.493c-1.348 0-2.44 1.108-2.44 2.475 0 1.366 1.094 2.473 2.442 2.473s2.442-1.108 2.442-2.474c-.003-1.366-1.096-2.472-2.444-2.473v-.001z" transform="translate(-100 -23) translate(100 23.303)"/>
            </g>
        </g>
    </g>
</svg>
