<svg xmlns="http://www.w3.org/2000/svg" width="90" height="90" viewBox="0 0 90 90">
  <defs>
    <style>
      .cls-1, .cls-6 {
        fill: #ff664d;
      }

      .cls-2, .cls-3, .cls-4 {
        fill: none;
      }

      .cls-3, .cls-4, .cls-6 {
        stroke: #fff;
        stroke-linecap: round;
        stroke-linejoin: round;
      }

      .cls-3, .cls-6 {
        stroke-width: 2px;
      }

      .cls-4 {
        stroke-width: 1.5px;
        opacity: 0.5;
      }

      .cls-5 {
        fill: #fff;
      }
    </style>
  </defs>
  <g id="icon_01_over" transform="translate(9 21.783)">
    <circle id="타원_1" data-name="타원 1" class="cls-1" cx="45" cy="45" r="45" transform="translate(-9 -21.783)"/>
    <path id="패스_2000" data-name="패스 2000" class="cls-2" d="M11.4,2.54C5.654,2.54,1,3.719,1,5.173V35.1c0-1.455,4.655-2.633,10.4-2.633s10.4,1.178,10.4,2.633V5.173c0-1.454-4.655-2.633-10.4-2.633" transform="translate(14.657 4.229)"/>
    <path id="패스_2001" data-name="패스 2001" class="cls-3" d="M11.4,2.54C5.654,2.54,1,3.719,1,5.173V35.1c0-1.455,4.655-2.633,10.4-2.633s10.4,1.178,10.4,2.633V5.173C21.794,3.719,17.139,2.54,11.4,2.54Z" transform="translate(14.657 4.229)"/>
    <path id="패스_2002" data-name="패스 2002" class="cls-2" d="M42.143,2.54c-5.742,0-10.4,1.179-10.4,2.633V35.1c0-1.455,4.655-2.633,10.4-2.633s10.4,1.178,10.4,2.633V5.173c0-1.454-4.655-2.633-10.4-2.633" transform="translate(4.705 4.229)"/>
    <path id="패스_2003" data-name="패스 2003" class="cls-3" d="M42.143,2.54c-5.742,0-10.4,1.179-10.4,2.633V35.1c0-1.455,4.655-2.633,10.4-2.633s10.4,1.178,10.4,2.633V5.173C52.54,3.719,47.885,2.54,42.143,2.54Z" transform="translate(4.705 4.229)"/>
    <path id="패스_2404" data-name="패스 2404" class="cls-4" d="M49.335,10.959c0-.792-2.94-1.434-6.566-1.434s-6.565.642-6.565,1.434" transform="translate(-16.921 4.178)"/>
    <path id="패스_2403" data-name="패스 2403" class="cls-4" d="M49.335,22.839c0-.792-2.94-1.434-6.566-1.434s-6.565.642-6.565,1.434" transform="translate(-16.921 -2.686)"/>
    <path id="패스_2402" data-name="패스 2402" class="cls-4" d="M49.335,28.78c0-.792-2.94-1.434-6.566-1.434S36.2,27.988,36.2,28.78" transform="translate(-16.921 -3.619)"/>
    <path id="패스_2401" data-name="패스 2401" class="cls-4" d="M49.335,34.72c0-.793-2.94-1.434-6.566-1.434S36.2,33.928,36.2,34.72" transform="translate(-16.921 -4.551)"/>
    <path id="패스_2043" data-name="패스 2043" class="cls-2" d="M55.4,55.844l-2.9-2.1-2.9,2.1v-11.4H55.4Z" transform="translate(-3.593 -39.311)"/>
    <path id="패스_2411" data-name="패스 2411" class="cls-5" d="M55.4,44.444l-2.9,1.535-2.9-1.535v8.335H55.4Z" transform="translate(-3.593 -45.245)"/>
    <path id="패스_2407" data-name="패스 2407" class="cls-6" d="M39.872,2.54c-5.32.424-8.126,1.179-8.126,2.633V35.1c0-1.455,3.638-2.633,8.126-2.633A20.319,20.319,0,0,0,48,30.971V.991A42.555,42.555,0,0,1,39.872,2.54Z" transform="translate(4.705 4.229)"/>
    <path id="패스_2017" data-name="패스 2017" class="cls-4" d="M43.667,9.121a31.87,31.87,0,0,1-4.125.4c-1.844,0-3.339.642-3.339,1.434" transform="translate(4.079 4.178)"/>
    <path id="패스_2412" data-name="패스 2412" class="cls-4" d="M43.667,9.121a31.87,31.87,0,0,1-4.125.4c-1.844,0-3.339.642-3.339,1.434" transform="translate(4.079 9.178)"/>
    <path id="패스_2413" data-name="패스 2413" class="cls-4" d="M43.667,9.121a31.87,31.87,0,0,1-4.125.4c-1.844,0-3.339.642-3.339,1.434" transform="translate(4.079 14.178)"/>
    <path id="패스_2414" data-name="패스 2414" class="cls-4" d="M43.667,9.121a31.87,31.87,0,0,1-4.125.4c-1.844,0-3.339.642-3.339,1.434" transform="translate(4.079 19.178)"/>
  </g>
</svg>
