<svg xmlns="http://www.w3.org/2000/svg" width="90" height="90" viewBox="0 0 90 90">
  <defs>
    <style>
      .cls-1, .cls-2 {
        fill: #ff664d;
      }

      .cls-2, .cls-4 {
        stroke: #fff;
        stroke-linecap: round;
        stroke-linejoin: round;
        stroke-width: 2px;
      }

      .cls-3 {
        fill: #fff;
      }

      .cls-4 {
        fill: none;
      }
    </style>
  </defs>
  <g id="icon_04_over" transform="translate(36 19)">
    <circle id="타원_4" data-name="타원 4" class="cls-1" cx="45" cy="45" r="45" transform="translate(-36 -19)"/>
    <g id="그룹_1407" data-name="그룹 1407" transform="translate(-15 2)">
      <path id="패스_1967" data-name="패스 1967" class="cls-2" d="M14.589,1H34.608a2.4,2.4,0,0,1,2.4,2.4V21.914l-4.495-5.2H14.589a2.4,2.4,0,0,1-2.4-2.4V3.4A2.4,2.4,0,0,1,14.589,1Z" transform="translate(4.283 1.567)"/>
      <path id="패스_1969" data-name="패스 1969" class="cls-2" d="M49.445,6.078H29.426a2.4,2.4,0,0,0-2.4,2.4V24.992l4.495-3.2H49.445a2.4,2.4,0,0,0,2.4-2.4V8.477A2.4,2.4,0,0,0,49.445,6.078Z" transform="translate(-19.457 0.58)"/>
      <path id="패스_1970" data-name="패스 1970" class="cls-3" d="M53.019,18.042a1.424,1.424,0,1,0,1.425-1.424,1.425,1.425,0,0,0-1.425,1.424" transform="translate(-39.418 -3.498)"/>
      <path id="패스_1971" data-name="패스 1971" class="cls-3" d="M44.942,18.042a1.424,1.424,0,1,0,1.424-1.424,1.424,1.424,0,0,0-1.424,1.424" transform="translate(-26.389 -3.498)"/>
      <path id="패스_1972" data-name="패스 1972" class="cls-3" d="M36.865,18.042a1.425,1.425,0,1,0,1.424-1.424,1.424,1.424,0,0,0-1.424,1.424" transform="translate(-13.36 -3.498)"/>
      <path id="패스_1974" data-name="패스 1974" class="cls-4" d="M11.722,52.516V52.5a1.218,1.218,0,0,1,.435-.9,1.91,1.91,0,0,0,.638-1.428v-2.2a1.937,1.937,0,0,0-1.936-1.937H9.325a1.938,1.938,0,0,0-1.937,1.937v2.2A1.917,1.917,0,0,0,8.025,51.6a1.215,1.215,0,0,1,.436.9v.017a1.14,1.14,0,0,1-.83,1.1l-1.7.482a1.907,1.907,0,0,0-1.389,1.834v3.224h11.1V55.928a1.906,1.906,0,0,0-1.387-1.834l-1.7-.482A1.14,1.14,0,0,1,11.722,52.516Z" transform="translate(-1.758 -16.913)"/>
      <path id="패스_1976" data-name="패스 1976" class="cls-4" d="M67.036,52.516V52.5a1.216,1.216,0,0,1,.435-.9,1.913,1.913,0,0,0,.638-1.428v-2.2a1.938,1.938,0,0,0-1.938-1.937H64.639A1.938,1.938,0,0,0,62.7,47.975v2.2a1.913,1.913,0,0,0,.638,1.428,1.216,1.216,0,0,1,.435.9v.017a1.14,1.14,0,0,1-.829,1.1l-1.7.482a1.906,1.906,0,0,0-1.388,1.834v3.224h11.1V55.928a1.906,1.906,0,0,0-1.387-1.834l-1.7-.482A1.14,1.14,0,0,1,67.036,52.516Z" transform="translate(-24.879 -16.913)"/>
      <line id="선_2" data-name="선 2" class="cls-3" x2="47.634" transform="translate(0.613 42.24)"/>
      <line id="선_3" data-name="선 3" class="cls-4" x2="47.634" transform="translate(0.613 42.24)"/>
    </g>
  </g>
</svg>
