<svg xmlns="http://www.w3.org/2000/svg" width="30" height="30" viewBox="0 0 30 30">
    <g fill="none" fill-rule="evenodd">
        <g>
            <g>
                <g>
                    <g>
                        <g>
                            <path fill="#222" d="M0 0H30V30H0z" transform="translate(-652 -366) translate(410 137) translate(0 181) translate(0 42) translate(242 6)"/>
                            <g>
                                <g transform="translate(-652 -366) translate(410 137) translate(0 181) translate(0 42) translate(242 6) translate(6 6) translate(2 1.005)">
                                    <path fill="#DDD" d="M2 3.995h10c1.105 0 2 .895 2 2v3.5c0 3.037-2.462 5.5-5.5 5.5h-3c-3.038 0-5.5-2.463-5.5-5.5v-3.5c0-1.105.895-2 2-2z"/>
                                    <rect width="1.5" height="3" x="6.25" y="7.495" fill="#000" rx=".75"/>
                                    <path stroke="#DDD" stroke-width="1.2" d="M4.47 4.995V3.033C4.47 1.01 5.313 0 7 0c1.687 0 2.524 1.01 2.512 3.033v1.962"/>
                                </g>
                            </g>
                        </g>
                    </g>
                </g>
            </g>
        </g>
    </g>
</svg>
