<?xml version="1.0" encoding="UTF-8"?>
<svg width="24px" height="24px" viewBox="0 0 24 24" version="1.1" xmlns="http://www.w3.org/2000/svg" xmlns:xlink="http://www.w3.org/1999/xlink">
    <title>D1B85D83-DD5E-4410-9C32-FDCE0F6B77BC</title>
    <defs>
        <rect id="path-1" x="0" y="0" width="24" height="24"></rect>
    </defs>
    <g id="문의하기" stroke="none" stroke-width="1" fill="none" fill-rule="evenodd">
        <g id="QA-QA-40" transform="translate(-679.000000, -1120.000000)">
            <g id="contents" transform="translate(0.000000, 163.000000)">
                <g id="문의답변만족도조사" transform="translate(360.000000, 871.000000)">
                    <g id="icons-/-24-/-ic_thumdown_off" transform="translate(319.000000, 86.000000)">
                        <mask id="mask-2" fill="white">
                            <use xlink:href="#path-1" transform="translate(12.000000, 12.000000) scale(1, -1) translate(-12.000000, -12.000000) "></use>
                        </mask>
                        <g id="Property-1=24,-Property-2=ic_thumb_down_off-(Background/Mask)" transform="translate(12.000000, 12.000000) scale(1, -1) translate(-12.000000, -12.000000) "></g>
                        <path d="M19.6191406,11.8754883 L17.383847,11.8754883 C16.4173493,11.8754883 15.6338463,11.0919873 15.6338463,10.1254883 L15.6338463,3.65490055 C15.6338463,2.68840313 16.4173474,1.9048996 17.3838463,1.9048996 L19.6191398,1.9048996 C20.5856374,1.9048996 21.3691406,2.68840027 21.3691406,3.6548996 L21.3691406,10.1254874 C21.3691406,11.091985 20.5856397,11.8754883 19.6191406,11.8754883 Z M19.8691406,10.1254874 L19.8691406,3.6548996 C19.8691406,3.51682901 19.7572117,3.4048996 19.6191398,3.4048996 L17.3838463,3.4048996 C17.2457759,3.4048996 17.1338463,3.51682854 17.1338463,3.65490055 L17.1338463,10.1254883 C17.1338463,10.2635587 17.2457752,10.3754883 17.383847,10.3754883 L19.6191406,10.3754883 C19.757211,10.3754883 19.8691406,10.2635594 19.8691406,10.1254874 Z" id="Rectangle-4301-(Stroke)" fill="#CBCDCF" mask="url(#mask-2)"></path>
                        <path d="M12.2342324,20.772305 C11.7860303,20.5108853 11.2469392,20.1603491 10.7556567,19.7409796 C10.2724276,19.3284844 9.78720379,18.8089778 9.50702286,18.1983268 C9.26374483,17.6681051 9.17140532,17.061079 9.1461072,16.5045023 C9.12044048,15.9398189 9.16189623,15.3758917 9.21993685,14.9027472 C9.23343563,14.7927032 9.19847345,14.6805182 9.12979317,14.5970788 C9.0635004,14.5165396 8.98353481,14.4817133 8.90534687,14.4817133 L3.75006294,14.4817133 C2.69794846,14.4817133 1.88367748,13.5599914 2.0134201,12.5159092 L3.14136124,3.43898773 C3.25025558,2.56267929 3.99495506,1.90479088 4.87800407,1.90479088 L15.3828125,1.90479088 C16.3493109,1.90479088 17.1328125,2.68829155 17.1328125,3.65479088 L17.1328125,10.8232203 C17.1328125,10.9849129 17.1104036,11.1458254 17.0662248,11.3013659 L14.6651125,19.754986 C14.3801394,20.7582943 13.2270377,21.3513718 12.2342324,20.772305 Z M13.2221878,19.3451469 L15.6233001,10.8915262 C15.6296113,10.8693066 15.6328125,10.8463192 15.6328125,10.8232203 L15.6328125,3.65479088 C15.6328125,3.51671982 15.5208835,3.40479088 15.3828125,3.40479088 L4.87800407,3.40479088 C4.75185394,3.40479088 4.64546871,3.49877357 4.62991238,3.62396049 L3.50197124,12.7008839 C3.48343658,12.8500395 3.59976196,12.9817133 3.75006294,12.9817133 L8.90534687,12.9817133 C10.0601516,12.9817133 10.8362694,14.0460644 10.7087765,15.0853829 C10.65698,15.5076261 10.6239338,15.9825993 10.6445603,16.4363928 C10.665555,16.898293 10.7403035,17.2893209 10.8703671,17.5727928 C11.0205073,17.9000218 11.3214173,18.2517416 11.7295265,18.6001124 C12.1295819,18.9416089 12.5870335,19.2415785 12.9899712,19.4765971 C13.0334203,19.5019393 13.0708113,19.5017993 13.1094856,19.4847316 C13.1530292,19.465515 13.200593,19.4211762 13.2221878,19.3451469 Z" id="Vector-4-(Stroke)" fill="#CBCDCF" mask="url(#mask-2)"></path>
                    </g>
                </g>
            </g>
        </g>
    </g>
</svg>