<svg xmlns="http://www.w3.org/2000/svg" width="24" height="24" viewBox="0 0 24 24">
    <g fill="none" fill-rule="evenodd">
        <g>
            <path fill="#F4F7FD" d="M0 0H1400V2008H0z" transform="translate(-974 -583)"/>
            <g>
                <g transform="translate(-974 -583) translate(400 159) translate(0 411)">
                    <rect width="949" height="49" x=".5" y=".5" fill="#FFF" stroke="#D6DEED" rx="8"/>
                    <g>
                        <g>
                            <path fill="#FFF" d="M0 0H24V24H0z" transform="translate(155 13) translate(419)"/>
                            <path fill="#FFAE57" d="M20 4c.552 0 1 .448 1 1v8c0 .081-.01.16-.028.236H21V16l-2-2h-9c-.552 0-1-.448-1-1V5c0-.552.448-1 1-1h10z" transform="translate(155 13) translate(419)"/>
                            <path fill="#FFAE57" d="M7 10v6h8v3c0 .513-.386.936-.883.993L14 20H5l-2 2v-2.764h.028C3.01 19.161 3 19.081 3 19v-8c0-.552.448-1 1-1h3z" transform="translate(155 13) translate(419)"/>
                        </g>
                    </g>
                </g>
            </g>
        </g>
    </g>
</svg>
