<svg width="18" height="18" viewBox="0 0 18 18" xmlns="http://www.w3.org/2000/svg">
    <g fill="none" fill-rule="evenodd">
        <path fill="#F9F9F9" d="M-635-1130h2600v4300H-635z"/>
        <g stroke="#222">
            <path d="m10.36.596.113.009c.285.044.559.238.861.547 1.289 1.319-.186 3.078-.186 3.078-.062.582.085 1.172.687 1.578.31.208.747.375 1.376.375h3.03c.037 0 .34.01.616.167.456.64.424 1.108.154 1.791-.673 1.705-2.214 4.973-2.399 5.362l-.018.039c-.033.09-.161.447-.637.69-.308.158-.742.268-1.343.268H5.251l.02-8.047c.316-.443.614-.865.897-1.265C7.71 3.006 8.757 1.494 9.676.86c.276-.19.533-.295.797-.254z"/>
            <path d="M5.25 5.5v9h-3.5L1.25 6l4-.5z" fill="#00BFAE"/>
        </g>
    </g>
</svg>
