<?xml version="1.0" encoding="UTF-8"?>
<svg width="16px" height="16px" viewBox="0 0 16 16" version="1.1" xmlns="http://www.w3.org/2000/svg" xmlns:xlink="http://www.w3.org/1999/xlink">
    <title>C4DC9073-1E7B-4AD9-9BEA-5DA4768997BA</title>
    <g id="Community-Template" stroke="none" stroke-width="1" fill="none" fill-rule="evenodd">
        <g id="Community_99_TemplateSample_A" transform="translate(-141.000000, -604.000000)" fill="#A7ABBE" fill-rule="nonzero">
            <g id="@-center" transform="translate(0.000000, 77.000000)">
                <g id="LNB" transform="translate(100.000000, 240.000000)">
                    <g id="menu" transform="translate(0.000000, 30.000000)">
                        <g id="4.-Depth-Open" transform="translate(0.000000, 130.000000)">
                            <g id="2depth" transform="translate(0.000000, 65.000000)">
                                <g id="002" transform="translate(20.000000, 60.000000)">
                                    <g id="icon_communtiy_menu_download" transform="translate(21.000000, 2.000000)">
                                        <path d="M14,10 L14,14 L13,14 L13,10 L14,10 Z M3,10 L3,14 L2,14 L2,10 L3,10 Z M8.5,2 L8.5,7.993 L10.2295374,6.26462166 L11.0614277,7.096512 L7.96783552,10.1901042 L5.05621937,7.278488 L5.94010284,6.39460453 L7.5,7.955 L7.5,2 L8.5,2 Z M2,13 L14,13 L14,14 L2,14 L2,13 Z" id="icon"></path>
                                    </g>
                                </g>
                            </g>
                        </g>
                    </g>
                </g>
            </g>
        </g>
    </g>
</svg>