<?xml version="1.0" encoding="UTF-8"?>
<svg width="24px" height="24px" viewBox="0 0 24 24" version="1.1" xmlns="http://www.w3.org/2000/svg" xmlns:xlink="http://www.w3.org/1999/xlink">
    <title>E2FF38A4-1A17-4A5F-951F-2C88C8DD6242</title>
    <g id="공유하기-버튼-추가-관련-" stroke="none" stroke-width="1" fill="none" fill-rule="evenodd">
        <g id="New_CT-03-01_Share-UI" transform="translate(-1440.000000, -742.000000)">
            <g id="#담당_info" transform="translate(1420.000000, 612.000000)">
                <g id="icon-/-24px-/-fb" transform="translate(20.000000, 130.000000)">
                    <path d="M24,12.0733598 C24,5.4054224 18.6274219,0 12,0 C5.37257813,0 0,5.4054224 0,12.0733598 C0,18.0995227 4.38822656,23.0943094 10.125,24 L10.125,15.5633154 L7.078125,15.5633154 L7.078125,12.0733598 L10.125,12.0733598 L10.125,9.41344773 C10.125,6.38756192 11.9165391,4.71615618 14.6575547,4.71615618 C15.9705,4.71615618 17.34375,4.95196398 17.34375,4.95196398 L17.34375,7.92314237 L15.8305547,7.92314237 C14.3398828,7.92314237 13.875,8.85380505 13.875,9.80859087 L13.875,12.0733598 L17.203125,12.0733598 L16.6710937,15.5633154 L13.875,15.5633154 L13.875,24 C19.6117734,23.0943094 24,18.0995227 24,12.0733598" id="Fill-1" fill="#4C4C4C"></path>
                    <path d="M16.3447489,15.6067961 L16.8630137,12.1941748 L13.6210046,12.1941748 L13.6210046,9.97959102 C13.6210046,9.04596238 14.0738584,8.13592233 15.5259589,8.13592233 L17,8.13592233 L17,5.23058252 C17,5.23058252 15.6622831,5 14.3833105,5 C11.7132192,5 9.96803653,6.63436893 9.96803653,9.59320388 L9.96803653,12.1941748 L7,12.1941748 L7,15.6067961 L9.96803653,15.6067961 L9.96803653,23.8565316 C10.5631735,23.9508398 11.1731507,24 11.7945205,24 C12.4158904,24 13.0258676,23.9508398 13.6210046,23.8565316 L13.6210046,15.6067961 L16.3447489,15.6067961 Z" id="Fill-3" fill="#FFFFFF"></path>
                </g>
            </g>
        </g>
    </g>
</svg>