<?xml version="1.0" encoding="UTF-8"?>
<svg width="24px" height="24px" viewBox="0 0 24 24" version="1.1" xmlns="http://www.w3.org/2000/svg" xmlns:xlink="http://www.w3.org/1999/xlink">
    <title>3A81E06F-764C-49CD-A987-DACFC1A5E97A</title>
    <defs>
        <rect id="path-1" x="0" y="0" width="24" height="24"></rect>
    </defs>
    <g id="문의하기" stroke="none" stroke-width="1" fill="none" fill-rule="evenodd">
        <g id="QA-QA-50" transform="translate(-631.000000, -1120.000000)">
            <g id="contents" transform="translate(0.000000, 163.000000)">
                <g id="문의답변만족도조사" transform="translate(360.000000, 871.000000)">
                    <g id="table" transform="translate(0.000000, 56.000000)">
                        <g id="icons-/-24-/-ic_thumup_on" transform="translate(271.000000, 30.000000)">
                            <mask id="mask-2" fill="white">
                                <use xlink:href="#path-1" transform="translate(12.000000, 12.000000) scale(1, -1) translate(-12.000000, -12.000000) "></use>
                            </mask>
                            <g id="Property-1=24,-Property-2=ic_thumb_up_on-(Background/Mask)" transform="translate(12.000000, 12.000000) scale(1, -1) translate(-12.000000, -12.000000) "></g>
                            <path d="M3.5,11.000062 L4.79999995,11.000062 C5.35228467,11.000062 5.79999995,11.4477772 5.79999995,12.000062 L5.79999995,20.000061 C5.79999995,20.5523462 5.35228467,21.000061 4.79999995,21.000061 L3.5,21.000061 C2.94771522,21.000061 2.5,20.5523462 2.5,20.000061 L2.5,12.000062 C2.5,11.4477772 2.94771522,11.000062 3.5,11.000062 Z M9.06475878,3.8998723 L6.81658745,11.815032 C6.7724086,11.9705725 6.75,12.131485 6.75,12.2931767 L6.75,19.0000687 C6.75,19.9665699 7.5335024,20.7500687 8.5,20.7500687 L18.3165741,20.7500687 C19.1996241,20.7500687 19.9443216,20.0921783 20.053215,19.2158718 L21.1046867,10.7543354 C21.2344294,9.71025372 20.4201584,8.78852987 19.3680439,8.78852987 L14.6333485,8.78852987 C14.5554957,8.78852987 14.4752474,8.75388384 14.4080791,8.67242765 C14.3383985,8.58792543 14.3023534,8.47378683 14.3153477,8.36176729 C14.413249,7.51779985 14.4686604,6.25509691 14.0316715,5.30268526 C13.7692599,4.73076296 13.3203564,4.24485826 12.8732967,3.85865068 C12.4187646,3.46598673 11.9188881,3.13629773 11.4973783,2.887301 C10.5032184,2.30002645 9.34916949,2.89854479 9.06475878,3.8998723 Z" id="Vector" fill="#FF664D" mask="url(#mask-2)"></path>
                        </g>
                    </g>
                </g>
            </g>
        </g>
    </g>
</svg>