<?xml version="1.0" encoding="UTF-8"?>
<svg width="24px" height="25px" viewBox="0 0 24 25" version="1.1" xmlns="http://www.w3.org/2000/svg" xmlns:xlink="http://www.w3.org/1999/xlink">
    <title>icon_submit_24px</title>
    <g id="Symbols" stroke="none" stroke-width="1" fill="none" fill-rule="evenodd">
        <g id="icon-/-24px-/-submit-/-inactive" stroke="#D0D0D0" stroke-width="1.4">
            <g id="btn-/-submit" transform="translate(0.000000, -6.000000)">
                <g id="icon-/-24px-/-submit" transform="translate(14.549583, 15.049506) rotate(-270.000000) translate(-14.549583, -15.049506) translate(-0.499923, 0.499923)">
                    <g id="Group-4" transform="translate(14.330793, 14.330793) rotate(-45.000000) translate(-14.330793, -14.330793) translate(4.197451, 4.197333)">
                        <path d="M10.0383647,0.715614067 C10.3254553,0.76092001 10.372532,0.807996757 10.4015612,0.866054978 L10.4015612,0.866054978 L19.5347929,19.1325185 C19.5718413,19.2066153 19.5753487,19.2887142 19.5510698,19.3615509 C19.5267908,19.4343877 19.4747256,19.4979624 19.4006289,19.5350108 C19.3365759,19.5670373 19.2631793,19.5750942 19.1937041,19.5577254 L19.1937041,19.5577254 L10.133233,17.2926076 L1.0727619,19.5577254 C0.992392665,19.5778177 0.91148796,19.5634318 0.845652487,19.5239305 C0.779817014,19.4844292 0.729050773,19.4198125 0.708958464,19.3394433 C0.691589668,19.2699681 0.699646579,19.1965715 0.731673057,19.1325185 L0.731673057,19.1325185 L9.86490484,0.866054978 C9.90195322,0.791958203 9.9655279,0.73989299 10.0383647,0.715614067 Z" id="Triangle"></path>
                        <line x1="10.133233" y1="0.597484412" x2="10.133233" y2="17.0974844" id="Line" stroke-linecap="round" stroke-linejoin="round"></line>
                    </g>
                </g>
            </g>
        </g>
    </g>
</svg>