<?xml version="1.0" encoding="UTF-8"?>
<svg width="24px" height="24px" viewBox="0 0 24 24" version="1.1" xmlns="http://www.w3.org/2000/svg" xmlns:xlink="http://www.w3.org/1999/xlink">
    <title>CF0415D8-0178-442F-AD6E-CAB168B9E6E5</title>
    <defs>
        <path d="M11.9999767,0 C5.37252703,0 0,5.37252703 0,11.999965 L0,11.999965 C0,18.6274147 5.37252703,23.9999417 11.9999767,23.9999417 L11.9999767,23.9999417 C18.6274147,23.9999417 24,18.6274147 24,11.999965 L24,11.999965 C24,5.37252703 18.6273214,0 11.9999767,0 Z M5.91040599,6.60406715 C5.91040599,5.73660585 6.60806725,5.03340509 7.46843801,5.03340509 L7.46843801,5.03340509 C8.32882043,5.03340509 9.0263884,5.73660585 9.0263884,6.60406715 L9.0263884,6.60406715 C9.02642338,7.47148181 8.32886708,8.17467091 7.46843801,8.17467091 L7.46843801,8.17467091 C6.60797395,8.17467091 5.91040599,7.4714235 5.91040599,6.60406715 L5.91040599,6.60406715 Z M15.574979,9.02974708 C17.3799208,9.02974708 18.6720105,10.1318263 18.6720105,12.4117185 L18.6720105,12.4117185 L18.6720105,17.8014004 L16.0500109,17.8014004 L16.0500109,13.3333035 C16.0500109,12.1078394 15.5845186,11.4237644 14.6155038,11.4237644 L14.6155038,11.4237644 C13.5609009,11.4237644 13.0099487,12.1362132 13.0099487,13.3333035 L13.0099487,13.3333035 L13.0099487,17.8014004 L10.4829602,17.8014004 L10.4829602,9.28939187 L13.0099487,9.28939187 L13.0099487,10.4358104 C13.0099487,10.4358104 13.7700722,9.02974708 15.574979,9.02974708 L15.574979,9.02974708 Z M6.16364829,17.8014004 L8.79837119,17.8014004 L8.79837119,9.28939187 L6.16364829,9.28939187 L6.16364829,17.8014004 Z" id="path-1"></path>
    </defs>
    <g id="공유하기-버튼-추가-관련-" stroke="none" stroke-width="1" fill="none" fill-rule="evenodd">
        <g id="New_CT-03-01_Share-UI" transform="translate(-1440.000000, -637.000000)">
            <g id="#담당_info" transform="translate(1420.000000, 612.000000)">
                <g id="icon-/-24px-/-linkedin" transform="translate(20.000000, 25.000000)">
                    <mask id="mask-2" fill="white">
                        <use xlink:href="#path-1"></use>
                    </mask>
                    <g id="Clip-2"></g>
                    <path d="M11.9999767,0 C5.37252703,0 0,5.37252703 0,11.999965 L0,11.999965 C0,18.6274147 5.37252703,23.9999417 11.9999767,23.9999417 L11.9999767,23.9999417 C18.6274147,23.9999417 24,18.6274147 24,11.999965 L24,11.999965 C24,5.37252703 18.6273214,0 11.9999767,0 Z M5.91040599,6.60406715 C5.91040599,5.73660585 6.60806725,5.03340509 7.46843801,5.03340509 L7.46843801,5.03340509 C8.32882043,5.03340509 9.0263884,5.73660585 9.0263884,6.60406715 L9.0263884,6.60406715 C9.02642338,7.47148181 8.32886708,8.17467091 7.46843801,8.17467091 L7.46843801,8.17467091 C6.60797395,8.17467091 5.91040599,7.4714235 5.91040599,6.60406715 L5.91040599,6.60406715 Z M15.574979,9.02974708 C17.3799208,9.02974708 18.6720105,10.1318263 18.6720105,12.4117185 L18.6720105,12.4117185 L18.6720105,17.8014004 L16.0500109,17.8014004 L16.0500109,13.3333035 C16.0500109,12.1078394 15.5845186,11.4237644 14.6155038,11.4237644 L14.6155038,11.4237644 C13.5609009,11.4237644 13.0099487,12.1362132 13.0099487,13.3333035 L13.0099487,13.3333035 L13.0099487,17.8014004 L10.4829602,17.8014004 L10.4829602,9.28939187 L13.0099487,9.28939187 L13.0099487,10.4358104 C13.0099487,10.4358104 13.7700722,9.02974708 15.574979,9.02974708 L15.574979,9.02974708 Z M6.16364829,17.8014004 L8.79837119,17.8014004 L8.79837119,9.28939187 L6.16364829,9.28939187 L6.16364829,17.8014004 Z" id="Fill-1" fill="#4C4C4C" mask="url(#mask-2)"></path>
                </g>
            </g>
        </g>
    </g>
</svg>