<svg width="16" height="16" viewBox="0 0 16 16" xmlns="http://www.w3.org/2000/svg">
    <g stroke="#00BFAE" fill="none" fill-rule="evenodd">
        <path d="M6.09 8c0-1.053.857-1.91 1.91-1.91A1.91 1.91 0 0 1 9.91 8c0 1.053-.857 1.91-1.91 1.91A1.911 1.911 0 0 1 6.09 8z"/>
        <path d="M9.056 15H6.94a.694.694 0 0 1-.689-.698v-1.326c-.013-.085-.226-.305-.315-.35a.551.551 0 0 0-.224.133l-.94.938a.7.7 0 0 1-.974-.002l-1.495-1.492a.69.69 0 0 1-.204-.492.69.69 0 0 1 .204-.494l.939-.94c.053-.069.059-.37.028-.465-.01-.004-.115-.062-.254-.062H1.69A.693.693 0 0 1 1 9.055V6.94c0-.382.31-.693.69-.693h1.326c.082-.009.285-.199.353-.301a.464.464 0 0 0-.128-.226l-.938-.936a.701.701 0 0 1 0-.988L3.8 2.3a.704.704 0 0 1 .97 0l.942.94c.019.015.113.048.277.048a.854.854 0 0 0 .206-.021c.001-.009.056-.109.056-.243v-1.33c0-.383.31-.694.689-.694h2.116c.381 0 .692.311.692.694v1.33c.012.086.224.305.314.35a.54.54 0 0 0 .223-.133l.944-.941a.7.7 0 0 1 .969 0l1.497 1.497a.699.699 0 0 1 .001.986l-.941.939c-.05.064-.058.339-.033.45a.458.458 0 0 0 .259.075h1.33c.38 0 .689.31.689.693v2.115c0 .383-.31.695-.69.695h-1.33c-.08.01-.283.2-.351.303.006.042.043.14.127.225l.94.94c.13.129.204.305.204.493a.688.688 0 0 1-.207.494l-1.496 1.492a.697.697 0 0 1-.97-.002l-.942-.936c-.018-.014-.115-.048-.28-.048a.794.794 0 0 0-.194.019.495.495 0 0 0-.063.246v1.326c0 .385-.31.698-.692.698" stroke-linecap="round" stroke-linejoin="round"/>
    </g>
</svg>
