<svg width="40" height="40" viewBox="0 0 40 40" xmlns="http://www.w3.org/2000/svg">
    <g fill="#FFF" stroke="#666" fill-rule="evenodd">
        <path d="M7 16h6v17H7zM20.715 4.717c.304-.203.777-.287 1.443-.142 1.14.248 1.856 1.103 2.262 2.173.596 1.57.494 3.572.328 4.258l-.306 1.279c-.237 1-.442 1.863-.743 3.033l8.218.218c.643 0 1.224.222 1.646.571.46.38.732.909.732 1.484 0 .576-.273 1.104-.732 1.484-.347.286-.8.487-1.309.55.619.45 1.174.681 1.584 1.06.404.375.662.887.662 1.443 0 .575-.273 1.104-.732 1.484a2.552 2.552 0 0 1-1.388.558c.396.456.936.697 1.338 1.117.352.367.59.859.59 1.392 0 .575-.273 1.103-.733 1.483a2.543 2.543 0 0 1-1.312.55l.022.554.101.029c.253.079.485.193.688.335l.146.112c.46.38.732.908.732 1.483 0 .575-.273 1.103-.732 1.483a2.587 2.587 0 0 1-1.646.57H19.2c-2.338 0-4.459-1.015-5.699-2.69V18.17c.784-.822 1.028-1.032 1.271-1.214 2.916-2.567 3.863-4.547 4.693-7.529.14-.502.194-1.08.253-1.69.124-1.267.365-2.598.998-3.02z"/>
    </g>
</svg>
