<?xml version="1.0" encoding="UTF-8"?>
<svg width="16px" height="16px" viewBox="0 0 16 16" version="1.1" xmlns="http://www.w3.org/2000/svg" xmlns:xlink="http://www.w3.org/1999/xlink">
    <title>F7B30A9D-F6BE-4DF3-93C0-43087444A202</title>
    <g id="Symbols_assets" stroke="none" stroke-width="1" fill="none" fill-rule="evenodd">
        <g id="Assets" transform="translate(-135.000000, -3035.000000)" fill="#777777" fill-rule="nonzero">
            <g id="btn-/-list-/-more" transform="translate(135.000000, 3032.000000)">
                <g id="icon_list_more_16px" transform="translate(0.000000, 3.000000)">
                    <path d="M8,0 C12.418278,0 16,3.581722 16,8 C16,12.418278 12.418278,16 8,16 C3.581722,16 0,12.418278 0,8 C0,3.581722 3.581722,0 8,0 Z M8,0.941176471 C4.10151941,0.941176471 0.941176471,4.10151941 0.941176471,8 C0.941176471,11.8984806 4.10151941,15.0588235 8,15.0588235 C11.8984806,15.0588235 15.0588235,11.8984806 15.0588235,8 C15.0588235,4.10151941 11.8984806,0.941176471 8,0.941176471 Z M8.5,4 L8.5,7.5 L12,7.5 L12,8.5 L8.5,8.5 L8.5,12 L7.5,12 L7.5,8.5 L4,8.5 L4,7.5 L7.5,7.5 L7.5,4 L8.5,4 Z"></path>
                </g>
            </g>
        </g>
    </g>
</svg>
