<?xml version="1.0" encoding="UTF-8"?>
<svg width="24px" height="24px" viewBox="0 0 24 24" version="1.1" xmlns="http://www.w3.org/2000/svg" xmlns:xlink="http://www.w3.org/1999/xlink">
    <title>F2A211A0-E417-47CB-BEB6-D65FE1F7A2AA</title>
    <defs>
        <rect id="path-1" x="0" y="0" width="24" height="24"></rect>
    </defs>
    <g id="문의하기" stroke="none" stroke-width="1" fill="none" fill-rule="evenodd">
        <g id="QA-QA-50" transform="translate(-1793.000000, -1121.000000)">
            <g id="icons-/-24-/-ic_thumdown_on" transform="translate(1793.000000, 1121.000000)">
                <mask id="mask-2" fill="white">
                    <use xlink:href="#path-1" transform="translate(12.000000, 12.000000) scale(1, -1) translate(-12.000000, -12.000000) "></use>
                </mask>
                <g id="Property-1=24,-Property-2=ic_thumb_down_on-(Background/Mask)" transform="translate(12.000000, 12.000000) scale(1, -1) translate(-12.000000, -12.000000) "></g>
                <path d="M15.5010033,4 C16.16767,4.29847654 16.5010033,4.63180987 16.5010033,5 L16.5010023,11.706893 C16.4924658,11.8297898 16.4797826,11.9208647 16.4629526,11.9801178 L14.2839384,19.6517931 C14.2342576,19.8242824 14.1394176,19.9804339 14.0095126,20.1043123 C13.5629425,20.5251368 13.1881321,20.6460394 12.8850813,20.46702 C12.087705,19.9959906 11.0482678,19.2504517 10.6510019,18.3846159 C10.3081794,17.6374382 10.3336405,16.5610714 10.4306583,15.7247229 C10.5057154,15.0776877 10.0190277,14.4615384 9.36765337,14.4615383 L4.87801598,14.4615383 C4.70251889,14.4612228 4.53019483,14.414729 4.37892977,14.3257373 C3.84359623,14.0142938 3.59748325,13.6851216 3.64059083,13.3382206 L4.66485144,5.09565944 C4.68225534,4.94736899 4.73325515,4.80507656 4.81044033,4.67721762 C5.09743574,4.22573921 5.38876536,4 5.68442917,4 L15.5010033,4 Z M19.2010031,12 L19.2010031,4 L20.5010033,4 L20.5010033,12 L19.2010031,12 Z" id="Vector" fill="#FF664D" mask="url(#mask-2)"></path>
                <path d="M5.43449402,4.96917152 L4.38302255,13.4307079 C4.36448777,13.5798635 4.48081374,13.7115383 4.63111484,13.7115383 L9.36580944,13.7115383 C10.5219316,13.7115383 11.2938409,14.7764845 11.1738186,15.8111448 C11.0776844,16.6398745 11.0821743,17.5299053 11.3308306,18.0718489 C11.4656849,18.3657627 11.7351332,18.685545 12.1064529,19.0063229 C12.4702988,19.3206444 12.8888292,19.5992403 13.2646961,19.8212738 C13.2901897,19.8363333 13.3095503,19.8401957 13.3238153,19.8408756 C13.3394718,19.8416204 13.3583851,19.8388186 13.3794947,19.8295193 C13.4221363,19.8107328 13.4697943,19.7666903 13.4914751,19.6903572 L15.7396469,11.775197 C15.7459574,11.7529807 15.7491589,11.7299943 15.7491589,11.706893 L15.7491598,5.00000083 C15.7491598,4.86192906 15.6372318,4.75 15.4991598,4.75 L5.68258524,4.75 C5.55643642,4.75 5.45005047,4.84398311 5.43449402,4.96917152 Z M5.68258524,3.25 L15.4991598,3.25 C16.4656572,3.25 17.2491598,4.03350055 17.2491598,5.00000107 L17.2491589,11.706893 C17.2491589,11.8685832 17.2267513,12.0294962 17.1825714,12.1850386 L14.9343996,20.1001968 C14.6499882,21.1015263 13.4959383,21.7000408 12.5017796,21.1127682 C12.0802698,20.8637714 11.5803928,20.5340824 11.1258602,20.1414185 C10.6788011,19.7552099 10.229897,19.2693052 9.9674859,18.6973829 C9.53049755,17.7449713 9.58590841,16.4822683 9.68381023,15.6383009 C9.69680452,15.5262814 9.66075993,15.4121437 9.59107924,15.3276405 C9.52391052,15.2461843 9.44366217,15.2115383 9.36580944,15.2115383 L4.6311146,15.2115383 C3.57900023,15.2115383 2.76472882,14.2898149 2.89447144,13.2457333 L3.945943,4.78419685 C4.05483723,3.9078899 4.79953492,3.25 5.68258524,3.25 Z M19.1991596,3.25 L20.4991589,3.25 C20.913372,3.25 21.2491589,3.58578777 21.2491589,4 L21.2491589,12.000001 C21.2491589,12.4142141 20.913372,12.75 20.4991589,12.75 L19.1991596,12.75 C18.7849464,12.75 18.4491596,12.4142141 18.4491596,12.000001 L18.4491596,4 C18.4491596,3.80108881 18.5281773,3.61032337 18.6688299,3.46967107 C18.8094816,3.32901877 19.000247,3.25 19.1991596,3.25 Z" id="Vector-(Stroke)" fill="#FF664D" mask="url(#mask-2)"></path>
            </g>
        </g>
    </g>
</svg>