<svg xmlns="http://www.w3.org/2000/svg" xmlns:xlink="http://www.w3.org/1999/xlink" width="90" height="90" viewBox="0 0 90 90">
  <defs>
    <style>
      .cls-1, .cls-4 {
        fill: none;
      }

      .cls-2 {
        fill: #fff;
      }

      .cls-3 {
        clip-path: url(#clip-path);
      }

      .cls-4 {
        stroke: #282828;
        stroke-linecap: round;
        stroke-linejoin: round;
        stroke-width: 2px;
      }

      .cls-5 {
        fill: #ff664d;
      }
    </style>
    <clipPath id="clip-path">
      <rect id="사각형_191" data-name="사각형 191" class="cls-1" width="48.86" height="42.853" transform="translate(0 0)"/>
    </clipPath>
  </defs>
  <g id="icon_04" transform="translate(36 19)">
    <circle id="타원_4" data-name="타원 4" class="cls-2" cx="45" cy="45" r="45" transform="translate(-36 -19)"/>
    <g id="그룹_1237" data-name="그룹 1237" class="cls-3" transform="translate(-15 2)">
      <path id="패스_1966" data-name="패스 1966" class="cls-2" d="M34.609,1H14.59a2.4,2.4,0,0,0-2.4,2.4V21.914l4.495-5.2H34.609a2.4,2.4,0,0,0,2.4-2.4V3.4a2.4,2.4,0,0,0-2.4-2.4" transform="translate(-4.717 2.544)"/>
      <path id="패스_1967" data-name="패스 1967" class="cls-4" d="M34.609,1H14.59a2.4,2.4,0,0,0-2.4,2.4V21.914l4.495-5.2H34.609a2.4,2.4,0,0,0,2.4-2.4V3.4A2.4,2.4,0,0,0,34.609,1Z" transform="translate(-4.717 1.567)"/>
      <path id="패스_1968" data-name="패스 1968" class="cls-2" d="M29.424,6.078H49.443a2.4,2.4,0,0,1,2.4,2.4V26.992l-4.495-5.2H29.424a2.4,2.4,0,0,1-2.4-2.4V8.477a2.4,2.4,0,0,1,2.4-2.4" transform="translate(-10.457 0.58)"/>
      <path id="패스_1969" data-name="패스 1969" class="cls-4" d="M29.424,6.078H49.443a2.4,2.4,0,0,1,2.4,2.4V24.992l-4.495-3.2H29.424a2.4,2.4,0,0,1-2.4-2.4V8.477A2.4,2.4,0,0,1,29.424,6.078Z" transform="translate(-10.457 0.58)"/>
      <path id="패스_1970" data-name="패스 1970" class="cls-5" d="M55.868,18.042a1.424,1.424,0,1,1-1.425-1.424,1.425,1.425,0,0,1,1.425,1.424" transform="translate(-20.514 -3.498)"/>
      <path id="패스_1971" data-name="패스 1971" class="cls-5" d="M47.791,18.042a1.424,1.424,0,1,1-1.424-1.424,1.424,1.424,0,0,1,1.424,1.424" transform="translate(-17.389 -3.498)"/>
      <path id="패스_1972" data-name="패스 1972" class="cls-5" d="M39.714,18.042a1.425,1.425,0,1,1-1.424-1.424,1.424,1.424,0,0,1,1.424,1.424" transform="translate(-14.264 -3.498)"/>
      <path id="패스_1973" data-name="패스 1973" class="cls-2" d="M10.61,51.512V51.5a1.03,1.03,0,0,1,.367-.757,1.614,1.614,0,0,0,.539-1.207V47.675A1.637,1.637,0,0,0,9.88,46.038h-1.3a1.637,1.637,0,0,0-1.637,1.637v1.859a1.62,1.62,0,0,0,.538,1.207,1.027,1.027,0,0,1,.368.757v.014a.964.964,0,0,1-.7.927l-1.436.407A1.612,1.612,0,0,0,4.543,54.4v2.725H13.92V54.4a1.611,1.611,0,0,0-1.172-1.55l-1.436-.407a.964.964,0,0,1-.7-.927" transform="translate(-1.758 -14.882)"/>
      <path id="패스_1974" data-name="패스 1974" class="cls-4" d="M11.722,52.516V52.5a1.218,1.218,0,0,1,.435-.9,1.91,1.91,0,0,0,.638-1.428v-2.2a1.937,1.937,0,0,0-1.936-1.937H9.325a1.938,1.938,0,0,0-1.937,1.937v2.2A1.917,1.917,0,0,0,8.025,51.6a1.215,1.215,0,0,1,.436.9v.017a1.14,1.14,0,0,1-.83,1.1l-1.7.482a1.907,1.907,0,0,0-1.389,1.834v3.224h11.1V55.928a1.906,1.906,0,0,0-1.387-1.834l-1.7-.482A1.14,1.14,0,0,1,11.722,52.516Z" transform="translate(-1.758 -16.913)"/>
      <path id="패스_1975" data-name="패스 1975" class="cls-2" d="M65.924,51.512V51.5a1.027,1.027,0,0,1,.367-.757,1.617,1.617,0,0,0,.54-1.207V47.675a1.638,1.638,0,0,0-1.638-1.637H63.9a1.638,1.638,0,0,0-1.638,1.637v1.859a1.617,1.617,0,0,0,.54,1.207,1.027,1.027,0,0,1,.367.757v.014a.964.964,0,0,1-.7.927l-1.436.407a1.611,1.611,0,0,0-1.173,1.55v2.725h9.377V54.4a1.611,1.611,0,0,0-1.172-1.55l-1.436-.407a.964.964,0,0,1-.7-.927" transform="translate(-23.16 -14.882)"/>
      <path id="패스_1976" data-name="패스 1976" class="cls-4" d="M67.036,52.516V52.5a1.216,1.216,0,0,1,.435-.9,1.913,1.913,0,0,0,.638-1.428v-2.2a1.938,1.938,0,0,0-1.938-1.937H64.639A1.938,1.938,0,0,0,62.7,47.975v2.2a1.913,1.913,0,0,0,.638,1.428,1.216,1.216,0,0,1,.435.9v.017a1.14,1.14,0,0,1-.829,1.1l-1.7.482a1.906,1.906,0,0,0-1.388,1.834v3.224h11.1V55.928a1.906,1.906,0,0,0-1.387-1.834l-1.7-.482A1.14,1.14,0,0,1,67.036,52.516Z" transform="translate(-24.879 -16.913)"/>
      <line id="선_2" data-name="선 2" class="cls-2" x2="47.634" transform="translate(0.613 42.24)"/>
      <line id="선_3" data-name="선 3" class="cls-4" x2="47.634" transform="translate(0.613 42.24)"/>
    </g>
  </g>
</svg>
