<svg xmlns="http://www.w3.org/2000/svg" width="90" height="90" viewBox="0 0 90 90">
  <defs>
    <style>
      .cls-1 {
        fill: #fff;
      }

      .cls-2, .cls-3 {
        fill: none;
        stroke-linecap: round;
        stroke-linejoin: round;
      }

      .cls-2 {
        stroke: #282828;
        stroke-width: 2px;
      }

      .cls-3 {
        stroke: #d8d8d8;
        stroke-width: 1.5px;
      }

      .cls-4 {
        fill: #ff664d;
      }
    </style>
  </defs>
  <g id="icon_01" transform="translate(9 21.783)">
    <circle id="타원_1" data-name="타원 1" class="cls-1" cx="45" cy="45" r="45" transform="translate(-9 -21.783)"/>
    <path id="패스_1995" data-name="패스 1995" class="cls-1" d="M42.143,45.422c-5.742,0-10.4,1.178-10.4,2.633H52.54c0-1.455-4.655-2.633-10.4-2.633" transform="translate(4.705 -8.722)"/>
    <path id="패스_1997" data-name="패스 1997" class="cls-1" d="M11.4,45.422C5.654,45.422,1,46.6,1,48.055H21.794c0-1.455-4.655-2.633-10.4-2.633" transform="translate(14.657 -8.722)"/>
    <path id="패스_2000" data-name="패스 2000" class="cls-1" d="M11.4,2.54C5.654,2.54,1,3.719,1,5.173V35.1c0-1.455,4.655-2.633,10.4-2.633s10.4,1.178,10.4,2.633V5.173c0-1.454-4.655-2.633-10.4-2.633" transform="translate(14.657 4.229)"/>
    <path id="패스_2001" data-name="패스 2001" class="cls-2" d="M11.4,2.54C5.654,2.54,1,3.719,1,5.173V35.1c0-1.455,4.655-2.633,10.4-2.633s10.4,1.178,10.4,2.633V5.173C21.794,3.719,17.139,2.54,11.4,2.54Z" transform="translate(14.657 4.229)"/>
    <path id="패스_2002" data-name="패스 2002" class="cls-1" d="M42.143,2.54c-5.742,0-10.4,1.179-10.4,2.633V35.1c0-1.455,4.655-2.633,10.4-2.633s10.4,1.178,10.4,2.633V5.173c0-1.454-4.655-2.633-10.4-2.633" transform="translate(4.705 4.229)"/>
    <path id="패스_2003" data-name="패스 2003" class="cls-2" d="M42.143,2.54c-5.742,0-10.4,1.179-10.4,2.633V35.1c0-1.455,4.655-2.633,10.4-2.633s10.4,1.178,10.4,2.633V5.173C52.54,3.719,47.885,2.54,42.143,2.54Z" transform="translate(4.705 4.229)"/>
    <path id="패스_2006" data-name="패스 2006" class="cls-1" d="M20.222,16.95c0-.82-3.305-1.484-7.382-1.484s-7.383.664-7.383,1.484" transform="translate(13.214 0.325)"/>
    <path id="패스_2008" data-name="패스 2008" class="cls-1" d="M20.222,22.889c0-.819-3.305-1.484-7.382-1.484s-7.383.664-7.383,1.484" transform="translate(13.214 -1.468)"/>
    <path id="패스_2010" data-name="패스 2010" class="cls-1" d="M20.222,28.83c0-.819-3.305-1.484-7.382-1.484s-7.383.664-7.383,1.484" transform="translate(13.214 -3.263)"/>
    <path id="패스_2012" data-name="패스 2012" class="cls-1" d="M20.222,34.77c0-.82-3.305-1.484-7.382-1.484s-7.383.664-7.383,1.484" transform="translate(13.214 -5.056)"/>
    <path id="패스_2014" data-name="패스 2014" class="cls-1" d="M20.222,40.709c0-.819-3.305-1.484-7.382-1.484s-7.383.664-7.383,1.484" transform="translate(13.214 -6.85)"/>
    <path id="패스_2016" data-name="패스 2016" class="cls-1" d="M50.969,11.009c0-.819-3.305-1.484-7.383-1.484s-7.382.664-7.382,1.484" transform="translate(3.262 2.12)"/>
    <path id="패스_2017" data-name="패스 2017" class="cls-3" d="M49.335,10.959c0-.792-2.94-1.434-6.566-1.434s-6.565.642-6.565,1.434" transform="translate(4.079 4.178)"/>
    <path id="패스_2404" data-name="패스 2404" class="cls-3" d="M49.335,10.959c0-.792-2.94-1.434-6.566-1.434s-6.565.642-6.565,1.434" transform="translate(-16.921 4.178)"/>
    <path id="패스_2018" data-name="패스 2018" class="cls-1" d="M50.969,16.95c0-.82-3.305-1.484-7.383-1.484S36.2,16.13,36.2,16.95" transform="translate(3.262 0.325)"/>
    <path id="패스_2046" data-name="패스 2046" class="cls-1" d="M49.335,22.839c0-.792-2.94-1.434-6.566-1.434s-6.565.642-6.565,1.434" transform="translate(-17.54 -1.745)"/>
    <path id="패스_2021" data-name="패스 2021" class="cls-3" d="M49.335,22.839c0-.792-2.94-1.434-6.566-1.434s-6.565.642-6.565,1.434" transform="translate(4.079 -2.686)"/>
    <path id="패스_2403" data-name="패스 2403" class="cls-3" d="M49.335,22.839c0-.792-2.94-1.434-6.566-1.434s-6.565.642-6.565,1.434" transform="translate(-16.921 -2.686)"/>
    <path id="패스_2023" data-name="패스 2023" class="cls-3" d="M49.335,28.78c0-.792-2.94-1.434-6.566-1.434S36.2,27.988,36.2,28.78" transform="translate(4.079 -3.619)"/>
    <path id="패스_2402" data-name="패스 2402" class="cls-3" d="M49.335,28.78c0-.792-2.94-1.434-6.566-1.434S36.2,27.988,36.2,28.78" transform="translate(-16.921 -3.619)"/>
    <path id="패스_2024" data-name="패스 2024" class="cls-1" d="M50.969,34.77c0-.82-3.305-1.484-7.383-1.484S36.2,33.95,36.2,34.77" transform="translate(3.262 -5.056)"/>
    <path id="패스_2025" data-name="패스 2025" class="cls-3" d="M49.335,34.72c0-.793-2.94-1.434-6.566-1.434S36.2,33.928,36.2,34.72" transform="translate(4.079 -4.551)"/>
    <path id="패스_2401" data-name="패스 2401" class="cls-3" d="M49.335,34.72c0-.793-2.94-1.434-6.566-1.434S36.2,33.928,36.2,34.72" transform="translate(-16.921 -4.551)"/>
    <path id="패스_2026" data-name="패스 2026" class="cls-1" d="M50.969,40.709c0-.819-3.305-1.484-7.383-1.484s-7.382.664-7.382,1.484" transform="translate(3.262 -6.85)"/>
    <path id="패스_2028" data-name="패스 2028" class="cls-1" d="M74.49,48.506H69.42l1.39,2.383H73.1Z" transform="translate(-7.489 -9.653)"/>
    <path id="패스_2030" data-name="패스 2030" class="cls-1" d="M73.765,51.92H71.474l1.146,1.964Z" transform="translate(-8.154 -10.684)"/>
    <path id="패스_2043" data-name="패스 2043" class="cls-4" d="M55.4,55.844l-2.9-2.1-2.9,2.1v-11.4H55.4Z" transform="translate(-3.593 -39.311)"/>
  </g>
</svg>
