<svg xmlns="http://www.w3.org/2000/svg" width="24" height="24" viewBox="0 0 24 24">
    <g fill="none" fill-rule="evenodd">
        <g fill="#FFF">
            <g>
                <g>
                    <g>
                        <g>
                            <g>
                                <g>
                                    <path d="M9 0c1.912 0 3.685.596 5.143 1.613l-.72.72C12.156 1.491 10.635 1 9 1 4.582 1 1 4.582 1 9s3.582 8 8 8 8-3.582 8-8c0-.547-.055-1.081-.16-1.598l.829-.829C17.885 7.345 18 8.16 18 9c0 4.97-4.03 9-9 9s-9-4.03-9-9 4.03-9 9-9z" transform="translate(-1207.000000, -330.000000) translate(410.000000, 137.000000) translate(0.000000, 123.000000) translate(0.000000, 66.000000) translate(785.000000, 0.000000) translate(12.000000, 4.000000) translate(3.000000, 3.000000)"/>
                                    <path fill-rule="nonzero" d="M8 10.586L4.707 7.293 3.293 8.707 8 13.414 17.707 3.707 16.293 2.293z" transform="translate(-1207.000000, -330.000000) translate(410.000000, 137.000000) translate(0.000000, 123.000000) translate(0.000000, 66.000000) translate(785.000000, 0.000000) translate(12.000000, 4.000000) translate(3.000000, 3.000000)"/>
                                </g>
                            </g>
                        </g>
                    </g>
                </g>
            </g>
        </g>
    </g>
</svg>
