<svg width="24" height="24" viewBox="0 0 24 24" xmlns="http://www.w3.org/2000/svg">
    <g fill="none" fill-rule="evenodd">
        <path d="M12 3c-2.21 0-4.21.895-5.657 2.343A7.975 7.975 0 0 0 4 11c0 2.21.895 4.21 2.343 5.657A7.975 7.975 0 0 0 12 19c1.28 0 2.49-.3 3.563-.835l2.177 1.087-.337-2.353A7.979 7.979 0 0 0 20 11c0-2.21-.895-4.21-2.343-5.657A7.975 7.975 0 0 0 12 3z" stroke="#777" stroke-width="2"/>
        <g transform="translate(7.5 10)" fill="#777">
            <circle cx="1" cy="1" r="1"/>
            <circle cx="4.5" cy="1" r="1"/>
            <circle cx="8" cy="1" r="1"/>
        </g>
    </g>
</svg>
