<svg width="20" height="20" viewBox="0 0 20 20" xmlns="http://www.w3.org/2000/svg">
    <g fill="none" fill-rule="evenodd">
        <path fill="#FFF" d="M-418-264h1920v2328H-418z"/>
        <path d="M17.312 12.494c.414-.292.682-.757.682-1.28s-.268-.988-.68-1.279c.353-.292.577-.722.577-1.2 0-.88-.76-1.596-1.693-1.596h-3.555c.099-.428.18-.795.269-1.205l.153-.696c.201-.896.178-3.637-1.671-4.072-.461-.109-.845-.055-1.142.159-.555.402-.631 1.245-.698 1.988-.03.32-.056.621-.116.85-.413 1.61-.83 2.551-2.21 3.868-.03.025-.06.053-.09.079a.657.657 0 0 0-.632-.488h-3.91a.373.373 0 0 0-.374.374v9.154c0 .206.167.373.373.373h3.91a.658.658 0 0 0 .658-.657v-.033a4.036 4.036 0 0 0 2.622.945h6.24c.933 0 1.693-.716 1.693-1.596 0-.463-.211-.882-.548-1.173.44-.29.727-.769.727-1.31 0-.48-.227-.913-.585-1.205z" fill="#00BFAE"/>
        <path d="M16.301 12.063h.1a.373.373 0 0 0-.372.373v.041c0 .207.167.374.373.374h-.198c.522 0 .947.38.947.848 0 .468-.425.849-.947.849h.198a.373.373 0 0 0-.373.373v.04c0 .205.167.373.373.373h-.377c.522 0 .947.38.947.848 0 .468-.425.848-.947.848h-6.24c-1.064 0-2.035-.48-2.622-1.288v-6.58c.05-.075.116-.159.163-.202l.046-.042a3.021 3.021 0 0 1 .36-.336c1.502-1.43 1.996-2.547 2.429-4.232.074-.288.104-.62.136-.97.052-.584.112-1.247.392-1.449.113-.082.293-.095.534-.038 1.282.302 1.24 2.617 1.114 3.182l-.154.699c-.12.544-.222 1.015-.374 1.652a.375.375 0 0 0 .363.46h4.026c.522 0 .946.381.946.85 0 .468-.424.848-.946.848h.204a.373.373 0 0 0-.373.374v.034c0 .206.167.373.373.373h-.1c.521 0 .946.381.946.849 0 .468-.425.849-.947.849z" stroke="#00BFAE" stroke-width=".3" fill="#FFF"/>
    </g>
</svg>
