<svg width="30" height="30" viewBox="0 0 30 30" xmlns="http://www.w3.org/2000/svg">
    <g stroke="#4C4C4C" fill="none" fill-rule="evenodd">
        <path d="M12 15c0-1.654 1.346-3 3-3 1.655 0 3 1.346 3 3s-1.345 3-3 3c-1.654 0-3-1.346-3-3z"/>
        <path d="M16.508 25h-3.022a.991.991 0 0 1-.984-.997V22.11c-.019-.122-.323-.436-.451-.502a.788.788 0 0 0-.32.192l-1.342 1.34a1 1 0 0 1-1.392-.003L6.86 21.004a.985.985 0 0 1-.291-.703c0-.268.103-.518.291-.705l1.342-1.344c.075-.098.084-.528.04-.663-.014-.006-.164-.089-.363-.089H5.985A.99.99 0 0 1 5 16.507v-3.021c0-.546.442-.99.985-.99H7.88c.117-.013.407-.285.504-.43a.662.662 0 0 0-.183-.323l-1.34-1.337a1.002 1.002 0 0 1-.292-.714.982.982 0 0 1 .293-.697L9 6.857c.367-.368 1.013-.37 1.387 0L11.732 8.2c.026.02.162.067.396.067.153 0 .266-.02.294-.03.001-.012.08-.155.08-.346v-1.9A.99.99 0 0 1 13.486 5h3.022c.545 0 .989.445.989.992v1.9c.017.123.32.436.448.5a.772.772 0 0 0 .319-.19l1.35-1.345a1.001 1.001 0 0 1 1.383.001l2.139 2.138a.998.998 0 0 1 .002 1.408l-1.345 1.341c-.07.093-.083.485-.047.643a.654.654 0 0 0 .37.108h1.9c.542 0 .984.444.984.99v3.021a.99.99 0 0 1-.985.993h-1.9c-.116.014-.405.285-.503.433.01.06.062.2.183.321l1.341 1.343a.981.981 0 0 1 .293.704.983.983 0 0 1-.296.706l-2.138 2.132c-.362.371-1.016.375-1.386-.003l-1.345-1.337c-.026-.021-.164-.07-.401-.07-.145 0-.25.02-.276.028a.707.707 0 0 0-.09.352v1.894c0 .55-.444.997-.989.997" stroke-linecap="round" stroke-linejoin="round"/>
    </g>
</svg>
