<?xml version="1.0" encoding="UTF-8"?>
<svg width="16px" height="16px" viewBox="0 0 16 16" version="1.1" xmlns="http://www.w3.org/2000/svg" xmlns:xlink="http://www.w3.org/1999/xlink">
    <title>39462694-75E6-4949-8C0A-F779ACBDF3B7</title>
    <g id="LMS" stroke="none" stroke-width="1" fill="none" fill-rule="evenodd">
        <g id="#-learningtype" transform="translate(-360.000000, -212.000000)" stroke="#666666">
            <g id="Group" transform="translate(360.000000, 80.000000)">
                <g id="Icon_learningtype_Audio_16px" transform="translate(0.000000, 132.000000)">
                    <path d="M3,1 L7,1 C10.3137085,1 13,3.6862915 13,7 C13,10.3137085 10.3137085,13 7,13 L3,13 L3,13" id="Rectangle" stroke-linecap="round" transform="translate(8.000000, 7.000000) rotate(-90.000000) translate(-8.000000, -7.000000) "></path>
                    <path d="M3.5,9 L4.5,9 C4.77614237,9 5,9.22385763 5,9.5 L5,13.5 C5,13.7761424 4.77614237,14 4.5,14 L3.5,14 C2.67157288,14 2,13.3284271 2,12.5 L2,10.5 C2,9.67157288 2.67157288,9 3.5,9 Z" id="Rectangle" fill="#666666"></path>
                    <path d="M11.5,9 L12.5,9 C13.3284271,9 14,9.67157288 14,10.5 L14,12.5 C14,13.3284271 13.3284271,14 12.5,14 L11.5,14 C11.2238576,14 11,13.7761424 11,13.5 L11,9.5 C11,9.22385763 11.2238576,9 11.5,9 Z" id="Rectangle" fill="#666666"></path>
                </g>
            </g>
        </g>
    </g>
</svg>