<svg xmlns="http://www.w3.org/2000/svg" width="24" height="24" viewBox="0 0 24 24">
    <g fill="none" fill-rule="evenodd" stroke-linecap="round">
        <g stroke="#B7C0D1" stroke-width="2">
            <g>
                <g>
                    <g>
                        <g>
                            <path d="M7.23 18.168c1.02 1.187 2.61 1.797 4.77 1.83 4.419 0 8-3.581 8-8 0-4.418-3.581-8-8-8-1.916 0-3.675.674-5.052 1.798-.992.809-1.786 1.851-2.299 3.042-.417.97-.648 2.038-.648 3.16 0 2.946-.002 3.358-.004 1.235" transform="translate(-420.000000, -360.000000) translate(0.000000, 77.000000) translate(400.000000, 30.000000) translate(0.000000, 241.000000) translate(20.000000, 12.000000) translate(11.998628, 11.998628) rotate(-315.000000) translate(-11.998628, -11.998628)"/>
                            <path d="M12 8.452L12 12.354 14.431 13.88" transform="translate(-420.000000, -360.000000) translate(0.000000, 77.000000) translate(400.000000, 30.000000) translate(0.000000, 241.000000) translate(20.000000, 12.000000)"/>
                            <path d="M3.502 6.241L4.93 8.819 7.614 7.331" transform="translate(-420.000000, -360.000000) translate(0.000000, 77.000000) translate(400.000000, 30.000000) translate(0.000000, 241.000000) translate(20.000000, 12.000000) translate(5.557584, 7.529922) rotate(29.000000) translate(-5.557584, -7.529922)"/>
                        </g>
                    </g>
                </g>
            </g>
        </g>
    </g>
</svg>
