<?xml version="1.0" encoding="UTF-8"?>
<svg width="36px" height="36px" viewBox="0 0 36 36" version="1.1" xmlns="http://www.w3.org/2000/svg" xmlns:xlink="http://www.w3.org/1999/xlink">
    <title>750F3C17-980A-4673-9114-6C19D9C27940</title>
    <g id="Community_Admin" stroke="none" stroke-width="1" fill="none" fill-rule="evenodd">
        <g id="Community_Community_Main_01(41-31-02)" transform="translate(-1167.000000, -20.000000)">
            <rect fill="#F4F7FD" x="0" y="0" width="1400" height="1000"></rect>
            <g id="GNB-/-Learning">
                <g id="bg" fill="#FFFFFF">
                    <rect id="Rectangle" x="0" y="0" width="1400" height="76"></rect>
                </g>
                <g id="icon/community/typeB" transform="translate(1167.000000, 20.000000)">
                    <g id="Group-6" transform="translate(14.500000, 9.000000)" stroke="#222222">
                        <path d="M14.984037,14.0615636 L14.984037,12.346066 C14.984037,10.1599451 9.989358,9.06688464 7.4920185,9.06688464 C4.994679,9.06688464 0,10.1599451 0,12.346066 L0,14.0615636" id="Icon-Path_2_"></path>
                        <path d="M7.49827227,7.4920185 C9.57452448,7.4920185 11.2380278,5.81880104 11.2380278,3.74600925 C11.2380278,1.67321746 9.57452448,0 7.49827227,0 C5.42202007,0 3.74600925,1.67321746 3.74600925,3.74600925 C3.74600925,5.81880104 5.42202007,7.4920185 7.49827227,7.4920185 Z" id="Icon-Path" fill-rule="nonzero"></path>
                    </g>
                    <g id="Group-5" transform="translate(7.500000, 8.500000)" fill="#FFFFFF">
                        <path d="M18.1152421,18.5 L18.1152421,16.4260159 C18.1152421,13.7830626 12.076828,12.461586 9.05762103,12.461586 C6.03841402,12.461586 0,13.7830626 0,16.4260159 L0,18.5" id="Icon-Path_2_" stroke="#222222"></path>
                        <path d="M9.06887529,12.057621 C12.4103863,12.057621 15.087621,9.36475231 15.087621,6.0288105 C15.087621,2.69286869 12.4103863,0 9.06887529,0 C5.7273643,0 3.03,2.69286869 3.03,6.0288105 C3.03,9.36475231 5.7273643,12.057621 9.06887529,12.057621 Z" id="Icon-Path" stroke="#FFFFFF" fill-rule="nonzero"></path>
                    </g>
                    <g id="Group-5" transform="translate(7.500000, 10.000000)" fill="#FFFFFF" stroke="#222222">
                        <path d="M18.1152421,17 L18.1152421,14.9260159 C18.1152421,12.2830626 12.076828,10.961586 9.05762103,10.961586 C6.03841402,10.961586 0,12.2830626 0,14.9260159 L0,17" id="Icon-Path_2_"></path>
                        <path d="M9.06518165,9.05762103 C11.575307,9.05762103 13.5864315,7.03475233 13.5864315,4.52881051 C13.5864315,2.0228687 11.575307,0 9.06518165,0 C6.55505629,0 4.52881051,2.0228687 4.52881051,4.52881051 C4.52881051,7.03475233 6.55505629,9.05762103 9.06518165,9.05762103 Z" id="Icon-Path" fill-rule="nonzero"></path>
                    </g>
                </g>
            </g>
        </g>
    </g>
</svg>