<?xml version="1.0" encoding="UTF-8"?>
<svg width="60px" height="60px" viewBox="0 0 60 60" version="1.1" xmlns="http://www.w3.org/2000/svg" xmlns:xlink="http://www.w3.org/1999/xlink">
    <title>EAFF38E7-DAF3-4DBD-AF57-CD23077BD789</title>
    <g id="Main_Final" stroke="none" stroke-width="1" fill="none" fill-rule="evenodd">
        <g id="Playlist_Main_05_추가" transform="translate(-1083.000000, -2519.000000)">
            <g id="추천-받은-Playlist" transform="translate(360.000000, 2457.000000)">
                <g id="내가-왔다" transform="translate(623.000000, 0.000000)">
                    <g id="icon_create_playlist" transform="translate(100.000000, 62.000000)">
                        <g id="Group-19" transform="translate(1.500000, 2.250000)">
                            <path d="M34.5155979,12.7979034 L12.6112472,12.7979034 C12.3089566,12.7979034 12.0634225,12.572821 12.0634225,12.2957095 C12.0634225,12.018598 12.3089566,11.7935156 12.6112472,11.7935156 L34.5155979,11.7935156 C34.8178885,11.7935156 35.0634225,12.018598 35.0634225,12.2957095 C35.0634225,12.572821 34.8178885,12.7979034 34.5155979,12.7979034" id="Fill-4" fill="#FFFFFF"></path>
                            <rect id="Rectangle" stroke="#FFFFFF" stroke-width="1.5" x="5.25" y="0.75" width="36.75" height="46.5" rx="1"></rect>
                            <path d="M20.6090594,17.8176935 L12.5666267,17.8176935 C12.2891452,17.8176935 12.0637623,17.5926111 12.0637623,17.3154996 C12.0637623,17.0383881 12.2891452,16.8133057 12.5666267,16.8133057 L20.6090594,16.8133057 C20.8865409,16.8133057 21.1119238,17.0383881 21.1119238,17.3154996 C21.1119238,17.5926111 20.8865409,17.8176935 20.6090594,17.8176935" id="Fill-6" fill="#FFFFFF"></path>
                            <path d="M34.6782108,17.8176935 L26.6357781,17.8176935 C26.3582966,17.8176935 26.1329137,17.5926111 26.1329137,17.3154996 C26.1329137,17.0383881 26.3582966,16.8133057 26.6357781,16.8133057 L34.6782108,16.8133057 C34.9556923,16.8133057 35.1810752,17.0383881 35.1810752,17.3154996 C35.1810752,17.5926111 34.9556923,17.8176935 34.6782108,17.8176935" id="Fill-8" fill="#FFFFFF"></path>
                            <path d="M34.6833733,22.8375967 L12.5664002,22.8375967 C12.2889187,22.8375967 12.0635358,22.6125143 12.0635358,22.3354028 C12.0635358,22.0582913 12.2889187,21.8332089 12.5664002,21.8332089 L34.6833733,21.8332089 C34.9608548,21.8332089 35.1862377,22.0582913 35.1862377,22.3354028 C35.1862377,22.6125143 34.9608548,22.8375967 34.6833733,22.8375967" id="Fill-10" fill="#FFFFFF"></path>
                            <polygon id="Fill-12" fill="#FFFFFF" points="12.0717892 8.53379019 14.0821143 8.53379019 14.0821143 6.52614561 12.0717892 6.52614561"></polygon>
                            <polygon id="Fill-14" fill="#FFFFFF" points="16.0935719 8.53379019 18.1038969 8.53379019 18.1038969 6.52614561 16.0935719 6.52614561"></polygon>
                            <polygon id="Fill-15" fill="#FFFFFF" points="20.1142219 8.53379019 22.124547 8.53379019 22.124547 6.52614561 20.1142219 6.52614561"></polygon>
                            <path d="M46.7471356,47.9994 L0.502864402,47.9994 C0.225382919,47.9994 0,47.73075 0,47.4 C0,47.06925 0.225382919,46.8006 0.502864402,46.8006 L46.7471356,46.8006 C47.0246171,46.8006 47.25,47.06925 47.25,47.4 C47.25,47.73075 47.0246171,47.9994 46.7471356,47.9994" id="Fill-16" fill="#FFFFFF"></path>
                            <path d="M13.0689248,40.9084338 L34.1801691,40.9084338 L34.1801691,27.8570474 L13.0689248,27.8570474 L13.0689248,40.9084338 Z M34.6830335,41.9128216 L12.567193,41.9128216 C12.2885789,41.9128216 12.0643286,41.6877392 12.0643286,41.4106277 L12.0643286,27.3548535 C12.0643286,27.077742 12.2885789,26.8537907 12.567193,26.8537907 L34.6830335,26.8537907 C34.960515,26.8537907 35.1858979,27.077742 35.1858979,27.3548535 L35.1858979,41.4106277 C35.1858979,41.6877392 34.960515,41.9128216 34.6830335,41.9128216 L34.6830335,41.9128216 Z" id="Fill-17" fill="#FFFFFF"></path>
                            <polygon id="Path-7" stroke="#FFFFFF" stroke-linejoin="round" points="21.1119238 31.6260509 21.1119238 37.5 26.002018 34.5630255"></polygon>
                        </g>
                        <circle id="Oval" stroke="#FFFFFF" stroke-width="1.5" fill="#FFFFFF" cx="44.6665371" cy="44.6665371" r="13.9165371"></circle>
                        <path d="M45,39 C45.8284271,39 46.5,39.6715729 46.5,40.5 L46.5,43.5 L49.5,43.5 C50.3284271,43.5 51,44.1715729 51,45 C51,45.8284271 50.3284271,46.5 49.5,46.5 L46.499,46.5 L46.5,49.5 C46.5,50.3284271 45.8284271,51 45,51 C44.1715729,51 43.5,50.3284271 43.5,49.5 L43.499,46.5 L40.5,46.5 C39.6715729,46.5 39,45.8284271 39,45 C39,44.1715729 39.6715729,43.5 40.5,43.5 L43.5,43.5 L43.5,40.5 C43.5,39.6715729 44.1715729,39 45,39 Z" id="Combined-Shape" fill="#666666"></path>
                    </g>
                </g>
            </g>
        </g>
    </g>
</svg>