<svg xmlns="http://www.w3.org/2000/svg" width="24" height="24" viewBox="0 0 24 24">
    <g fill="none" fill-rule="evenodd">
        <g>
            <path fill="#F4F7FD" d="M0 0H1400V2008H0z" transform="translate(-738 -583)"/>
            <g>
                <g transform="translate(-738 -583) translate(400 159) translate(0 411)">
                    <rect width="949" height="49" x=".5" y=".5" fill="#FFF" stroke="#D6DEED" rx="8"/>
                    <g>
                        <g>
                            <path fill="#FFF" d="M0 0H24V24H0z" transform="translate(155 13) translate(183)"/>
                            <path fill="#FFAE57" d="M21 21l-3-3H5c-.552 0-1-.448-1-1V5c0-.552.448-1 1-1h15c.552 0 1 .448 1 1v16z" transform="translate(155 13) translate(183) matrix(-1 0 0 1 25 0)"/>
                            <path fill="#FFF" d="M7 8H18V9.5H7zM7 11H13V12.5H7z" transform="translate(155 13) translate(183)"/>
                        </g>
                    </g>
                </g>
            </g>
        </g>
    </g>
</svg>
