<svg width="16" height="16" viewBox="0 0 16 16" xmlns="http://www.w3.org/2000/svg">
    <g stroke="#222" fill="none" fill-rule="evenodd">
        <path d="M10 9.5V8.052a3.85 3.85 0 0 1 .58-1.957 3.067 3.067 0 0 0-.687-3.91 2.96 2.96 0 0 0-2.923-.5 3.032 3.032 0 0 0-1.917 2.297 3.041 3.041 0 0 0 .374 2.12c.359.567.557 1.223.575 1.897V9.5H10zM11.333 11.5c.599 0 1.14.243 1.532.635.392.392.635.933.635 1.532v.833h-11v-.833c0-.599.243-1.14.635-1.532a2.16 2.16 0 0 1 1.532-.635z"/>
        <path d="M5 9.5h6v2H5z"/>
    </g>
</svg>
