<svg xmlns="http://www.w3.org/2000/svg" xmlns:xlink="http://www.w3.org/1999/xlink" width="90" height="90" viewBox="0 0 90 90">
  <defs>
    <style>
      .cls-1, .cls-4, .cls-5 {
        fill: none;
      }

      .cls-2 {
        fill: #fff;
      }

      .cls-3 {
        clip-path: url(#clip-path);
      }

      .cls-4 {
        stroke: #282828;
        stroke-width: 2px;
      }

      .cls-4, .cls-5 {
        stroke-linecap: round;
        stroke-linejoin: round;
      }

      .cls-5 {
        stroke: #d8d8d8;
        stroke-width: 1.5px;
      }

      .cls-6 {
        fill: #dbdadb;
      }

      .cls-7 {
        fill: #ff664d;
      }
    </style>
    <clipPath id="clip-path">
      <rect id="사각형_209" data-name="사각형 209" class="cls-1" width="51" height="47.101"/>
    </clipPath>
  </defs>
  <g id="icon_02" transform="translate(18 15)">
    <circle id="타원_2" data-name="타원 2" class="cls-2" cx="45" cy="45" r="45" transform="translate(-18 -15)"/>
    <path id="패스_2032" data-name="패스 2032" class="cls-2" d="M39.321,7.77H11.169V44.714H31.438l7.883-7.882Z" transform="translate(-0.944 3.256)"/>
    <path id="패스_2033" data-name="패스 2033" class="cls-4" d="M39.321,7.77H11.169V44.714H31.438l7.883-7.882Z" transform="translate(49.546 55.741) rotate(180)"/>
    <path id="패스_2034" data-name="패스 2034" class="cls-2" d="M18.687,30.7h0Z" transform="translate(-3.599 -4.84)"/>
    <line id="선_4" data-name="선 4" class="cls-5" x2="6" transform="translate(21.5 21.443)"/>
    <path id="패스_2035" data-name="패스 2035" class="cls-2" d="M18.687,37.223h0Z" transform="translate(-3.599 -7.144)"/>
    <line id="선_5" data-name="선 5" class="cls-5" x2="15.364" transform="translate(16.74 27.3)"/>
    <path id="패스_2036" data-name="패스 2036" class="cls-2" d="M18.687,43.747h0Z" transform="translate(-3.599 -9.448)"/>
    <line id="선_6" data-name="선 6" class="cls-5" x2="15.364" transform="translate(16.74 32.738)"/>
    <path id="패스_2037" data-name="패스 2037" class="cls-2" d="M18.687,50.272h0Z" transform="translate(-3.599 -11.752)"/>
    <path id="패스_2038" data-name="패스 2038" class="cls-2" d="M18.687,56.8h0Z" transform="translate(-3.599 -14.056)"/>
    <line id="선_8" data-name="선 8" class="cls-5" x2="7.76" transform="translate(16.74 38.179)"/>
    <path id="패스_2040" data-name="패스 2040" class="cls-4" d="M50.385,52.7,42.5,60.579V52.7Z" transform="translate(60.61 71.605) rotate(180)"/>
    <g id="pen" transform="translate(-1.1 69.079) rotate(-90)">
      <path id="패스_2041" data-name="패스 2041" class="cls-6" d="M46.415,43.961l3.575-3.574-3.383-1.424-1.614,1.614Z" transform="translate(-13.84 -11.711)"/>
      <path id="사각형_210" data-name="사각형 210" class="cls-7" d="M0,0H5.055a0,0,0,0,1,0,0V24.214a1,1,0,0,1-1,1H1a1,1,0,0,1-1-1V0A0,0,0,0,1,0,0Z" transform="translate(32.576 32.251) rotate(-45)"/>
      <path id="패스_2042" data-name="패스 2042" class="cls-7" d="M44.425,40.011,46.04,38.4l-2.789-1.173Z" transform="translate(-13.273 -11.144)"/>
    </g>
  </g>
</svg>
