<svg width="18" height="18" viewBox="0 0 18 18" xmlns="http://www.w3.org/2000/svg" xmlns:xlink="http://www.w3.org/1999/xlink">
    <defs>
        <filter x="-4.6%" y="-3.4%" width="109.3%" height="108.1%" filterUnits="objectBoundingBox" id="a">
            <feOffset dy="2" in="SourceAlpha" result="shadowOffsetOuter1"/>
            <feGaussianBlur stdDeviation="4" in="shadowOffsetOuter1" result="shadowBlurOuter1"/>
            <feColorMatrix values="0 0 0 0 0.298039216 0 0 0 0 0.298039216 0 0 0 0 0.298039216 0 0 0 0.2 0" in="shadowBlurOuter1"/>
        </filter>
        <rect id="b" x="0" y="0" width="280" height="320" rx="12"/>
    </defs>
    <g fill="none" fill-rule="evenodd">
        <path fill="#FFF" d="M-508-1911h1920V417H-508z"/>
        <g transform="translate(-90 -282)">
            <use fill="#000" filter="url(#a)" xlink:href="#b"/>
            <use fill="#FFF" xlink:href="#b"/>
        </g>
        <path d="M15.58 11.244a1.41 1.41 0 0 0 .615-1.152c0-.47-.241-.888-.613-1.15a1.4 1.4 0 0 0 .52-1.08c0-.792-.684-1.437-1.524-1.437h-3.2c.09-.385.162-.716.243-1.084.042-.195.087-.4.138-.627.18-.806.16-3.273-1.505-3.665-.414-.098-.76-.05-1.027.144-.5.36-.568 1.12-.629 1.789-.026.287-.05.559-.103.766-.372 1.447-.748 2.295-1.99 3.48l-.08.071a.591.591 0 0 0-.57-.44h-3.52A.336.336 0 0 0 2 7.197v8.239c0 .185.15.336.336.336h3.519a.592.592 0 0 0 .592-.592v-.03c.636.542 1.47.851 2.36.851h5.615c.84 0 1.524-.644 1.524-1.436 0-.417-.19-.794-.493-1.056.395-.26.654-.692.654-1.179a1.4 1.4 0 0 0-.527-1.085z" fill="#00BFAE"/>
        <path d="M14.671 10.856h.09a.336.336 0 0 0-.335.337v.037c0 .185.15.336.335.336h-.178c.47 0 .853.342.853.763s-.383.764-.853.764h.178a.336.336 0 0 0-.335.336v.035c0 .186.15.336.335.336h-.339c.47 0 .852.343.852.764s-.382.763-.852.763H8.806c-.957 0-1.83-.432-2.36-1.16V8.247a1.12 1.12 0 0 1 .147-.182l.041-.037a2.719 2.719 0 0 1 .325-.302C8.31 6.437 8.755 5.43 9.145 3.915c.067-.26.094-.557.122-.873.048-.526.101-1.122.353-1.304.102-.074.263-.085.48-.034 1.154.271 1.117 2.355 1.004 2.863l-.14.63c-.107.49-.2.913-.336 1.487a.337.337 0 0 0 .327.414h3.623c.47 0 .852.343.852.764s-.382.764-.852.764h.183a.336.336 0 0 0-.335.336v.03c0 .186.15.337.335.337h-.09c.47 0 .852.342.852.763s-.382.764-.852.764z" stroke="#00BFAE" stroke-width=".3" fill="#FFF"/>
        <path d="M15.671 11.856h-.91a.336.336 0 0 0-.335.337v.037c0 .185.15.336.335.336h.822c.47 0 .853.342.853.763s-.383.764-.853.764h-.822a.336.336 0 0 0-.335.336v.035c0 .186.15.336.335.336h.661c.47 0 .852.343.852.764s-.382.763-.852.763H9.806c-.957 0-1.83-.432-2.36-1.16V9.247a1.12 1.12 0 0 1 .147-.182l.041-.037a2.717 2.717 0 0 1 .325-.302c1.351-1.288 1.796-2.294 2.186-3.81.067-.26.094-.557.122-.873.048-.526.101-1.122.353-1.304.102-.074.263-.085.48-.034 1.154.271 1.117 2.355 1.004 2.863l-.14.63c-.107.49-.2.913-.336 1.487a.337.337 0 0 0 .327.414h3.623c.47 0 .852.343.852.764s-.382.764-.852.764h-.817a.336.336 0 0 0-.335.336v.03c0 .186.15.337.335.337h.91c.47 0 .852.342.852.763s-.382.764-.852.764z"/>
    </g>
</svg>
