<svg width="16" height="16" viewBox="0 0 16 16" xmlns="http://www.w3.org/2000/svg">
    <g transform="translate(2 .832)" stroke="#222" fill="none" fill-rule="evenodd">
        <path d="M5.124 1.193c-2.296.19-3.556 1.85-3.779 4.975L.116 7.979c-.204.335-.14.62.194.857l1.035.468.481 2.588c.38.622.813.933 1.297.933h1.035v1.343" stroke-linecap="round"/>
        <path d="M11.305 2.22c.451 1.005.461 1.362.563 1.64.566.441.749.629.846.854a.955.955 0 0 1 .01.733c-.476.416-.673.613-.772.824.089.712.085.974-.005 1.202a.955.955 0 0 1-.51.526c-.632-.043-.91-.043-1.13.036-.44.567-.628.75-.853.847a.955.955 0 0 1-.733.01c-.416-.476-.613-.673-.824-.772-.712.089-.974.085-1.202-.005a.955.955 0 0 1-.526-.51c.042-.632.043-.91-.037-1.13-.566-.44-.749-.628-.846-.853a.955.955 0 0 1-.01-.733c.476-.416.673-.613.772-.824-.089-.712-.085-.975.005-1.202a.955.955 0 0 1 .51-.526c.632.042.91.043 1.13-.037.44-.566.628-.749.853-.846a.955.955 0 0 1 .733-.011c.416.476.613.674.824.772.712-.088.974-.085 1.202.006z"/>
        <circle cx="9" cy="5.168" r="1"/>
        <path d="M10 10.336c-.667.72-1 1.427-1 2.124v1.708" stroke-linecap="round"/>
    </g>
</svg>
