<svg width="18" height="18" viewBox="0 0 18 18" xmlns="http://www.w3.org/2000/svg">
    <g transform="translate(1.5 1)" fill="#FFF" fill-rule="evenodd">
        <path d="M7.5 2c3.333 0 6 2.667 6 6s-2.667 6-6 6-6-2.667-6-6 2.667-6 6-6zm.3 2.697h-.5a.5.5 0 0 0-.5.5V8.55h.013l-.008.004 1.972 1.827a.5.5 0 0 0 .7-.02l.284-.296a.502.502 0 0 0-.021-.712L8.299 8.016l.001-2.82a.5.5 0 0 0-.41-.491l-.09-.008z" fill-rule="nonzero"/>
        <rect transform="rotate(45 1.945 1.945)" x="1.195" y="-.055" width="1.5" height="4" rx=".5"/>
        <rect transform="rotate(-45 12.945 1.945)" x="12.195" y="-.055" width="1.5" height="4" rx=".5"/>
    </g>
</svg>
