<?xml version="1.0" encoding="UTF-8"?>
<svg width="24px" height="24px" viewBox="0 0 24 24" version="1.1" xmlns="http://www.w3.org/2000/svg" xmlns:xlink="http://www.w3.org/1999/xlink">
    <title>785AE4AF-2118-448C-A613-9EC2775FF1FA</title>
    <g id="공유하기-버튼-추가-관련-" stroke="none" stroke-width="1" fill="none" fill-rule="evenodd">
        <g id="New_CT-03-01_Share-UI" transform="translate(-1440.000000, -689.000000)">
            <g id="#담당_info" transform="translate(1420.000000, 612.000000)">
                <g id="icon-/-24px-/-twitter" transform="translate(19.999934, 77.000000)">
                    <g id="Group-3" fill="#4C4C4C">
                        <path d="M24.0000663,11.9999227 C24.0000663,18.6272863 18.6275071,23.9998454 12.0001435,23.9998454 C5.37278,23.9998454 0,18.6272863 0,11.9999227 C0,5.37255916 5.37278,0 12.0001435,0 C18.6275071,0 24.0000663,5.37255916 24.0000663,11.9999227" id="Fill-1"></path>
                    </g>
                    <path d="M9.80452296,18.3295076 C15.1254059,18.3295076 18.0353949,13.9211294 18.0353949,10.0988565 C18.0353949,9.97364108 18.0327448,9.84886733 18.0267822,9.72475609 C18.5919079,9.31642569 19.0828319,8.80695126 19.4704035,8.22702934 C18.9518747,8.45714307 18.3942575,8.61239254 17.8085937,8.68239834 C18.4061827,8.32419829 18.8646435,7.75752668 19.0810652,7.08220253 C18.5219021,7.41346029 17.9031126,7.65461594 17.2441305,7.78424814 C16.7163265,7.22199331 15.9643714,6.87041841 15.1324727,6.87041841 C13.534927,6.87041841 12.2390466,8.16585708 12.2390466,9.76296115 C12.2390466,9.98998313 12.2646639,10.2106008 12.3143526,10.4223849 C9.91008376,10.3015863 7.77810883,9.15057597 6.35149209,7.40020998 C6.10282793,7.82753249 5.95994542,8.32419829 5.95994542,8.85398986 C5.95994542,9.85770087 6.4703032,10.743705 7.24699223,11.2620129 C6.77263112,11.2474376 6.32675817,11.116922 5.93675737,10.9000586 C5.93609486,10.9122047 5.93609486,10.9243508 5.93609486,10.9369386 C5.93609486,12.338159 6.93340155,13.5079405 8.25710755,13.7731676 C8.01418519,13.8391983 7.7584542,13.8749741 7.49455219,13.8749741 C7.30816449,13.8749741 7.12663524,13.8564237 6.95062695,13.8228562 C7.31898558,14.9720998 8.38673975,15.8084152 9.65302774,15.832045 C8.66300872,16.6078506 7.41571284,17.0702865 6.06042694,17.0702865 C5.82655896,17.0702865 5.59644524,17.0568153 5.37030661,17.0300938 C6.65050742,17.8505089 8.17031802,18.3295076 9.80452296,18.3295076" id="Fill-4" fill="#FEFEFE"></path>
                </g>
            </g>
        </g>
    </g>
</svg>