<svg width="54" height="54" viewBox="0 0 54 54" xmlns="http://www.w3.org/2000/svg">
    <g transform="translate(4.629 6.155)" fill="none" fill-rule="evenodd">
        <rect stroke="#777" stroke-width="1.714" y="10.045" width="9.257" height="9.257" rx="1.714"/>
        <rect stroke="#777" stroke-width="1.714" x="13.114" y="5.245" width="18.514" height="18.514" rx="1.714"/>
        <rect stroke="#777" stroke-width="1.714" x="35.486" y="10.045" width="9.257" height="9.257" rx="1.714"/>
        <path fill="#777" fill-rule="nonzero" d="M31.629 37.816h7.714v1.543h-7.714zM5.4 37.816h10.8v1.543H5.4z"/>
        <path d="m18.911 9.273-2.727 2.728 6.546 6.545 12-12-2.727-2.728-9.274 9.274z" fill="#FF664D" fill-rule="nonzero" stroke="#FFF" stroke-width="1.714"/>
        <path d="M22.633 18.56a3.2 3.2 0 0 0-2.27.94 3.2 3.2 0 0 0-.94 2.27v5.309l-3.609 2.171v6.02l3.857 3.982v2.807h8.486v-2.295l2.21-3.106.432-1.424a6.557 6.557 0 0 0 .156-3.189l-.625-3.132-4.487-1.94V21.77a3.2 3.2 0 0 0-.94-2.27 3.2 3.2 0 0 0-2.27-.94z" stroke="#FFF" stroke-width="2.571"/>
        <path d="M20.829 40.902v-2.118l-3.205-3.309a2.314 2.314 0 0 1-.653-1.61v-2.652c0-.812.426-1.565 1.122-1.983l2.487-1.497v2.653-8.616a2.053 2.053 0 0 1 4.106 0v5.963l3.804 2.279c.528.316.908.829 1.057 1.426l.384 1.542c.101.406.09.832-.031 1.232l-.476 1.568c-.073.24-.184.465-.329.67L27 39.393v1.508" stroke="#777" stroke-width="1.714" fill="#FFF" fill-rule="nonzero"/>
    </g>
</svg>
