<svg xmlns="http://www.w3.org/2000/svg" width="24" height="24" viewBox="0 0 24 24">
    <g fill="none" fill-rule="evenodd">
        <g>
            <path fill="none" d="M0 0H1400V2930H0z" transform="translate(-400 -170)"/>
            <g>
                <g>
                    <path d="M0 0H24V24H0z" transform="translate(-400 -170) translate(400 159) translate(0 11)"/>
                    <path fill="#777" d="M16.063 3v2.8l-2.197-.001.001 3.365c2.879.53 5.014 2.255 5.128 4.324l.005.175-6.204-.001v7.01h-.933v-7.01L5 13.663c0-2.146 2.173-3.954 5.133-4.499V5.8L8.597 5.8V3h7.466z" transform="translate(-400 -170) translate(400 159) translate(0 11) rotate(45 12 11.836)"/>
                </g>
            </g>
        </g>
    </g>
</svg>