<?xml version="1.0" encoding="UTF-8"?>
<svg width="24px" height="24px" viewBox="0 0 24 24" version="1.1" xmlns="http://www.w3.org/2000/svg" xmlns:xlink="http://www.w3.org/1999/xlink">
    <title>9EA45D1D-4A54-48B4-AA83-AE8C8AF6677D</title>
    <defs>
        <rect id="path-1" x="0" y="0" width="24" height="24"></rect>
    </defs>
    <g id="문의하기" stroke="none" stroke-width="1" fill="none" fill-rule="evenodd">
        <g id="QA-QA-40" transform="translate(-631.000000, -1120.000000)">
            <g id="contents" transform="translate(0.000000, 163.000000)">
                <g id="문의답변만족도조사" transform="translate(360.000000, 871.000000)">
                    <g id="icons-/-24-/-ic_thumup_off" transform="translate(271.000000, 86.000000)">
                        <mask id="mask-2" fill="white">
                            <use xlink:href="#path-1" transform="translate(12.000000, 12.000000) scale(1, -1) translate(-12.000000, -12.000000) "></use>
                        </mask>
                        <g id="Property-1=24,-Property-2=ic_thumb_up_off-(Background/Mask)" transform="translate(12.000000, 12.000000) scale(1, -1) translate(-12.000000, -12.000000) "></g>
                        <path d="M4,10.7792969 L6.23529363,10.7792969 C7.20179129,10.7792969 7.98529434,11.5627978 7.98529434,12.5292969 L7.98529434,18.9998846 C7.98529434,19.966382 7.20179319,20.7498856 6.23529434,20.7498856 L4.00000083,20.7498856 C3.03350323,20.7498856 2.25,19.9663849 2.25,18.9998856 L2.25,12.5292977 C2.25,11.5628001 3.03350097,10.7792969 4,10.7792969 Z M3.75,12.5292977 L3.75,18.9998856 C3.75,19.1379561 3.86192888,19.2498856 4.00000083,19.2498856 L6.23529434,19.2498856 C6.37336469,19.2498856 6.48529434,19.1379566 6.48529434,18.9998846 L6.48529434,12.5292969 C6.48529434,12.3912265 6.3733654,12.2792969 6.23529363,12.2792969 L4,12.2792969 C3.8619296,12.2792969 3.75,12.3912258 3.75,12.5292977 Z" id="Rectangle-4300-(Stroke)" fill="#CBCDCF" mask="url(#mask-2)"></path>
                        <path d="M11.3829551,1.88248019 C11.8311572,2.14389987 12.3702483,2.49443603 12.8615308,2.9138056 C13.3447599,3.3263008 13.8299837,3.84580731 14.1101646,4.45645833 C14.3534427,4.98668003 14.4457822,5.59370613 14.4710803,6.15028286 C14.496747,6.7149663 14.4552913,7.27889347 14.3972507,7.752038 C14.3837519,7.862082 14.418714,7.97426701 14.4873943,8.05770636 C14.5536871,8.13824558 14.6336527,8.17307186 14.7118406,8.17307186 L19.8671246,8.17307186 C20.919239,8.17307186 21.73351,9.0947938 21.6037674,10.138876 L20.4758263,19.2157974 C20.3669319,20.0921059 19.6222324,20.7499943 18.7391834,20.7499943 L8.234375,20.7499943 C7.26787657,20.7499943 6.484375,19.9664936 6.484375,18.9999943 L6.484375,11.8315649 C6.484375,11.6698723 6.5067839,11.5089598 6.55096269,11.3534193 L8.952075,2.89979911 C9.23704815,1.89649081 10.3901498,1.30341338 11.3829551,1.88248019 Z M10.3949997,3.30963826 L7.99388742,11.7632589 C7.98757625,11.7854786 7.984375,11.808466 7.984375,11.8315649 L7.984375,18.9999943 C7.984375,19.1380653 8.096304,19.2499943 8.234375,19.2499943 L18.7391834,19.2499943 C18.8653336,19.2499943 18.9717188,19.1560116 18.9872751,19.0308247 L20.1152163,9.95390129 C20.1337509,9.80474567 20.0174255,9.67307186 19.8671246,9.67307186 L14.7118406,9.67307186 C13.5570359,9.67307186 12.7809181,8.60872078 12.908411,7.56940222 C12.9602075,7.1471591 12.9932537,6.6721859 12.9726272,6.21839237 C12.9516325,5.75649214 12.876884,5.36546421 12.7468204,5.08199239 C12.5966802,4.75476336 12.2957702,4.40304351 11.887661,4.05467272 C11.4876056,3.71317625 11.030154,3.4132067 10.6272163,3.17818809 C10.5837672,3.15284586 10.5463762,3.15298581 10.5077019,3.1700536 C10.4641583,3.18927014 10.4165945,3.23360896 10.3949997,3.30963826 Z" id="Vector-3-(Stroke)" fill="#CBCDCF" mask="url(#mask-2)"></path>
                    </g>
                </g>
            </g>
        </g>
    </g>
</svg>