<svg xmlns="http://www.w3.org/2000/svg" width="80" height="80" viewBox="0 0 80 80">
    <g fill="none" fill-rule="evenodd">
        <g>
            <g>
                <g>
                    <g>
                        <g>
                            <path fill="#FFF" d="M0 0H76V32H0z" transform="translate(-776 -929) translate(120 917) translate(628) translate(28 12) translate(2 11)"/>
                            <path fill="#FF664D" d="M6 6H40V28H6z" transform="translate(-776 -929) translate(120 917) translate(628) translate(28 12) translate(2 11)"/>
                            <path stroke="#FFF" d="M6 6L40 28" transform="translate(-776 -929) translate(120 917) translate(628) translate(28 12) translate(2 11)"/>
                            <path stroke="#FFF" d="M6 6L40 28" transform="translate(-776 -929) translate(120 917) translate(628) translate(28 12) translate(2 11) matrix(-1 0 0 1 46 0)"/>
                            <path fill="#FF664D" d="M44 7H70V11H44zM44 13H60V17H44z" transform="translate(-776 -929) translate(120 917) translate(628) translate(28 12) translate(2 11)"/>
                            <path fill="#FFAEA1" d="M44 21H70V23H44zM44 25H70V27H44z" transform="translate(-776 -929) translate(120 917) translate(628) translate(28 12) translate(2 11)"/>
                        </g>
                        <g>
                            <path fill="#FFF" d="M0 0H76V29H0z" transform="translate(-776 -929) translate(120 917) translate(628) translate(28 12) translate(2 45)"/>
                            <path fill="#FF664D" d="M36 6H70V28H36z" transform="translate(-776 -929) translate(120 917) translate(628) translate(28 12) translate(2 45)"/>
                            <path stroke="#FFF" d="M36 6L70 28" transform="translate(-776 -929) translate(120 917) translate(628) translate(28 12) translate(2 45)"/>
                            <path stroke="#FFF" d="M36 6L70 28" transform="translate(-776 -929) translate(120 917) translate(628) translate(28 12) translate(2 45) matrix(-1 0 0 1 106 0)"/>
                            <path fill="#FF664D" d="M6 7H32V11H6zM6 13H22V17H6z" transform="translate(-776 -929) translate(120 917) translate(628) translate(28 12) translate(2 45)"/>
                            <path fill="#FFAEA1" d="M6 21H32V23H6zM6 25H32V27H6z" transform="translate(-776 -929) translate(120 917) translate(628) translate(28 12) translate(2 45)"/>
                        </g>
                        <path fill="#FF664D" d="M35.047 31H45v76h-7.273C35.91 100.071 35 93.477 35 87.217c0-6.26.62-12.332 1.859-18.217C38.286 63.79 39 58.111 39 51.962c0-6.149-1.318-13.136-3.953-20.962z" transform="translate(-776 -929) translate(120 917) translate(628) translate(28 12) rotate(90 40 69)"/>
                    </g>
                </g>
            </g>
        </g>
    </g>
</svg>
