<svg xmlns="http://www.w3.org/2000/svg" xmlns:xlink="http://www.w3.org/1999/xlink" width="80" height="80" viewBox="0 0 80 80">
    <defs>
        <path id="mzy93k99ca" d="M0 0H22V22H0z"/>
    </defs>
    <g fill="none" fill-rule="evenodd">
        <g>
            <g>
                <g>
                    <g>
                        <g>
                            <path fill="#FFF" d="M0 0H46V58H0z" transform="translate(-472 -929) translate(120 917) translate(324) translate(28 12) translate(2 11)"/>
                            <path fill="#FF664D" d="M6 32H40V36H6zM6 6H40V28H6zM6 38H22V42H6z" transform="translate(-472 -929) translate(120 917) translate(324) translate(28 12) translate(2 11)"/>
                            <path fill="#FFAEA1" d="M6 46H40V48H6zM6 50H40V52H6z" transform="translate(-472 -929) translate(120 917) translate(324) translate(28 12) translate(2 11)"/>
                            <path stroke="#FFF" d="M6 6L40 28" transform="translate(-472 -929) translate(120 917) translate(324) translate(28 12) translate(2 11)"/>
                            <path stroke="#FFF" d="M6 6L40 28" transform="translate(-472 -929) translate(120 917) translate(324) translate(28 12) translate(2 11) matrix(-1 0 0 1 46 0)"/>
                        </g>
                        <g>
                            <path fill="#FFF" d="M0 0H28V58H0z" transform="translate(-472 -929) translate(120 917) translate(324) translate(28 12) translate(50 11)"/>
                            <path fill="#FF664D" d="M6 32H28V36H6z" transform="translate(-472 -929) translate(120 917) translate(324) translate(28 12) translate(50 11)"/>
                            <path fill="#E1E1E1" d="M6 6H28V28H6z" transform="translate(-472 -929) translate(120 917) translate(324) translate(28 12) translate(50 11)"/>
                            <g transform="translate(-472 -929) translate(120 917) translate(324) translate(28 12) translate(50 11) translate(6 6)">
                                <mask id="xtzo90zydb" fill="#fff">
                                    <use xlink:href="#mzy93k99ca"/>
                                </mask>
                                <use fill="#FF664D" xlink:href="#mzy93k99ca"/>
                                <g stroke="#FFF" mask="url(#xtzo90zydb)">
                                    <path d="M0 0L34 22"/>
                                    <path d="M0 0L34 22" transform="matrix(-1 0 0 1 34 0)"/>
                                </g>
                            </g>
                            <path fill="#FF664D" d="M6 38H22V42H6z" transform="translate(-472 -929) translate(120 917) translate(324) translate(28 12) translate(50 11)"/>
                            <path fill="#FFAEA1" d="M6 46H28V48H6zM6 50H28V52H6z" transform="translate(-472 -929) translate(120 917) translate(324) translate(28 12) translate(50 11)"/>
                        </g>
                        <path fill="#FF664D" d="M67.051 11H78v58h-7.184C67.606 63.682 66 58.634 66 53.857c0-4.777.806-9.543 2.418-14.3 1.599-3.678 2.398-7.864 2.398-12.557 0-4.693-1.255-10.026-3.765-16z" transform="translate(-472 -929) translate(120 917) translate(324) translate(28 12)"/>
                    </g>
                </g>
            </g>
        </g>
    </g>
</svg>
