<svg xmlns="http://www.w3.org/2000/svg" width="800" height="180" viewBox="0 0 800 180">
    <g fill="none" fill-rule="evenodd">
        <g>
            <g>
                <g>
                    <path fill="#61C1BE" d="M0 0H800V180H0z" transform="translate(-301 -239) translate(230 100) translate(71 139)"/>
                    <g>
                        <g>
                            <path fill="#DBDBE6" d="M92.6 33.151h-5.01c-2.167-2.115-5.035-4.1-8.609-5.87-18.161-8.98-47.604-8.98-65.762 0-3.576 1.77-6.446 3.754-8.613 5.87H-.376v9.653c-.228 3.51 1.158 7.04 4.163 10.295 2.242 2.433 5.385 4.711 9.432 6.71 2.259 1.118 4.696 2.097 7.262 2.936 18.053 5.908 42.6 4.929 58.5-2.935 9.34-4.62 13.875-10.715 13.607-16.77h.012v-9.889z" transform="translate(-301 -239) translate(230 100) translate(71 139) translate(505.84 -8) translate(1.16 103)"/>
                            <path fill="#F9F9F9" d="M78.981 49.809c-15.902 7.866-40.45 8.843-58.499 2.935-.382-.124-.758-.254-1.135-.384-2.153-.747-4.202-1.6-6.127-2.551-4.04-1.997-7.184-4.273-9.426-6.7-.198-.218-.393-.436-.58-.656-7.087-8.358-3.751-18.365 10.006-25.17 18.159-8.983 47.6-8.983 65.761 0 18.159 8.982 18.159 23.545 0 32.526" transform="translate(-301 -239) translate(230 100) translate(71 139) translate(505.84 -8) translate(1.16 103)"/>
                            <path fill="#FE4844" d="M20.6 53.036v9.51c-2.613-.826-5.095-1.79-7.395-2.89-4.121-1.97-7.322-4.215-9.605-6.611l.005-.009v-9.49l16.995 9.49z" transform="translate(-301 -239) translate(230 100) translate(71 139) translate(505.84 -8) translate(1.16 103)"/>
                            <path fill="#F80023" d="M52.6 34.12c0 1.683-1.217 3.366-3.656 4.65L20.89 53.546c-.373-.129-.74-.264-1.108-.398-2.101-.777-4.102-1.663-5.98-2.652-3.945-2.076-7.013-4.441-9.202-6.964l26.692-14.06c4.876-2.568 12.779-2.568 17.652 0 2.44 1.282 3.656 2.965 3.656 4.648" transform="translate(-301 -239) translate(230 100) translate(71 139) translate(505.84 -8) translate(1.16 103)"/>
                            <path fill="#DBDBE6" d="M80.586 30.548V19.567h-8.445c-.525-.306-1.072-.605-1.646-.896-13.472-6.833-35.318-6.833-48.793 0-.573.291-1.12.59-1.646.896h-8.442V30.55c-.11 1.985.44 3.978 1.654 5.887 1.625 2.554 4.437 4.955 8.434 6.981 2.357 1.195 4.972 2.183 7.75 2.958 13.111 3.669 29.927 2.684 41.043-2.958 6.987-3.543 10.35-8.228 10.091-12.871" transform="translate(-301 -239) translate(230 100) translate(71 139) translate(505.84 -8) translate(1.16 103)"/>
                            <path fill="#F9F9F9" d="M70.494 33.418c-10.326 5.241-25.57 6.464-38.19 3.671-.966-.215-1.918-.453-2.85-.713-2.779-.775-5.394-1.763-7.75-2.958-3.168-1.606-5.593-3.447-7.267-5.414-.442-.515-.83-1.039-1.167-1.567-3.852-6.053-1.04-12.959 8.433-17.766 13.475-6.833 35.32-6.833 48.791 0 13.475 6.833 13.475 17.914 0 24.747" transform="translate(-301 -239) translate(230 100) translate(71 139) translate(505.84 -8) translate(1.16 103)"/>
                            <path fill="#F80023" d="M58.6 20.775c0 1.594-1.243 3.189-3.734 4.406l-23.26 11.365c-.974-.21-1.933-.44-2.873-.693-2.8-.752-5.435-1.711-7.81-2.87-3.191-1.56-5.635-3.347-7.323-5.257l23.238-11.355c4.98-2.433 13.051-2.433 18.028 0 2.491 1.215 3.734 2.81 3.734 4.404" transform="translate(-301 -239) translate(230 100) translate(71 139) translate(505.84 -8) translate(1.16 103)"/>
                            <path fill="#DBDBE6" d="M60.048 12.716c-8.005-2.893-18.891-2.893-26.897 0H23.6v9.33c0 2.943 2.246 5.886 6.736 8.132 8.983 4.49 23.545 4.49 32.528 0 4.49-2.246 6.736-5.19 6.736-8.132v-9.33h-9.552z" transform="translate(-301 -239) translate(230 100) translate(71 139) translate(505.84 -8) translate(1.16 103)"/>
                            <path fill="#F9F9F9" d="M62.865 19.177c-5.678 2.839-13.585 3.884-20.902 3.134-4.26-.436-8.321-1.481-11.627-3.134-3.305-1.652-5.393-3.682-6.265-5.811-1.501-3.661.587-7.614 6.265-10.452 8.98-4.49 23.546-4.49 32.529 0 8.98 4.49 8.98 11.773 0 16.263" transform="translate(-301 -239) translate(230 100) translate(71 139) translate(505.84 -8) translate(1.16 103)"/>
                            <path fill="#F80023" d="M58.6 11.666c0 1.567-1.229 3.134-3.691 4.33l-13.485 6.55c-4.244-.422-8.29-1.433-11.582-3.032-3.293-1.599-5.374-3.563-6.242-5.624l13.487-6.55c4.923-2.392 12.902-2.392 17.822 0C57.37 8.535 58.6 10.1 58.6 11.666" transform="translate(-301 -239) translate(230 100) translate(71 139) translate(505.84 -8) translate(1.16 103)"/>
                            <path fill="#FE4844" d="M41.6 22.684v9.862c-4.285-.445-8.371-1.513-11.697-3.2-3.325-1.689-5.426-3.763-6.303-5.938v-9.862c.061.15.125.299.197.445.472.975 1.19 1.925 2.162 2.82 1.03.962 2.346 1.864 3.944 2.672 3.326 1.688 7.412 2.756 11.697 3.201M31.6 37.554v9.992h-.03c-.97-.214-1.923-.447-2.857-.705-2.797-.768-5.431-1.747-7.804-2.932-3.183-1.59-5.62-3.41-7.309-5.357l.008-.008v-9.998c1.687 1.95 4.129 3.776 7.318 5.368 2.373 1.185 5.006 2.164 7.804 2.932.94.259 1.898.494 2.87.708" transform="translate(-301 -239) translate(230 100) translate(71 139) translate(505.84 -8) translate(1.16 103)"/>
                        </g>
                        <g>
                            <path fill="#D7D7E0" d="M10.64 5.818v4.822c-.087-.497-.544-5.28-3.73-7.159l-.07-.04V0c.023.01.046.022.07.034 3.279 1.712 3.643 5.287 3.73 5.784M0 13.733c0-.804 2.71-3.235 7.356-1.216 3.454 1.5 3.95 5.325 4.044 5.723v-3.855c-.094-.398-.489-3.256-4.044-4.625C2.963 8.07 0 10.173 0 10.977v2.756z" transform="translate(-301 -239) translate(230 100) translate(71 139) translate(505.84 -8) translate(64.12 27.24)"/>
                            <path fill="#EAEAEF" d="M0 11.347c0 .804 2.71 3.235 7.356 1.216 3.454-1.5 3.95-5.325 4.044-5.723v3.855c-.094.398-.489 3.256-4.044 4.625C2.963 17.01 0 14.907 0 14.103v-2.756z" transform="translate(-301 -239) translate(230 100) translate(71 139) translate(505.84 -8) translate(64.12 27.24)"/>
                            <path fill="#D7D7E0" d="M0 21.333c0-.804 2.71-3.235 7.356-1.216 3.454 1.5 3.95 5.325 4.044 5.723v-3.855c-.094-.398-.489-3.256-4.044-4.625C2.963 15.67 0 17.773 0 18.577v2.756z" transform="translate(-301 -239) translate(230 100) translate(71 139) translate(505.84 -8) translate(64.12 27.24)"/>
                            <path fill="#EAEAEF" d="M0 18.947c0 .804 2.71 3.235 7.356 1.216 3.454-1.5 3.95-5.325 4.044-5.723v3.855c-.094.398-.489 3.256-4.044 4.625C2.963 24.61 0 22.507 0 21.703v-2.756z" transform="translate(-301 -239) translate(230 100) translate(71 139) translate(505.84 -8) translate(64.12 27.24)"/>
                            <path fill="#D7D7E0" d="M0 29.693c0-.804 2.71-3.236 7.356-1.216 3.454 1.5 3.95 5.325 4.044 5.723v-3.855c-.094-.398-.489-3.256-4.044-4.625C2.963 24.03 0 26.133 0 26.937v2.756z" transform="translate(-301 -239) translate(230 100) translate(71 139) translate(505.84 -8) translate(64.12 27.24)"/>
                            <path fill="#EAEAEF" d="M0 26.547c0 .804 2.71 3.235 7.356 1.216 3.454-1.5 3.95-5.325 4.044-5.723v3.855c-.094.398-.489 3.256-4.044 4.625C2.963 32.21 0 30.107 0 29.303v-2.756z" transform="translate(-301 -239) translate(230 100) translate(71 139) translate(505.84 -8) translate(64.12 27.24)"/>
                        </g>
                        <g>
                            <path fill="#EAEAEF" d="M18.96 15.247L20.617 12.806 19.512 10.08 22.384 10.876 24.679 9 24.797 11.932 27.32 13.499 24.521 14.516 23.786 17.36 21.938 15.056z" transform="translate(-301 -239) translate(230 100) translate(71 139) translate(505.84 -8) translate(.68 31.84)"/>
                            <path fill="#FFF" d="M3.547 8.36L2.801 5.517 0 4.511 2.515 2.934 2.622 0 4.922 1.868 7.788 1.061 6.695 3.793 8.36 6.228 5.384 6.048z" transform="translate(-301 -239) translate(230 100) translate(71 139) translate(505.84 -8) translate(.68 31.84)"/>
                            <path fill="#C1C1D6" d="M28.474 68.417L26.739 67.815 25.186 68.72 25.307 67.096 23.84 66.089 25.65 65.687 26.296 64.16 27.294 65.535 29.16 65.599 27.967 66.851zM41.68 74.681L43.034 74.767 43.874 73.72 44.208 75.013 45.48 75.475 44.333 76.187 44.28 77.52 43.236 76.667 41.931 77.029 42.433 75.79z" transform="translate(-301 -239) translate(230 100) translate(71 139) translate(505.84 -8) translate(.68 31.84)"/>
                            <path fill="#FFF" d="M90.972 3.04L91.957 3.975 93.32 3.73 92.694 4.914 93.36 6.078 91.988 5.875 91.036 6.84 90.814 5.53 89.56 4.962 90.794 4.356z" transform="translate(-301 -239) translate(230 100) translate(71 139) translate(505.84 -8) translate(.68 31.84)"/>
                        </g>
                        <g>
                            <path fill="#FFA000" d="M68.297 25.432c-2.173 1.527-4.36 2.526-6.398 3.197l3.3-11.306h10.488c-1.59 2.726-3.94 5.696-7.39 8.109zM62.184 13.04c-2.051 7.01-4.089 14.005-6.126 21 2.744-.157 8.585-.9 14.508-5.054 7.141-4.995 10.4-11.353 11.492-14.518V13.04H62.184z" transform="translate(-301 -239) translate(230 100) translate(71 139) translate(505.84 -8) translate(6.16 54)"/>
                            <path fill="#FFC400" d="M68.297 27.432c-2.173 1.527-4.36 2.526-6.398 3.197l3.3-11.306h10.488c-1.59 2.726-3.94 5.696-7.39 8.109zM62.184 15.04c-2.051 7.01-4.089 14.005-6.126 21 2.744-.157 8.585-.9 14.508-5.054 7.838-5.482 10.677-13.348 11.492-15.946H62.184z" transform="translate(-301 -239) translate(230 100) translate(71 139) translate(505.84 -8) translate(6.16 54)"/>
                            <path fill="#F9F9F9" d="M82.058 14.04L82.058 13.04 62.155 13.04 61.058 14.04z" transform="translate(-301 -239) translate(230 100) translate(71 139) translate(505.84 -8) translate(6.16 54)"/>
                            <path fill="#FFA000" d="M7.429 17.323h10.487l3.3 11.306c-2.037-.67-4.224-1.67-6.398-3.197-3.45-2.413-5.8-5.383-7.39-8.11zM1.058 13.04v1.428c1.092 3.165 4.35 9.524 11.492 14.518 5.923 4.155 11.764 4.897 14.508 5.054-2.038-6.995-4.075-13.99-6.127-21H1.058z" transform="translate(-301 -239) translate(230 100) translate(71 139) translate(505.84 -8) translate(6.16 54)"/>
                            <path fill="#FFD740" d="M7.429 19.323h10.487l3.3 11.306c-2.037-.67-4.224-1.67-6.398-3.197-3.45-2.413-5.8-5.383-7.39-8.11zM1.058 15.04c.815 2.598 3.654 10.464 11.492 15.946 5.923 4.155 11.764 4.897 14.508 5.054-2.038-6.995-4.075-13.99-6.127-21H1.058z" transform="translate(-301 -239) translate(230 100) translate(71 139) translate(505.84 -8) translate(6.16 54)"/>
                            <path fill="#F9F9F9" d="M0.058 14.04L0.058 13.04 19.961 13.04 21.058 14.04z" transform="translate(-301 -239) translate(230 100) translate(71 139) translate(505.84 -8) translate(6.16 54)"/>
                            <path fill="#FFA000" d="M55.058 59.65v-1.61h-27v1.597c-.008 1.896 1.308 3.793 3.953 5.24 5.272 2.884 13.82 2.884 19.093 0 2.638-1.443 3.956-3.335 3.954-5.226" transform="translate(-301 -239) translate(230 100) translate(71 139) translate(505.84 -8) translate(6.16 54)"/>
                            <path fill="#FFE57F" d="M51.104 52.944c5.272 2.538 5.272 6.654 0 9.192-5.272 2.539-13.82 2.539-19.092 0-5.272-2.538-5.272-6.654 0-9.192 5.272-2.539 13.82-2.539 19.092 0" transform="translate(-301 -239) translate(230 100) translate(71 139) translate(505.84 -8) translate(6.16 54)"/>
                            <path fill="#FFC400" d="M48.275 54.358c3.71 1.757 3.71 4.607 0 6.364-3.71 1.757-9.725 1.757-13.435 0-3.71-1.757-3.71-4.607 0-6.364 3.71-1.757 9.725-1.757 13.435 0" transform="translate(-301 -239) translate(230 100) translate(71 139) translate(505.84 -8) translate(6.16 54)"/>
                            <path fill="#FFC400" d="M32.058 56.923L35.872 48.04 47.213 48.04 51.058 57.04z" transform="translate(-301 -239) translate(230 100) translate(71 139) translate(505.84 -8) translate(6.16 54)"/>
                            <path fill="#FFD740" d="M45.447 45.919c2.148 1.171 2.148 3.07 0 4.242-2.148 1.172-5.63 1.172-7.778 0-2.148-1.171-2.148-3.07 0-4.242 2.148-1.172 5.63-1.172 7.778 0" transform="translate(-301 -239) translate(230 100) translate(71 139) translate(505.84 -8) translate(6.16 54)"/>
                            <path fill="#FFD740" d="M35.804 49.04L32.058 42.04 51.058 42.04 47.327 49.04z" transform="translate(-301 -239) translate(230 100) translate(71 139) translate(505.84 -8) translate(6.16 54)"/>
                            <path fill="#FFE57F" d="M51.104 32.09c5.272 2.734 5.272 7.166 0 9.9-5.272 2.733-13.82 2.733-19.092 0-5.272-2.734-5.272-7.166 0-9.9 5.272-2.733 13.82-2.733 19.092 0" transform="translate(-301 -239) translate(230 100) translate(71 139) translate(505.84 -8) translate(6.16 54)"/>
                            <path fill="#FFE57F" d="M19.058 14.04L28.64 39.04 55.894 39.04 65.058 15.454z" transform="translate(-301 -239) translate(230 100) translate(71 139) translate(505.84 -8) translate(6.16 54)"/>
                            <path fill="#F9F9F9" d="M42.058 25.04c-5.986 0-11.636-1.207-15.908-3.398-4.573-2.346-7.092-5.579-7.092-9.102 0-3.523 2.519-6.756 7.092-9.102C30.422 1.247 36.072.04 42.058.04c5.986 0 11.635 1.207 15.907 3.398 4.574 2.346 7.093 5.579 7.093 9.102 0 3.523-2.519 6.756-7.093 9.102-4.272 2.191-9.921 3.398-15.907 3.398" transform="translate(-301 -239) translate(230 100) translate(71 139) translate(505.84 -8) translate(6.16 54)"/>
                            <path fill="#FFAB00" d="M56.614 4.262c8.592 4.296 8.592 11.26 0 15.556-8.592 4.296-22.521 4.296-31.112 0-8.592-4.296-8.592-11.26 0-15.556 8.591-4.296 22.52-4.296 31.112 0" transform="translate(-301 -239) translate(230 100) translate(71 139) translate(505.84 -8) translate(6.16 54)"/>
                        </g>
                        <g>
                            <g>
                                <path fill="#D7D7E0" d="M11.4 5.818v4.822c-.087-.497-.544-5.28-3.73-7.159l-.07-.04V0c.023.01.045.022.07.034 3.279 1.711 3.643 5.287 3.73 5.784M0 14.493c0-.804 2.71-3.235 7.356-1.216 3.454 1.5 3.95 5.325 4.044 5.723v-3.855c-.094-.398-.489-3.256-4.044-4.625C2.963 8.83 0 10.933 0 11.737v2.756z" transform="translate(-301 -239) translate(230 100) translate(71 139) translate(505.84 -8) translate(0 55.92) translate(87.44 17.84)"/>
                                <path fill="#FFF" d="M0 12.107c0 .804 2.71 3.235 7.356 1.216 3.454-1.5 3.95-5.325 4.044-5.723v3.855c-.094.398-.489 3.256-4.044 4.625C2.963 17.77 0 15.667 0 14.863v-2.756z" transform="translate(-301 -239) translate(230 100) translate(71 139) translate(505.84 -8) translate(0 55.92) translate(87.44 17.84)"/>
                                <path fill="#D7D7E0" d="M0 21.333c0-.804 2.71-3.235 7.356-1.217 3.454 1.502 3.95 5.326 4.044 5.724v-3.855c-.094-.398-.489-3.256-4.044-4.625C2.963 15.67 0 17.773 0 18.577v2.756z" transform="translate(-301 -239) translate(230 100) translate(71 139) translate(505.84 -8) translate(0 55.92) translate(87.44 17.84)"/>
                                <path fill="#FFF" d="M0 18.947c0 .804 2.71 3.235 7.356 1.217 3.454-1.502 3.95-5.326 4.044-5.724v3.855c-.094.398-.489 3.256-4.044 4.625C2.963 24.61 0 22.507 0 21.703v-2.756z" transform="translate(-301 -239) translate(230 100) translate(71 139) translate(505.84 -8) translate(0 55.92) translate(87.44 17.84)"/>
                                <path fill="#D7D7E0" d="M0 29.693c0-.804 2.71-3.235 7.356-1.216 3.454 1.5 3.95 5.325 4.044 5.723v-3.855c-.094-.398-.489-3.256-4.044-4.625C2.963 24.03 0 26.133 0 26.937v2.756z" transform="translate(-301 -239) translate(230 100) translate(71 139) translate(505.84 -8) translate(0 55.92) translate(87.44 17.84)"/>
                                <path fill="#FFF" d="M0 27.307c0 .804 2.71 3.235 7.356 1.216 3.454-1.5 3.95-5.325 4.044-5.723v3.855c-.094.398-.489 3.256-4.044 4.625C2.963 32.97 0 30.867 0 30.063v-2.756z" transform="translate(-301 -239) translate(230 100) translate(71 139) translate(505.84 -8) translate(0 55.92) translate(87.44 17.84)"/>
                                <path fill="#D7D7E0" d="M0 37.293c0-.804 2.71-3.235 7.356-1.216 3.454 1.5 3.95 5.325 4.044 5.723v-3.855c-.094-.398-.489-3.256-4.044-4.625C2.963 31.63 0 33.733 0 34.537v2.756z" transform="translate(-301 -239) translate(230 100) translate(71 139) translate(505.84 -8) translate(0 55.92) translate(87.44 17.84)"/>
                                <path fill="#FFF" d="M0 34.907c0 .804 2.71 3.235 7.356 1.216 3.454-1.5 3.95-5.325 4.044-5.723v3.855c-.094.398-.489 3.256-4.044 4.625C2.963 40.57 0 38.467 0 37.663v-2.756z" transform="translate(-301 -239) translate(230 100) translate(71 139) translate(505.84 -8) translate(0 55.92) translate(87.44 17.84)"/>
                            </g>
                            <g>
                                <path fill="#D7D7E0" d="M11.4 5.818v4.822c-.087-.497-.544-5.28-3.73-7.159l-.07-.04V0c.023.01.046.022.07.034 3.279 1.711 3.643 5.287 3.73 5.784M0 14.493c0-.804 2.71-3.235 7.356-1.216 3.454 1.5 3.95 5.325 4.044 5.723v-3.855c-.094-.398-.489-3.256-4.044-4.625C2.963 8.83 0 10.933 0 11.737v2.756z" transform="translate(-301 -239) translate(230 100) translate(71 139) translate(505.84 -8) translate(0 55.92)"/>
                                <path fill="#FFF" d="M0 12.107c0 .804 2.71 3.235 7.356 1.216 3.454-1.5 3.95-5.325 4.044-5.723v3.855c-.094.398-.489 3.256-4.044 4.625C2.963 17.77 0 15.667 0 14.863v-2.756z" transform="translate(-301 -239) translate(230 100) translate(71 139) translate(505.84 -8) translate(0 55.92)"/>
                                <path fill="#D7D7E0" d="M0 22.853c0-.804 2.71-3.235 7.356-1.217 3.454 1.502 3.95 5.326 4.044 5.724v-3.855c-.094-.398-.489-3.256-4.044-4.625C2.963 17.19 0 19.293 0 20.097v2.756z" transform="translate(-301 -239) translate(230 100) translate(71 139) translate(505.84 -8) translate(0 55.92)"/>
                                <path fill="#FFF" d="M0 20.467c0 .804 2.71 3.235 7.356 1.217 3.454-1.502 3.95-5.326 4.044-5.724v3.855c-.094.398-.489 3.256-4.044 4.625C2.963 26.13 0 24.027 0 23.223v-2.756z" transform="translate(-301 -239) translate(230 100) translate(71 139) translate(505.84 -8) translate(0 55.92)"/>
                                <path fill="#D7D7E0" d="M0 30.453c0-.804 2.71-3.235 7.356-1.216 3.454 1.5 3.95 5.325 4.044 5.723v-3.855c-.094-.398-.489-3.256-4.044-4.625C2.963 24.79 0 26.893 0 27.697v2.756z" transform="translate(-301 -239) translate(230 100) translate(71 139) translate(505.84 -8) translate(0 55.92)"/>
                                <path fill="#FFF" d="M0 27.307c0 .804 2.71 3.235 7.356 1.216 3.454-1.5 3.95-5.325 4.044-5.723v3.855c-.094.398-.489 3.256-4.044 4.625C2.963 32.97 0 30.867 0 30.063v-2.756z" transform="translate(-301 -239) translate(230 100) translate(71 139) translate(505.84 -8) translate(0 55.92)"/>
                            </g>
                        </g>
                    </g>
                    <text fill="#FFF" fill-rule="nonzero" font-family="SnellRoundhand-Bold, Snell Roundhand" font-size="38" font-weight="bold" letter-spacing="1.5" transform="translate(-301 -239) translate(230 100) translate(71 139)">
                        <tspan x="150.472" y="102">Congratulations</tspan>
                    </text>
                </g>
            </g>
        </g>
    </g>
</svg>
