<svg width="570" height="640" viewBox="0 0 570 640" xmlns="http://www.w3.org/2000/svg" xmlns:xlink="http://www.w3.org/1999/xlink">
    <defs>
        <path d="M0 4.194s2.778 7.311 7.373 12.7c4.596 5.387 8.028 7.929 8.028 7.929C13.824 6.805 5.6 0 5.6 0L2.775.94 0 4.194z" id="1jnape0vca"/>
    </defs>
    <g fill="none" fill-rule="evenodd">
        <text font-family="BMJUAOTF, BM JUA_OTF" font-size="28" letter-spacing="-.8">
                    <tspan x="73.676" y="85" fill="#333">마음에 드는 과정을 모아 Playlist를 만들고 </tspan>
                    <tspan x="2.41" y="123" fill="#333">구성원들과 공유할 수 있는 </tspan>
                    <tspan x="266.406" y="123" fill="#FF664D">Playlist 기능이 추가</tspan>
                    <tspan x="471.742" y="123" fill="#333">되었어요!</tspan>
                </text>
        <g opacity=".9">
            <path fill="#FFF" d="M83.648 596.733h133.9V492.87h-133.9z"/>
            <path d="M218.41 492.005H82.786V597.597H218.41V492.005zM83.648 596.733h133.9V492.87h-133.9v103.864z" fill="#777"/>
            <path d="M86.755 593.43h127.693v-86.607H86.755v86.608zm-.867.864h129.421V505.96H85.888v88.335z" fill="#777"/>
            <path d="M89.919 500.578h-.158a1.17 1.17 0 0 1-1.169-1.17v-.159a1.17 1.17 0 0 1 1.17-1.171h.157a1.17 1.17 0 0 1 1.169 1.171v.158a1.17 1.17 0 0 1-1.17 1.17" fill="#FFD188"/>
            <path d="M93.91 500.578h-.158a1.17 1.17 0 0 1-1.168-1.17v-.159a1.17 1.17 0 0 1 1.168-1.171h.158a1.17 1.17 0 0 1 1.169 1.171v.158a1.17 1.17 0 0 1-1.17 1.17" fill="#6ACB83"/>
            <path d="M97.901 500.578h-.157a1.17 1.17 0 0 1-1.17-1.17v-.159a1.17 1.17 0 0 1 1.17-1.171h.157a1.17 1.17 0 0 1 1.169 1.171v.158a1.17 1.17 0 0 1-1.169 1.17" fill="#FFA399"/>
            <path fill="#444" d="m210.883 501.308-3.033-3.038.305-.306 3.032 3.039z"/>
            <path fill="#444" d="m208.155 501.308-.305-.305 3.033-3.039.305.306zM199.859 501.388h2.54v-2.545h-2.54v2.545zm-.431.432h3.402v-3.409h-3.402v3.409z"/>
            <path fill="#444" d="M203.792 500.775h-1.12v-.432h.689V497.8h-2.54v.788h-.431v-1.22h3.402zM191.59 499.852h4.167v-.432h-4.167z"/>
            <path d="M136.39 513.947c-5.525 4.13-15.467 16.529-18.578 28.275-3.112 11.746 7.744 19.518 7.744 19.518l7.597-11.338 3.238-36.455z" fill="#8EA3ED"/>
            <path fill="#333" d="M178.503 594.294h-23.366l-.169-.863-1.942-10.09-2.535-13.143 2.07-.488 20.015-4.724.041.206 5.713 28.239z"/>
            <path d="M153.395 594.294H131.42c-.009-.287-.023-.575-.032-.863-.242-6.546-.497-12.904-.766-18.733l21.93-5.322.01.334.004.023.46 13.607.338 10.091.032.863z" fill="#333"/>
            <path d="M152.436 508.977c6.077-1.987 17.99 8.688 23.778 18.89 5.79 10.2 8.753 13.416 8.547 14.164-.207.75-4.923 12.828-4.923 12.828l-11.68-7.91-15.722-37.972z" fill="#8EA3ED"/>
            <path d="m137.79 512.71-1.4 1.238a19.673 19.673 0 0 0-6.615 13.75l-.152 48.997 43.684-9.885s-1.397-25.163-5.845-37.66c-4.447-12.496-7.834-20.186-20.216-21l-9.455 4.56z" fill="#8EA3ED"/>
            <path fill="#FFACAC" d="m140.385 513.898 10.567-3.073-5.524-11.136-9.288 2.999z"/>
            <path fill="#C26666" d="m147.096 503.128-5.94 2.147 7.33.943z"/>
            <path d="M132.552 498.776c1.475 3.377 4.727 5.958 8.42 6.314 4.926.475 8.773-3.193 8.592-8.193-.184-5-4.327-9.44-9.256-9.916a8.892 8.892 0 0 0-.731-.04c-4.571-.063-8.033 3.484-7.86 8.234a9.871 9.871 0 0 0 .835 3.601" fill="#FFACAC"/>
            <path d="M133.579 501.004c7.87-5.06 7.17-12.905 7.074-14.557v-.004c-5.333-.253-10.308 2.66-9.745 8.341.282 2.844 1.64 5.1 2.67 6.22" fill="#212123"/>
            <path d="M131.521 501.895a3.48 3.48 0 0 0 4.382 2.25 3.49 3.49 0 0 0 2.246-4.39 3.48 3.48 0 0 0-4.382-2.25 3.49 3.49 0 0 0-2.246 4.39" fill="#FFACAC"/>
            <path d="M136.736 501.788a.232.232 0 0 1-.205-.34c.222-.424.265-.91.122-1.366a1.778 1.778 0 0 0-.879-1.054 1.777 1.777 0 0 0-1.365-.122 1.78 1.78 0 0 0-1.051.88.232.232 0 1 1-.41-.215 2.238 2.238 0 0 1 1.323-1.108 2.238 2.238 0 0 1 1.718.154c.533.28.926.75 1.106 1.325.18.576.126 1.188-.153 1.722a.231.231 0 0 1-.206.124M142.46 495.448a.573.573 0 1 0 1.09-.352.573.573 0 1 0-1.09.352M145.476 493.112a.572.572 0 1 0 1.09-.352.573.573 0 1 0-1.09.352M140.658 486.446c.507.846.668 1.869.68 2.851.014.977-.113 1.962-.493 2.821-.38.859-1.031 1.584-1.864 1.887l1.677-7.56zM144.895 496.526a.233.233 0 0 1-.144-.414c.38-.3.78-.58 1.194-.834-.78-.744-1.559-1.488-2.339-2.23a.232.232 0 1 1 .319-.337c.855.813 1.708 1.627 2.561 2.442a.234.234 0 0 1-.044.369c-.49.283-.962.604-1.403.954a.23.23 0 0 1-.144.05M145.133 491.277c-.143.226-.269.328-.442.435a1.957 1.957 0 0 1-.636.267l-.013.003a.266.266 0 0 1-.318-.299c.043-.303.21-.533.43-.716.217-.176.528-.305.855-.196a.303.303 0 0 1 .16.45l-.036.056zM141.883 493.766c-.155.298-.341.465-.548.626a2.658 2.658 0 0 1-.732.412l-.013.005a.253.253 0 0 1-.334-.276c.052-.354.251-.631.491-.85.245-.214.55-.373.917-.343a.281.281 0 0 1 .228.41l-.01.016z" fill="#212123"/>
            <path d="m145.98 497.885-3.284.206s.894 2.097 1.661 2.068c.768-.03 1.623-2.274 1.623-2.274" fill="#FFF"/>
            <path d="M139.657 486.54c1.453-1.288 3.75-1.506 5.419-.515.44.261.841.602 1.108 1.038.267.437.389.975.266 1.472-.136.546-.553.99-1.039 1.27-.486.281-1.04.42-1.591.53l-4.163-3.794z" fill="#212123"/>
            <path d="M140.557 486.453c1.159.426 2.124 1.522 2.468 2.801.162.605.185 1.277-.087 1.803-.336.65-1.06.954-1.762.96-.444.005-.927-.11-1.246-.47l.627-5.094z" fill="#212123"/>
            <g transform="translate(147.378 510.176)">
                <mask id="sq9zem58vb" fill="#fff">
                    <use xlink:href="#1jnape0vca"/>
                </mask>
                <use fill="#D9D9D9" xlink:href="#1jnape0vca"/>
                <path fill="#3E6BB9" mask="url(#sq9zem58vb)" d="m5.737 1.822.098 2.184-1.501.6L2.4 3.127 3.374.7z"/>
                <path d="m4.155 4.295 2.123 12.066c5.857 6.796 9.272 10.014 10.246 9.654.973-.36.037-4.98-2.81-13.86L5.795 3.812l-1.64.482z" fill="#0C4389" mask="url(#sq9zem58vb)"/>
            </g>
            <path fill="#FFF" d="m149.563 508.024 2.873.953 3.095 4.138-4.812-2.227zM150.719 510.889l-2.182 5.597-11.741-2.237 2.063-4.18z"/>
            <path d="M178.861 554.36c5.874 3.535 13.284-1.525 14.002-14.507.719-12.982-1.933-23.875-1.933-23.875l-17.429 1.81s1.003 22.262 2.013 28.173c1.012 5.911 3.347 8.4 3.347 8.4" fill="#8EA3ED"/>
            <path d="M175.053 542.454h-.005a.232.232 0 0 1-.226-.238c.181-7.779-1.534-24.238-1.551-24.403a.232.232 0 1 1 .46-.049c.018.166 1.737 16.654 1.554 24.463a.232.232 0 0 1-.232.227" fill="#212123"/>
            <path d="M125.556 561.74c-4.433 5.235-12.793.21-17.628-11.856-4.835-12.067-5.81-23.235-5.81-23.235l17.09-3.884s6.174 21.408 7.108 27.332c.933 5.923-.76 11.643-.76 11.643" fill="#8EA3ED"/>
            <path d="M125.556 546.639a.232.232 0 0 1-.218-.153c-2.671-7.338-6.32-23.508-6.357-23.67a.232.232 0 0 1 .452-.102c.037.162 3.68 16.303 6.34 23.613a.233.233 0 0 1-.217.312M173.306 567.042a.232.232 0 0 1-.23-.216c-.919-13.578-2.561-23.45-4.745-34.092-2.288-11.15-7.675-17.682-7.73-17.746a.232.232 0 1 1 .355-.299c.055.066 5.517 6.688 7.829 17.951 2.187 10.662 3.833 20.55 4.753 34.154a.233.233 0 0 1-.216.248h-.016" fill="#212123"/>
            <path d="m187.136 504.295-15.344-.66 2.099 9.979c.524 2.827 2.724 4.337 5.831 5.046 3.108.71 5.38.088 5.38.088 2.656-.489 4.165-2.954 3.617-5.91l-1.583-8.543z" fill="#FFACAC"/>
            <path d="m168.993 495.725-.006.003c-.808.328-1.042 1.348-.521 2.278l4.819 8.618 2.933-1.191-4.82-8.618c-.52-.93-1.596-1.418-2.405-1.09M166.817 504.903l-.004.005c-.564.644-.39 1.772.388 2.519l7.211 6.923 2.047-2.336-7.211-6.923c-.779-.748-1.867-.831-2.43-.188M174.431 493.45h-.006c-.9.125-1.356 1.02-1.018 1.998l3.127 9.066 3.266-.452-3.128-9.065c-.337-.979-1.34-1.671-2.24-1.547M180.009 493.974h-.007c-.944-.04-1.56.725-1.378 1.71l1.692 9.132 3.425.147-1.693-9.131c-.183-.985-1.096-1.817-2.04-1.858M186.472 497.558l-.007-.003c-.957-.312-1.803.193-1.89 1.129l-.798 8.668 3.474 1.134.798-8.669c.087-.935-.62-1.947-1.577-2.26" fill="#FFACAC"/>
            <path d="M181.943 514.875a.232.232 0 0 1-.209-.13c-.709-1.463-1.441-2.975-2.633-4.099-1.278-1.204-2.995-1.695-4.377-1.25a.232.232 0 0 1-.142-.442c1.868-.602 3.724.305 4.837 1.354 1.253 1.183 2.039 2.803 2.732 4.233a.233.233 0 0 1-.208.334M185.246 505.358a.232.232 0 0 1-.183-.09c-.389-.504-1.095-.697-1.8-.83a25.42 25.42 0 0 0-8.92-.098.23.23 0 0 1-.267-.191.233.233 0 0 1 .19-.267 25.904 25.904 0 0 1 9.083.1c.795.15 1.597.376 2.08 1.002a.233.233 0 0 1-.183.374" fill="#212123"/>
            <path d="m100.361 514.946 12.953-8.269 3.17 9.692c.959 2.71-.192 5.12-2.527 7.293s-4.612 2.775-4.612 2.775c-2.543.909-5.082-.468-6.085-3.3l-2.899-8.19z" fill="#FFACAC"/>
            <path d="M111.783 498.427h.006c.864-.123 1.577.643 1.59 1.71l.136 9.877-3.135.44-.134-9.878c-.015-1.066.673-2.028 1.537-2.15M118.254 505.28l.005.002c.81.274 1.224 1.338.923 2.375l-2.782 9.61-2.94-.995 2.783-9.61c.3-1.038 1.2-1.656 2.01-1.382M105.939 499.185l.006-.002c.84-.344 1.682.201 1.879 1.217l1.823 9.417-3.052 1.248-1.823-9.417c-.197-1.016.325-2.119 1.167-2.463M101.373 502.437l.005-.004c.797-.508 1.714-.155 2.048.79l3.098 8.753-2.89 1.845-3.098-8.753c-.335-.944.04-2.122.837-2.631M97.569 508.781l.004-.005c.673-.75 1.658-.738 2.2.029l5.024 7.103-2.44 2.723-5.025-7.102c-.542-.767-.436-1.997.237-2.748" fill="#FFACAC"/>
            <path d="M110.027 521.53a.232.232 0 0 1-.23-.215c-.115-1.587-.245-3.384.25-5.035.438-1.467 1.59-3.182 3.509-3.599a.232.232 0 1 1 .098.454c-1.418.308-2.66 1.594-3.164 3.278-.47 1.569-.348 3.247-.231 4.868a.232.232 0 0 1-.214.249h-.018M102.413 514.95l-.032-.003a.231.231 0 0 1-.198-.26c.105-.786.687-1.383 1.3-1.913a25.93 25.93 0 0 1 7.812-4.64.232.232 0 0 1 .163.434 25.471 25.471 0 0 0-7.673 4.558c-.543.47-1.058.991-1.143 1.622a.232.232 0 0 1-.23.202M125.556 561.972a.233.233 0 0 1-.191-.363c.073-.108 7.369-10.816 10.226-15.326 2.808-4.431 2.698-17.843-1.116-23.567a.232.232 0 1 1 .385-.258c3.972 5.962 4.06 19.438 1.123 24.073-2.862 4.517-10.162 15.232-10.235 15.34a.232.232 0 0 1-.192.101" fill="#212123"/>
            <g>
                <path fill="#FFF" d="M41.806 476.185h147.862V361.489H41.806z"/>
                <path d="M190.62 360.536H40.854v116.602H190.62V360.536zM41.805 476.185h147.863V361.489H41.805v114.696z" fill="#777"/>
                <path fill="#D5D5D5" opacity=".5" d="M45.233 472.54h141.01v-95.644H45.234z"/>
                <path d="M45.233 472.54h141.01v-95.644H45.234v95.644zm-.953.955h142.917v-97.55H44.28v97.55z" fill="#777" opacity=".5"/>
                <path d="M48.781 370.042h-.238a1.28 1.28 0 0 1-1.278-1.28v-.24c0-.707.572-1.28 1.278-1.28h.238a1.28 1.28 0 0 1 1.279 1.28v.24a1.28 1.28 0 0 1-1.279 1.28" fill="#FFD188"/>
                <path d="M53.189 370.042h-.239a1.28 1.28 0 0 1-1.278-1.28v-.24c0-.707.573-1.28 1.278-1.28h.239a1.28 1.28 0 0 1 1.278 1.28v.24a1.28 1.28 0 0 1-1.278 1.28" fill="#6ACB83"/>
                <path d="M57.596 370.042h-.238a1.28 1.28 0 0 1-1.278-1.28v-.24c0-.707.572-1.28 1.278-1.28h.238a1.28 1.28 0 0 1 1.278 1.28v.24a1.28 1.28 0 0 1-1.278 1.28" fill="#FFA399"/>
                <g>
                    <path d="M102.33 367.362c-2.776 1.666-5.145 4.226-6.038 7.322-.607 2.102-.53 4.387-1.488 6.363-1.169 2.408-3.737 3.94-6.35 4.417-2.664.488-5.455.037-8.036.892-2.986.988-5.332 3.806-5.744 6.911-.348 2.63.543 5.483-.754 7.823-1.497 2.702-5.032 3.27-7.773 4.686-3.994 2.063-6.666 6.745-5.929 11.106.424 2.507 1.862 4.723 3.646 6.497 1.501 1.492 3.294 2.733 5.333 3.344 3.399 1.018 7.189.189 10.403-1.482 3.215-1.67 5.962-4.121 8.67-6.545l4.397-3.935c2.763-2.473 5.54-4.96 7.864-7.85 2.634-3.272 4.637-7 6.382-10.807 2.805-6.12 4.761-12.42 6.396-18.907 1.018-4.04 1.493-7.217-2.02-10.05-2.657-2.143-6.113-1.494-8.96.215" fill="#212123"/>
                    <path d="m114.081 371.613-5.172 2.332s.702-3.215 4.652-4.13l.52 1.798z" fill="#FF767E"/>
                    <path fill="#143B7F" d="m111.954 465.624-1.6 6.916-.22.955H91.169l.123-.955.096-.744 13.18-7.1.338.042 6.999.881z"/>
                    <path d="m104.568 464.697-6.05 7.843-.734.955H67.168c.018-.32.032-.64.045-.955.42-8.049.77-14.028.784-14.252v-.005l7.87 1.38 28.7 5.034z" fill="#285AB1"/>
                    <path d="M119.315 372.854s7.113-4.148 8.874 4.499c1.698 8.332-3.424 14.794-4.417 16.537-.993 1.742 1.451 2.584 2.163 1.513 0 0-1.049 2.448-3.98 1.177-2.932-1.271-1.224-6.2-1.224-6.2l-1.844-15.654.428-1.872z" fill="#212123"/>
                    <path d="m126.435 401.321 24.862-3.08-2.145-22.28 16.73-4.097s4.87 14.309 5.738 30.636c.869 16.328-24.048 19.5-46.045 24.277-14.361 3.12.86-25.456.86-25.456" fill="#F88183"/>
                    <path fill="#FFB5B4" d="m106.19 398.222 10.923 1.847.693-12.416-9.833-1.662z"/>
                    <path fill="#D27D7C" d="m117.587 391.578-6.403-.853 6.109 4.328z"/>
                    <path d="M106.705 380.727c-.361 3.776 1.27 7.669 4.406 9.741 4.185 2.766 9.468 1.242 11.8-3.403 2.33-4.646.827-10.656-3.359-13.422a9.235 9.235 0 0 0-.637-.383c-4.07-2.221-8.948-.625-11.162 3.788a10.364 10.364 0 0 0-1.048 3.679" fill="#FFB5B4"/>
                    <path d="M106.515 383.244c9.589-.89 12.874-8.374 13.614-9.925v-.004c-4.66-2.754-10.578-2.453-12.908 2.994-1.166 2.726-1.072 5.426-.706 6.935" fill="#212123"/>
                    <path d="M104.224 383.083c-.386 1.95.872 3.797 2.81 4.125 1.937.327 3.82-.988 4.206-2.94.386-1.95-.873-3.797-2.81-4.125-1.937-.328-3.82.988-4.206 2.94" fill="#FFB5B4"/>
                    <path d="M109.02 385.508a.275.275 0 0 0 .202-.045c.523-.36.882-.899 1.01-1.517a2.297 2.297 0 0 0-.336-1.756 2.244 2.244 0 0 0-1.486-.967l-.019-.003a2.37 2.37 0 0 0-1.745.393.274.274 0 0 0-.078.376c.082.122.25.152.374.066a1.862 1.862 0 0 1 1.359-.3c.472.084.879.349 1.144.745.265.396.357.876.259 1.353a1.872 1.872 0 0 1-.779 1.168.274.274 0 0 0-.077.376c.041.062.104.1.173.111M121.115 382.14a.57.57 0 0 0 .463.68.61.61 0 0 0 .692-.485.57.57 0 0 0-.463-.679.61.61 0 0 0-.692.484M117.259 382.382a.57.57 0 0 0 .462.679.61.61 0 0 0 .692-.484.57.57 0 0 0-.462-.68.61.61 0 0 0-.692.485M118.969 384.572c.03.005.063.005.096-.002.571-.11 1.153-.179 1.73-.205a.28.28 0 0 0 .254-.357c-.358-1.147-.718-2.293-1.08-3.439a.262.262 0 0 0-.337-.167.278.278 0 0 0-.177.344l.974 3.101c-.485.036-.971.101-1.45.193a.279.279 0 0 0-.223.317.26.26 0 0 0 .213.215" fill="#212123"/>
                    <path d="m119.683 386.355-3.05-1.367s-.244 2.335.46 2.672c.703.337 2.59-1.305 2.59-1.305M112.216 399.24l4.954-2.553.928 2.527-3.623 5.294zM112.216 399.24l-5.494-4.153-2.555 3.013 3.111 5.191z" fill="#FFF"/>
                    <path d="m126.995 428.519-.079.378-14.515 32.627-39.638-4.592 15.332-59.315 16.073.486 13.93 1.11s.17.032.483.084c.04.01.081.015.122.021 1.907.339 7.874 1.44 11.524 2.553.004.005.013.005.018.01 2.21 1.081.82 22.718-3.25 26.638" fill="#FFF"/>
                    <path d="m126.995 428.519-.079.378-15.146 37.044-43.774-7.655 20.099-60.669 16.073.486.173.017-1.352.3s5.414 26.65 9.242 28.106c2.947 1.121 5.292-18.286 6.219-27.25.04.005.086.015.13.02.041.01.082.016.123.022 2.207.364 8.81 1.227 11.524 2.553.004.005.013.005.018.01 2.21 1.081.82 22.718-3.25 26.638" fill="#F88183"/>
                    <path d="M116.025 404.973a.28.28 0 0 0 .288-.143 21.467 21.467 0 0 0 2.113-5.617.262.262 0 0 0-.204-.316.27.27 0 0 0-.322.214 20.9 20.9 0 0 1-1.872 5.123 82 82 0 0 1-3.825-4.751.266.266 0 0 0-.376-.048.273.273 0 0 0-.06.378 82.234 82.234 0 0 0 4.106 5.075c.04.046.094.075.152.085" fill="#212123"/>
                    <path d="M106.591 403.637a.276.276 0 0 0 .189-.037 41.301 41.301 0 0 0 5.208-3.79.272.272 0 0 0 .037-.38.268.268 0 0 0-.38-.026 40.702 40.702 0 0 1-4.872 3.574 57.455 57.455 0 0 0-2.274-4.717.263.263 0 0 0-.364-.1.276.276 0 0 0-.111.368 56.822 56.822 0 0 1 2.37 4.953.26.26 0 0 0 .197.155M116.394 379.796c.215-.314.574-.429.896-.442.327-.01.648.058.92.265a.256.256 0 0 1-.048.436l-.011.005c-.291.132-.542.17-.782.21-.243.035-.448.05-.743-.009l-.047-.01a.294.294 0 0 1-.185-.455M120.333 379.388c.215-.314.574-.429.896-.442.328-.01.648.058.92.265a.256.256 0 0 1-.048.436l-.011.005c-.291.132-.542.17-.781.21-.244.035-.449.05-.743-.009l-.048-.01a.294.294 0 0 1-.185-.455" fill="#212123"/>
                    <path d="M112.23 426.758a.232.232 0 0 1-.225-.287c2.318-9.536-.22-26.456-.246-26.626a.232.232 0 1 1 .458-.07c.026.17 2.578 17.18.238 26.806a.231.231 0 0 1-.225.177M110.276 406.309h-.014a.291.291 0 0 0-.274.293.254.254 0 0 0 .271.252.29.29 0 0 0 .274-.293.255.255 0 0 0-.257-.252m-.031 1.01a.716.716 0 0 1-.72-.707.759.759 0 0 1 .713-.767.72.72 0 0 1 .759.705.759.759 0 0 1-.714.768h-.038M110.579 420.783h-.014a.29.29 0 0 0-.274.294.255.255 0 0 0 .271.252.29.29 0 0 0 .274-.293.256.256 0 0 0-.257-.253m-.032 1.01a.716.716 0 0 1-.72-.707.758.758 0 0 1 .714-.766.7.7 0 0 1 .53.192.716.716 0 0 1 .229.514.758.758 0 0 1-.714.767h-.039M99.164 448.412h-.014a.291.291 0 0 0-.274.294.255.255 0 0 0 .272.252.29.29 0 0 0 .274-.294.255.255 0 0 0-.258-.252m-.031 1.01a.716.716 0 0 1-.72-.706.759.759 0 0 1 .713-.767.72.72 0 0 1 .759.705.759.759 0 0 1-.714.768h-.038M152.317 405.24a.232.232 0 0 1-.23-.207l-3.166-29.047a.232.232 0 1 1 .46-.05l3.166 29.047a.233.233 0 0 1-.23.257" fill="#212123"/>
                    <path d="m174.206 450.858-62.985-3.749.053 1.273c.06 1.42 1.245 2.639 2.649 2.722l57.902 3.446c1.404.084 2.493-1 2.434-2.42l-.053-1.272z" fill="#3F3F3F"/>
                    <path d="m173.615 450.823-48.448-2.884 7.158-29.78c.177-.738.788-1.213 1.505-1.17l45.044 2.68c1.094.065 1.925 1.268 1.654 2.395l-6.913 28.759z" fill="#525252"/>
                    <path fill="#FFF" d="m154.152 430.414 1.298 3.594 1.298 3.594-3.72-.22-3.719-.222 2.422-3.373z"/>
                    <path d="m121.83 444.436.347 1.255a1.211 1.211 0 0 1-.822 1.467l-9.635 2.93-.965-3.5 9.635-2.93c.625-.19 1.27.158 1.44.778" fill="#FFB5B4"/>
                    <path fill="#FFB5B4" d="m121.83 444.436 3.178 3.625-5.436-.723zM116.435 447.637s3.693 3.782 8.13 4.1c1.193.086 8.182.488 8.182.488s-.494 4.152-4.136 3.86c0 0 .3 2.65-3.261 2.602 0 0-.937 3.104-4.423 1.996 0 0-.645 2.679-3.87.822l-10.005-2.836 6.28-11.494 3.103.462z"/>
                    <path d="M95.942 418.369c-3.758 8.814-11.096 18.515-11.096 18.515l29.635 8.188-7.429 13.598s-23.25.462-36.118-9.263c-12.867-9.725.85-29.729 13.38-48.665 6.83-10.322 15.386 8.813 11.628 17.627" fill="#F88183"/>
                    <path d="M114.38 445.617a.23.23 0 0 1-.066-.01l-30.67-9.022a.233.233 0 0 1-.157-.289.233.233 0 0 1 .287-.157l30.671 9.023a.232.232 0 0 1-.065.455M129.915 456.208h-.007a16.886 16.886 0 0 1-5.897-1.227.232.232 0 1 1 .174-.43 16.439 16.439 0 0 0 5.736 1.193.232.232 0 0 1-.006.464M125.925 458.776a16.08 16.08 0 0 1-4.987-.788.232.232 0 0 1 .143-.442c1.635.532 3.345.79 5.076.764.115-.013.233.1.235.229a.232.232 0 0 1-.228.235c-.08.002-.16.002-.239.002M121.58 461.093l-.02-.001a9.45 9.45 0 0 1-3.046-.787.233.233 0 0 1 .189-.424c.915.409 1.89.66 2.896.748a.232.232 0 0 1-.02.464M124.368 452.043c-.012 0-.024 0-.037-.003-3.129-.507-5.986-2.254-7.84-4.792a.233.233 0 0 1 .05-.325.231.231 0 0 1 .324.05c1.783 2.441 4.53 4.121 7.54 4.609a.232.232 0 0 1-.037.461" fill="#212123"/>
                    <path d="m160.913 361.067-15.348.57 2.888 9.778c.748 2.777 3.06 4.105 6.215 4.565 3.154.459 5.368-.343 5.368-.343 2.61-.7 3.918-3.278 3.137-6.18l-2.26-8.39z" fill="#FFB5B4"/>
                    <path d="m142.145 353.976-.005.002c-.78.392-.931 1.428-.339 2.313l5.49 8.205 2.83-1.422-5.491-8.204c-.592-.886-1.705-1.286-2.485-.894M140.708 363.299l-.004.004c-.511.688-.248 1.797.587 2.48l7.74 6.325 1.855-2.493-7.74-6.324c-.836-.683-1.927-.68-2.438.008M147.385 351.273l-.006.001c-.887.196-1.27 1.124-.856 2.072l3.84 8.787 3.219-.711-3.84-8.787c-.415-.948-1.47-1.558-2.357-1.362M152.986 351.35h-.007c-.943.035-1.497.847-1.237 1.815l2.415 8.967 3.425-.127-2.415-8.967c-.26-.968-1.237-1.724-2.18-1.689M159.715 354.404l-.007-.001c-.979-.235-1.782.336-1.794 1.276l-.105 8.704 3.552.852.106-8.705c.012-.939-.773-1.89-1.752-2.126" fill="#FFB5B4"/>
                    <path d="M156.56 372.029a.23.23 0 0 1-.199-.115c-.823-1.4-1.674-2.848-2.95-3.873-1.37-1.1-3.122-1.45-4.464-.897a.233.233 0 0 1-.303-.126.233.233 0 0 1 .127-.303c1.814-.75 3.736.006 4.929.963 1.343 1.078 2.256 2.631 3.06 4.001a.232.232 0 0 1-.2.35M159.096 362.279a.23.23 0 0 1-.172-.076c-.427-.47-1.147-.607-1.861-.684a25.44 25.44 0 0 0-8.899.616.232.232 0 0 1-.112-.45 25.892 25.892 0 0 1 9.06-.628c.805.087 1.623.248 2.155.834a.232.232 0 0 1-.171.388M84.846 437.116a.232.232 0 0 1-.186-.37c.101-.137 10.155-13.713 12.325-19.79 2.147-6.008-3.179-15.322-3.233-15.415a.232.232 0 0 1 .401-.233c.225.39 5.487 9.595 3.269 15.805-2.194 6.14-12.289 19.772-12.39 19.91a.231.231 0 0 1-.186.093M126.916 429.129a.233.233 0 0 1-.176-.384c3.799-4.426 4.158-16.412 4.161-16.533a.226.226 0 0 1 .238-.225c.128.003.229.11.226.238-.014.499-.368 12.272-4.274 16.823a.23.23 0 0 1-.175.08" fill="#212123"/>
                </g>
            </g>
            <g>
                <path fill="#FFF" d="M352.538 537.044h153.58v-119.13h-153.58z"/>
                <path d="M506.041 416.986H351.612v120.988H506.04V416.985zM352.532 537.045H505.12v-119.13H352.532v119.13z" fill="#777"/>
                <path d="M355.11 534.249h147.44V432.928H355.11v101.32zm.92-.929H501.63v-99.464H356.03v99.464z" fill="#777"/>
                <path d="M359.829 426.79h-.346a1.276 1.276 0 0 1-1.274-1.278v-.346c0-.705.57-1.277 1.274-1.277h.346c.704 0 1.274.572 1.274 1.277v.346c0 .706-.57 1.277-1.274 1.277" fill="#FFD188"/>
                <path d="M364.407 426.79h-.346a1.276 1.276 0 0 1-1.274-1.278v-.346c0-.705.57-1.277 1.274-1.277h.346c.704 0 1.274.572 1.274 1.277v.346c0 .706-.57 1.277-1.274 1.277" fill="#6ACB83"/>
                <path d="M368.984 426.79h-.345a1.276 1.276 0 0 1-1.275-1.278v-.346c0-.705.57-1.277 1.275-1.277h.345c.705 0 1.275.572 1.275 1.277v.346c0 .706-.57 1.277-1.275 1.277" fill="#FFA399"/>
                <path fill="#444" d="m497.483 427.584-3.478-3.486.327-.328 3.479 3.485z"/>
                <path fill="#444" d="m494.332 427.584-.327-.329 3.478-3.485.328.328zM484.813 427.701h2.944v-2.95h-2.944v2.95zm-.464.464h3.871v-3.878h-3.87v3.878z"/>
                <path fill="#444" d="M489.324 426.968h-1.268v-.465h.804v-2.949h-2.944v.92h-.463v-1.384h3.87zM475.345 425.909h4.78v-.465h-4.78z"/>
                <g>
                    <path d="M377.656 449.41s2.865 2.37 4.48 3.64l11.383-6.597s1.246-6.774-.037-8.95c-1.283-2.178-2.634-3.662-2.523-7.346.11-3.685 1.787-2.841 2.354-6.192.568-3.35-1.69-4.172-4.116-2.782-2.425 1.388-5.327 7.185-6.25 15.15-.925 7.965-5.29 13.078-5.29 13.078" fill="#FFB5B4"/>
                    <path fill="#FFB5B4" d="m393.518 446.453.237 12.53-16.658-1.571.825-7.444zM486.935 456.747s3.087 2.072 4.82 3.173l10.668-7.704s.565-6.864-.929-8.902c-1.494-2.038-2.986-3.379-3.243-7.056-.257-3.677 1.495-3.006 1.726-6.396.23-3.39-2.1-3.982-4.374-2.358-1.38.987-2.774 3.608-3.684 7.309-.589 2.395-3.533 5.808-3.583 8.958-.125 8.017-1.401 12.976-1.401 12.976"/>
                    <path d="m492.03 442.314-8.071-1.061a2.266 2.266 0 0 1-1.95-2.543l.178-1.356a2.264 2.264 0 0 1 2.538-1.953l8.071 1.06a2.267 2.267 0 0 1 1.95 2.543l-.177 1.357a2.264 2.264 0 0 1-2.539 1.953" fill="#FFB5B4"/>
                    <path d="m491.274 448.093-8.072-1.062a2.266 2.266 0 0 1-1.95-2.542l.179-1.357a2.263 2.263 0 0 1 2.537-1.953l8.072 1.061a2.266 2.266 0 0 1 1.949 2.543l-.177 1.357a2.264 2.264 0 0 1-2.538 1.953" fill="#FFB5B4"/>
                    <path d="m490.156 453.898-5.972-.784a2.267 2.267 0 0 1-1.95-2.544l.178-1.355a2.264 2.264 0 0 1 2.538-1.953l5.972.784a2.266 2.266 0 0 1 1.949 2.543l-.177 1.356a2.264 2.264 0 0 1-2.538 1.953" fill="#FFB5B4"/>
                    <path d="m488.96 459.694-4.245-.558a2.266 2.266 0 0 1-1.95-2.543l.178-1.356a2.264 2.264 0 0 1 2.538-1.953l4.245.558a2.266 2.266 0 0 1 1.949 2.543l-.177 1.356a2.264 2.264 0 0 1-2.539 1.953" fill="#FFB5B4"/>
                    <path d="M488.283 459.837c-.01 0-.02 0-.03-.002l-2.892-.38a.232.232 0 0 1 .06-.46l2.891.38a.232.232 0 0 1-.03.462M490.597 448.236c-.01 0-.02 0-.03-.002l-6.719-.883a.232.232 0 0 1 .061-.46l6.718.882a.232.232 0 0 1-.03.463M491.364 442.384c-.01 0-.02 0-.031-.002l-6.718-.883a.232.232 0 0 1 .06-.46l6.718.882a.232.232 0 0 1-.03.463M489.479 454.042c-.01 0-.02 0-.03-.002l-4.618-.608a.232.232 0 1 1 .06-.46l4.618.607a.232.232 0 0 1-.03.463" fill="#212123"/>
                    <path fill="#FFB5B4" d="m502.423 452.216 1.484 12.445-16.73.103.077-7.49z"/>
                    <path d="M436.934 425.23s-4.039.174-4.398-2.378c0 0-4.038.56-4.559 5.534-.52 4.973 9.453 7.935 9.779 7.611.326-.324 3.828-8.958 3.828-8.958l-2.834-1.612-1.816-.196z" fill="#212123"/>
                    <path fill="#FFB5B4" d="m440.415 457.806-12.639-2.764 5.013-13.53 11.378 2.489z"/>
                    <path fill="#D27D7C" d="m431.205 445.789 7.301 1.865-8.597 1.966z"/>
                    <path d="M447.977 438.94c-1.363 4.18-4.928 7.622-9.272 8.471-5.798 1.134-10.79-2.778-11.149-8.737-.358-5.961 4.052-11.713 9.85-12.847.29-.057.579-.1.866-.133 5.421-.603 9.942 3.21 10.281 8.872.091 1.494-.119 2.976-.576 4.374" fill="#FFB5B4"/>
                    <path d="M447.015 441.706a19.6 19.6 0 0 1-4.406-3.052l.001-.005c-2.274-13.085-5.676-13.418-5.676-13.418l.005-.004c6.303-.916 12.544 1.966 12.53 8.782-.004 3.41-1.359 6.247-2.454 7.697" fill="#212123"/>
                    <path d="M449.56 442.525a4.154 4.154 0 0 1-4.945 3.179 4.163 4.163 0 0 1 1.772-8.133 4.163 4.163 0 0 1 3.174 4.954" fill="#FFB5B4"/>
                    <path d="M443.26 443.032a.31.31 0 0 1-.195-.135 2.717 2.717 0 0 1-.385-2.054 2.714 2.714 0 0 1 1.177-1.726 2.706 2.706 0 0 1 2.05-.387l.022.006c.704.153 1.307.57 1.7 1.174a.314.314 0 0 1-.523.343 2.129 2.129 0 0 0-1.327-.908 2.083 2.083 0 0 0-1.58.297c-.47.307-.791.78-.907 1.33a2.097 2.097 0 0 0 .297 1.582.314.314 0 0 1-.329.478M431.693 433.12a.684.684 0 1 1-1.337-.291.684.684 0 1 1 1.337.292M435.74 435.049a.684.684 0 1 1-1.336-.29.684.684 0 0 1 1.336.29M432.88 436.641a.315.315 0 0 1-.104-.043 13.893 13.893 0 0 0-1.772-.968.314.314 0 0 1-.107-.49 1791.61 1791.61 0 0 1 2.76-3.197.313.313 0 0 1 .442-.032c.13.114.145.312.032.443-.832.96-1.662 1.92-2.491 2.883.506.249 1.001.528 1.476.834a.314.314 0 0 1-.237.57" fill="#212123"/>
                    <path d="m431.73 438.169 3.923-.136s-.82 2.594-1.735 2.649c-.915.054-2.189-2.513-2.189-2.513" fill="#FFF"/>
                    <path d="m415.62 493.276.044-.336.006.079-.05.257zm46.829-24.158a7.008 7.008 0 0 0-6.165-7.167l-10.399-2.717h-.005l-11.796-4.184-16.451-1.792-3.327-.36c-.003 0-1.082.077-1.513.4a15.639 15.639 0 0 0-4.38 5.107s-2.097 21.259-1.069 23.576l-.085.423-.014 1.894 1.722 49.034h55.706l-2.224-64.214z" fill="#285AB1"/>
                    <path d="M437.444 433.037a3.266 3.266 0 0 1-.798-.35c-.248-.145-.51-.29-.775-.531l-.006-.006a.248.248 0 0 1 .115-.425c.373-.08.738-.009 1.079.142.334.152.664.42.776.827a.288.288 0 0 1-.352.353l-.039-.01zM433.384 430.896a3.27 3.27 0 0 1-.798-.35c-.248-.145-.51-.29-.775-.531l-.006-.006a.247.247 0 0 1 .116-.426c.372-.079.738-.008 1.078.142.334.153.665.42.776.827a.287.287 0 0 1-.352.354l-.039-.01z" fill="#212123"/>
                    <path d="m460.08 463.652 21.474 18.255 3.724-19.074 19.197 1.641s1.095 17.95-6.707 33.372c-8.59 16.982-20.213 18.908-43.76-7.558-11.292-12.691 6.071-26.636 6.071-26.636" fill="#285AB1"/>
                    <path d="M480.332 490.52c-.014 0-.028 0-.042-.003a.232.232 0 0 1-.187-.27l4.948-27.455a.233.233 0 0 1 .269-.187c.125.022.21.143.187.27l-4.948 27.455a.232.232 0 0 1-.227.19" fill="#212123"/>
                    <path d="M417.214 489.309a171.294 171.294 0 0 1-6.325 7.228c-2.42 2.605-20.688 11.242-25.233 8.768-4.33-2.34-7.016-7.217-8.853-14.259-4.807-18.418-2.25-35.79-2.25-35.79l22.11.818.91 22.385 10.84-20.055c1.085-2.02 5.351-5.58 5.884-5.508l2.233.223 1.103.139a119.787 119.787 0 0 0-2.107 14.414l5.203-2.899s7.345 11.467-3.515 24.536" fill="#285AB1"/>
                    <path d="M398.196 491.6a.231.231 0 0 1-.23-.222l-1.059-23.606a.232.232 0 0 1 .22-.242c.147-.011.237.093.243.221l1.058 23.606a.232.232 0 0 1-.221.243h-.01" fill="#212123"/>
                    <path d="m383.191 434.873-8.032-1.327a2.267 2.267 0 0 1-1.865-2.606l.223-1.35a2.263 2.263 0 0 1 2.6-1.868l8.033 1.327a2.267 2.267 0 0 1 1.864 2.606l-.222 1.35a2.263 2.263 0 0 1-2.601 1.868" fill="#FFB5B4"/>
                    <path d="m382.244 440.623-8.032-1.327a2.268 2.268 0 0 1-1.865-2.606l.223-1.35a2.263 2.263 0 0 1 2.6-1.867l8.033 1.327a2.267 2.267 0 0 1 1.865 2.606l-.223 1.35a2.263 2.263 0 0 1-2.6 1.867M380.935 446.39l-5.942-.983a2.267 2.267 0 0 1-1.865-2.606l.223-1.35a2.263 2.263 0 0 1 2.6-1.867l5.943.982a2.267 2.267 0 0 1 1.865 2.606l-.223 1.35a2.263 2.263 0 0 1-2.6 1.867" fill="#FFB5B4"/>
                    <path d="m379.549 452.142-4.224-.698a2.267 2.267 0 0 1-1.864-2.606l.222-1.35a2.263 2.263 0 0 1 2.6-1.868l4.224.698a2.267 2.267 0 0 1 1.865 2.606l-.223 1.35a2.263 2.263 0 0 1-2.6 1.868" fill="#FFB5B4"/>
                    <path d="M378.876 452.263a.21.21 0 0 1-.038-.003l-2.877-.476a.232.232 0 0 1 .075-.458l2.877.476a.232.232 0 0 1-.037.46M381.571 440.744a.21.21 0 0 1-.038-.003l-6.685-1.105a.232.232 0 0 1 .075-.458l6.685 1.105a.232.232 0 0 1-.037.461M382.53 434.92a.21.21 0 0 1-.038-.002l-6.685-1.105a.232.232 0 0 1 .075-.458l6.685 1.105a.232.232 0 0 1-.037.46" fill="#212123"/>
                    <path d="m382.043 430.09-.531 3.228s2.812.733 3.13-1.2c.318-1.932-2.6-2.029-2.6-2.029M381.104 435.795l-.532 3.229s2.813.732 3.13-1.2c.32-1.933-2.598-2.03-2.598-2.03M380.068 441.708l-.499 3.028s2.517.667 2.815-1.145c.299-1.812-2.316-1.883-2.316-1.883M379.044 447.547l-.49 2.977s2.195.61 2.489-1.172c.293-1.781-1.999-1.805-1.999-1.805" fill="#FFDED1"/>
                    <path d="M380.262 446.51a.21.21 0 0 1-.038-.003l-4.595-.76a.231.231 0 0 1-.191-.266.231.231 0 0 1 .266-.192l4.595.76a.232.232 0 0 1-.037.461M386.945 443.514a.232.232 0 0 1-.202-.118c-4.941-8.777-2.062-12.817-1.937-12.985a.232.232 0 0 1 .372.277c-.03.039-2.808 3.994 1.97 12.48a.233.233 0 0 1-.203.346M491.092 462.043c-2.221 0-3.669-2.302-3.737-2.412a.233.233 0 0 1 .395-.244c.017.027 1.728 2.737 4.104 2.087a.232.232 0 0 1 .122.448c-.306.083-.602.12-.884.12M463.52 500.275a.23.23 0 0 1-.12-.033c-.049-.03-4.977-3.014-8.165-7.16-1.925-2.504-4-6.518-4.021-6.558a.23.23 0 0 1-.025-.084c-.054-.557-1.277-13.713 3.971-19.776a.232.232 0 0 1 .35.304c-4.971 5.744-3.939 18.53-3.863 19.383.22.424 2.158 4.11 3.956 6.448 3.132 4.074 7.987 7.015 8.036 7.044a.232.232 0 0 1-.12.432M407.75 498.93a.232.232 0 0 1-.23-.22c-.776-15.164.037-27.255 2.415-35.939a.231.231 0 1 1 .448.124c-2.366 8.635-3.173 20.677-2.401 35.792a.232.232 0 0 1-.22.244h-.011" fill="#212123"/>
                    <path d="M426.554 454.23s-1.056 4.825 5.978 7.115 10.088-3.267 10.088-3.267l-8.06-3.31-8.006-.538z" fill="#FFB5B4"/>
                </g>
            </g>
            <g>
                <path d="M290 445.5c0 4.142 2.239 7.5 5 7.5 2.762 0 5-3.358 5-7.5 0-4.142-2.238-7.5-5-7.5-2.761 0-5 3.358-5 7.5" fill="#504C5D"/>
                <path d="M291 445c0 2.761 1.567 5 3.5 5s3.5-2.239 3.5-5c0-2.762-1.567-5-3.5-5s-3.5 2.238-3.5 5" fill="#6C697C"/>
                <path d="M292 445c0 2.21 1.12 4 2.5 4s2.5-1.79 2.5-4-1.12-4-2.5-4-2.5 1.79-2.5 4" fill="#393644"/>
                <path d="M331.974 451.333 318 417.983 342.874 410s18.49 33.816 19.117 44.863c.627 11.048-30.017-3.53-30.017-3.53M324.28 501.567 317.065 462c-7.828 1.622-12.803 2.56-14.927 2.811-3.186.378-2.16 1.082-2.16 1.082s-.834-.324-1.08 0c-.247.324-1.08 0-1.08 0s-6.481 1.082-13.984 3.329c-7.503 2.246-14.408 4.748-14.408 4.748l-10.053 4.226c-13.335 5.605-30.15 19.02-35.683 32.42-6.448 15.616-14.036 33.83-16.69 57.045.009.006 41.848 6.903 41.848 6.903 1.238-5.12 2.394-10.805 3.417-16.326L258.39 604l11.514-2.811c8.34-2.508 20.947-8.363 27.36-21.633 0 0 16.337 13.634 42.735 8.342l-15.72-86.33z" fill="#FFCD67"/>
                <path d="M286.949 427.998c.553 5.495-3.452 10.397-8.947 10.95-5.494.555-10.397-3.45-10.95-8.946-.554-5.494 3.451-10.397 8.946-10.95 5.494-.554 10.397 3.45 10.95 8.946" fill="#212123"/>
                <path fill="#FFBDBC" d="M276.453 472 293 469.669 288.895 452 274 454.098z"/>
                <path fill="#D27D7C" d="M289.777 456.5 279 459.86l12 1.64z"/>
                <path d="M269.782 446.033c-2.48-.298-4.618 1.46-4.773 3.928-.156 2.467 1.729 4.709 4.21 5.006 2.48.298 4.616-1.46 4.772-3.928.155-2.467-1.729-4.708-4.21-5.006" fill="#FFBDBC"/>
                <path d="M293.92 444.14c.802 7.975-4.558 15.047-11.966 15.795-7.416.75-14.074-5.108-14.875-13.083a15.495 15.495 0 0 1 .346-5.17c1.362-5.654 5.88-10.038 11.63-10.619.97-.098 1.93-.079 2.86.036 1.26.16 2.476.51 3.616 1.022 3.429 1.528 6.201 4.532 7.564 8.33.41 1.159.695 2.393.826 3.689" fill="#FFBDBC"/>
                <path d="M269.666 440.788c1.055-2.504 2.416-4.902 3.763-7.265.486-.854.998-1.713 1.571-2.523-5.772 2.178-9.592 8.058-8.924 14.554.163 1.583.59 3.074 1.217 4.446a32.496 32.496 0 0 1 2.373-9.212M292.034 441.195c1.024 2.533 1.971 5.152 2.594 7.805.416-1.619.447-3.2.27-4.968-.475-4.722-3.201-8.803-6.898-11.032 1.588 2.602 2.91 5.414 4.034 8.195" fill="#212123"/>
                <path d="M293 438.996c-2.523.07-5.103-.704-7.005-2.282-.788-.645-1.478-1.448-2.054-2.316a13.97 13.97 0 0 1-1.104-1.947A10.828 10.828 0 0 1 282 430c1.239.153 2.436.49 3.558.982 3.373 1.47 6.102 4.36 7.442 8.014" fill="#212123"/>
                <path d="M285 430.108c-.106.547-.253.99-.582 1.766-.24.577-.508 2.23-1.052 1.746-1.653-1.475-6.305-1.76-9.058.892-2.375 2.29-1.582 5.57-4.869 5.486-.94-.028-1.857-.22-2.439-.436 1.355-5.59 5.846-9.925 11.561-10.5a12.76 12.76 0 0 1 2.844.037c1.252.157 2.461.503 3.595 1.01M276.004 444.141a.934.934 0 0 0 1.08.849 1.07 1.07 0 0 0 .912-1.13.934.934 0 0 0-1.08-.85c-.55.079-.958.585-.912 1.131M283.004 444.141a.933.933 0 0 0 1.08.849c.55-.078.958-.584.912-1.131a.933.933 0 0 0-1.08-.849 1.07 1.07 0 0 0-.912 1.131" fill="#212123"/>
                <path d="m284 447-6 .888s2.381 5.268 3.79 5.108C283.2 452.837 284 447 284 447" fill="#FFF"/>
                <path d="M280.29 446a.298.298 0 0 1-.214-.09.262.262 0 0 1-.075-.21l.485-4.457c.017-.149.163-.252.319-.242.158.015.274.148.258.297l-.452 4.157 2.097-.016h.002c.159 0 .288.12.29.27.001.15-.128.271-.287.273l-2.42.018h-.003zM277.798 441.316a2.058 2.058 0 0 1-.589.418c-.19.097-.379.15-.572.192-.194.039-.39.068-.599.072a2.29 2.29 0 0 1-.676-.065l-.023-.006c-.23-.06-.378-.343-.33-.632a.622.622 0 0 1 .061-.183 2.01 2.01 0 0 1 .565-.662 2.2 2.2 0 0 1 .684-.362c.24-.075.49-.11.74-.073.25.033.501.119.738.325.215.188.268.56.117.829a.543.543 0 0 1-.09.12l-.026.027zM283.129 439.656c.195-.278.424-.433.66-.533.236-.105.482-.134.724-.12.243.02.486.077.717.196.231.116.455.276.648.538a.712.712 0 0 1-.002.8.444.444 0 0 1-.128.117l-.023.013c-.232.134-.44.197-.642.247a3.062 3.062 0 0 1-.587.083 1.967 1.967 0 0 1-.582-.049 1.756 1.756 0 0 1-.634-.278l-.026-.02c-.23-.159-.32-.54-.202-.85a.664.664 0 0 1 .077-.144" fill="#212123"/>
                <path d="M311 463.381C322.837 456.168 332.321 451 332.321 451L362 456s-6 13-19.24 28.468C328.58 501.034 320.607 505 320.607 505L311 463.381z" fill="#FFCD67"/>
                <path fill="#438F75" d="M386.48 565H191.52L151 642.975l2.43 7.025h271.14l2.43-7.025z"/>
                <path fill="#3B6D5C" d="M348.243 568H238.756L216 608.363l1.365 3.637h152.27l1.365-3.637z"/>
                <path d="M348.89 601H235.985a6.487 6.487 0 0 1-6.428-5.692l-8.507-67.997c-.485-3.882 2.53-7.311 6.43-7.311H357.52c3.904 0 6.92 3.437 6.427 7.322l-8.63 67.998a6.487 6.487 0 0 1-6.428 5.68" fill="#FBEFE3"/>
                <path fill="#FBEFE3" d="M281.1 585.879 275 619h36l-4.901-34z"/>
                <path fill="#222221" d="M275.883 619 275 601.207 282 586z"/>
                <path fill="#FBEFE3" d="m276 619-8-18h7.112zM311 619l8-18h-6.799z"/>
                <path fill="#222221" d="m306 585 4.822 34 1.13-17.127.02-.324.028-.407zM281 582h25v-1h-25zM281 579h25v-1h-25zM225 525h134v-1H225z"/>
                <path d="M343 409.492c.007.36-.518 1.282-1.76 2.457-1.722 1.626-4.834 3.747-9.86 5.509-3.999 1.407-7.236 1.704-9.528 1.47-2.666-.272-4.04-1.261-3.831-2.067.173-.683 3.874-5.692 11.9-7.839 2.237-.596 4.243-.889 5.976-.989h.01a21.576 21.576 0 0 1 3.218.059c2.474.248 3.868.94 3.875 1.4" fill="#1A191E"/>
                <path d="m337.55 402 2.355 5.477 2.095 4.074c-1.706 1.719-4.789 3.959-9.77 5.82-3.963 1.486-7.171 1.8-9.443 1.553L319 411.656l17.706-4.24h.01l.835-5.416z" fill="#FFBDBC"/>
                <path d="M333.985 387 311 395.332l5.561 14.161c1.47 4.056 5.112 5.05 9.907 4.254 4.796-.796 8.022-3.142 8.022-3.142a9.532 9.532 0 0 0 3.938-11.35L333.985 387z" fill="#FFBDBC"/>
                <path d="m303.906 385.737-.17.17a2.515 2.515 0 0 0 0 3.556l9.497 9.496a.142.142 0 0 0 .2 0l3.526-3.526a.143.143 0 0 0 0-.2l-9.496-9.496a2.514 2.514 0 0 0-3.557 0M304.029 404.189l-.02.226c-.116 1.31.963 2.455 2.41 2.56L320.56 408l.44-4.968-14.14-1.024c-1.448-.105-2.716.871-2.831 2.18M312.536 378.334l-.216.12a2.548 2.548 0 0 0-.982 3.498l6.92 12.048 4.742-2.65-6.919-12.048c-.708-1.233-2.296-1.667-3.545-.968" fill="#FFBDBC"/>
                <path d="m323.277 375.03-.228.038c-1.318.22-2.223 1.554-2.02 2.981L323 392l4.999-.83-1.972-13.95c-.202-1.428-1.434-2.408-2.751-2.19M334.032 378.112l-.233-.053c-1.346-.304-2.672.593-2.963 2.004L328 393.846l5.108 1.154 2.835-13.783c.29-1.411-.565-2.801-1.911-3.105" fill="#FFBDBC"/>
                <path d="M314.268 395a.268.268 0 0 1-.223-.12.274.274 0 0 1 .074-.377c.083-.055 8.224-5.503 16.345-5.503.09 0 .18 0 .272.002a.27.27 0 0 1 .264.275.27.27 0 0 1-.268.268h-.004c-8.046-.122-16.23 5.354-16.312 5.41a.262.262 0 0 1-.148.045M327.734 407a.267.267 0 0 1-.2-.089c-6.28-7.015-13.422-3.64-13.724-3.494a.267.267 0 0 1-.147.027l-7.426-.799a.26.26 0 0 1-.235-.286.266.266 0 0 1 .293-.23l7.352.79c.811-.36 8.075-3.29 14.287 3.65a.254.254 0 0 1-.025.367.268.268 0 0 1-.175.064M330.678 406c-.082 0-.16-.056-.194-.149-1.127-3.067.06-6.551.11-6.698.044-.126.166-.186.275-.135.107.05.159.194.116.32-.012.033-1.17 3.444-.114 6.32.046.125-.004.269-.11.322a.18.18 0 0 1-.083.02" fill="#212123"/>
                <path d="M287.664 457c-.793 0-1.55-.058-2.224-.166a.511.511 0 0 1-.433-.587.524.524 0 0 1 .608-.418c2.072.337 5.9.166 7.918-1.264.702-.498 1.109-1.106 1.21-1.808.331-2.31.153-6.186.15-6.225a.517.517 0 0 1 .503-.532c.293-.005.538.205.552.485.007.163.185 4.01-.16 6.411-.142.986-.69 1.823-1.63 2.49-1.59 1.125-4.185 1.614-6.494 1.614" fill="#393644"/>
                <path d="M286.966 457.211c-.225.73-1.512 1.002-2.874.61-1.362-.394-2.284-1.303-2.058-2.032.225-.73 1.512-1.002 2.874-.61 1.362.393 2.283 1.303 2.058 2.032" fill="#393644"/>
                <path d="M276.054 471.55 269 474.102s5.498 12.45 19.802 9.136c14.304-3.313 13.177-18.439 13.177-18.439s-6.602 1.111-9.902 2.223c-2.201.74-7.542 2.25-16.023 4.526z" fill="#FFBDBC"/>
                <path d="M327.73 520a.268.268 0 0 1-.264-.216l-6.462-34.474a.263.263 0 0 1 .217-.305.27.27 0 0 1 .313.21l6.462 34.475a.263.263 0 0 1-.217.305.258.258 0 0 1-.049.005M342.737 465a.274.274 0 0 1-.086-.014c-8.945-3.106-10.962-13.288-11.08-13.934l-13.551-32.688a.263.263 0 1 1 .485-.202l13.562 32.714a.27.27 0 0 1 .016.058c.017.104 1.845 10.466 10.74 13.554a.264.264 0 0 1-.086.512" fill="#212123"/>
                <path d="m214.69 581.253-2.143 7.275c-.617 2.092-2.056 3.937-3.866 5.202-1.681 1.173-3.68 1.85-5.634 1.762l-2.54-.113c-2.072-.099-3.696-1.034-4.627-2.47-.89-1.37-1.151-3.193-.57-5.162l2.143-7.274c.494-1.674 1.512-3.193 2.833-4.382 1.856-1.669 4.293-2.692 6.668-2.583l2.54.113c1.644.078 3.007.683 3.963 1.649 1.403 1.41 1.938 3.59 1.234 5.983" fill="#FBEFE3"/>
                <path d="m200.699 581.218-2.086 7.353c-.48 1.692-1.476 3.228-2.756 4.429-.866-1.384-1.12-3.228-.556-5.218l2.086-7.353c.48-1.692 1.47-3.228 2.756-4.429.866 1.384 1.12 3.227.556 5.218M214.685 581.158l-2.181 7.487c-.628 2.154-2.092 4.053-3.934 5.355-1.428-1.451-1.972-3.695-1.255-6.157l2.181-7.488c.628-2.154 2.092-4.052 3.934-5.355 1.428 1.451 1.972 3.696 1.255 6.158" fill="#D8C7B8"/>
                <path d="M211.74 588a.253.253 0 0 1-.142-.044c-4.436-2.991-10.55-3.247-15.214-.635a.256.256 0 0 1-.352-.103.265.265 0 0 1 .102-.357c4.828-2.705 11.158-2.44 15.75.658.12.08.152.243.073.364a.258.258 0 0 1-.216.117" fill="#212123"/>
            </g>
            <g>
                <g fill="#FF664D">
                    <path d="M474.586 406.546h-27.172c-1.886 0-3.414-1.565-3.414-3.496v-17.554c0-1.93 1.528-3.496 3.414-3.496h27.172c1.885 0 3.414 1.565 3.414 3.496v17.554c0 1.93-1.529 3.496-3.414 3.496"/>
                    <path d="M457.421 406.545 461.24 412l3.34-5.455z"/>
                </g>
                <path d="m461.392 390.797-.019.017c-.922-1.218-2.435-1.829-3.913-1.408-1.993.57-3.148 2.781-2.578 4.942.145.546.386 1.036.696 1.456.255.342 2.483 2.36 2.782 2.632l3.036 2.655 3.003-2.728c.238-.221 2.371-2.073 2.636-2.389.337-.402.605-.876.78-1.413.69-2.122-.337-4.401-2.295-5.09-1.519-.535-3.15.048-4.128 1.326z" fill="#F5F5F5"/>
            </g>
            <g>
                <path d="M233.586 401.6h-27.172c-1.886 0-3.414-1.632-3.414-3.645v-18.309c0-2.014 1.528-3.646 3.414-3.646h27.172c1.885 0 3.414 1.632 3.414 3.646v18.309c0 2.013-1.529 3.645-3.414 3.645" fill="#00BFAE"/>
                <path fill="#FFF" d="M211.947 383.314h16.105v10.971h-16.105z"/>
                <path fill="#00BFAE" d="M208.368 401.6v6.4l8.5-6.4z"/>
                <path d="m211.947 383.314 7.493 5.955a.9.9 0 0 0 1.12 0l7.492-5.955" stroke="#19C6B6" stroke-width="1.35"/>
                <g>
                    <path d="M68.414 574.6h27.172c1.886 0 3.414-1.632 3.414-3.645v-18.309c0-2.014-1.528-3.646-3.414-3.646H68.414C66.53 549 65 550.632 65 552.646v18.309c0 2.013 1.529 3.645 3.414 3.645" fill="#00BFAE"/>
                    <path fill="#FFF" d="M90.053 556.314H73.948v10.971h16.105z"/>
                    <path fill="#00BFAE" d="M93.632 574.6v6.4l-8.5-6.4z"/>
                    <path d="m90.053 556.314-7.493 5.955a.9.9 0 0 1-1.12 0l-7.492-5.955" stroke="#19C6B6" stroke-width="1.35"/>
                </g>
            </g>
            <g opacity=".85">
                <path d="M546 576.16a5.842 5.842 0 0 1-5.843 5.84h-82.315a5.841 5.841 0 0 1-5.842-5.84v-56.319a5.842 5.842 0 0 1 5.842-5.841h82.315a5.842 5.842 0 0 1 5.843 5.841v56.32z" fill="#232F41" opacity=".9"/>
                <path fill="#FFF" d="M459 522h8v-3h-8zM469 522h8v-3h-8zM480 522h8v-3h-8zM490 522h8v-3h-8zM499 522h8v-3h-8zM510 522h8v-3h-8zM521 522h8v-3h-8zM532 522h8v-3h-8zM459 577h8v-3h-8zM469 577h8v-3h-8zM480 577h8v-3h-8zM490 577h8v-3h-8zM499 577h8v-3h-8zM510 577h8v-3h-8zM521 577h8v-3h-8zM532 577h8v-3h-8zM496 554v-12l9 6-9 6zm3.001-20c-7.734 0-14.001 6.27-14.001 13.999 0 7.732 6.267 14.001 14.001 14.001 7.73 0 13.999-6.27 13.999-14.001 0-7.73-6.27-13.999-13.999-13.999"/>
            </g>
        </g>
    </g>
</svg>
