<?xml version="1.0" encoding="UTF-8"?>
<svg width="6px" height="2px" viewBox="0 0 6 2" version="1.1" xmlns="http://www.w3.org/2000/svg" xmlns:xlink="http://www.w3.org/1999/xlink">
    <title>0BC85D28-5692-4558-BEF7-B263EF8ED333</title>
    <g id="통합검색" stroke="none" stroke-width="1" fill="none" fill-rule="evenodd" opacity="0.5">
        <g id="Search_01_Main_02_Layer_A(SE-10-11)" transform="translate(-400.000000, -179.000000)" fill="#C4C4C4">
            <g id="#-Search-Layer" transform="translate(0.000000, 77.000000)">
                <g id="line" transform="translate(400.000000, 102.000000)">
                    <path d="M2,0 L2,2 L0,2 L0,0 L2,0 Z M8,0 L8,2 L6,2 L6,0 L8,0 Z M14,0 L14,2 L12,2 L12,0 L14,0 Z M20,0 L20,2 L18,2 L18,0 L20,0 Z M26,0 L26,2 L24,2 L24,0 L26,0 Z M32,0 L32,2 L30,2 L30,0 L32,0 Z M38,0 L38,2 L36,2 L36,0 L38,0 Z M44,0 L44,2 L42,2 L42,0 L44,0 Z M50,0 L50,2 L48,2 L48,0 L50,0 Z M56,0 L56,2 L54,2 L54,0 L56,0 Z M62,0 L62,2 L60,2 L60,0 L62,0 Z M68,0 L68,2 L66,2 L66,0 L68,0 Z M74,0 L74,2 L72,2 L72,0 L74,0 Z M80,0 L80,2 L78,2 L78,0 L80,0 Z M86,0 L86,2 L84,2 L84,0 L86,0 Z M92,0 L92,2 L90,2 L90,0 L92,0 Z M98,0 L98,2 L96,2 L96,0 L98,0 Z M104,0 L104,2 L102,2 L102,0 L104,0 Z M110,0 L110,2 L108,2 L108,0 L110,0 Z M116,0 L116,2 L114,2 L114,0 L116,0 Z M122,0 L122,2 L120,2 L120,0 L122,0 Z M128,0 L128,2 L126,2 L126,0 L128,0 Z M134,0 L134,2 L132,2 L132,0 L134,0 Z M140,0 L140,2 L138,2 L138,0 L140,0 Z M146,0 L146,2 L144,2 L144,0 L146,0 Z M152,0 L152,2 L150,2 L150,0 L152,0 Z M158,0 L158,2 L156,2 L156,0 L158,0 Z M164,0 L164,2 L162,2 L162,0 L164,0 Z M170,0 L170,2 L168,2 L168,0 L170,0 Z M176,0 L176,2 L174,2 L174,0 L176,0 Z M182,0 L182,2 L180,2 L180,0 L182,0 Z M188,0 L188,2 L186,2 L186,0 L188,0 Z M194,0 L194,2 L192,2 L192,0 L194,0 Z M200,0 L200,2 L198,2 L198,0 L200,0 Z M206,0 L206,2 L204,2 L204,0 L206,0 Z M212,0 L212,2 L210,2 L210,0 L212,0 Z M218,0 L218,2 L216,2 L216,0 L218,0 Z M224,0 L224,2 L222,2 L222,0 L224,0 Z M230,0 L230,2 L228,2 L228,0 L230,0 Z M236,0 L236,2 L234,2 L234,0 L236,0 Z M242,0 L242,2 L240,2 L240,0 L242,0 Z M248,0 L248,2 L246,2 L246,0 L248,0 Z M254,0 L254,2 L252,2 L252,0 L254,0 Z M260,0 L260,2 L258,2 L258,0 L260,0 Z M266,0 L266,2 L264,2 L264,0 L266,0 Z M272,0 L272,2 L270,2 L270,0 L272,0 Z M278,0 L278,2 L276,2 L276,0 L278,0 Z M284,0 L284,2 L282,2 L282,0 L284,0 Z M290,0 L290,2 L288,2 L288,0 L290,0 Z M296,0 L296,2 L294,2 L294,0 L296,0 Z M302,0 L302,2 L300,2 L300,0 L302,0 Z M308,0 L308,2 L306,2 L306,0 L308,0 Z M314,0 L314,2 L312,2 L312,0 L314,0 Z M320,0 L320,2 L318,2 L318,0 L320,0 Z M326,0 L326,2 L324,2 L324,0 L326,0 Z M332,0 L332,2 L330,2 L330,0 L332,0 Z M338,0 L338,2 L336,2 L336,0 L338,0 Z M344,0 L344,2 L342,2 L342,0 L344,0 Z M350,0 L350,2 L348,2 L348,0 L350,0 Z M356,0 L356,2 L354,2 L354,0 L356,0 Z M362,0 L362,2 L360,2 L360,0 L362,0 Z M368,0 L368,2 L366,2 L366,0 L368,0 Z M374,0 L374,2 L372,2 L372,0 L374,0 Z M380,0 L380,2 L378,2 L378,0 L380,0 Z M386,0 L386,2 L384,2 L384,0 L386,0 Z M392,0 L392,2 L390,2 L390,0 L392,0 Z M398,0 L398,2 L396,2 L396,0 L398,0 Z M404,0 L404,2 L402,2 L402,0 L404,0 Z M410,0 L410,2 L408,2 L408,0 L410,0 Z M416,0 L416,2 L414,2 L414,0 L416,0 Z M422,0 L422,2 L420,2 L420,0 L422,0 Z M428,0 L428,2 L426,2 L426,0 L428,0 Z M434,0 L434,2 L432,2 L432,0 L434,0 Z M440,0 L440,2 L438,2 L438,0 L440,0 Z M446,0 L446,2 L444,2 L444,0 L446,0 Z M452,0 L452,2 L450,2 L450,0 L452,0 Z M458,0 L458,2 L456,2 L456,0 L458,0 Z M464,0 L464,2 L462,2 L462,0 L464,0 Z M470,0 L470,2 L468,2 L468,0 L470,0 Z M476,0 L476,2 L474,2 L474,0 L476,0 Z M482,0 L482,2 L480,2 L480,0 L482,0 Z M488,0 L488,2 L486,2 L486,0 L488,0 Z M494,0 L494,2 L492,2 L492,0 L494,0 Z M500,0 L500,2 L498,2 L498,0 L500,0 Z M506,0 L506,2 L504,2 L504,0 L506,0 Z M512,0 L512,2 L510,2 L510,0 L512,0 Z M518,0 L518,2 L516,2 L516,0 L518,0 Z M524,0 L524,2 L522,2 L522,0 L524,0 Z M530,0 L530,2 L528,2 L528,0 L530,0 Z M536,0 L536,2 L534,2 L534,0 L536,0 Z M542,0 L542,2 L540,2 L540,0 L542,0 Z M548,0 L548,2 L546,2 L546,0 L548,0 Z M554,0 L554,2 L552,2 L552,0 L554,0 Z M560,0 L560,2 L558,2 L558,0 L560,0 Z M566,0 L566,2 L564,2 L564,0 L566,0 Z M572,0 L572,2 L570,2 L570,0 L572,0 Z M578,0 L578,2 L576,2 L576,0 L578,0 Z M584,0 L584,2 L582,2 L582,0 L584,0 Z M590,0 L590,2 L588,2 L588,0 L590,0 Z M596,0 L596,2 L594,2 L594,0 L596,0 Z" id="Combined-Shape"></path>
                </g>
            </g>
        </g>
    </g>
</svg>