<?xml version="1.0" encoding="UTF-8"?>
<svg width="90px" height="39px" viewBox="0 0 90 39" version="1.1" xmlns="http://www.w3.org/2000/svg" xmlns:xlink="http://www.w3.org/1999/xlink">
    <title>btn / GNB / Logo_Christmas</title>
    <defs>
        <polygon id="path-1" points="0.551724138 -0.93094958 24.5517241 -0.93094958 24.5517241 11.0690504 0.551724138 11.0690504"></polygon>
        <path d="M14.8290017,14.5718045 C14.8290017,14.5718045 10.7078017,12.1843659 7.80223776,15 C7.80223776,15 8.25189998,11.5801266 4.73411991,10.9421011 C4.58282511,10.9065367 4.42343779,10.8891102 4.25103209,10.8695498 C3.7834256,10.8240273 3.25389379,10.8194039 2.64695534,10.8731062 C2.64695534,10.8731062 5.36603959,7.08300733 0.0788140364,5.45237926 C0.0788140364,5.45237926 2.79684275,4.24176684 0.313848752,0.555871684 C0.248756802,0.45771392 0.181201914,0.359200512 0.10414712,0.252862935 L0.0981656971,0.246105697 C0.0679067367,0.19738246 0.0362403828,0.160395476 0,0.111316594 C0.0397588666,0.136211679 0.0795177332,0.167508358 0.113295177,0.19133651 C0.35114468,0.353510207 0.584772002,0.502169429 0.803973541,0.623799701 L0.809954963,0.624510989 C4.248921,2.6065154 5.28229968,0 5.28229968,0 C5.430076,0.432818835 5.58805592,0.803044313 5.75870238,1.13165944 C5.87340495,1.36353937 5.9937371,1.56447827 6.11582849,1.74692368 C6.12286545,1.74763497 6.12286545,1.74763497 6.12145806,1.75403656 C8.03269844,4.53375062 10.7373569,2.39988619 10.7373569,2.39988619 C10.6529133,4.02695782 10.9449475,5.13763426 11.4065725,5.89444484 C11.4776459,6.00611708 11.5490711,6.11138772 11.6233111,6.20456647 C12.8808172,7.82594779 15,7.45821182 15,7.45821182 C12.3185635,10.4907888 14.8290017,14.5718045 14.8290017,14.5718045" id="path-3"></path>
        <path d="M0,13.4725877 C0,13.4725877 4.74675502,11.6607226 7.38887374,15 C7.38887374,15 7.44775525,11.4212805 11.2807146,11.3113363 C11.4456583,11.2980545 11.6181509,11.3046954 11.8038541,11.3113363 C12.3073665,11.3371621 12.8701378,11.4150085 13.5053786,11.5633224 C13.5053786,11.5633224 11.2142842,7.25410138 17.0794103,6.39963598 C17.0794103,6.39963598 14.3855816,4.73645375 17.5968882,1.33925277 C17.6825683,1.24886243 17.7686259,1.15810316 17.8675166,1.06070295 L17.8746881,1.05479991 C17.9146973,1.00978921 17.9535742,0.976953538 18,0.931942839 C17.9535742,0.951496667 17.9071484,0.976953538 17.8675166,0.996876307 C17.5897167,1.12563642 17.3190883,1.24259045 17.0669546,1.33334973 L17.0601606,1.33334973 C13.100757,2.83419829 12.4130512,0 12.4130512,0 C12.1880937,0.42059178 11.9623813,0.776250092 11.7302523,1.08689771 C11.5717251,1.30715498 11.413198,1.49457658 11.2546709,1.66281329 C11.2474994,1.66281329 11.2474994,1.66281329 11.2474994,1.66908527 C8.78504477,4.22584057 6.24936568,1.61780259 6.24936568,1.61780259 C6.08404454,3.29980077 5.60053681,4.39407728 4.99171717,5.09912192 C4.89886557,5.20279411 4.80639141,5.29982537 4.71353981,5.38357478 C3.12411667,6.85306343 0.934177693,6.14728091 0.934177693,6.14728091 C3.3034033,9.67397988 0,13.4725877 0,13.4725877" id="path-5"></path>
    </defs>
    <g id="btn-/-GNB-/-Logo_Christmas" stroke="none" stroke-width="1" fill="none" fill-rule="evenodd">
        <g id="logo_gnb">
            <path d="M83.9999184,20 C82.8955638,20 82,20.9157957 82,22.0461788 L82,34.9539882 C82,36.0842043 82.8955638,37 83.9999184,37 C85.1047627,37 86,36.0842043 86,34.9539882 L86,22.0461788 C86,20.9157957 85.1047627,20 83.9999184,20 M75.3033813,15 L69.6969332,15 C67.1028111,15 65,17.2335681 65,19.9889979 L65,29.9539681 C65,31.0838613 65.8621918,32 66.9262536,32 C67.9901581,32 68.8523499,31.0838613 68.8523499,29.9539681 L68.8523499,20.2254639 C68.8523499,19.123292 69.6934743,18.2300317 70.7311232,18.2300317 L74.269034,18.2300317 C75.3065257,18.2300317 76.1474929,19.123292 76.1474929,20.2254639 L76.1474929,29.9539681 C76.1474929,31.0838613 77.0098419,32 78.0739037,32 C79.1378082,32 80,31.0838613 80,29.9539681 L80,19.9889979 C80,17.2335681 77.8971889,15 75.3033813,15 M59.1475736,22.0461788 L59.1475736,31.7745874 C59.1475736,32.8765815 58.3063096,33.770167 57.268997,33.770167 L53.7311603,33.770167 C52.693376,33.770167 51.8522692,32.8765815 51.8522692,31.7745874 L51.8522692,22.0461788 C51.8522692,20.9159627 50.9899382,20 49.926056,20 C48.8624882,20 48,20.9159627 48,22.0461788 L48,32.0110511 C48,34.7662868 50.4059323,37 53,37 L58,37 C60.5942249,37 63,34.7662868 63,32.0110511 L63,22.0461788 C63,20.9159627 62.1375118,20 61.0736296,20 C60.0099046,20 59.1475736,20.9159627 59.1475736,22.0461788 Z M41.899991,24.8341339 L35.6663892,24.8341339 L35.6663892,24.8336329 C34.5368808,24.8336329 33.8125007,24.0500889 33.8125007,23.0826825 C33.8125007,22.1161112 34.5368808,21.3322331 35.6663892,21.3322331 L44.2388208,21.3322331 C45.1418376,21.3322331 45.8740842,20.5864301 45.8740842,19.6661166 C45.8740842,18.74597 45.1418376,18 44.2388208,18 L35.089999,18 C32.1542932,18 30,20.275651 30,23.0826825 C30,25.890549 32.1542932,28.1658661 35.089999,28.1658661 L41.1677444,28.1658661 C42.2970889,28.1635281 43.022944,28.9462372 43.0250745,29.9136436 C43.0270411,30.8803819 42.2974167,31.6652619 41.1677444,31.6682679 L32.1243019,31.6682679 C31.2216129,31.6682679 30.4895301,32.4140709 30.4895301,33.3340504 C30.4895301,34.25403 31.2216129,35 32.1243019,35 L41.9444043,35 L41.9444043,34.999332 C44.8684742,34.9789585 47.0060509,32.7069814 47,29.9066297 C46.9949066,27.0997652 44.8352052,24.8277881 41.899991,24.8341339" id="suni" fill="#E0002B"></path>
            <g id="my" transform="translate(1.448276, 20.930950)">
                <mask id="mask-2" fill="white">
                    <use xlink:href="#path-1"></use>
                </mask>
                <g id="Clip-4"></g>
                <path d="M20.7215602,10.3151855 C20.2735597,10.3151855 19.9091879,9.92241408 19.9091879,9.43983268 C19.9091879,8.95674577 20.2735597,8.56397438 20.7215602,8.56397438 C21.1692482,8.56397438 21.5334636,8.95674577 21.5334636,9.43983268 C21.5334636,9.92241408 21.1692482,10.3151855 20.7215602,10.3151855 L20.7215602,10.3151855 Z M20.7215602,7.81027794 C19.8877727,7.81027794 19.2096755,8.54122701 19.2096755,9.43983268 C19.2096755,10.3384383 19.8877727,11.0690504 20.7215602,11.0690504 C21.5548788,11.0690504 22.2328197,10.3384383 22.2328197,9.43983268 C22.2328197,8.54122701 21.5548788,7.81027794 20.7215602,7.81027794 L20.7215602,7.81027794 Z M23.3603243,-0.93094958 L18.0823272,-0.93094958 C17.1666303,-0.93094958 16.5943588,0.137840175 17.052051,0.99263608 L20.0345531,6.56102565 C20.3398375,7.13072109 21.1029704,7.13072109 21.4082548,6.56102565 L24.3906006,0.99263608 C24.848449,0.137840175 24.2760212,-0.93094958 23.3603243,-0.93094958 L23.3603243,-0.93094958 Z M13.8153796,-0.288968031 C13.3573749,-1.14376394 12.2128319,-1.14376394 11.7549834,-0.288968031 L8.58396465,5.63158465 L5.41232063,-0.289810527 C4.95447217,-1.14443793 3.80992917,-1.14443793 3.35208071,-0.289810527 L0.712847706,4.63777699 C0.254999243,5.49257289 0.827427059,6.56102565 1.74312399,6.56102565 L15.4240237,6.56102565 C16.3397207,6.56102565 16.9121485,5.49240439 16.4541437,4.63777699 L13.8153796,-0.288968031 Z" id="Fill-3" fill="#60C0BD" mask="url(#mask-2)"></path>
            </g>
        </g>
        <g id="deco" transform="translate(29.000000, 1.000000)">
            <g id="Group-2">
                <mask id="mask-4" fill="white">
                    <use xlink:href="#path-3"></use>
                </mask>
                <use id="Mask" stroke="#60C0BD" fill="#60C0BD" stroke-linecap="round" stroke-linejoin="round" xlink:href="#path-3"></use>
                <g mask="url(#mask-4)" stroke="#1E8682" stroke-width="0.8">
                    <g transform="translate(-0.276954, -0.219228)">
                        <line x1="0" y1="0" x2="13.2769537" y2="12.3539867" id="Path-6"></line>
                        <path d="M10.5200243,9.82754993 C7.87146028,9.47508526 5.20796045,9.93897788 2.5295248,11.2192278" id="Path-7"></path>
                        <path d="M11.1612597,2.34164524 C9.69714197,5.13856789 9.08300241,7.2404753 9.31884098,8.64736748" id="Path-9"></path>
                        <path d="M5.92524433,0 C4.98117415,1.55598799 4.77471479,3.21080685 5.30586624,4.96445656" id="Path-8"></path>
                    </g>
                </g>
            </g>
            <g id="Group" transform="translate(17.000000, 0.000000)">
                <mask id="mask-6" fill="white">
                    <use xlink:href="#path-5"></use>
                </mask>
                <use id="Mask" stroke="#60C0BD" fill="#60C0BD" stroke-linecap="round" stroke-linejoin="round" xlink:href="#path-5"></use>
                <g mask="url(#mask-6)">
                    <g transform="translate(2.125000, -1.000000)">
                        <path d="M0.182847289,12.6923077 C0.205539568,12.6923077 0.233595477,12.6923077 0.262889147,12.6778263 C1.86166339,11.9086582 3.41133979,11.0302592 4.90903023,10.0649719 C4.92305819,10.0579381 4.93749873,10.0504905 4.94451271,10.0434567 C5.26302979,9.84775119 5.57494549,9.63673681 5.88603601,9.4269637 C6.00898691,9.35414305 6.12451124,9.27387484 6.24044816,9.18698657 C9.08440967,7.26427325 11.7839658,5.1015828 14.4319485,2.97488891 C15.5026115,2.11883256 16.6025682,1.2333997 17.696336,0.384377163 C17.7751401,0.319417836 17.8477554,0.261078568 17.9273847,0.2027393 C17.9628672,0.16674273 17.9917483,0.115851029 17.9917483,0.0719931392 L18,0.0649593268 C18,0.0430303821 17.9917483,0.021515191 17.9917483,0 C17.6880843,0.144813786 17.3922595,0.275559947 17.1166514,0.37734335 L17.1096375,0.37734335 C16.1330443,1.14609768 15.1552133,1.92312708 14.2079138,2.69229515 C12.6805171,3.91866104 11.132491,5.15950831 9.55475873,6.34987763 C9.36620652,6.50213898 9.17847948,6.64033271 8.98992727,6.77769893 C7.67336247,7.76450144 6.33410539,8.71572114 4.95936584,9.601154 C4.85126807,9.67314714 4.74234513,9.74596778 4.63342218,9.81134086 C3.16543799,10.7398041 1.65990839,11.6037218 0.104043191,12.3513747 C0.0169873547,12.3948188 -0.0263342699,12.5040498 0.0169873547,12.5905243 C0.0524698281,12.6558974 0.117658558,12.6923077 0.182847289,12.6923077 Z" id="Fill-14" stroke="none" fill="#1E8682" fill-rule="evenodd"></path>
                        <path d="M1.35924721,12.1446276 C11.1666648,5.556482 16.4226087,1.84160614 17.127079,1" id="Path-10" stroke="#1E8682" stroke-width="0.8" fill="none"></path>
                        <path d="M3.93250847,2.41787386 C4.05478859,6.77178717 3.91920916,9.54928335 3.52577019,10.7503624" id="Path-11" stroke="#1E8682" stroke-width="0.6" fill="none"></path>
                        <path d="M10.0697174,1 C9.70447795,4.67303975 8.99013519,6.92463303 7.92668915,7.75477982" id="Path-12" stroke="#1E8682" stroke-width="0.8" fill="none"></path>
                        <path d="M5.13579559,9.68650055 C8.18073018,10.3243497 10.3234952,11.3179617 11.5640907,12.6673365" id="Path-13" stroke="#1E8682" stroke-width="0.8" fill="none"></path>
                    </g>
                </g>
            </g>
            <path d="M19.8487431,9.00039932 C18.1921763,8.97363447 16.826433,10.2956774 16.8003786,11.9519288 C16.7743242,13.607828 18.0964088,14.9724833 19.7512151,14.9996004 C21.4084861,15.0263652 22.7728211,13.7053788 22.7995797,12.0480709 C22.8270424,10.3911152 21.5053099,9.02716418 19.8487431,9.00039932" id="Fill-22" fill="#E0002B"></path>
            <path d="M19.0140671,12.0001779 C18.4623125,11.9898257 18.0093112,12.4326692 18.0001248,12.9847859 C17.9915126,13.5363274 18.4295862,13.9918236 18.9813407,13.9998753 C19.5353918,14.0085021 19.9906898,13.5685342 19.9998761,13.0158424 C20.0084883,12.4643009 19.5669699,12.0088047 19.0140671,12.0001779" id="Fill-24" fill="#FFFFFF"></path>
            <path d="M14.2427587,10.0102033 C12.5918246,9.87462281 11.1440445,11.1061163 11.0098995,12.7573811 C10.8764587,14.4097023 12.1077056,15.8560116 13.7572313,15.9901835 C15.4102779,16.1229467 16.8566497,14.8935662 16.9900905,13.241245 C17.1235314,11.5899802 15.8936928,10.1429665 14.2427587,10.0102033" id="Fill-26" fill="#E0002B"></path>
            <path d="M14.0801236,13.0030325 C13.5282462,12.960505 13.0481529,13.3702635 13.0033595,13.9185239 C12.9585662,14.4713818 13.3668751,14.9529774 13.9187526,14.9966543 C14.4694815,15.0414806 14.9518719,14.6305727 14.9966653,14.0817377 C15.0414586,13.5306038 14.629704,13.0490082 14.0801236,13.0030325" id="Fill-28" fill="#FFFFFF"></path>
        </g>
        <g id="hat" transform="translate(64.000000, 6.868529)">
            <path d="M2.44618606,5.31694644 L13.7781506,7.10926852 C14.2022543,7.17754486 14.5702166,7.39470104 14.8321531,7.70217923 C15.0940895,8.00965742 15.25,8.40745763 15.25,8.83702204 C15.25,9.27576155 15.0895786,9.66502553 14.8207502,9.94386366 C14.5574353,10.216983 14.1918118,10.3814705 13.787918,10.3814705 L13.787918,10.3814705 L2.5,10.3814705 C2.01675084,10.3814705 1.57925084,10.1855951 1.26256313,9.86890741 C0.945875422,9.5522197 0.75,9.1147197 0.75,8.63147054 L0.75,8.63147054 L0.75,7.0661348 C0.75,6.58288564 0.945875422,6.14538564 1.26256313,5.82869793 C1.56745309,5.52380798 1.98432162,5.33089659 2.44618606,5.31694644 L2.44618606,5.31694644 Z" id="Rectangle" stroke="#E0002B" stroke-width="1.5" fill="#FFFFFF"></path>
            <path d="M3.3086071,5.74343095 C5.26368904,-0.733488517 9.49415334,-1.73234712 16,2.74685515 C18.6320055,4.74457235 19.7479138,6.04832794 19.3477249,6.65812192 L17.7715759,6.65812192 C15.9238586,5.08902885 14.5892097,5.58014506 13.767629,8.13147054" id="Path-5" stroke="#E0002B" fill="#E0002B"></path>
            <circle id="Oval" stroke="#60C0BD" stroke-width="1.5" cx="20" cy="9.13147054" r="2.25"></circle>
        </g>
        <g id="Group-7" transform="translate(13.923707, 0.780772)" stroke="#C7C7C7" stroke-linecap="round" stroke-width="0.8">
            <g id="snow" transform="translate(54.429206, 0.000000)">
                <line x1="2.01906967" y1="0" x2="1.85906219" y2="3.88656425" id="Path-2"></line>
                <line x1="0.445285797" y1="0.878998756" x2="3.58507156" y2="3.10708237" id="Path-3"></line>
                <line x1="0" y1="2.95425701" x2="3.88411331" y2="0.965474129" id="Path-4"></line>
            </g>
            <g id="snow" transform="translate(9.429206, 8.000000)">
                <line x1="2.01906967" y1="0" x2="1.85906219" y2="3.88656425" id="Path-2"></line>
                <line x1="0.445285797" y1="0.878998756" x2="3.58507156" y2="3.10708237" id="Path-3"></line>
                <line x1="0" y1="2.95425701" x2="3.88411331" y2="0.965474129" id="Path-4"></line>
            </g>
            <g id="snow" transform="translate(0.000000, 2.560987)">
                <line x1="2.28826809" y1="0" x2="2.31883383" y2="5.27073383" id="Path-2"></line>
                <line x1="0" y1="1.40510559" x2="4.71586132" y2="4.03228188" id="Path-3"></line>
                <line x1="0" y1="3.91471004" x2="4.63766766" y2="1.50237465" id="Path-4"></line>
            </g>
        </g>
        <g id="snow" transform="translate(85.918581, 5.159045)" stroke="#C7C7C7" stroke-linecap="round" stroke-width="0.8">
            <line x1="1.41565609" y1="0" x2="1.35452509" y2="3.00389671" id="Path-2"></line>
            <line x1="0" y1="2.40779114" x2="2.83131218" y2="0.689667702" id="Path-3"></line>
            <line x1="0" y1="1.05249596" x2="2.83131218" y2="2.08243179" id="Path-4"></line>
        </g>
        <g id="snow" transform="translate(3.918581, 12.159045)" stroke="#C7C7C7" stroke-linecap="round" stroke-width="0.8">
            <line x1="1.41565609" y1="0" x2="1.35452509" y2="3.00389671" id="Path-2"></line>
            <line x1="0" y1="2.40779114" x2="2.83131218" y2="0.689667702" id="Path-3"></line>
            <line x1="0" y1="1.05249596" x2="2.83131218" y2="2.08243179" id="Path-4"></line>
        </g>
    </g>
</svg>