<svg xmlns="http://www.w3.org/2000/svg" width="80" height="25" viewBox="0 0 80 25">
    <g fill="none" fill-rule="evenodd">
        <g fill-rule="nonzero">
            <g>
                <path d="M0.988 0H80V24.691H0.988z" transform="translate(-780 -148) translate(780 148)"/>
                <path fill="#E1002A" d="M36.064 13.087h-5.613c-1.016 0-1.67-.706-1.67-1.58 0-.872.654-1.579 1.67-1.579h7.715c.536.015 1.037-.268 1.309-.74.272-.47.272-1.055 0-1.526-.272-.471-.773-.754-1.309-.74h-8.234c-2.643 0-4.58 2.053-4.58 4.586 0 2.532 1.941 4.586 4.58 4.586h5.473c1.017 0 1.67.704 1.673 1.576.002.872-.656 1.58-1.673 1.584h-8.144c-.797.022-1.433.688-1.433 1.503 0 .814.636 1.48 1.433 1.503h8.844c2.633-.019 4.558-2.066 4.552-4.594-.006-2.529-1.949-4.588-4.593-4.579zm18.328-4.256c-1 0-1.81.828-1.81 1.848v8.778c-.001.994-.79 1.8-1.764 1.8h-3.32c-.973 0-1.763-.805-1.764-1.8v-8.782c0-1.02-.81-1.848-1.81-1.848s-1.81.827-1.81 1.848v8.99c0 1.195.464 2.34 1.291 3.184.827.844 1.949 1.318 3.118 1.317h5.263c1.17 0 2.29-.473 3.118-1.317.827-.844 1.291-1.99 1.291-3.183v-8.991c0-1.017-.807-1.842-1.803-1.846v.002zm13.293-4.824h-5.263c-2.435 0-4.409 2.016-4.409 4.502v8.99c0 1.02.81 1.847 1.81 1.847s1.81-.827 1.81-1.848V8.72c0-.477.186-.935.517-1.273.33-.337.78-.527 1.247-.527h3.321c.468 0 .917.19 1.248.527.33.338.516.796.516 1.273v8.777c0 1.02.81 1.848 1.81 1.848s1.81-.827 1.81-1.848v-8.99c0-1.195-.465-2.341-1.294-3.186-.828-.844-1.952-1.317-3.123-1.315v.002zm8.03 4.824c-1 0-1.81.828-1.81 1.848v11.648c0 1.02.81 1.848 1.81 1.848s1.81-.827 1.81-1.848V10.675c0-1.02-.81-1.846-1.81-1.846v.002z" transform="translate(-780 -148) translate(780 148)"/>
                <path fill="#61C1BE" d="M12.516 9.69c-.2-.355-.571-.573-.973-.573-.4 0-.772.218-.972.573l-2.995 5.294-2.994-5.295c-.2-.355-.571-.573-.972-.573-.402 0-.772.218-.973.573L.151 14.095c-.201.354-.201.792 0 1.146.2.355.57.574.972.574H14.04c.401 0 .772-.219.973-.574.2-.354.2-.791 0-1.146L12.516 9.69zm9.012-.574H16.55c-.402 0-.773.218-.973.573-.2.355-.2.792 0 1.147l2.816 4.979c.132.238.38.385.649.385.268 0 .516-.147.648-.385l2.817-4.98c.2-.355.2-.793-.002-1.148-.202-.355-.575-.573-.977-.57zm-2.492 7.816c-.577 0-1.097.355-1.318.9-.22.544-.099 1.17.31 1.587.407.416 1.021.54 1.554.315.533-.225.881-.756.881-1.345 0-.805-.639-1.456-1.427-1.457zm0 2.24c-.423 0-.766-.351-.766-.783 0-.433.343-.783.766-.783.424 0 .767.35.767.783 0 .208-.08.407-.224.555-.144.147-.339.23-.543.23v-.003zM75.715 7.435c-1.31 0-2.492-.804-2.994-2.04-.502-1.234-.225-2.657.7-3.603.927-.946 2.32-1.229 3.53-.717 1.21.512 2 1.717 2 3.055-.003 1.823-1.45 3.3-3.236 3.305zm0-5.341c-1.1 0-1.992.912-1.992 2.036 0 1.123.893 2.034 1.994 2.034 1.1 0 1.993-.911 1.993-2.035-.002-1.124-.894-2.033-1.995-2.034v-.001z" transform="translate(-780 -148) translate(780 148)"/>
            </g>
        </g>
    </g>
</svg>
