<svg xmlns="http://www.w3.org/2000/svg" width="70" height="22" viewBox="0 0 70 22">
    <g fill="none" fill-rule="evenodd">
        <g fill-rule="nonzero">
            <g>
                <path d="M0.864 0H70V21.728H0.864z" transform="translate(-60 -37) translate(60 37)"/>
                <path fill="#E1002A" d="M31.556 11.517h-4.911c-.89 0-1.46-.622-1.46-1.39 0-.768.57-1.39 1.46-1.39h6.75c.469.013.907-.236 1.145-.651.238-.414.238-.929 0-1.343-.238-.415-.676-.664-1.144-.651H26.19c-2.312 0-4.006 1.806-4.006 4.035s1.697 4.036 4.006 4.036h4.79c.89 0 1.461.62 1.463 1.387.002.767-.574 1.39-1.463 1.393h-7.126c-.698.02-1.254.606-1.254 1.323s.556 1.303 1.254 1.322h7.738c2.304-.016 3.989-1.817 3.983-4.042-.006-2.225-1.705-4.037-4.019-4.03zm16.037-3.745c-.875 0-1.584.728-1.584 1.626v7.724c0 .875-.691 1.584-1.543 1.584H41.56c-.852 0-1.543-.709-1.543-1.584V9.394c0-.898-.71-1.626-1.584-1.626-.875 0-1.584.728-1.584 1.626v7.912c0 1.05.406 2.058 1.13 2.8.723.743 1.705 1.16 2.728 1.16h4.605c1.023 0 2.004-.417 2.728-1.16.723-.742 1.13-1.75 1.13-2.8V9.394c-.001-.895-.706-1.621-1.578-1.624v.002zm11.632-4.246h-4.606c-2.13 0-3.857 1.774-3.857 3.961V15.4c0 .898.709 1.626 1.583 1.626.875 0 1.584-.728 1.584-1.626V7.673c0-.42.163-.823.452-1.12.29-.297.682-.464 1.091-.464h2.907c.409 0 .801.167 1.09.464.29.297.453.7.453 1.12v7.724c0 .898.709 1.626 1.584 1.626.874 0 1.583-.728 1.583-1.626V7.486c0-1.052-.407-2.061-1.132-2.804-.725-.743-1.708-1.16-2.732-1.158v.002zm7.026 4.246c-.875 0-1.584.728-1.584 1.626v10.25c0 .898.71 1.626 1.584 1.626.875 0 1.584-.728 1.584-1.626V9.394c-.001-.897-.71-1.624-1.584-1.624v.002z" transform="translate(-60 -37) translate(60 37)"/>
                <path fill="#61C1BE" d="M10.952 8.527c-.176-.312-.5-.504-.852-.504-.35 0-.675.192-.85.504l-2.62 4.659-2.62-4.66c-.176-.312-.5-.504-.852-.504-.35 0-.675.192-.85.504L.132 12.403c-.176.312-.176.697 0 1.01.175.312.5.504.85.504h11.303c.351 0 .675-.192.851-.505.176-.312.176-.696 0-1.009l-2.184-3.876zm7.885-.505h-4.356c-.351 0-.676.192-.851.505-.176.312-.176.697 0 1.009l2.464 4.38c.116.21.332.34.567.34.235 0 .452-.13.568-.34l2.464-4.38c.176-.313.175-.7-.001-1.012-.177-.312-.503-.503-.855-.502zm-2.18 6.878c-.505 0-.96.312-1.154.791-.193.48-.086 1.03.27 1.397.358.367.895.477 1.361.278.467-.198.771-.666.771-1.184 0-.708-.559-1.281-1.248-1.282zm0 1.97c-.37 0-.671-.308-.671-.688 0-.38.3-.689.67-.689.371 0 .672.309.672.689 0 .183-.07.359-.196.489s-.297.202-.475.203v-.003zM66.503 6c-1.012.001-1.924-.608-2.312-1.542-.388-.934-.174-2.01.54-2.725.716-.716 1.791-.93 2.726-.543C68.39 1.577 69 2.49 69 3.5c-.002 1.38-1.119 2.497-2.497 2.5zm-.004-4C65.671 2 65 2.672 65 3.5c0 .829.672 1.5 1.5 1.5.829 0 1.5-.672 1.5-1.5-.001-.828-.673-1.499-1.5-1.5z" transform="translate(-60 -37) translate(60 37)"/>
            </g>
        </g>
    </g>
</svg>
