<svg xmlns="http://www.w3.org/2000/svg" xmlns:xlink="http://www.w3.org/1999/xlink" width="80" height="35" viewBox="0 0 80 35">
    <defs>
        <path id="0h7m43peda" d="M0 0.023L22.901 0.023 22.901 10.519 0 10.519z"/>
    </defs>
    <g fill="none" fill-rule="evenodd">
        <g>
            <path fill="#FFF" d="M0 0H1400V977H0z" transform="translate(-100 -50)"/>
            <g>
                <path fill="#E0002B" d="M76.604 8.149c-1 0-1.812.836-1.812 1.868v11.788c0 1.032.812 1.868 1.812 1.868s1.812-.836 1.812-1.868V10.017c0-1.032-.811-1.868-1.812-1.868m-8.046-4.884h-5.273c-2.44 0-4.418 2.04-4.418 4.556v9.1c0 1.032.81 1.869 1.812 1.869 1 0 1.811-.837 1.811-1.869V8.037c0-1.006.791-1.822 1.767-1.822h3.328c.976 0 1.767.816 1.767 1.822v8.884c0 1.032.811 1.869 1.812 1.869 1 0 1.811-.837 1.811-1.869v-9.1c0-2.516-1.977-4.556-4.417-4.556M55.238 8.15c-1 0-1.811.836-1.811 1.868v8.885c0 1.006-.792 1.822-1.767 1.822h-3.328c-.976 0-1.767-.816-1.767-1.822v-8.885c0-1.032-.811-1.868-1.812-1.868-1 0-1.812.836-1.812 1.868v9.1c0 2.517 1.978 4.556 4.418 4.556h5.273c2.44 0 4.418-2.04 4.418-4.556v-9.1c0-1.032-.811-1.868-1.812-1.868m-18.362 4.307H31.25c-1.019 0-1.672-.716-1.672-1.6 0-.882.653-1.598 1.672-1.598h7.735c.815 0 1.476-.681 1.476-1.522 0-.84-.661-1.521-1.476-1.521h-8.255c-2.649 0-4.592 2.078-4.592 4.642 0 2.564 1.943 4.641 4.592 4.641h5.484c1.02-.002 1.674.713 1.676 1.597.002.882-.656 1.6-1.676 1.602h-8.16c-.814 0-1.475.681-1.475 1.521 0 .84.66 1.521 1.475 1.521h8.861c2.638-.019 4.567-2.094 4.562-4.65-.005-2.564-1.954-4.639-4.602-4.633" transform="translate(-100 -50) translate(100 50)"/>
                <g transform="translate(-100 -50) translate(100 50) translate(0 8.163)">
                    <mask id="mgwi7xiivb" fill="#fff">
                        <use xlink:href="#0h7m43peda"/>
                    </mask>
                    <path fill="#60C0BD" d="M19.246 9.86c-.427 0-.775-.344-.775-.766 0-.422.348-.766.775-.766.427 0 .775.344.775.766 0 .422-.348.766-.775.766zm0-2.191c-.795 0-1.442.64-1.442 1.425 0 .786.647 1.425 1.442 1.425.795 0 1.442-.639 1.442-1.425s-.647-1.425-1.442-1.425zM21.764.023h-5.036c-.874 0-1.42.934-.983 1.682l2.846 4.871c.291.498 1.02.498 1.31 0l2.846-4.87c.437-.749-.11-1.683-.983-1.683zm-9.108.561c-.437-.748-1.529-.748-1.966 0L7.664 5.763 4.638.583c-.437-.747-1.529-.747-1.966 0L.154 4.893c-.437.748.109 1.683.983 1.683H14.19c.874 0 1.42-.935.983-1.682L12.656.584z" mask="url(#mgwi7xiivb)"/>
                </g>
                <path fill="#60C0BD" d="M76.735 1.255c-1.109 0-2.011.902-2.011 2.01 0 1.109.902 2.011 2.01 2.011 1.11 0 2.011-.902 2.011-2.01 0-1.11-.902-2.011-2.01-2.011m0 5.276c-1.801 0-3.266-1.465-3.266-3.266 0-1.8 1.465-3.265 3.266-3.265C78.535 0 80 1.465 80 3.265s-1.465 3.266-3.265 3.266" transform="translate(-100 -50) translate(100 50)"/>
                <g fill="#C8C9C9">
                    <path d="M18.397 2.607h-2.509c-.365 0-.661-.29-.661-.645 0-.356.296-.644.661-.644h3.526c.373 0 .675-.295.675-.659 0-.363-.302-.659-.675-.659h-3.526c-1.108 0-2.01.88-2.01 1.962 0 1.082.902 1.962 2.01 1.962h2.51c.364 0 .66.29.66.645 0 .356-.296.644-.66.644h-3.606c-.373 0-.675.295-.675.659 0 .364.302.659.675.659h3.605c1.11 0 2.011-.88 2.011-1.962 0-1.082-.902-1.962-2.01-1.962M27.063 0c-.382 0-.691.296-.691.66v3.673c0 .485-.416.88-.926.88h-1.913c-.51 0-.925-.395-.925-.88V.659c0-.363-.31-.659-.691-.659-.383 0-.693.296-.693.66v3.673c0 1.211 1.036 2.198 2.31 2.198h1.912c1.273 0 2.31-.987 2.31-2.198V.659c0-.363-.31-.659-.693-.659M36.53 0c-.337 0-.612.295-.612.659v5.213c0 .364.275.659.613.659.338 0 .612-.295.612-.66V.66c0-.364-.274-.659-.612-.659M32.793 0H30.88c-1.272 0-2.309.986-2.309 2.198v3.674c0 .364.31.659.692.659.382 0 .692-.295.692-.66V2.199c0-.485.415-.88.925-.88h1.913c.51 0 .925.395.925.88v3.674c0 .364.31.659.692.659.382 0 .692-.295.692-.66V2.199C35.102.986 34.066 0 32.793 0M4.06 1.633c-.473 0-.9.23-1.202.598-.302-.368-.73-.598-1.203-.598C.742 1.633 0 2.485 0 3.534v2.48c0 .689.904.688.904 0v-2.48c0-1.141 1.502-1.141 1.502 0v2.48c0 .689.903.688.903 0v-2.48c0-1.14 1.502-1.141 1.502 0v2.48c0 .689.903.688.903 0v-2.48c0-1.049-.742-1.901-1.654-1.901M11.217 1.747c-.234-.175-.566-.127-.74.107L8.984 3.85 7.482 1.844c-.174-.233-.505-.28-.74-.106-.233.174-.28.505-.106.739L8.45 4.899v1.104c0 .291.237.528.529.528.292 0 .528-.237.528-.528V4.912l1.816-2.426c.174-.234.126-.564-.107-.739" transform="translate(-100 -50) translate(100 50) translate(24.49 27.755)"/>
                </g>
            </g>
        </g>
    </g>
</svg>
