<?xml version="1.0" encoding="UTF-8"?>
<svg width="54px" height="24px" viewBox="0 0 54 24" version="1.1" xmlns="http://www.w3.org/2000/svg" xmlns:xlink="http://www.w3.org/1999/xlink">
    <title>2B8C136A-5A6A-4B4B-8A2C-F28143D595B7</title>
    <defs>
        <rect id="path-1" x="200" y="137" width="1000" height="640" rx="8"></rect>
        <filter x="-1.8%" y="-2.8%" width="103.6%" height="105.6%" filterUnits="objectBoundingBox" id="filter-3">
            <feMorphology radius="1.5" operator="dilate" in="SourceAlpha" result="shadowSpreadOuter1"></feMorphology>
            <feOffset dx="0" dy="0" in="shadowSpreadOuter1" result="shadowOffsetOuter1"></feOffset>
            <feGaussianBlur stdDeviation="4.5" in="shadowOffsetOuter1" result="shadowBlurOuter1"></feGaussianBlur>
            <feColorMatrix values="0 0 0 0 0.126983635   0 0 0 0 0.135497306   0 0 0 0 0.169100996  0 0 0 0.2 0" type="matrix" in="shadowBlurOuter1"></feColorMatrix>
        </filter>
        <rect id="path-4" x="0" y="0" width="240" height="662"></rect>
        <filter x="-12.9%" y="-4.4%" width="125.8%" height="109.4%" filterUnits="objectBoundingBox" id="filter-5">
            <feOffset dx="0" dy="2" in="SourceAlpha" result="shadowOffsetOuter1"></feOffset>
            <feGaussianBlur stdDeviation="10" in="shadowOffsetOuter1" result="shadowBlurOuter1"></feGaussianBlur>
            <feColorMatrix values="0 0 0 0 0   0 0 0 0 0   0 0 0 0 0  0 0 0 0.2 0" type="matrix" in="shadowBlurOuter1"></feColorMatrix>
        </filter>
        <polygon id="path-6" points="0 0 15.4581596 0 15.4581596 7.0853648 0 7.0853648"></polygon>
    </defs>
    <g id="Tutorial_KOR" stroke="none" stroke-width="1" fill="none" fill-rule="evenodd">
        <g id="4rd_kor_Tutorial_P01_01_default" transform="translate(-230.000000, -157.000000)">
            <rect fill="#FFFFFF" x="0" y="0" width="1400" height="900"></rect>
            <rect id="dim" stroke="#979797" fill-opacity="0.6" fill="#000000" x="0" y="0" width="1400" height="900"></rect>
            <mask id="mask-2" fill="white">
                <use xlink:href="#path-1"></use>
            </mask>
            <g id="Mask">
                <use fill="black" fill-opacity="1" filter="url(#filter-3)" xlink:href="#path-1"></use>
                <use fill="#FFFFFF" fill-rule="evenodd" xlink:href="#path-1"></use>
            </g>
            <g id="LNB-/-set" mask="url(#mask-2)">
                <g transform="translate(200.000000, 137.000000)">
                    <g id="area">
                        <use fill="black" fill-opacity="1" filter="url(#filter-5)" xlink:href="#path-4"></use>
                        <use fill="#FFFFFF" fill-rule="evenodd" xlink:href="#path-4"></use>
                    </g>
                    <g id="btn-/-GNB-/-Logo" stroke-width="1" fill-rule="evenodd" transform="translate(30.000000, 20.000000)">
                        <g id="logo_gnb">
                            <path d="M51.7077552,8.50047435 C51.0325042,8.50047435 50.4849171,9.06498791 50.4849171,9.76177717 L50.4849171,17.718392 C50.4849171,18.4150783 51.0325042,18.9795918 51.7077552,18.9795918 C52.3833056,18.9795918 52.9306931,18.4150783 52.9306931,17.718392 L52.9306931,9.76177717 C52.9306931,9.06498791 52.3833056,8.50047435 51.7077552,8.50047435 M46.2766013,5.20408163 L42.7171852,5.20408163 C41.0702316,5.20408163 39.735201,6.5808812 39.735201,8.27936292 L39.735201,14.4218963 C39.735201,15.1183767 40.2825885,15.6830962 40.9581389,15.6830962 C41.6335895,15.6830962 42.180977,15.1183767 42.180977,14.4218963 L42.180977,8.42512353 C42.180977,7.74573084 42.7149893,7.19511395 43.3737707,7.19511395 L45.619916,7.19511395 C46.2785976,7.19511395 46.81251,7.74573084 46.81251,8.42512353 L46.81251,14.4218963 C46.81251,15.1183767 47.3599973,15.6830962 48.0355477,15.6830962 C48.7109983,15.6830962 49.2583858,15.1183767 49.2583858,14.4218963 L49.2583858,8.27936292 C49.2583858,6.5808812 47.9233552,5.20408163 46.2766013,5.20408163 M37.2857319,8.50047435 C36.6103811,8.50047435 36.0628938,9.06509085 36.0628938,9.76177717 L36.0628938,15.7585499 C36.0628938,16.4378397 35.5287817,16.9886625 34.8701999,16.9886625 L32.6240547,16.9886625 C31.9651734,16.9886625 31.4311612,16.4378397 31.4311612,15.7585499 L31.4311612,9.76177717 C31.4311612,9.06509085 30.8836739,8.50047435 30.2082233,8.50047435 C29.5329723,8.50047435 28.9853852,9.06509085 28.9853852,9.76177717 L28.9853852,15.9043106 C28.9853852,17.6026893 30.3204157,18.9795918 31.9673693,18.9795918 L35.5266856,18.9795918 C37.173739,18.9795918 38.5087696,17.6026893 38.5087696,15.9043106 L38.5087696,9.76177717 C38.5087696,9.06509085 37.9611825,8.50047435 37.2857319,8.50047435 M24.8912582,11.4077604 L21.0946808,11.4077604 L21.0946808,11.4074515 C20.4067532,11.4074515 19.9655693,10.9244651 19.9655693,10.3281436 C19.9655693,9.73233682 20.4067532,9.24914451 21.0946808,9.24914451 L26.3157233,9.24914451 C26.865706,9.24914451 27.3116811,8.78942212 27.3116811,8.22212923 C27.3116811,7.65493928 26.865706,7.19511395 26.3157233,7.19511395 L20.7436301,7.19511395 C18.9556374,7.19511395 17.6435644,8.59785397 17.6435644,10.3281436 C17.6435644,12.058948 18.9556374,13.4614821 20.7436301,13.4614821 L24.4452831,13.4614821 C25.1331108,13.460041 25.5751931,13.9425127 25.5764907,14.5388342 C25.5776885,15.1347439 25.1333104,15.6185539 24.4452831,15.6204068 L18.9373712,15.6204068 C18.3875881,15.6204068 17.9417129,16.0801291 17.9417129,16.6472162 C17.9417129,17.2143032 18.3875881,17.6741285 18.9373712,17.6741285 L24.9183081,17.6741285 L24.9183081,17.6737167 C26.6992139,17.6611583 28.0011058,16.2606829 27.9974205,14.5345108 C27.9943184,12.8043241 26.6789514,11.4038487 24.8912582,11.4077604" id="suni" fill="#E0002B"></path>
                            <g id="my" transform="translate(0.000000, 8.525406)">
                                <mask id="mask-7" fill="white">
                                    <use xlink:href="#path-6"></use>
                                </mask>
                                <g id="Clip-4"></g>
                                <path d="M12.9911852,6.64024745 C12.7026321,6.64024745 12.4679435,6.40833673 12.4679435,6.12339796 C12.4679435,5.83816071 12.7026321,5.60625 12.9911852,5.60625 C13.279537,5.60625 13.5141249,5.83816071 13.5141249,6.12339796 C13.5141249,6.40833673 13.279537,6.64024745 12.9911852,6.64024745 L12.9911852,6.64024745 Z M12.9911852,5.16123214 C12.4541501,5.16123214 12.0173938,5.59281888 12.0173938,6.12339796 C12.0173938,6.65397704 12.4541501,7.0853648 12.9911852,7.0853648 C13.5279183,7.0853648 13.9645739,6.65397704 13.9645739,6.12339796 C13.9645739,5.59281888 13.5279183,5.16123214 12.9911852,5.16123214 L12.9911852,5.16123214 Z M14.6907896,-3.19744231e-15 L11.2912788,-3.19744231e-15 C10.7014866,-3.19744231e-15 10.3328917,0.631063776 10.6276871,1.13577551 L12.54869,4.4236148 C12.745321,4.7599898 13.2368481,4.7599898 13.433479,4.4236148 L15.3543813,1.13577551 C15.6492774,0.631063776 15.2805818,-3.19744231e-15 14.6907896,-3.19744231e-15 L14.6907896,-3.19744231e-15 Z M8.54297602,0.379056122 C8.24797923,-0.125655612 7.51078931,-0.125655612 7.21589321,0.379056122 L5.17346837,3.87482908 L3.1306408,0.378558673 C2.8357447,-0.126053571 2.09855478,-0.126053571 1.80365867,0.378558673 L0.103752282,3.28803827 C-0.191143822,3.79275 0.177551819,4.4236148 0.767344027,4.4236148 L9.5790893,4.4236148 C10.1688815,4.4236148 10.5375772,3.79265051 10.2425804,3.28803827 L8.54297602,0.379056122 Z" id="Fill-3" fill="#60C0BD" mask="url(#mask-7)"></path>
                            </g>
                            <path d="M51.7958179,3.84705528 C51.0476959,3.84705528 50.4387104,4.45572557 50.4387104,5.20413186 C50.4387104,5.95243769 51.0476959,6.5613089 51.7958179,6.5613089 C52.5441408,6.5613089 53.1530259,5.95243769 53.1530259,5.20413186 C53.1530259,4.45572557 52.5441408,3.84705528 51.7958179,3.84705528 M51.7958179,7.40816327 C50.5804588,7.40816327 49.5918367,6.41936285 49.5918367,5.20413186 C49.5918367,3.98880042 50.5804588,3 51.7958179,3 C53.0112775,3 54,3.98880042 54,5.20413186 C54,6.41936285 53.0112775,7.40816327 51.7958179,7.40816327" id="Fill-6" fill="#60C0BD"></path>
                        </g>
                    </g>
                </g>
            </g>
        </g>
    </g>
</svg>