<svg width="48" height="48" viewBox="0 0 48 48" xmlns="http://www.w3.org/2000/svg" xmlns:xlink="http://www.w3.org/1999/xlink">
    <defs>
        <filter x="-1.8%" y="-2.3%" width="103.6%" height="104.6%" filterUnits="objectBoundingBox" id="a">
            <feMorphology radius="1.5" operator="dilate" in="SourceAlpha" result="shadowSpreadOuter1"/>
            <feOffset in="shadowSpreadOuter1" result="shadowOffsetOuter1"/>
            <feGaussianBlur stdDeviation="4.5" in="shadowOffsetOuter1" result="shadowBlurOuter1"/>
            <feColorMatrix values="0 0 0 0 0.126983635 0 0 0 0 0.135497306 0 0 0 0 0.169100996 0 0 0 0.2 0" in="shadowBlurOuter1"/>
        </filter>
        <circle id="e" cx="24" cy="24" r="24"/>
        <rect id="b" x="0" y="0" width="1000" height="790" rx="8"/>
        <path id="c" d="M0 0h940v471H0z"/>
    </defs>
    <g fill="none" fill-rule="evenodd">
        <path fill-opacity=".4" fill="#000" d="M-990-395H930V605H-990z"/>
        <g transform="translate(-530 -290)">
            <use fill="#000" filter="url(#a)" xlink:href="#b"/>
            <use fill="#FFF" xlink:href="#b"/>
        </g>
        <g transform="translate(-500 -188)">
            <mask id="d" fill="#fff">
                <use xlink:href="#c"/>
            </mask>
            <use fill="#FFF" xlink:href="#c"/>
            <g mask="url(#d)">
                <path fill="#FFF" d="M471 0h499v507H471z"/>
                <path fill="#FFF" d="M500 170h470v84H500z"/>
                <g transform="translate(500 188)">
                    <mask id="f" fill="#fff">
                        <use xlink:href="#e"/>
                    </mask>
                    <use fill="#D8D8D8" xlink:href="#e"/>
                    <g fill-rule="nonzero" mask="url(#f)">
                        <path fill="#C8B3F7" d="M48 48H0V0h48z"/>
                        <path d="m-1.91 114.073-.398-.109L6.267 75.41l.942-4.914c.507.722 1.183 1.672 1.983 2.777l-.428 18.58-.597 13.496.235.011L9 91.861l.422-18.276a253.653 253.653 0 0 0 3.593 4.83c.025.109.06.154.103.133 2.359 3.085 5.046 6.43 7.599 9.236 2.166 2.377 4.233 4.366 5.939 5.48.974.635 1.83.993 2.545.958.295-.015.565-.1.798-.266.457-.325 1.015-.911 1.66-1.719.644-.807 1.372-1.834 2.152-3.028 1.557-2.391 3.326-5.461 5.05-8.809 3.443-6.698 6.7-14.505 7.727-20.23l-.23-.041c-.888 4.967-3.49 11.562-6.429 17.608-2.938 6.047-6.217 11.555-8.448 14.351-.637.798-1.19 1.377-1.612 1.675-.194.137-.416.21-.673.224-.623.035-1.45-.295-2.405-.922-.955-.624-2.04-1.537-3.195-2.649-2.311-2.221-4.91-5.23-7.373-8.292-4.926-6.125-9.31-12.47-9.802-13.187l-.098.067c-.028-.044-.046-.069-.046-.069l.202-.182 4.905-4.451-.89-1.225-.647.571-.18-.266.039-1.71-.235-.007-.03 1.384-.619-.906.94-4.9c.253-3.56.996-10.75 2.97-13.353.849-1.123 2.23-1.988 3.531-2.612l-.284 2.378.104.181c-.504 4.55-1.512 13.83-2.245 21.652-.014.055-.028.11-.039.165l-.02.473c-.01.109-.019.218-.03.325l-2.175-2.326-.17.163 16.02 17.123.06-.19s5.106-15.845 6.6-20.938c.212-.729.353-1.234.395-1.458l-.23-.044c-.033.174-.143.587-.314 1.172-.17.587-.4 1.349-.67 2.234-.54 1.771-1.25 4.038-1.989 6.383-1.48 4.69-3.085 9.692-3.725 11.686l-.226.703-11.602-12.376c.235-.845.423-1.499.526-1.785l.005-.035a79.866 79.866 0 0 1 3.379-8.391c1.6-3.948 4.109-8.391 6.391-12.092a157.404 157.404 0 0 1 5.018-7.627l.244-.346c.555.332 1.515 1.978 1.97 2.8 6.991 3.416 12.387 10.13 13.527 13.198.732 1.971.165 9.474-.778 13.696L41.511 93.04l3.293 25.36-2.391-.124-32.903-1.71-1.812-.094.534-11.096-3.236 10.6-.185-.051-6.72-1.851zm14.093-31.692c-.515.027-.903.587-.868 1.253.035.666.48 1.183.994 1.156.515-.027.904-.588.869-1.254-.035-.665-.48-1.182-.995-1.155zm.285 11.534c-.034-.666-.48-1.183-.994-1.156-.515.027-.904.588-.869 1.254.035.663.48 1.182.995 1.155.515-.029.903-.59.868-1.253z" fill="#52C9C9"/>
                        <path fill="#F2F2F2" d="m19.01 40.31 1.324 3.318-.262.146-1.206-3.534.15-.048zM18.135 46.133l-.032 3.476c-.921 3.193-3.018 10.578-4.282 15.883.733-7.82 1.742-17.101 2.245-21.652l1.579 2.795.49-.502zM19.85 44.364l.298-.308.274.273-.258-.18zM22.139 46.039l1.959 1.954 1.928-1.714c-2.28 3.7-4.79 8.144-6.39 12.091a80.838 80.838 0 0 0-3.38 8.391c.126-.74 2.218-12.984 3.27-16.88l2.613-3.842z"/>
                        <path d="m20.334 43.628-1.324-3.32.006-.116.128-3.021.005.599c3.734-.286 6.048-1.98 7.35-3.38-1.67 1.164-3.704 1.87-5.957 1.51a6.973 6.973 0 0 1-1.412-.385c-4.562-1.766-6.54-7.993-6.192-10.208l.167-2.36.278-3.966c1.205-4.83 4.44-6.16 6.198-6.524 1.158 1.416 1.688 4.092 1.688 4.092.318-.652.326-1.883.265-2.876 1.752 2.895 5.652 5.422 5.652 5.422-1.277-.848-2.514-2.6-3.404-4.077 2.448 2.094 5.876 4.801 8.32 5.841l-.333 5.842.94-2.925a1.573 1.573 0 0 1 1.33.579c.468.57.569 1.46.188 2.266-.454.963-1.432 1.47-2.285 1.231a1.542 1.542 0 0 1-.653-.37l-.208.771a7.173 7.173 0 0 1-.395 1.1 11.512 11.512 0 0 1-.884 1.6l-.094 7.518-9.374 5.157zm-3.043-20.261a.7.7 0 0 0 .857-.5.706.706 0 0 0-.499-.861.699.699 0 0 0-.856.5c-.1.375.122.76.498.86zm-3.977 1.63c-.012.438-.01 1.008.047 1.529.198.381.532.692.967.846a1.755 1.755 0 0 0 2.241-1.075 1.767 1.767 0 0 0-1.07-2.251 1.746 1.746 0 0 0-2.185.952zm3.797-6.008c-1.369-.056-1.685.949-1.685.949 1.28-.964 2.962-.092 2.962-.092s-.265-.814-1.277-.857zm3.82 2.16a.118.118 0 0 0-.108-.126.118.118 0 0 0-.126.108l-.025.28c-.02.175-.046.425-.085.714-.077.58-.2 1.322-.378 1.971-.118.433-.262.823-.426 1.09a.935.935 0 0 1-.288.323l-.075.046.023.084c.003.007.067.251.225.53.158.28.41.6.799.73a.119.119 0 0 0 .073-.226c-.285-.09-.5-.332-.641-.572a2.403 2.403 0 0 1-.207-.45c.109-.085.206-.204.29-.342a3.31 3.31 0 0 0 .28-.607c.166-.457.295-1.002.394-1.526.197-1.05.275-2.024.274-2.026zm-2.71 6.958s.159 3.574 2.15 3.805c1.881.22 2.499-3.006 2.499-3.006-2.693.707-4.65-.8-4.65-.8zm5.695-4.495a.7.7 0 1 0 1.354.36.707.707 0 0 0-.498-.86.702.702 0 0 0-.856.5zm2.143-3.314c-.956-.332-1.5.329-1.5.329s1.883-.193 2.724 1.173c0 0 .072-1.053-1.224-1.502zm1.525 5.582a1.755 1.755 0 0 0-2.242 1.075 1.77 1.77 0 0 0 1.071 2.253 1.752 1.752 0 0 0 2.24-1.075 1.766 1.766 0 0 0-1.07-2.253z" fill="#FDD9CB"/>
                        <path d="M20.54 35.897c2.253.36 4.286-.345 5.957-1.508-1.302 1.4-3.617 3.095-7.35 3.378l-.006-.599-.014-1.657c.448.175.917.306 1.412.386z" fill="#F0B9A4"/>
                        <path d="m18.135 46.133 1.714-1.77.313-.211.258.177 1.716 1.71-2.613 3.843c-1.049 3.895-3.142 16.137-3.27 16.88l-.005.035c-.102.288-.293.94-.526 1.785l-1.974-2.112.015-.342.02-.473c.013-.055.027-.11.038-.165 1.264-5.308 3.36-12.69 4.282-15.883l.032-3.474z" fill="#F76D6D"/>
                        <path d="M33.49 23.919a1.579 1.579 0 0 0-.783-.148l-.94 2.925.332-5.842c-2.444-1.04-5.872-3.747-8.32-5.84.89 1.477 2.128 3.23 3.404 4.077 0 0-3.897-2.528-5.652-5.422.062.992.053 2.224-.264 2.875 0 0-.528-2.678-1.689-4.092-1.76.364-4.993 1.696-6.197 6.524l-.278 3.966-.324-5.364.03-.036c-.245-1.52-.33-3.71.558-5.597 1.755-3.732 4.815-4.406 6.419-4.488 1.263-.757 2.988-1.34 5.207-1.143 8.14.727 12.821 6.518 10.43 14.36l-.017-.01c-.03.113-.057.225-.09.338a22.17 22.17 0 0 1-1.28 3.35 1.596 1.596 0 0 0-.546-.433zM31.285 27.48c.116.11.25.205.399.277.082.038.168.07.254.093a16.746 16.746 0 0 1-1.255 1.5c.174-.391.307-.764.396-1.099l.206-.77z" fill="#333"/>
                        <path d="M17.65 22.006a.706.706 0 0 1 .498.86.699.699 0 0 1-.857.5.705.705 0 0 1 .358-1.36zM25.27 23.972a.7.7 0 1 1-1.354-.36.702.702 0 1 1 1.354.36zM20.262 24.702a3.642 3.642 0 0 1-.28.607 1.29 1.29 0 0 1-.29.343c.034.095.1.27.207.449.144.24.356.481.64.572a.119.119 0 0 1-.072.226c-.39-.128-.641-.45-.8-.73-.157-.279-.221-.526-.224-.53l-.023-.084.075-.046a.959.959 0 0 0 .288-.322c.164-.268.308-.658.426-1.091.178-.649.3-1.391.378-1.97.04-.29.066-.54.085-.715a6.58 6.58 0 0 0 .025-.28.118.118 0 0 1 .126-.108.118.118 0 0 1 .107.127c0 .002-.078.973-.274 2.024-.099.526-.228 1.07-.394 1.528zM15.426 19.938s.316-1.005 1.685-.95c1.012.044 1.277.858 1.277.858s-1.681-.872-2.962.092zM24.56 20.627s.543-.66 1.499-.329c1.296.451 1.224 1.505 1.224 1.505-.841-1.37-2.723-1.176-2.723-1.176z" fill="#000"/>
                        <path d="M20.37 31.91c-1.99-.23-2.15-3.806-2.15-3.806s1.957 1.506 4.65.8c0 .002-.618 3.226-2.5 3.006z" fill="#D05261"/>
                        <path d="M26.413 29.208a1.767 1.767 0 0 1-1.07-2.253 1.752 1.752 0 0 1 2.24-1.075 1.77 1.77 0 0 1 1.072 2.253 1.754 1.754 0 0 1-2.242 1.075zM16.567 26.297a1.754 1.754 0 0 1-2.242 1.075 1.751 1.751 0 0 1-.966-.846c-.058-.52-.06-1.091-.048-1.528a1.747 1.747 0 0 1 2.185-.952 1.765 1.765 0 0 1 1.071 2.25z" fill="#F0B9A4"/>
                        <path d="m26.024 46.279-1.929 1.714-1.959-1.954-1.716-1.71-.275-.273-.298.308-1.715 1.77-.49.504-1.578-2.795-.103-.181.284-2.379.03-.26 2.558-.86.028.08 1.204 3.534.265-.146 9.369-5.162 1.092-.602.248.784c-.683.975-2.735 3.93-5.015 7.628z" fill="#FFF"/>
                    </g>
                    <circle stroke="#EEE" cx="24" cy="24" r="23.5"/>
                </g>
            </g>
        </g>
    </g>
</svg>
