<?xml version="1.0" encoding="UTF-8"?>
<svg width="80px" height="80px" viewBox="0 0 80 80" version="1.1" xmlns="http://www.w3.org/2000/svg" xmlns:xlink="http://www.w3.org/1999/xlink">
    <title>B0F1DE47-1917-4295-96FD-6839E5C2FEC2</title>
    <defs>
        <circle id="path-1" cx="40" cy="40" r="40"></circle>
    </defs>
    <g id="Symbols_assets" stroke="none" stroke-width="1" fill="none" fill-rule="evenodd">
        <g id="profile_80px">
            <g id="ti203a6607-[Converted]">
                <mask id="mask-2" fill="white">
                    <use xlink:href="#path-1"></use>
                </mask>
                <use id="Mask" fill="#D8D8D8" xlink:href="#path-1"></use>
                <g mask="url(#mask-2)">
                    <g transform="translate(61.217765, 184.506641) rotate(-12.000000) translate(-61.217765, -184.506641) translate(4.484879, -8.695976)">
                        <polygon id="BG" fill="#FFD77D" fill-rule="nonzero" transform="translate(66.023400, 47.442372) rotate(12.000000) translate(-66.023400, -47.442372) " points="26.0234002 87.4423717 26.0234002 7.44237166 106.0234 7.44237166 106.0234 87.4423717"></polygon>
                        <g id="Group" stroke-width="1" fill="none" fill-rule="evenodd" transform="translate(-0.000000, 19.132507)">
                            <path d="M54.4096226,55.0697156 L54.4096226,55.0420121 C54.2859435,54.9819879 54.2080715,54.9404326 54.2080715,54.9404326 L54.4096226,55.0697156 Z" id="Path"></path>
                            <path d="M72.1048888,38.5307363 L73.1218055,35.9958676 C73.2271617,36.1020643 73.3416794,36.208261 73.4699391,36.2959887 C74.8853772,37.3025486 76.9787597,36.7623306 78.1514204,35.0908872 C79.3195003,33.4194437 79.12253,31.2493376 77.7070919,30.2427777 C77.5009602,30.0950258 77.2765056,29.9842118 77.0474703,29.9057186 C76.7497244,29.8687807 76.4382364,29.8179909 76.1084256,29.744115 C75.9435202,29.744115 75.7831955,29.7533495 75.6182901,29.7764357 L75.6732586,29.6379183 C75.6732586,29.6379183 75.6686779,29.6379183 75.6686779,29.6379183 C75.6686779,29.6379183 75.5358374,29.5178699 75.29306,29.296242 C74.3677574,30.529047 73.0256107,31.4524964 73.0256107,31.4524964 C73.5844568,29.8456944 73.2134196,28.044968 72.8607053,26.9322115 C68.6785209,22.7166648 61.0516459,14.2671026 58.715486,6.6486448 C58.527677,6.61632407 58.3444488,6.59323784 58.1566399,6.5701516 C57.4099848,6.81948295 56.0266117,7.33199738 55.5502183,7.50283552 C53.8232923,7.96456024 51.3588726,9.37743786 49.0822618,13.0712356 C49.0822618,13.0712356 48.3814139,14.2486336 47.6988887,16.2848396 L45.3031796,25.0991644 C45.3581481,24.9190917 45.4039551,24.7574881 45.4451815,24.6189707 C46.1643523,25.1684231 46.6499071,26.0087621 46.6911335,26.9876185 C46.7552633,28.5759515 45.6375711,29.9241876 44.1259382,30.2012225 C44.1900681,29.4809319 44.3961999,28.5066928 44.6298159,27.5509226 L44.4969754,28.0357336 C42.9486969,34.3013379 44.9458846,43.4527217 53.0537337,46.4954876 C53.5118043,46.6663258 53.9698748,46.8048432 54.4233647,46.9202744 L54.4462682,53.9523417 L54.4279454,53.9523417 L54.4279454,53.975428 L54.4050419,55.0373948 L54.4050419,55.0650983 L53.983617,74.6653124 L70.529126,56.3994827 L71.229974,56.2009411 L71.1154564,44.6578233 L71.0696493,40.2668212 C71.4773321,39.6896653 71.8254658,39.1078922 72.1048888,38.5307363 Z M63.8138115,37.030131 C62.0914661,37.0993897 60.6348017,35.7511535 60.5615104,34.0150686 C60.4882191,32.2789837 61.8303659,30.8106991 63.5527112,30.7368231 C65.2750566,30.6629472 66.731721,32.0158006 66.8050123,33.7518855 C66.8783036,35.4925877 65.5407375,36.9608723 63.8138115,37.030131 Z M66.6263648,24.2172702 C65.2155074,21.9363501 62.2930172,21.5254151 62.2930172,21.5254151 C66.3515224,20.2141169 66.6263648,24.2172702 66.6263648,24.2172702 Z M61.2623584,26.027231 C61.9494642,26.0549345 62.4854068,26.6367077 62.4579226,27.3292947 C62.4304383,28.0218818 61.8486887,28.5620997 61.1615828,28.5343962 C60.474477,28.5066928 59.9385344,27.9249196 59.9660186,27.2277153 C59.9935029,26.5397455 60.5752525,25.9995276 61.2623584,26.027231 Z M54.5149788,19.0090154 C52.4078542,17.3745099 49.5220096,18.0163073 49.5220096,18.0163073 C52.8705055,15.3567729 54.5149788,19.0090154 54.5149788,19.0090154 Z M49.8243362,23.7647799 C49.8518204,23.0721929 50.43357,22.531975 51.1206759,22.5596784 C51.8077817,22.5873819 52.3437243,23.1737723 52.3162401,23.8663594 C52.2887558,24.5589465 51.7070062,25.0991644 51.0199004,25.0714609 C50.3327945,25.0391402 49.7968519,24.457367 49.8243362,23.7647799 Z M51.2306128,29.762584 C51.2397742,29.7302633 51.2718392,29.7025598 51.2947427,29.6748563 L51.2855813,29.670239 L52.8979897,27.4770466 L52.9025704,27.4724294 C52.9300546,27.4401087 52.9850231,27.352381 53.049153,27.2369498 C53.1132829,27.1215186 53.1911549,26.9691495 53.2736076,26.7983113 C53.438513,26.4520178 53.6354833,26.0087621 53.8324537,25.5331856 C54.2309751,24.5820327 54.6432386,23.4969796 54.8997581,22.7443683 C54.9409845,22.6243199 55.0692442,22.5596784 55.1883426,22.6012337 C55.3074409,22.6427889 55.3715708,22.7720718 55.3303444,22.8921202 C55.1013092,23.5616211 54.7577562,24.4804533 54.4050419,25.3438785 C54.0523276,26.2073037 53.6996132,27.0107047 53.4476744,27.4585777 C53.3789638,27.5832433 53.3194146,27.6802055 53.2552848,27.7540815 L53.2552848,27.7540815 L51.6611992,29.9195704 C51.6703606,29.9611256 51.6978448,30.0442361 51.7482326,30.1319638 C51.8169432,30.2566294 51.9177187,30.4043813 52.036817,30.5428987 C52.2795944,30.8245508 52.6048245,31.0784994 52.8659248,31.1339064 C52.9896038,31.1616099 53.0674758,31.2862755 53.0399916,31.4109412 C53.0125074,31.5356069 52.8888283,31.6141001 52.7651492,31.5863966 C52.4444998,31.5125206 52.1650768,31.313979 51.9177187,31.0831167 C51.6749413,30.8522543 51.4733902,30.5890712 51.3451305,30.3535916 C51.2626778,30.191988 51.1985479,30.0580878 51.1939672,29.8964841 C51.2077093,29.8549289 51.21229,29.8087565 51.2306128,29.762584 Z M52.2200453,36.2913714 C51.5924886,35.8065605 51.2489356,35.3217495 51.2397742,35.312515 C51.1710637,35.2201701 51.1939672,35.0908872 51.2855813,35.0216285 C51.3771954,34.956987 51.5054552,34.975456 51.5741658,35.0678009 L51.5879079,35.0862699 L51.6291342,35.1416769 C51.6657799,35.1878494 51.725329,35.2617253 51.803201,35.3448358 C51.9543643,35.5110567 52.1833996,35.7373018 52.4719841,35.9635469 C53.0537337,36.4160371 53.8874221,36.8592928 54.9089195,36.8546756 C55.6006061,36.8546756 56.3839068,36.656134 57.2634023,36.1020643 C57.3595971,36.0420401 57.4878568,36.0697436 57.547406,36.1667058 C57.6069552,36.263668 57.579471,36.3929509 57.4832761,36.4529751 C56.5533929,37.0393655 55.6830588,37.2656106 54.9135002,37.2656106 C53.7637431,37.2702278 52.8476019,36.7761824 52.2200453,36.2913714 Z M68.0188993,43.5543012 C62.902251,50.8818724 54.4783332,51.6898906 54.4783332,51.6898906 L54.4783332,48.2315725 L56.1731943,47.2711851 C60.7493193,47.86681 64.9589879,46.0937871 68.0188993,43.5543012 Z" id="Shape" fill="#FFEFE8" fill-rule="nonzero"></path>
                            <path d="M54.5149788,19.0090154 C54.5149788,19.0090154 52.8705055,15.3567729 49.5220096,18.0163073 C49.5220096,18.0163073 52.4078542,17.3698927 54.5149788,19.0090154 Z" id="Path" fill="#000000" fill-rule="nonzero"></path>
                            <path d="M51.9268801,31.0877339 C52.1696575,31.313979 52.4536613,31.5125206 52.7743107,31.5910138 C52.8979897,31.6187173 53.0216688,31.5402241 53.049153,31.4155585 C53.0766372,31.2908928 52.9987652,31.1662271 52.8750862,31.1385236 C52.613986,31.0831167 52.2841751,30.8291681 52.0459784,30.547516 C51.9268801,30.4089986 51.8215239,30.2612467 51.757394,30.136581 C51.7070062,30.0488533 51.679522,29.9657429 51.6703606,29.9241876 L53.2644462,27.7586987 L53.2644462,27.7586987 C53.328576,27.6802055 53.3881252,27.5878606 53.4568358,27.4631949 C53.7041939,27.0107047 54.061489,26.2119209 54.4142033,25.3484957 C54.7669176,24.4850705 55.1150513,23.5662383 55.3395059,22.8967375 C55.3807322,22.7766891 55.3166023,22.6427889 55.197504,22.6058509 C55.0784056,22.5642957 54.9455652,22.6289372 54.9089195,22.7489856 C54.6569807,23.4969796 54.2401365,24.5866499 53.8416151,25.5378028 C53.6446447,26.0133793 53.4476744,26.456635 53.282769,26.8029286 C53.2003163,26.978384 53.1224443,27.1261359 53.0583144,27.241567 C52.9941845,27.3569982 52.9392161,27.4447259 52.9117318,27.4770466 L52.9071511,27.4816639 L51.2947427,29.6748563 L51.3039041,29.6794735 C51.2810006,29.707177 51.2535164,29.7394977 51.2397742,29.7672012 C51.2214514,29.8179909 51.2168707,29.8595462 51.2168707,29.9011014 C51.2214514,30.062705 51.2810006,30.2012225 51.368034,30.3582089 C51.4871323,30.5936885 51.6841027,30.8568716 51.9268801,31.0877339 Z" id="Path" fill="#000000" fill-rule="nonzero"></path>
                            <path d="M57.4832761,36.4575923 C57.579471,36.3975681 57.6069552,36.2682852 57.547406,36.171323 C57.4878568,36.0743608 57.3595971,36.0466573 57.2634023,36.1066816 C56.3884875,36.656134 55.6006061,36.8546756 54.9089195,36.8592928 C53.8828414,36.8592928 53.0537337,36.4160371 52.4719841,35.9681641 C52.1833996,35.741919 51.9543643,35.5156739 51.803201,35.349453 C51.725329,35.2663426 51.6703606,35.1970839 51.6291342,35.1462941 L51.5879079,35.0908872 L51.5741658,35.0724182 C51.5100359,34.9800732 51.3771954,34.956987 51.2855813,35.0262457 C51.1939672,35.0908872 51.1710637,35.2247873 51.2397742,35.3171323 C51.2489356,35.3263668 51.5924886,35.8111777 52.2200453,36.2959887 C52.8476019,36.7807996 53.7637431,37.2748451 54.9089195,37.2748451 C55.6830588,37.2702278 56.5533929,37.0439827 57.4832761,36.4575923 Z" id="Path" fill="#000000" fill-rule="nonzero"></path>
                            <path d="M52.3162401,23.8617421 C52.3437243,23.1691551 51.8077817,22.5827647 51.1206759,22.5550612 C50.43357,22.5273577 49.8518204,23.0675756 49.8243362,23.7601627 C49.7968519,24.4527498 50.3327945,25.0391402 51.0199004,25.0622264 C51.7070062,25.0945471 52.2841751,24.5543292 52.3162401,23.8617421 Z" id="Path" fill="#000000" fill-rule="nonzero"></path>
                            <path d="M61.1661635,28.5390135 C61.8532694,28.566717 62.435019,28.0264991 62.4625033,27.333912 C62.4899875,26.6413249 61.9540449,26.0549345 61.2669391,26.0318483 C60.5798332,26.0041448 59.9980836,26.5443627 59.9705993,27.2369498 C59.9385344,27.9295369 60.474477,28.51131 61.1661635,28.5390135 Z" id="Path" fill="#000000" fill-rule="nonzero"></path>
                            <path d="M66.6263648,24.2172702 C66.6263648,24.2172702 66.3515224,20.2141169 62.2930172,21.5254151 C62.2930172,21.5254151 65.2155074,21.9409673 66.6263648,24.2172702 Z" id="Path" fill="#000000" fill-rule="nonzero"></path>
                            <path d="M63.5572919,30.7368231 C61.8303659,30.8106991 60.4927998,32.2743664 60.5660911,34.0150686 C60.6393824,35.7511535 62.0914661,37.1040069 63.8183922,37.030131 C65.5453182,36.956255 66.8828843,35.4879704 66.809593,33.7518855 C66.7363017,32.0158006 65.2796373,30.6629472 63.5572919,30.7368231 Z" id="Path" fill="#FFC4AA" fill-rule="nonzero"></path>
                            <path d="M46.6957142,26.9876185 C46.6544878,26.0087621 46.168933,25.1638058 45.4497622,24.6189707 C45.4085358,24.7574881 45.3581481,24.9190917 45.3077603,25.0991644 C45.1199514,25.745579 44.8634319,26.6413249 44.6389773,27.5555398 C44.4053613,28.51131 44.1992295,29.4855492 44.1350997,30.2058397 C45.6421518,29.9288049 46.759844,28.5759515 46.6957142,26.9876185 Z" id="Path" fill="#FFC4AA" fill-rule="nonzero"></path>
                            <path d="M53.9881977,74.6745469 L54.4096226,55.0743328 L54.2080715,54.9450499 C54.2080715,54.9450499 54.2859435,54.9819879 54.4096226,55.0466293 L54.4325261,53.9846625 C54.4233647,53.975428 54.4142033,53.9708107 54.4050419,53.9615762 C52.4170156,54.3032525 45.1153707,53.8276761 41.6248729,60.365698 C40.6629247,62.1710417 38.9268372,68.0857352 37.4884957,73.3447797 L33.2834078,87.0164485 L39.8475591,93.6237292 L40.2002734,93.2312632 L66.6034612,112.711429 C66.6355262,112.619084 66.6721718,112.50827 66.7179789,112.37437 C66.8554001,111.963435 67.0569511,111.363193 67.3043092,110.619816 C67.8036061,109.128445 68.4998734,107.041449 69.2831741,104.677419 C70.8497754,99.9447405 72.7736718,94.0808366 74.1891099,89.5651689 C75.1327353,86.5547238 75.8564868,84.1399035 76.0992642,83.0733195 C76.3145574,82.1360183 76.9925018,80.7369924 77.9910957,79.1671284 C78.9896895,77.5972643 80.3089328,75.8657967 81.7930814,74.3144016 L82.1228922,74.6329917 C80.6570664,76.1613005 79.356146,77.8696819 78.3758749,79.4164597 C77.3956039,80.9586203 76.7314016,82.3437944 76.5435927,83.1748989 C76.2962346,84.278421 75.572483,86.688624 74.624277,89.7083036 C73.6760709,92.723366 72.5079909,96.3340532 71.3673952,99.8062231 C69.0907844,106.75518 66.933272,113.163919 66.933272,113.163919 L66.8324965,113.46404 L40.2598226,93.8592088 L34.4285842,100.337207 C34.5889089,100.508045 34.8729127,100.812783 35.2714341,101.232952 C35.9081522,101.907071 36.8334547,102.876692 37.9786312,104.063325 C40.268984,106.431973 43.4479938,109.650194 46.9797179,113.057722 C54.0431661,119.872779 62.5586981,127.449682 68.257096,130.45551 C69.8832465,131.314318 71.2757811,131.794511 72.3018592,131.789894 C73.0164493,131.785277 73.534069,131.572883 73.9005255,131.115776 C73.9554939,131.051134 74.0562695,130.889531 74.1936906,130.663286 C74.3265311,130.437041 74.4960172,130.13692 74.6975683,129.776774 C75.0960897,129.051866 75.6137094,128.068393 76.2229433,126.877143 L76.6306261,127.089536 C75.7144849,128.881028 75.0044755,130.201561 74.5876313,130.898765 C74.4456294,131.134245 74.3448539,131.295849 74.2624012,131.402045 C73.7997499,131.988436 73.1080634,132.251619 72.3064399,132.247001 C71.1475213,132.242384 69.7091797,131.734487 68.0463835,130.85721 C66.3881681,129.98455 64.5146594,128.737894 62.512891,127.25114 C58.5093542,124.273016 54.0065205,120.3068 49.7739484,116.345202 C43.6449641,110.605964 38.0977295,104.871343 35.5004694,102.14255 L35.7936345,121.571926 L35.6562134,121.571926 L35.7615696,128.580907 L34.4056807,142.432649 C34.9553654,142.612721 37.6671432,143.443826 42.7105002,144.321103 C42.8570828,144.348806 43.008246,144.371892 43.16399,144.399596 C46.0773189,144.893641 49.7235606,145.396921 54.1439417,145.794005 C54.295105,145.807856 54.4462682,145.821708 54.6020122,145.83556 C55.7242851,145.932522 56.8923651,146.029484 58.1154135,146.112595 C62.6594736,146.426567 66.3240382,146.408098 69.2556899,146.228026 C69.4114338,146.218791 69.5625971,146.20494 69.7137604,146.195705 C76.039715,145.752449 78.7514928,144.519644 79.3149196,144.233375 L76.8138543,126.258432 C83.2909722,113.491744 98.5034959,80.543068 95.3199054,73.9865771 C94.687768,72.6845134 93.9777586,71.7333605 93.2082001,71.0730941 L93.2127808,71.0592424 L93.038714,70.939194 C92.8600665,70.7960593 92.6814189,70.6713936 92.4981907,70.5559625 L71.9216606,56.0347202 L71.2437161,56.2240273 L70.5428682,56.422569 L53.9881977,74.6745469 Z M50.3465366,96.3063498 C49.6044623,96.3063498 49.0043898,95.7014904 49.0043898,94.9534963 C49.0043898,94.2055023 49.6044623,93.6006429 50.3465366,93.6006429 C51.0886109,93.6006429 51.6886834,94.2055023 51.6886834,94.9534963 C51.6886834,95.7014904 51.0886109,96.3063498 50.3465366,96.3063498 Z M52.3437243,84.3199762 C51.60165,84.3199762 51.0015775,83.7151168 51.0015775,82.9671228 C51.0015775,82.2191287 51.60165,81.6142694 52.3437243,81.6142694 C53.0857986,81.6142694 53.6858711,82.2191287 53.6858711,82.9671228 C53.6858711,83.7151168 53.0857986,84.3199762 52.3437243,84.3199762 Z" id="Shape" fill="#A6D6F5" fill-rule="nonzero"></path>
                            <path d="M68.0188993,43.5543012 C64.9544072,46.0937871 60.7447386,47.86681 56.1731943,47.2711851 L54.4233647,46.9202744 L54.4783332,51.6898906 C54.4783332,51.6898906 62.902251,50.8818724 68.0188993,43.5543012 Z" id="Path" fill="#FFC4AA" fill-rule="nonzero"></path>
                            <path d="M103.858341,67.9426006 C103.643048,66.9129545 104.357638,65.9202463 104.50422,64.9690934 C104.69661,63.7409057 104.540866,62.4526937 104.220217,61.2983819 C103.620144,59.169831 102.323804,58.5742061 100.661008,57.3829564 C98.9661472,56.1732376 98.8882752,55.489885 98.8882752,53.4813825 C98.8882752,51.6668044 99.4379599,50.1061749 99.4242178,48.2638933 C99.4058949,45.6505314 98.4943345,44.2007158 96.478824,42.6123828 C94.609896,41.1348637 92.7959366,40.4976836 90.6155206,39.7081343 C88.6778821,39.0063128 88.151101,38.1752083 87.5876742,36.2682852 C87.3403161,35.4279462 86.8318577,34.6984212 86.1676554,34.1074135 C88.4671697,29.4532284 89.2000826,23.653966 88.1740045,17.4760893 C85.5446794,1.63893166 66.1133257,-1.43615494 60.1492469,0.526175097 C58.2116083,1.1633552 56.92443,1.85132503 56.0769995,2.51159137 C44.5794281,5.18036021 45.5322149,16.6588366 47.6347588,16.4833812 C47.6576624,16.4141225 47.6805659,16.349481 47.6988887,16.2848396 C48.3814139,14.2440163 49.0822618,13.0712356 49.0822618,13.0712356 C51.3588726,9.37743786 53.8232923,7.95994299 55.5502183,7.50283552 C56.0266117,7.33661463 57.4145656,6.81948295 58.1566399,6.5701516 C58.3398681,6.59323784 58.527677,6.62094132 58.715486,6.6486448 C61.0470652,14.2624853 68.6739402,22.7120476 72.8607053,26.9322115 C73.2134196,28.044968 73.5844568,29.8410772 73.0256107,31.4524964 C73.0256107,31.4524964 74.3716671,30.7917143 75.2969697,29.5589093 C75.5351664,29.7805372 75.6686779,29.6379183 75.6686779,29.6379183 L75.6182901,29.7764357 C75.7831955,29.7533495 75.9481009,29.744115 76.1084256,29.744115 C76.4382364,29.8179909 76.7497244,29.8687807 77.0474703,29.9057186 C77.2765056,29.9888291 77.5009602,30.099643 77.7070919,30.2427777 C79.12253,31.2493376 79.3195003,33.4194437 78.1514204,35.0908872 C76.9833404,36.7623306 74.8853772,37.3025486 73.4699391,36.2959887 C73.3416794,36.2036437 73.2271617,36.1020643 73.1218055,35.9958676 L72.1048888,38.5307363 C71.8254658,39.1078922 71.4773321,39.6896653 71.07423,40.262204 L71.1200371,44.653206 C75.0960897,44.1453088 78.4537469,42.6862587 81.1242984,40.5115353 C85.8973937,41.3287881 85.9202973,47.2758024 85.5859058,51.0065381 C85.3477091,53.6706897 85.3889354,56.5795554 86.4333363,59.0036101 C87.0517316,60.4349567 87.6976111,61.6631445 89.2458896,62.2218314 C90.6109399,62.7158768 92.0676044,62.5127179 92.850905,64.0179405 C93.4601389,65.1907213 93.318137,66.9360407 93.8128532,68.2150182 C94.4678942,69.9187824 95.8833322,70.5051727 97.4178686,71.0869459 C100.106743,72.1073575 104.811128,71.7010397 106.909091,69.313923 C105.658558,69.2816022 104.146925,69.3277747 103.858341,67.9426006 Z" id="Path" fill="#333333" fill-rule="nonzero"></path>
                        </g>
                    </g>
                </g>
            </g>
            <circle id="border" stroke="#EEEEEE" cx="40" cy="40" r="39.5"></circle>
        </g>
    </g>
</svg>