<svg width="36" height="36" viewBox="0 0 36 36" xmlns="http://www.w3.org/2000/svg" xmlns:xlink="http://www.w3.org/1999/xlink">
    <defs>
        <circle id="ua3l8bya5a" cx="18" cy="18" r="18"/>
    </defs>
    <g fill="none" fill-rule="evenodd">
        <mask id="r51wkzrjeb" fill="#fff">
            <use xlink:href="#ua3l8bya5a"/>
        </mask>
        <use fill="#D8D8D8" xlink:href="#ua3l8bya5a"/>
        <g fill-rule="nonzero" mask="url(#r51wkzrjeb)">
            <path fill="#B4E6F7" d="M36 36H0V0h36z"/>
            <path d="m18.115 32.751-.33 3.4a7.038 7.038 0 0 0 2.663-1.017c-.668-.758-1.558-1.717-2.333-2.383zM16.279 33.039c-.85.742-1.45 1.742-1.822 2.51a4.18 4.18 0 0 0 2.06.675l-.215-3.174c-.008-.003-.015-.006-.023-.011zM10.674 31.561l-.148.368c.3-.185.56-.335.765-.453l-.617.085z" fill="#F2F2F2"/>
            <path d="m18.123 32.658-.008.093c.775.666 1.665 1.625 2.333 2.383 1.569-.993 2.658-2.474 3.354-3.7l.539-2.252-2.89-.973.03.204s-1.136 2.894-3.358 4.245zM14.457 35.55c.372-.769.969-1.77 1.822-2.511-1.042-.61-1.883-2.836-1.883-2.836l-.068-.424-2.51 1.504c.107.489.737 3.025 2.639 4.267z" fill="#FFF"/>
            <path d="m17.653 57.147 6.152-25.711c-.696 1.226-1.786 2.708-3.355 3.7a7.038 7.038 0 0 1-3.2 1.085c-.256.02-.498.021-.729.006a4.207 4.207 0 0 1-2.06-.674c-1.901-1.242-2.533-3.779-2.638-4.267-.012-.053-.018-.087-.018-.087l-.01.005 5.858 25.943z" fill="#AAD898"/>
            <path d="M16.279 33.039c.008.005.015.008.023.011l.214 3.174a5.357 5.357 0 0 0 1.267-.073l.33-3.4.008-.093c2.221-1.35 3.357-4.245 3.357-4.245l-.029-.205-.15-1.078c3.234-1.355 4.683-5.455 4.62-7.472l-.065-3.564-.032-1.69c-.417-.489-1.721-1.884-3.698-2.777-1.08-.488-1.94-1.498-2.399-2.124-.032.02-.066.042-.098.065-.24 1.344-1.697 1.751-2.797 2.406-.773.46-.664 1.207-1.328 1.767-.453.383-.953.462-1.531.494-.889.05-1.266.118-1.669 1-.245.541-.534 1.073-1.182 1.178l.353 3.502-.719-1.829a1.05 1.05 0 0 0-.129.04c-.716.264-1.05 1.16-.74 2 .308.839 1.14 1.303 1.857 1.039.055-.02.105-.046.156-.073l.077.32c.09.702.618 1.817 1.467 2.91l.205 1.266-.198-1.258c1.17 1.498 2.946 2.941 5.035 3.199-1.13.122-2.647.067-4.595-.44l.434 2.692.068.425c.005-.003.846 2.223 1.888 2.833zm.678-10.025a.116.116 0 0 1-.039-.16.116.116 0 0 1 .16-.039c.596.363 1.156.505 1.66.522 1.251.047 2.159-.693 2.258-.78l.008-.008a.118.118 0 0 1 .166.008.119.119 0 0 1-.008.166c-.01.008-.994.899-2.433.851a3.689 3.689 0 0 1-1.772-.56zm4.798-4.392a.538.538 0 0 1-.168-1.061.536.536 0 0 1 .614.446.535.535 0 0 1-.446.615zm2.939 1.642c.175.72-.267 1.45-.988 1.626a1.346 1.346 0 0 1-.637-2.615 1.345 1.345 0 0 1 1.625.99zm-2.467-4.948c1.046.062 1.21.85 1.21.85-.901-.83-2.246-.298-2.246-.298s.263-.598 1.036-.552zm-2.704 4.59a2.687 2.687 0 0 1-.17-.49 7.816 7.816 0 0 1-.185-1.195c-.07-.815-.054-1.56-.054-1.563a.132.132 0 0 1 .132-.128.132.132 0 0 1 .128.132s-.003.078-.003.214c0 .135.002.326.01.548a12.4 12.4 0 0 0 .137 1.518c.056.336.136.64.238.85.058.12.123.208.184.252l.076.06-.035.09c-.003.005-.071.19-.217.396-.144.203-.366.435-.688.508a.13.13 0 0 1-.155-.1.13.13 0 0 1 .099-.155c.21-.045.384-.203.507-.37.084-.115.143-.228.177-.3a1.294 1.294 0 0 1-.18-.266zm-3.274-.992a.536.536 0 1 1-.17-1.058.536.536 0 0 1 .17 1.058zm-.675-3.16c.753-.18 1.116.364 1.116.364s-1.417-.292-2.164.68c0 .003.028-.802 1.048-1.045zm-2.828 5.612a1.346 1.346 0 0 1 .986-1.628 1.346 1.346 0 0 1 .637 2.615 1.344 1.344 0 0 1-1.623-.987z" fill="#F0C4B3"/>
            <path d="M52.287 84.43c-.966-5.318-4.048-22.288-4.137-22.59-1.445-5.013-6.1-18.669-6.352-19.488-.68-2.215-1.919-4.551-3.416-6.292 0-.006.003-.01.003-.01l-.068-.068c-.813-.93-1.697-1.683-2.61-2.145-3.602-2.502-8.38-4.433-10.854-4.561l-6.67 27.876 1.373-.069.092 6.695-3.927.196-.09-6.695 1.5-.075-5.814-25.743-.026.015c-.205.118-.465.268-.765.453-2.06 1.257-6.063 4.017-7.82 7.419a2.384 2.384 0 0 0-.228.732l-.015-.019-.01.19c-.004.042-.002.084-.007.125C2.334 42.79 1.574 58.35.842 59.124c-.634.67-7.369-6.749-10.042-9.747l-3.216 3.838C-9.682 56.948-1.28 67.949 2.91 68.18c1.362.076 3.59-4.787 5.41-9.46l1.909 13.773-.206 10.364 1.31-.043 11.37-.377 1.172-.04 14.37-.475.521-.018.646-.022-1.865-17.331-.583-10.046 4.46 9.77 6.882 22.173 3.982-2.019z" fill="#94CC7E"/>
            <path d="M18.49 27.527c-2.09-.258-3.868-1.702-5.036-3.2l.198 1.259.237 1.498c.002 0 .005 0 .007.003 1.946.506 3.463.56 4.594.44z" fill="#E5A38F"/>
            <path d="M11.122 16.413c.649-.105.938-.64 1.183-1.178.403-.882.78-.95 1.668-1 .579-.032 1.078-.11 1.531-.493.665-.564.556-1.31 1.329-1.768 1.099-.652 2.557-1.062 2.796-2.406.035-.023.067-.042.099-.065.459.626 1.318 1.636 2.399 2.125 1.974.892 3.278 2.287 3.698 2.776l.032 1.69.367-.396c.304-1.04.444-1.918.478-2.66.078-.224.148-.456.272-.655.345-.561.866-.66.734-1.41-.12-.677-.645-.682-1.094-1.154-.507-.536-.31-1.014-.65-1.568-.44-.718-.94-.402-1.593-.566-.487-.121-.898-.433-1.343-.644-.698-.331-1.855-.205-2.623.12-.378-.498-1-.997-1.425-1.28-.409-.272-1.036-.406-1.521-.517-1.46-.33-3.143.477-4.157 1.505-.407.413-.774.853-1.288 1.216-.459.323-.904.482-1.41.602-.805.19-1.44.468-1.56 1.311-.068.48-.179.89-.43 1.293-.394.633-.958.928-.798 1.856.089.509.402.794.627 1.125.232.339.19.413.176.842-.027.76.1.853.731 1.243.336.207.69.563 1.044.805l.363.922.719 1.828-.354-3.499z" fill="#333"/>
            <path d="M22.2 18.007a.54.54 0 0 0-.613-.447.54.54 0 0 0-.446.616.536.536 0 1 0 1.06-.17zM16.081 17.853a.537.537 0 1 0 .169 1.06.537.537 0 0 0-.169-1.06zM19.025 20.843a.13.13 0 0 0-.1.155.13.13 0 0 0 .156.1c.322-.072.544-.304.689-.508.145-.206.214-.388.216-.396l.035-.09-.076-.06a.712.712 0 0 1-.184-.252c-.102-.209-.182-.514-.238-.85a11.91 11.91 0 0 1-.137-1.518 16.72 16.72 0 0 1-.01-.548c0-.135.003-.213.003-.213a.127.127 0 0 0-.128-.133.127.127 0 0 0-.132.129c0 .002-.016.747.055 1.562.035.408.09.832.184 1.195.046.182.102.348.17.49.051.107.113.192.186.268a1.786 1.786 0 0 1-.177.299c-.128.167-.303.325-.512.37zM23.438 16.166s-.165-.788-1.211-.85c-.773-.046-1.036.552-1.036.552s1.345-.534 2.247.298zM16.69 16.12s-.363-.544-1.116-.364c-1.02.243-1.045 1.047-1.045 1.047.744-.974 2.161-.683 2.161-.683zM21.16 22.718a.119.119 0 0 0 .008-.166.118.118 0 0 0-.166-.009l-.008.008c-.1.088-1.01.827-2.259.78-.501-.017-1.063-.159-1.66-.52a.117.117 0 0 0-.16.038.118.118 0 0 0 .04.16c.628.382 1.232.536 1.772.555 1.439.052 2.422-.836 2.433-.846z" fill="#000"/>
            <path d="M14.369 22.353a1.346 1.346 0 0 0-.637-2.615 1.344 1.344 0 0 0-.986 1.628c.175.72.904 1.163 1.623.987zM22.084 20.903a1.342 1.342 0 1 0 2.61-.636 1.345 1.345 0 0 0-1.625-.99 1.346 1.346 0 0 0-.985 1.626z" fill="#E6A99C"/>
            <path fill="#3D618D" d="m17.133 57.207 1.053-.055 6.667-27.876.009-.039-.506-.122-.015.067-.539 2.251-6.149 25.714L11.792 31.2l-.506.116.031.144z"/>
        </g>
        <circle stroke="#EEE" mask="url(#r51wkzrjeb)" cx="18" cy="18" r="17.5"/>
    </g>
</svg>
