<?xml version="1.0" encoding="UTF-8"?>
<svg width="36px" height="36px" viewBox="0 0 36 36" version="1.1" xmlns="http://www.w3.org/2000/svg" xmlns:xlink="http://www.w3.org/1999/xlink">
    <title>3D20A67B-81F0-4DAF-B52C-324F4D11F7C9</title>
    <defs>
        <circle id="path-1" cx="18" cy="18" r="18"></circle>
    </defs>
    <g id="Symbols_assets" stroke="none" stroke-width="1" fill="none" fill-rule="evenodd">
        <g id="profile_38px">
            <g id="ti203a6607-[Converted]">
                <mask id="mask-2" fill="white">
                    <use xlink:href="#path-1"></use>
                </mask>
                <use id="Mask" fill="#D8D8D8" xlink:href="#path-1"></use>
                <g mask="url(#mask-2)">
                    <g transform="translate(27.547994, 83.027989) rotate(-12.000000) translate(-27.547994, -83.027989) translate(2.018196, -3.913189)">
                        <polygon id="BG" fill="#FFD77D" fill-rule="nonzero" transform="translate(29.710530, 21.349067) rotate(12.000000) translate(-29.710530, -21.349067) " points="11.7105301 39.3490672 11.7105301 3.34906725 47.7105301 3.34906725 47.7105301 39.3490672"></polygon>
                        <g id="Group" stroke-width="1" fill="none" fill-rule="evenodd" transform="translate(-0.000000, 8.609628)">
                            <path d="M24.4843302,24.781372 L24.4843302,24.7689054 C24.4286746,24.7418945 24.3936322,24.7231947 24.3936322,24.7231947 L24.4843302,24.781372 Z" id="Path"></path>
                            <path d="M32.4472,17.3388313 L32.9048125,16.1981404 C32.9522228,16.2459289 33.0037557,16.2937174 33.0614726,16.3331949 C33.6984197,16.7861469 34.6404419,16.5430488 35.1681392,15.7908992 C35.6937751,15.0387497 35.6051385,14.0622019 34.9681914,13.60925 C34.8754321,13.5427616 34.7744275,13.4928953 34.6713616,13.4575734 C34.537376,13.4409513 34.3972064,13.4180959 34.2487915,13.3848517 C34.1745841,13.3848517 34.102438,13.3890073 34.0282305,13.3993961 L34.0529664,13.3370632 C34.0529664,13.3370632 34.050905,13.3370632 34.050905,13.3370632 C34.050905,13.3370632 33.9911268,13.2830414 33.881877,13.1833089 C33.4654908,13.7380712 32.8615248,14.1536234 32.8615248,14.1536234 C33.1130055,13.4305625 32.9460388,12.6202356 32.7873174,12.1194952 C30.9053344,10.2224992 27.4732407,6.42019616 26.4219687,2.99189016 C26.3374547,2.97734583 26.255002,2.96695703 26.1704879,2.95656822 C25.8344932,3.06876733 25.2119753,3.29939882 24.9975982,3.37627599 C24.2204815,3.58405211 23.1114927,4.21984704 22.0870178,5.88205601 C22.0870178,5.88205601 21.7716362,6.41188512 21.4644999,7.32817781 L20.3864308,11.294624 C20.4111666,11.2135913 20.4317798,11.1408696 20.4503317,11.0785368 C20.7739585,11.3257904 20.9924582,11.7039429 21.0110101,12.1444283 C21.0398685,12.8591782 20.536907,13.4658844 19.8566722,13.5905501 C19.8855307,13.2664194 19.9782899,12.8280117 20.0834171,12.3979152 L20.0236389,12.6160801 C19.3269136,15.4356021 20.2256481,19.5537248 23.8741802,20.9229694 C24.0803119,20.9998466 24.2864437,21.0621794 24.4905141,21.1141235 L24.5008207,24.2785538 L24.4925754,24.2785538 L24.4925754,24.2889426 L24.4822689,24.7668277 L24.4822689,24.7792942 L24.2926276,33.5993906 L31.7381067,25.3797672 L32.0534883,25.2904235 L32.0019554,20.0960205 L31.9813422,18.1200696 C32.1647995,17.8603494 32.3214596,17.5985515 32.4472,17.3388313 Z M28.7162152,16.6635589 C27.9411597,16.6947254 27.2856608,16.0880191 27.2526797,15.3067809 C27.2196986,14.5255427 27.8236646,13.8648146 28.5987201,13.8315704 C29.3737755,13.7983262 30.0292744,14.4071103 30.0622555,15.1883485 C30.0952366,15.9716645 29.4933319,16.6323925 28.7162152,16.6635589 Z M29.9818641,10.8977716 C29.3469783,9.87135754 28.0318577,9.68643679 28.0318577,9.68643679 C29.8581851,9.0963526 29.9818641,10.8977716 29.9818641,10.8977716 Z M27.5680613,11.712254 C27.8772589,11.7247205 28.1184331,11.9865185 28.1060652,12.2981826 C28.0936972,12.6098468 27.8319099,12.8529449 27.5227123,12.8404783 C27.2135146,12.8280117 26.9723405,12.5662138 26.9847084,12.2524719 C26.9970763,11.9428855 27.2588636,11.6997874 27.5680613,11.712254 Z M24.5317405,8.55405693 C23.5835344,7.81852946 22.2849043,8.10733827 22.2849043,8.10733827 C23.7917275,6.91054781 24.5317405,8.55405693 24.5317405,8.55405693 Z M22.4209513,10.694151 C22.4333192,10.3824868 22.6951065,10.1393887 23.0043041,10.1518553 C23.3135018,10.1643219 23.5546759,10.4281975 23.542308,10.7398617 C23.5299401,11.0515259 23.2681528,11.294624 22.9589552,11.2821574 C22.6497575,11.2676131 22.4085834,11.0058152 22.4209513,10.694151 Z M23.0537758,13.3931628 C23.0578984,13.3786185 23.0723276,13.3661519 23.0826342,13.3536853 L23.0785116,13.3516076 L23.8040954,12.364671 L23.8061567,12.3625932 C23.8185246,12.3480489 23.8432604,12.3085714 23.8721188,12.2566274 C23.9009773,12.2046834 23.9360197,12.1361173 23.9731234,12.0592401 C24.0473308,11.903408 24.1359675,11.7039429 24.2246042,11.4899335 C24.4039388,11.0619147 24.5894574,10.5736408 24.7048911,10.2349657 C24.723443,10.180944 24.7811599,10.1518553 24.8347542,10.1705552 C24.8883484,10.189255 24.9172069,10.2474323 24.898655,10.3014541 C24.7955891,10.6027295 24.6409903,11.016204 24.4822689,11.4047453 C24.3235474,11.7932867 24.1648259,12.1548171 24.0514535,12.3563599 C24.0205337,12.4124595 23.9937366,12.4560925 23.9648781,12.4893367 L23.9648781,12.4893367 L23.2475396,13.4638067 C23.2516623,13.4825065 23.2640302,13.5199062 23.2867047,13.5593837 C23.3176244,13.6154832 23.3629734,13.6819716 23.4165677,13.7443044 C23.5258175,13.8710479 23.672171,13.9853247 23.7896661,14.0102579 C23.8453217,14.0227244 23.8803641,14.078824 23.8679962,14.1349235 C23.8556283,14.1910231 23.7999727,14.226345 23.7443172,14.2138785 C23.6000249,14.1806343 23.4742846,14.0912906 23.3629734,13.9874025 C23.2537236,13.8835144 23.1630256,13.765082 23.1053087,13.6591162 C23.068205,13.5863946 23.0393465,13.5261395 23.0372852,13.4534179 C23.0434692,13.434718 23.0455305,13.4139404 23.0537758,13.3931628 Z M23.4990204,16.3311171 C23.2166199,16.1129522 23.062021,15.8947873 23.0578984,15.8906318 C23.0269786,15.8490765 23.0372852,15.7908992 23.0785116,15.7597328 C23.1197379,15.7306442 23.1774548,15.7389552 23.2083746,15.7805104 L23.2145585,15.7888215 L23.2331104,15.8137546 C23.2496009,15.8345322 23.2763981,15.8677764 23.3114405,15.9051761 C23.3794639,15.9799755 23.4825298,16.0817858 23.6123928,16.1835961 C23.8741802,16.3872167 24.24934,16.5866818 24.7090138,16.584604 C25.0202727,16.584604 25.372758,16.4952603 25.768531,16.2459289 C25.8118187,16.218918 25.8695356,16.2313846 25.8963327,16.2750176 C25.9231298,16.3186506 25.9107619,16.3768279 25.8674743,16.4038388 C25.4490268,16.6677145 25.0573765,16.7695248 24.7110751,16.7695248 C24.1936844,16.7716025 23.7814209,16.5492821 23.4990204,16.3311171 Z M30.6085047,19.5994355 C28.306013,22.8968426 24.5152499,23.2604508 24.5152499,23.2604508 L24.5152499,21.7042076 L25.2779374,21.2720333 C27.3371937,21.5400645 29.2315445,20.7422042 30.6085047,19.5994355 Z" id="Shape" fill="#FFEFE8" fill-rule="nonzero"></path>
                            <path d="M24.5317405,8.55405693 C24.5317405,8.55405693 23.7917275,6.91054781 22.2849043,8.10733827 C22.2849043,8.10733827 23.5835344,7.8164517 24.5317405,8.55405693 Z" id="Path" fill="#000000" fill-rule="nonzero"></path>
                            <path d="M23.367096,13.9894803 C23.4763459,14.0912906 23.6041476,14.1806343 23.7484398,14.2159562 C23.8040954,14.2284228 23.8597509,14.1931009 23.8721188,14.1370013 C23.8844868,14.0809018 23.8494444,14.0248022 23.7937888,14.0123356 C23.6762937,13.9874025 23.5278788,13.8731256 23.4206903,13.7463822 C23.367096,13.6840494 23.3196857,13.617561 23.2908273,13.5614615 C23.2681528,13.521984 23.2557849,13.4845843 23.2516623,13.4658844 L23.9690008,12.4914144 L23.9690008,12.4914144 C23.9978592,12.4560925 24.0246563,12.4145373 24.0555761,12.3584377 C24.1668873,12.1548171 24.32767,11.7953644 24.4863915,11.4068231 C24.6451129,11.0182817 24.8017731,10.6048072 24.9027776,10.3035319 C24.9213295,10.2495101 24.892471,10.189255 24.8388768,10.1726329 C24.7852825,10.1539331 24.7255043,10.1830217 24.7090138,10.2370435 C24.5956413,10.5736408 24.4080614,11.0639925 24.2287268,11.4920113 C24.1400901,11.7060207 24.0514535,11.9054858 23.977246,12.0613179 C23.9401423,12.1402728 23.9050999,12.2067611 23.8762415,12.2587052 C23.847383,12.3106492 23.8226472,12.3501267 23.8102793,12.364671 L23.808218,12.3667488 L23.0826342,13.3536853 L23.0867569,13.3557631 C23.0764503,13.3682297 23.0640824,13.382774 23.0578984,13.3952406 C23.0496531,13.4180959 23.0475918,13.4367958 23.0475918,13.4554956 C23.0496531,13.5282173 23.0764503,13.5905501 23.1156153,13.661194 C23.1692096,13.7671598 23.2578462,13.8855922 23.367096,13.9894803 Z" id="Path" fill="#000000" fill-rule="nonzero"></path>
                            <path d="M25.8674743,16.4059166 C25.9107619,16.3789057 25.9231298,16.3207283 25.8963327,16.2770954 C25.8695356,16.2334624 25.8118187,16.2209958 25.768531,16.2480067 C25.3748194,16.4952603 25.0202727,16.584604 24.7090138,16.5866818 C24.2472786,16.5866818 23.8741802,16.3872167 23.6123928,16.1856739 C23.4825298,16.0838636 23.3794639,15.9820533 23.3114405,15.9072539 C23.2763981,15.8698542 23.2516623,15.8386877 23.2331104,15.8158324 L23.2145585,15.7908992 L23.2083746,15.7825882 C23.1795161,15.741033 23.1197379,15.7306442 23.0785116,15.7618106 C23.0372852,15.7908992 23.0269786,15.8511543 23.0578984,15.8927095 C23.062021,15.8968651 23.2166199,16.11503 23.4990204,16.3331949 C23.7814209,16.5513598 24.1936844,16.7736803 24.7090138,16.7736803 C25.0573765,16.7716025 25.4490268,16.6697922 25.8674743,16.4059166 Z" id="Path" fill="#000000" fill-rule="nonzero"></path>
                            <path d="M23.542308,10.737784 C23.5546759,10.4261198 23.3135018,10.1622441 23.0043041,10.1497775 C22.6951065,10.137311 22.4333192,10.380409 22.4209513,10.6920732 C22.4085834,11.0037374 22.6497575,11.2676131 22.9589552,11.2780019 C23.2681528,11.2925462 23.5278788,11.0494481 23.542308,10.737784 Z" id="Path" fill="#000000" fill-rule="nonzero"></path>
                            <path d="M27.5247736,12.8425561 C27.8339712,12.8550226 28.0957586,12.6119246 28.1081265,12.3002604 C28.1204944,11.9885962 27.8793202,11.7247205 27.5701226,11.7143317 C27.2609249,11.7018652 26.9991376,11.9449632 26.9867697,12.2566274 C26.9723405,12.5682916 27.2135146,12.8300895 27.5247736,12.8425561 Z" id="Path" fill="#000000" fill-rule="nonzero"></path>
                            <path d="M29.9818641,10.8977716 C29.9818641,10.8977716 29.8581851,9.0963526 28.0318577,9.68643679 C28.0318577,9.68643679 29.3469783,9.8734353 29.9818641,10.8977716 Z" id="Path" fill="#000000" fill-rule="nonzero"></path>
                            <path d="M28.6007814,13.8315704 C27.8236646,13.8648146 27.2217599,14.5234649 27.254741,15.3067809 C27.2877221,16.0880191 27.9411597,16.6968031 28.7182765,16.6635589 C29.4953932,16.6303148 30.0972979,15.9695867 30.0643168,15.1883485 C30.0313358,14.4071103 29.3758368,13.7983262 28.6007814,13.8315704 Z" id="Path" fill="#FFC4AA" fill-rule="nonzero"></path>
                            <path d="M21.0130714,12.1444283 C20.9945195,11.7039429 20.7760198,11.3237126 20.452393,11.0785368 C20.4338411,11.1408696 20.4111666,11.2135913 20.3884921,11.294624 C20.3039781,11.5855105 20.1885443,11.9885962 20.0875398,12.3999929 C19.9824126,12.8300895 19.8896533,13.2684971 19.8607948,13.5926279 C20.5389683,13.4679622 21.0419298,12.8591782 21.0130714,12.1444283 Z" id="Path" fill="#FFC4AA" fill-rule="nonzero"></path>
                            <path d="M24.294689,33.6035461 L24.4843302,24.7834498 L24.3936322,24.7252724 C24.3936322,24.7252724 24.4286746,24.7418945 24.4843302,24.7709832 L24.4946368,24.2930981 C24.4905141,24.2889426 24.4863915,24.2868648 24.4822689,24.2827093 C23.587657,24.4364636 20.3019168,24.2224542 18.7311928,27.1645641 C18.2983161,27.9769687 17.5170768,30.6385809 16.869823,33.0051509 L14.9775335,39.1574018 L17.9314016,42.1306781 L18.090123,41.9540684 L29.9715576,50.720143 C29.9859868,50.6785878 30.0024773,50.6287215 30.0230905,50.5684664 C30.08493,50.3835457 30.175628,50.1134367 30.2869391,49.7789171 C30.5116228,49.1078003 30.824943,48.1686522 31.1774283,47.1048385 C31.8823989,44.9751332 32.7481523,42.3363765 33.3850995,40.304326 C33.8097309,38.9496257 34.1354191,37.8629566 34.2446689,37.3829938 C34.3415508,36.9612082 34.6466258,36.3316466 35.0959931,35.6252078 C35.5453603,34.918769 36.1390197,34.1396085 36.8068866,33.4414807 L36.9553015,33.5848463 C36.2956799,34.2725852 35.7102657,35.0413569 35.2691437,35.7374069 C34.8280218,36.4313791 34.5291307,37.0547075 34.4446167,37.4287045 C34.3333055,37.9252894 34.0076174,39.0098808 33.5809246,40.3687366 C33.1542319,41.7255147 32.6285959,43.350324 32.1153278,44.9128004 C31.090853,48.039831 30.1199724,50.9237636 30.1199724,50.9237636 L30.0746234,51.0588181 L18.1169202,42.2366439 L15.4928629,45.1517429 C15.565009,45.2286201 15.6928107,45.3657523 15.8721453,45.5548286 C16.1586685,45.8581817 16.5750546,46.2945116 17.090384,46.8284962 C18.1210428,47.8943877 19.5515972,49.3425873 21.1408731,50.8759751 C24.3194248,53.9427506 28.1514141,57.3523568 30.7156932,58.7049793 C31.4474609,59.0914429 32.0741015,59.3075301 32.5358366,59.3054523 C32.8574022,59.3033745 33.090331,59.2077975 33.2552365,59.0020992 C33.2799723,58.9730105 33.3253213,58.9002889 33.3871608,58.7984786 C33.446939,58.6966683 33.5232077,58.5616138 33.6139057,58.3995484 C33.7932403,58.0733399 34.0261692,57.6307768 34.3003245,57.0947144 L34.4837817,57.1902914 C34.0715182,57.9964627 33.752014,58.5907025 33.5644341,58.9044444 C33.5005332,59.0104102 33.4551843,59.0831319 33.4180805,59.1309204 C33.2098875,59.394796 32.8986285,59.5132284 32.5378979,59.5111507 C32.0163846,59.5090729 31.3691309,59.2805192 30.6208726,58.8857445 C29.8746756,58.4930477 29.0315967,57.9320521 28.130801,57.263013 C26.3292094,55.9228571 24.3029342,54.1380602 22.3982768,52.3553411 C19.6402339,49.7726839 17.1439783,47.1921044 15.9752112,45.9641476 L16.1071355,54.7073667 L16.045296,54.7073667 L16.0927063,57.8614083 L15.4825563,64.0946919 C15.7299144,64.1757246 16.9502144,64.5497216 19.2197251,64.9444962 C19.2856872,64.9569628 19.3537107,64.9673516 19.4237955,64.9798182 C20.7347935,65.2021386 22.3756023,65.4286146 24.3647737,65.6073021 C24.4327972,65.6135353 24.5008207,65.6197686 24.5709055,65.6260019 C25.0759283,65.6696349 25.6015643,65.7132679 26.1519361,65.7506676 C28.1967631,65.8919554 29.8458172,65.8836443 31.1650604,65.8026116 C31.2351452,65.7984561 31.3031687,65.7922228 31.3711922,65.7880673 C34.2178718,65.5886022 35.4381718,65.03384 35.6917138,64.9050188 L34.5662344,56.8162944 C37.4809375,51.0712846 44.3265732,36.2443806 42.8939574,33.2939597 C42.6094956,32.708031 42.2899914,32.2800122 41.94369,31.9828924 L41.9457514,31.9766591 L41.8674213,31.9226373 C41.7870299,31.8582267 41.7066385,31.8021271 41.6241858,31.7501831 L32.3647473,25.2156241 L32.0596723,25.3008123 L31.7442907,25.390156 L24.294689,33.6035461 Z M22.6559415,43.3378574 C22.322008,43.3378574 22.0519754,43.0656707 22.0519754,42.7290734 C22.0519754,42.392476 22.322008,42.1202893 22.6559415,42.1202893 C22.9898749,42.1202893 23.2599075,42.392476 23.2599075,42.7290734 C23.2599075,43.0656707 22.9898749,43.3378574 22.6559415,43.3378574 Z M23.5546759,37.9439893 C23.2207425,37.9439893 22.9507099,37.6718026 22.9507099,37.3352052 C22.9507099,36.9986079 23.2207425,36.7264212 23.5546759,36.7264212 C23.8886094,36.7264212 24.158642,36.9986079 24.158642,37.3352052 C24.158642,37.6718026 23.8886094,37.9439893 23.5546759,37.9439893 Z" id="Shape" fill="#A6D6F5" fill-rule="nonzero"></path>
                            <path d="M30.6085047,19.5994355 C29.2294832,20.7422042 27.3351324,21.5400645 25.2779374,21.2720333 L24.4905141,21.1141235 L24.5152499,23.2604508 C24.5152499,23.2604508 28.306013,22.8968426 30.6085047,19.5994355 Z" id="Path" fill="#FFC4AA" fill-rule="nonzero"></path>
                            <path d="M46.7362534,30.5741703 C46.6393715,30.1108295 46.960937,29.6641108 47.0268992,29.236092 C47.1134745,28.6834076 47.0433897,28.1037122 46.8990975,27.5842719 C46.6290649,26.626424 46.045712,26.3583928 45.2974537,25.8223304 C44.5347662,25.2779569 44.4997238,24.9704483 44.4997238,24.0666221 C44.4997238,23.250062 44.7470819,22.5477787 44.740898,21.718752 C44.7326527,20.5427391 44.3224505,19.8903221 43.4154708,19.1755722 C42.5744532,18.5106887 41.7581715,18.2239576 40.7769843,17.8686604 C39.905047,17.5528407 39.6679954,17.1788437 39.4144534,16.3207283 C39.3031422,15.9425758 39.074336,15.6142895 38.7754449,15.3483361 C39.8102263,13.2539528 40.1400372,10.6442847 39.678302,7.86424021 C38.4951057,0.737519246 29.7509966,-0.646269722 27.0671611,0.236778794 C26.1952238,0.523509841 25.6159935,0.833096262 25.2346498,1.13021612 C20.0607427,2.3311621 20.4894967,7.49647647 21.4356415,7.41752154 C21.4459481,7.38635513 21.4562546,7.35726647 21.4644999,7.32817781 C21.7716362,6.40980736 22.0870178,5.88205601 22.0870178,5.88205601 C23.1114927,4.21984704 24.2204815,3.58197435 24.9975982,3.37627599 C25.2119753,3.30147658 25.8365545,3.06876733 26.1704879,2.95656822 C26.2529406,2.96695703 26.3374547,2.97942359 26.4219687,2.99189016 C27.4711793,6.4181184 30.9032731,10.2204214 32.7873174,12.1194952 C32.9460388,12.6202356 33.1130055,13.4284847 32.8615248,14.1536234 C32.8615248,14.1536234 33.4672502,13.8562714 33.8836364,13.3015092 C33.9908249,13.4012417 34.050905,13.3370632 34.050905,13.3370632 L34.0282305,13.3993961 C34.102438,13.3890073 34.1766454,13.3848517 34.2487915,13.3848517 C34.3972064,13.4180959 34.537376,13.4409513 34.6713616,13.4575734 C34.7744275,13.4949731 34.8754321,13.5448394 34.9681914,13.60925 C35.6051385,14.0622019 35.6937751,15.0387497 35.1681392,15.7908992 C34.6425032,16.5430488 33.6984197,16.7861469 33.0614726,16.3331949 C33.0037557,16.2916397 32.9522228,16.2459289 32.9048125,16.1981404 L32.4472,17.3388313 C32.3214596,17.5985515 32.1647995,17.8603494 31.9834035,18.1179918 L32.0040167,20.0939427 C33.7932403,19.865389 35.3041861,19.2088164 36.5059343,18.2301909 C38.6538272,18.5979546 38.6641338,21.2741111 38.5136576,22.9529421 C38.4064691,24.1518104 38.4250209,25.4607999 38.8950013,26.5516246 C39.1732792,27.1957305 39.463925,27.748415 40.1606503,27.9998241 C40.774923,28.2221446 41.430422,28.1307231 41.7829073,28.8080732 C42.0570625,29.3358246 41.9931617,30.1212183 42.215784,30.6967582 C42.5105524,31.4634521 43.1474995,31.7273277 43.8380409,31.9891256 C45.0480343,32.4483109 47.1650075,32.2654679 48.1090909,31.1912653 C47.5463512,31.176721 46.8661164,31.1974986 46.7362534,30.5741703 Z" id="Path" fill="#333333" fill-rule="nonzero"></path>
                        </g>
                    </g>
                </g>
            </g>
            <circle id="Oval" stroke="#EEEEEE" cx="18" cy="18" r="17.5"></circle>
        </g>
    </g>
</svg>