<?xml version="1.0" encoding="UTF-8"?>
<svg width="110px" height="110px" viewBox="0 0 110 110" version="1.1" xmlns="http://www.w3.org/2000/svg" xmlns:xlink="http://www.w3.org/1999/xlink">
    <title>F95EF458-A03D-4D84-9C80-87FB98538355</title>
    <defs>
        <circle id="path-1" cx="54" cy="54" r="54"></circle>
        <circle id="path-3" cx="55" cy="55" r="55"></circle>
    </defs>
    <g id="Symbols_assets" stroke="none" stroke-width="1" fill="none" fill-rule="evenodd">
        <g id="profile_110px">
            <g id="img" transform="translate(1.000000, 1.000000)">
                <mask id="mask-2" fill="white">
                    <use xlink:href="#path-1"></use>
                </mask>
                <circle stroke="#EEEEEE" cx="54" cy="54" r="53.5"></circle>
                <g id="ti203a6607-[Converted]" mask="url(#mask-2)">
                    <g transform="translate(-1.000000, -1.000000)">
                        <mask id="mask-4" fill="white">
                            <use xlink:href="#path-3"></use>
                        </mask>
                        <use id="Mask" stroke="none" fill="#D8D8D8" fill-rule="evenodd" xlink:href="#path-3"></use>
                        <g id="ti203a6607-[Converted]" stroke="none" stroke-width="1" fill="none" fill-rule="evenodd" mask="url(#mask-4)">
                            <g transform="translate(84.174427, 253.696632) rotate(-12.000000) translate(-84.174427, -253.696632) translate(6.166709, -11.956967)">
                                <polygon id="BG" fill="#FFD77D" fill-rule="nonzero" transform="translate(90.782175, 65.233261) rotate(12.000000) translate(-90.782175, -65.233261) " points="35.7821753 120.233261 35.7821753 10.233261 145.782175 10.233261 145.782175 120.233261"></polygon>
                                <g id="Group" stroke-width="1" fill="none" fill-rule="evenodd" transform="translate(-0.000000, 26.307198)">
                                    <path d="M74.8132311,75.7208589 L74.8132311,75.6827666 C74.6431724,75.6002333 74.5360984,75.5430949 74.5360984,75.5430949 L74.8132311,75.7208589 Z" id="Path"></path>
                                    <path d="M99.1442221,52.9797624 L100.542483,49.494318 C100.687347,49.6403384 100.844809,49.7863589 101.021166,49.9069844 C102.967394,51.2910043 105.845795,50.5482046 107.458203,48.2499699 C109.064313,45.9517351 108.793479,42.9678391 106.847251,41.5838193 C106.56382,41.3806604 106.255195,41.2282913 105.940272,41.1203631 C105.530871,41.0695734 105.102575,40.9997376 104.649085,40.8981581 C104.42234,40.8981581 104.201894,40.9108555 103.975149,40.9425991 L104.050731,40.7521377 C104.050731,40.7521377 104.044432,40.7521377 104.044432,40.7521377 C104.044432,40.7521377 103.861776,40.5870711 103.527957,40.2823328 C102.255666,41.9774396 100.410215,43.2471826 100.410215,43.2471826 C101.178628,41.0378298 100.668452,38.5618311 100.18347,37.0317908 C94.4329663,31.2354142 83.9460131,19.6172661 80.7337932,9.1418866 C80.4755559,9.0974456 80.2236171,9.06570203 79.9653798,9.03395845 C78.9387292,9.37678905 77.0365911,10.0814964 76.3815502,10.3163988 C74.0070269,10.9512703 70.6184498,12.8939771 67.48811,17.9729489 C67.48811,17.9729489 66.5244441,19.5918712 65.585972,22.3916544 L62.291872,34.511351 C62.3674536,34.2637511 62.4304383,34.0415461 62.4871246,33.8510847 C63.4759844,34.6065817 64.1436223,35.7620478 64.2003085,37.1079754 C64.2884871,39.2919333 62.7516603,41.145758 60.6731651,41.5266809 C60.7613437,40.5362814 61.0447748,39.1967025 61.3659968,37.8825186 L61.1833412,38.5491336 C59.0544582,47.1643396 61.8005913,59.7474924 72.9488838,63.9312955 C73.5787309,64.1661979 74.2085779,64.3566594 74.8321265,64.5153772 L74.8636188,74.1844699 L74.838425,74.1844699 L74.838425,74.2162135 L74.8069326,75.6764179 L74.8069326,75.7145102 L74.2274733,102.664805 L96.9775483,77.5492888 L97.9412143,77.276294 L97.7837525,61.404507 L97.7207678,55.3668792 C98.2813317,54.5732898 98.7600154,53.7733518 99.1442221,52.9797624 Z M87.7439907,50.9164301 C85.3757659,51.0116608 83.3728523,49.1578361 83.2720768,46.7707193 C83.1713013,44.3836026 85.0167531,42.3647112 87.3849779,42.2631318 C89.7532028,42.1615524 91.7561164,44.0217258 91.8568919,46.4088426 C91.9576674,48.8023081 90.1185141,50.8211994 87.7439907,50.9164301 Z M91.6112516,33.2987465 C89.6713227,30.1624814 85.6528986,29.5974457 85.6528986,29.5974457 C91.2333433,27.7944107 91.6112516,33.2987465 91.6112516,33.2987465 Z M84.2357427,35.7874427 C85.1805133,35.825535 85.9174343,36.625473 85.8796435,37.5777803 C85.8418527,38.5300875 85.041947,39.2728871 84.0971764,39.2347948 C83.1524058,39.1967025 82.4154848,38.3967645 82.4532756,37.4381085 C82.4910665,36.49215 83.2909722,35.7493504 84.2357427,35.7874427 Z M74.9580959,26.1373962 C72.0607995,23.8899511 68.0927632,24.7724225 68.0927632,24.7724225 C72.696945,21.1155627 74.9580959,26.1373962 74.9580959,26.1373962 Z M68.5084622,32.6765724 C68.5462531,31.7242652 69.3461588,30.9814656 70.2909293,31.0195579 C71.2356999,31.0576502 71.9726209,31.8639369 71.9348301,32.8162442 C71.8970393,33.7685514 71.0971336,34.511351 70.152363,34.4732587 C69.2075924,34.4288177 68.4706714,33.6288797 68.5084622,32.6765724 Z M70.4420926,40.923553 C70.4546896,40.879112 70.4987789,40.8410197 70.5302712,40.8029274 L70.5176743,40.7965787 L72.7347358,37.7809391 L72.7410343,37.7745904 C72.7788251,37.7301494 72.8544068,37.6095238 72.9425854,37.450806 C73.030764,37.2920881 73.137838,37.0825805 73.2512104,36.8476781 C73.4779554,36.3715245 73.7487896,35.7620478 74.0196238,35.1081302 C74.5675907,33.800295 75.1344531,32.308347 75.4871674,31.2735065 C75.5438536,31.1084399 75.7202108,31.0195579 75.883971,31.0766963 C76.0477313,31.1338347 76.1359099,31.3115987 76.0792236,31.4766653 C75.7643001,32.397229 75.2919148,33.6606232 74.8069326,34.8478329 C74.3219504,36.0350426 73.8369682,37.1397189 73.4905523,37.7555443 C73.3960752,37.9269596 73.3141951,38.0602826 73.2260165,38.161862 L73.2260165,38.161862 L71.0341488,41.1394093 C71.0467458,41.1965477 71.0845366,41.3108246 71.1538198,41.4314502 C71.2482968,41.6028655 71.3868632,41.8060243 71.5506234,41.9964858 C71.8844423,42.3837574 72.3316337,42.7329367 72.6906466,42.8091213 C72.8607053,42.8472136 72.9677793,43.0186289 72.9299884,43.1900442 C72.8921976,43.3614595 72.7221389,43.4693876 72.5520802,43.4312953 C72.1111873,43.3297159 71.7269806,43.0567212 71.3868632,42.7392854 C71.0530443,42.4218497 70.7759116,42.0599729 70.5995544,41.7361885 C70.4861819,41.5139835 70.3980033,41.3298707 70.3917049,41.1076657 C70.4106003,41.0505273 70.4168988,40.9870401 70.4420926,40.923553 Z M71.8025622,49.9006357 C70.9396718,49.2340207 70.4672865,48.5674056 70.4546896,48.5547082 C70.3602125,48.4277339 70.3917049,48.2499699 70.5176743,48.1547392 C70.6436437,48.0658571 70.8200009,48.091252 70.9144779,48.2182263 L70.9333733,48.2436212 L70.9900596,48.3198057 C71.0404473,48.3832929 71.1223274,48.4848723 71.2294014,48.5991492 C71.437251,48.8277029 71.7521745,49.1387899 72.1489781,49.449877 C72.9488838,50.072051 74.0952055,50.6815276 75.4997643,50.6751789 C76.4508334,50.6751789 77.5278718,50.4021842 78.7371781,49.6403384 C78.869446,49.5578051 79.0458032,49.5958974 79.1276833,49.7292204 C79.2095634,49.8625434 79.1717726,50.0403075 79.0395047,50.1228407 C77.7609152,50.9291275 76.5642058,51.2402146 75.5060628,51.2402146 C73.9251468,51.2465633 72.6654527,50.5672508 71.8025622,49.9006357 Z M93.5259865,59.8871641 C86.4905951,69.9625745 74.9077081,71.0735996 74.9077081,71.0735996 L74.9077081,66.3184122 L77.2381422,64.9978796 C83.5303141,65.8168638 89.3186083,63.3789573 93.5259865,59.8871641 Z" id="Shape" fill="#FFEFE8" fill-rule="nonzero"></path>
                                    <path d="M74.9580959,26.1373962 C74.9580959,26.1373962 72.696945,21.1155627 68.0927632,24.7724225 C68.0927632,24.7724225 72.0607995,23.8836024 74.9580959,26.1373962 Z" id="Path" fill="#000000" fill-rule="nonzero"></path>
                                    <path d="M71.3994601,42.7456341 C71.7332791,43.0567212 72.1237842,43.3297159 72.5646771,43.437644 C72.7347358,43.4757363 72.9047945,43.3678082 72.9425854,43.1963929 C72.9803762,43.0249776 72.8733022,42.8535623 72.7032435,42.81547 C72.3442307,42.7392854 71.8907408,42.3901061 71.5632204,42.0028345 C71.3994601,41.812373 71.2545953,41.6092142 71.1664167,41.4377989 C71.0971336,41.3171733 71.0593427,41.2028964 71.0467458,41.145758 L73.2386135,38.1682107 L73.2386135,38.1682107 C73.3267921,38.0602826 73.4086722,37.9333083 73.5031492,37.761893 C73.8432666,37.1397189 74.3345473,36.0413913 74.8195295,34.8541816 C75.3045118,33.6669719 75.7831955,32.4035777 76.0918206,31.483014 C76.1485068,31.3179475 76.0603282,31.1338347 75.896568,31.083045 C75.7328077,31.0259066 75.5501521,31.1147886 75.4997643,31.2798552 C75.1533485,32.308347 74.5801877,33.8066437 74.0322207,35.1144789 C73.7613865,35.7683965 73.4905523,36.3778732 73.2638074,36.8540268 C73.1504349,37.0952779 73.0433609,37.2984368 72.9551823,37.4571547 C72.8670037,37.6158726 72.7914221,37.7364981 72.7536313,37.7809391 L72.7473328,37.7872879 L70.5302712,40.8029274 L70.5428682,40.8092761 C70.5113758,40.8473684 70.473585,40.8918094 70.4546896,40.9299017 C70.4294957,40.9997376 70.4231972,41.056876 70.4231972,41.1140144 C70.4294957,41.3362194 70.5113758,41.5266809 70.6310467,41.7425372 C70.794807,42.0663216 71.0656412,42.4281984 71.3994601,42.7456341 Z" id="Path" fill="#000000" fill-rule="nonzero"></path>
                                    <path d="M79.0395047,50.1291895 C79.1717726,50.0466562 79.2095634,49.8688922 79.1276833,49.7355691 C79.0458032,49.6022461 78.869446,49.5641538 78.7371781,49.6466871 C77.5341703,50.4021842 76.4508334,50.6751789 75.4997643,50.6815276 C74.088907,50.6815276 72.9488838,50.072051 72.1489781,49.4562257 C71.7521745,49.1451387 71.437251,48.8340516 71.2294014,48.6054979 C71.1223274,48.491221 71.0467458,48.3959903 70.9900596,48.3261545 L70.9333733,48.2499699 L70.9144779,48.224575 C70.8262993,48.0976007 70.6436437,48.0658571 70.5176743,48.1610879 C70.3917049,48.2499699 70.3602125,48.4340826 70.4546896,48.5610569 C70.4672865,48.5737543 70.9396718,49.2403694 71.8025622,49.9069844 C72.6654527,50.5735995 73.9251468,51.252912 75.4997643,51.252912 C76.5642058,51.2465633 77.7609152,50.9354762 79.0395047,50.1291895 Z" id="Path" fill="#000000" fill-rule="nonzero"></path>
                                    <path d="M71.9348301,32.8098954 C71.9726209,31.8575882 71.2356999,31.0513014 70.2909293,31.0132091 C69.3461588,30.9751169 68.5462531,31.7179165 68.5084622,32.6702237 C68.4706714,33.6225309 69.2075924,34.4288177 70.152363,34.4605613 C71.0971336,34.5050023 71.8907408,33.7622027 71.9348301,32.8098954 Z" id="Path" fill="#000000" fill-rule="nonzero"></path>
                                    <path d="M84.1034749,39.2411435 C85.0482454,39.2792358 85.8481512,38.5364362 85.885942,37.584129 C85.9237328,36.6318218 85.1868118,35.825535 84.2420412,35.7937914 C83.2972707,35.7556991 82.4973649,36.4984987 82.4595741,37.450806 C82.4154848,38.4031132 83.1524058,39.2030513 84.1034749,39.2411435 Z" id="Path" fill="#000000" fill-rule="nonzero"></path>
                                    <path d="M91.6112516,33.2987465 C91.6112516,33.2987465 91.2333433,27.7944107 85.6528986,29.5974457 C85.6528986,29.5974457 89.6713227,30.1688301 91.6112516,33.2987465 Z" id="Path" fill="#000000" fill-rule="nonzero"></path>
                                    <path d="M87.3912764,42.2631318 C85.0167531,42.3647112 83.1775997,44.3772538 83.2783753,46.7707193 C83.3791508,49.1578361 85.3757659,51.0180095 87.7502892,50.9164301 C90.1248125,50.8148507 91.9639659,48.7959593 91.8631904,46.4088426 C91.7624148,44.0217258 89.7595013,42.1615524 87.3912764,42.2631318 Z" id="Path" fill="#FFC4AA" fill-rule="nonzero"></path>
                                    <path d="M64.206607,37.1079754 C64.1499207,35.7620478 63.4822829,34.600233 62.493423,33.8510847 C62.4367368,34.0415461 62.3674536,34.2637511 62.2981704,34.511351 C62.0399332,35.4001711 61.6872188,36.6318218 61.3785938,37.8888673 C61.0573718,39.2030513 60.7739406,40.5426301 60.685762,41.5330296 C62.7579588,41.1521067 64.2947856,39.2919333 64.206607,37.1079754 Z" id="Path" fill="#FFC4AA" fill-rule="nonzero"></path>
                                    <path d="M74.2337718,102.677502 L74.8132311,75.7272076 L74.5360984,75.5494436 C74.5360984,75.5494436 74.6431724,75.6002333 74.8132311,75.6891153 L74.8447234,74.2289109 C74.8321265,74.2162135 74.8195295,74.2098648 74.8069326,74.1971673 C72.0733965,74.6669722 62.0336347,74.0130546 57.2342003,83.0028348 C55.9115215,85.4851823 53.5244012,93.617886 51.5466815,100.849072 L45.7646857,119.647617 L54.7903938,128.732628 L55.275376,128.192987 L91.5797592,154.978215 C91.6238485,154.85124 91.6742363,154.698871 91.737221,154.514758 C91.9261751,153.949723 92.2033078,153.12439 92.5434252,152.102247 C93.2299584,150.051612 94.1873259,147.181993 95.2643644,143.931451 C97.4184412,137.424018 100.063799,129.36115 102.010026,123.152107 C103.307511,119.012745 104.302669,115.692367 104.636488,114.225814 C104.932516,112.937025 105.86469,111.013365 107.237757,108.854802 C108.610823,106.696238 110.424783,104.31547 112.465487,102.182302 L112.918977,102.620364 C110.903466,104.721788 109.114701,107.070813 107.766828,109.197632 C106.418955,111.318103 105.505677,113.222717 105.24744,114.365486 C104.907323,115.882829 103.912164,119.196858 102.608381,123.348917 C101.304597,127.494628 99.6984875,132.459323 98.1301684,137.233557 C94.9998286,146.788373 92.0332491,155.600389 92.0332491,155.600389 L91.8946827,156.013055 L55.3572561,129.056412 L47.3393033,137.963659 C47.5597498,138.198561 47.9502549,138.617577 48.4982219,139.19531 C49.3737092,140.122222 50.6460003,141.455452 52.2206178,143.087072 C55.369853,146.343963 59.7409915,150.769017 64.5971121,155.454368 C74.3093534,164.825071 86.0182099,175.243312 93.853507,179.376326 C96.089464,180.557187 98.004199,181.217453 99.4150563,181.211104 C100.397618,181.204756 101.109345,180.912715 101.613223,180.284192 C101.688804,180.19531 101.82737,179.973105 102.016325,179.662018 C102.19898,179.350931 102.432024,178.938264 102.709156,178.443065 C103.257123,177.446316 103.96885,176.09404 104.806547,174.456072 L105.367111,174.748113 C104.107417,177.211414 103.131154,179.027146 102.557993,179.985802 C102.36274,180.309587 102.224174,180.531792 102.110802,180.677812 C101.474656,181.484099 100.523587,181.845976 99.4213548,181.839627 C97.8278418,181.833278 95.8501221,181.13492 93.5637774,179.928664 C91.2837311,178.728757 88.7076567,177.014604 85.9552252,174.970318 C80.4503621,170.875397 74.2589657,165.421851 68.4391791,159.974653 C60.0118257,152.083201 52.3843781,144.198097 48.8131454,140.446006 L49.2162475,167.161398 L49.0272934,167.161398 L49.1721582,176.798747 L47.307811,195.844892 C48.0636274,196.092492 51.7923219,197.23526 58.7269377,198.441516 C58.9284888,198.479609 59.1363383,198.511352 59.3504863,198.549444 C63.3563135,199.228757 68.3698959,199.920767 74.4479198,200.466756 C74.6557693,200.485802 74.8636188,200.504849 75.0777668,200.523895 C76.6208921,200.657218 78.227002,200.790541 79.9086936,200.904818 C86.1567762,201.33653 91.1955525,201.311135 95.2265735,201.063536 C95.4407215,201.050838 95.6485711,201.031792 95.8564206,201.019095 C104.554608,200.409618 108.283303,198.714511 109.058014,198.320891 L105.61905,173.605344 C114.525087,156.051147 135.442307,110.746719 131.06487,101.731543 C130.195681,99.9412059 129.219418,98.6333707 128.161275,97.7255044 L128.167574,97.7064583 L127.928232,97.5413917 C127.682591,97.3445815 127.436951,97.1731662 127.185012,97.0144484 L98.8922833,77.0477403 L97.9601097,77.3080376 L96.9964437,77.5810323 L74.2337718,102.677502 Z M69.2264879,132.421231 C68.2061357,132.421231 67.381036,131.589549 67.381036,130.561057 C67.381036,129.532566 68.2061357,128.700884 69.2264879,128.700884 C70.2468401,128.700884 71.0719397,129.532566 71.0719397,130.561057 C71.0719397,131.589549 70.2468401,132.421231 69.2264879,132.421231 Z M71.9726209,115.939967 C70.9522687,115.939967 70.1271691,115.108286 70.1271691,114.079794 C70.1271691,113.051302 70.9522687,112.21962 71.9726209,112.21962 C72.9929731,112.21962 73.8180728,113.051302 73.8180728,114.079794 C73.8180728,115.108286 72.9929731,115.939967 71.9726209,115.939967 Z" id="Shape" fill="#A6D6F5" fill-rule="nonzero"></path>
                                    <path d="M93.5259865,59.8871641 C89.3123099,63.3789573 83.5240156,65.8168638 77.2381422,64.9978796 L74.8321265,64.5153772 L74.9077081,71.0735996 C74.9077081,71.0735996 86.4905951,69.9625745 93.5259865,59.8871641 Z" id="Path" fill="#FFC4AA" fill-rule="nonzero"></path>
                                    <path d="M142.805219,93.4210758 C142.509191,92.0053124 143.491752,90.6403387 143.693303,89.3325035 C143.957839,87.6437453 143.743691,85.8724539 143.302798,84.2852752 C142.477698,81.3585176 140.695231,80.5395334 138.408886,78.901565 C136.078452,77.2382017 135.971378,76.2985919 135.971378,73.536901 C135.971378,71.0418561 136.727195,68.8959905 136.708299,66.3628532 C136.683106,62.7694807 135.42971,60.7759842 132.658383,58.5920263 C130.088607,56.5604376 127.594413,55.6843149 124.596341,54.5986847 C121.932088,53.63368 121.207764,52.4909114 120.433052,49.8688922 C120.092935,48.7134261 119.393804,47.7103291 118.480526,46.8976936 C121.642358,40.4981891 122.650114,32.5242033 121.239256,24.0296228 C117.623934,2.25353103 90.9058229,-1.97471304 82.7052144,0.723490758 C80.0409615,1.5996134 78.2710913,2.54557191 77.1058743,3.45343813 C61.2967137,7.12299529 62.6067955,22.9059003 65.4977934,22.6646492 C65.5292857,22.5694184 65.5607781,22.4805364 65.585972,22.3916544 C66.5244441,19.5855225 67.48811,17.9729489 67.48811,17.9729489 C70.6184498,12.8939771 74.0070269,10.9449216 76.3815502,10.3163988 C77.0365911,10.0878451 78.9450276,9.37678905 79.9653798,9.03395845 C80.2173187,9.06570203 80.4755559,9.10379432 80.7337932,9.1418866 C83.9397146,19.6109173 94.4266678,31.2290655 100.18347,37.0317908 C100.668452,38.5618311 101.178628,41.0314811 100.410215,43.2471826 C100.410215,43.2471826 102.261042,42.3386071 103.533333,40.6435003 C103.860854,40.9482386 104.044432,40.7521377 104.044432,40.7521377 L103.975149,40.9425991 C104.201894,40.9108555 104.428639,40.8981581 104.649085,40.8981581 C105.102575,40.9997376 105.530871,41.0695734 105.940272,41.1203631 C106.255195,41.23464 106.56382,41.3870092 106.847251,41.5838193 C108.793479,42.9678391 109.064313,45.9517351 107.458203,48.2499699 C105.852093,50.5482046 102.967394,51.2910043 101.021166,49.9069844 C100.844809,49.7800101 100.687347,49.6403384 100.542483,49.494318 L99.1442221,52.9797624 C98.7600154,53.7733518 98.2813317,54.5732898 97.7270663,55.3605305 L97.790051,61.3981583 C103.257123,60.6997996 107.873902,58.6936057 111.54591,55.7033611 C118.108916,56.8270836 118.140409,65.0042283 117.68062,70.1339898 C117.3531,73.7971983 117.409786,77.7968886 118.845837,81.1299639 C119.696131,83.0980655 120.584215,84.7868236 122.713098,85.5550181 C124.590042,86.2343306 126.592956,85.9549872 127.669994,88.0246682 C128.507691,89.6372418 128.312438,92.037056 128.992673,93.79565 C129.893354,96.1383257 131.839582,96.9446125 133.949569,97.7445506 C137.646771,99.1476166 144.115301,98.5889297 147,95.3066441 C145.280518,95.2622031 143.202022,95.3256902 142.805219,93.4210758 Z" id="Path" fill="#333333" fill-rule="nonzero"></path>
                                </g>
                            </g>
                        </g>
                    </g>
                </g>
            </g>
            <circle id="border" stroke="#EEEEEE" cx="55" cy="55" r="54.5"></circle>
        </g>
    </g>
</svg>