<?xml version="1.0" encoding="UTF-8"?>
<svg width="48px" height="48px" viewBox="0 0 48 48" version="1.1" xmlns="http://www.w3.org/2000/svg" xmlns:xlink="http://www.w3.org/1999/xlink">
    <title>2A3C24E5-B792-4E17-9B84-EBA27B3FCDF2</title>
    <defs>
        <circle id="path-1" cx="24" cy="24" r="24"></circle>
    </defs>
    <g id="Symbols_assets" stroke="none" stroke-width="1" fill="none" fill-rule="evenodd">
        <g id="profile_48px">
            <g id="ti203a6607-[Converted]">
                <mask id="mask-2" fill="white">
                    <use xlink:href="#path-1"></use>
                </mask>
                <use id="Mask" fill="#D8D8D8" xlink:href="#path-1"></use>
                <g mask="url(#mask-2)">
                    <g transform="translate(36.730659, 110.703985) rotate(-12.000000) translate(-36.730659, -110.703985) translate(2.690927, -5.217586)">
                        <polygon id="BG" fill="#FFD77D" fill-rule="nonzero" transform="translate(39.614040, 28.465423) rotate(12.000000) translate(-39.614040, -28.465423) " points="15.6140401 52.465423 15.6140401 4.465423 63.6140401 4.465423 63.6140401 52.465423"></polygon>
                        <g id="Group" stroke-width="1" fill="none" fill-rule="evenodd" transform="translate(0.000000, 11.479504)">
                            <path d="M32.6457736,33.0418293 L32.6457736,33.0252072 C32.5715661,32.9891927 32.5248429,32.9642596 32.5248429,32.9642596 L32.6457736,33.0418293 Z" id="Path"></path>
                            <path d="M43.2629333,23.1184418 L43.8730833,21.5975206 C43.936297,21.6612386 44.0050076,21.7249566 44.0819635,21.7775932 C44.9312263,22.3815291 46.1872558,22.0573984 46.8908522,21.0545323 C47.5917002,20.0516662 47.473518,18.7496025 46.6242551,18.1456666 C46.5005761,18.0570155 46.3659033,17.9905271 46.2284822,17.9434312 C46.0498347,17.9212684 45.8629419,17.8907946 45.6650554,17.846469 C45.5661121,17.846469 45.4699173,17.8520097 45.3709741,17.8658614 L45.4039551,17.782751 C45.4039551,17.782751 45.4012067,17.782751 45.4012067,17.782751 C45.4012067,17.782751 45.3215024,17.7107219 45.175836,17.5777452 C44.6206545,18.3174282 43.8153664,18.8714979 43.8153664,18.8714979 C44.1506741,17.9074167 43.9280518,16.8269808 43.7164232,16.1593269 C41.2071126,13.6299989 36.6309875,8.56026155 35.2292916,3.98918688 C35.1166062,3.96979444 35.0066693,3.9559427 34.8939839,3.94209096 C34.4459909,4.09168977 33.615967,4.39919843 33.330131,4.50170131 C32.2939754,4.77873614 30.8153236,5.62646272 29.4493571,7.84274134 C29.4493571,7.84274134 29.0288483,8.54918016 28.6193332,9.77090375 L27.1819078,15.0594986 C27.2148889,14.951455 27.2423731,14.8544929 27.2671089,14.7713824 C27.6986114,15.1010538 27.9899443,15.6052572 28.0146801,16.1925711 C28.053158,17.1455709 27.3825427,17.9545126 26.4755629,18.1207335 C26.5140409,17.6885591 26.6377199,17.1040157 26.7778895,16.5305536 L26.6981852,16.8214401 C25.7692181,20.5808028 26.9675307,26.071633 31.8322402,27.8972926 C32.1070826,27.9997955 32.3819249,28.0829059 32.6540188,28.1521646 L32.6677609,32.371405 L32.6567673,32.371405 L32.6567673,32.3852568 L32.6430251,33.0224369 L32.6430251,33.039059 L32.3901702,44.7991874 L42.3174756,33.8396896 L42.7379844,33.7205647 L42.6692738,26.794694 L42.6417896,24.1600927 C42.8863993,23.8137992 43.0952795,23.4647353 43.2629333,23.1184418 Z M38.2882869,22.2180786 C37.2548797,22.2596338 36.380881,21.4506921 36.3369062,20.4090412 C36.2929315,19.3673902 37.0982195,18.4864194 38.1316267,18.4420939 C39.1650339,18.3977683 40.0390326,19.2094804 40.0830074,20.2511313 C40.1269821,21.2955526 39.3244425,22.1765234 38.2882869,22.2180786 Z M39.9758189,14.5303621 C39.1293044,13.16181 37.3758103,12.9152491 37.3758103,12.9152491 C39.8109135,12.1284701 39.9758189,14.5303621 39.9758189,14.5303621 Z M36.757415,15.6163386 C37.1696785,15.6329607 37.4912441,15.9820246 37.4747535,16.3975768 C37.458263,16.8131291 37.1092132,17.1372598 36.6969497,17.1206377 C36.2846862,17.1040157 35.9631206,16.7549518 35.9796112,16.3366292 C35.9961017,15.9238473 36.3451515,15.5997165 36.757415,15.6163386 Z M32.7089873,11.4054092 C31.4447125,10.4247059 29.7132058,10.8097844 29.7132058,10.8097844 C31.7223033,9.21406374 32.7089873,11.4054092 32.7089873,11.4054092 Z M29.8946017,14.258868 C29.9110922,13.8433157 30.260142,13.519185 30.6724055,13.5358071 C31.084669,13.5524292 31.4062346,13.9042634 31.389744,14.3198156 C31.3732535,14.7353679 31.0242037,15.0594986 30.6119402,15.0428765 C30.1996767,15.0234841 29.8781112,14.6744202 29.8946017,14.258868 Z M30.7383677,17.8575504 C30.7438645,17.838158 30.7631035,17.8215359 30.7768456,17.8049138 L30.7713488,17.8021434 L31.7387938,16.486228 L31.7415422,16.4834576 C31.7580328,16.4640652 31.7910139,16.4114286 31.8294918,16.3421699 C31.8679697,16.2729112 31.9146929,16.1814897 31.9641645,16.0789868 C32.0631078,15.8712107 32.18129,15.6052572 32.2994722,15.3199114 C32.538585,14.7492196 32.7859432,14.0981878 32.9398549,13.646621 C32.9645907,13.5745919 33.0415465,13.5358071 33.1130055,13.5607402 C33.1844646,13.5856733 33.2229425,13.6632431 33.1982067,13.7352721 C33.0607855,14.1369726 32.8546537,14.688272 32.6430251,15.2063271 C32.4313965,15.7243822 32.2197679,16.2064228 32.0686046,16.4751466 C32.0273783,16.549946 31.9916488,16.6081233 31.9531709,16.6524489 L31.9531709,16.6524489 L30.9967195,17.9517422 C31.0022163,17.9766754 31.0187069,18.0265416 31.0489395,18.0791783 C31.0901659,18.1539777 31.1506312,18.2426288 31.2220902,18.3257392 C31.3677567,18.4947305 31.5628947,18.6470997 31.7195549,18.6803438 C31.7937623,18.6969659 31.8404855,18.7717653 31.823995,18.8465647 C31.8075044,18.9213641 31.733297,18.9684601 31.6590895,18.951838 C31.4666999,18.9075124 31.2990461,18.7883874 31.1506312,18.64987 C31.0049648,18.5113526 30.8840341,18.3534427 30.8070783,18.212155 C30.7576067,18.1151928 30.7191287,18.0348527 30.7163803,17.9378905 C30.7246256,17.9129574 30.727374,17.8852539 30.7383677,17.8575504 Z M31.3320272,21.7748229 C30.9554931,21.4839363 30.7493614,21.1930497 30.7438645,21.187509 C30.7026382,21.1321021 30.7163803,21.0545323 30.7713488,21.0129771 C30.8263172,20.9741922 30.9032731,20.9852736 30.9444995,21.0406806 L30.9527447,21.051762 L30.9774805,21.0850061 C30.9994679,21.1127096 31.0351974,21.1570352 31.0819206,21.2069015 C31.1726186,21.306634 31.3100398,21.4423811 31.4831904,21.5781281 C31.8322402,21.8496223 32.3324533,22.1155757 32.9453517,22.1128054 C33.3603637,22.1128054 33.8303441,21.9936804 34.3580414,21.6612386 C34.4157583,21.6252241 34.4927141,21.6418461 34.5284436,21.7000235 C34.5641731,21.7582008 34.5476826,21.8357705 34.4899657,21.8717851 C33.9320357,22.2236193 33.4098353,22.3593664 32.9481001,22.3593664 C32.2582459,22.3621367 31.7085612,22.0657094 31.3320272,21.7748229 Z M40.8113396,26.1325807 C37.7413506,30.5291234 32.6869999,31.0139344 32.6869999,31.0139344 L32.6869999,28.9389435 L33.7039166,28.3627111 C36.4495916,28.720086 38.9753927,27.6562723 40.8113396,26.1325807 Z" id="Shape" fill="#FFEFE8" fill-rule="nonzero"></path>
                            <path d="M32.7089873,11.4054092 C32.7089873,11.4054092 31.7223033,9.21406374 29.7132058,10.8097844 C29.7132058,10.8097844 31.4447125,10.4219356 32.7089873,11.4054092 Z" id="Path" fill="#000000" fill-rule="nonzero"></path>
                            <path d="M31.1561281,18.6526403 C31.3017945,18.7883874 31.4721968,18.9075124 31.6645864,18.9546083 C31.7387938,18.9712304 31.8130013,18.9241345 31.8294918,18.8493351 C31.8459823,18.7745357 31.7992591,18.6997363 31.7250517,18.6831142 C31.5683916,18.64987 31.3705051,18.4975008 31.2275871,18.3285096 C31.1561281,18.2453991 31.0929143,18.156748 31.0544364,18.0819486 C31.0242037,18.029312 31.0077132,17.9794457 31.0022163,17.9545126 L31.9586677,16.6552192 L31.9586677,16.6552192 C31.9971456,16.6081233 32.0328751,16.5527163 32.0741015,16.4779169 C32.2225163,16.2064228 32.4368934,15.7271526 32.648522,15.2090974 C32.8601506,14.6910423 33.0690308,14.139743 33.2037035,13.7380425 C33.2284393,13.6660134 33.1899614,13.5856733 33.1185024,13.5635105 C33.0470434,13.5385774 32.9673391,13.5773623 32.9453517,13.6493913 C32.7941884,14.0981878 32.5440819,14.75199 32.3049691,15.3226817 C32.1867868,15.6080276 32.0686046,15.873981 31.9696614,16.0817571 C31.9201898,16.1870304 31.8734666,16.2756815 31.8349886,16.3449402 C31.7965107,16.4141989 31.7635296,16.4668356 31.7470391,16.486228 L31.7442907,16.4889983 L30.7768456,17.8049138 L30.7823425,17.8076841 C30.7686004,17.8243062 30.7521098,17.8436986 30.7438645,17.8603207 C30.7328708,17.8907946 30.7301224,17.9157277 30.7301224,17.9406608 C30.7328708,18.037623 30.7686004,18.1207335 30.8208204,18.2149253 C30.8922794,18.3562131 31.0104616,18.5141229 31.1561281,18.6526403 Z" id="Path" fill="#000000" fill-rule="nonzero"></path>
                            <path d="M34.4899657,21.8745554 C34.5476826,21.8385409 34.5641731,21.7609711 34.5284436,21.7027938 C34.4927141,21.6446165 34.4157583,21.6279944 34.3580414,21.6640089 C33.8330925,21.9936804 33.3603637,22.1128054 32.9453517,22.1155757 C32.3297049,22.1155757 31.8322402,21.8496223 31.4831904,21.5808985 C31.3100398,21.4451514 31.1726186,21.3094044 31.0819206,21.2096718 C31.0351974,21.1598055 31.0022163,21.1182503 30.9774805,21.0877765 L30.9527447,21.0545323 L30.9444995,21.0434509 C30.9060215,20.9880439 30.8263172,20.9741922 30.7713488,21.0157474 C30.7163803,21.0545323 30.7026382,21.1348724 30.7438645,21.1902794 C30.7493614,21.1958201 30.9554931,21.4867066 31.3320272,21.7775932 C31.7085612,22.0684798 32.2582459,22.364907 32.9453517,22.364907 C33.4098353,22.3621367 33.9320357,22.2263896 34.4899657,21.8745554 Z" id="Path" fill="#000000" fill-rule="nonzero"></path>
                            <path d="M31.389744,14.3170453 C31.4062346,13.901493 31.084669,13.5496588 30.6724055,13.5330367 C30.260142,13.5164146 29.9110922,13.8405454 29.8946017,14.2560976 C29.8781112,14.6716499 30.1996767,15.0234841 30.6119402,15.0373358 C31.0242037,15.0567283 31.3705051,14.7325975 31.389744,14.3170453 Z" id="Path" fill="#000000" fill-rule="nonzero"></path>
                            <path d="M36.6996981,17.1234081 C37.1119616,17.1400302 37.4610114,16.8158994 37.477502,16.4003472 C37.4939925,15.9847949 37.172427,15.6329607 36.7601634,15.619109 C36.3478999,15.6024869 35.9988501,15.9266176 35.9823596,16.3421699 C35.9631206,16.7577221 36.2846862,17.106786 36.6996981,17.1234081 Z" id="Path" fill="#000000" fill-rule="nonzero"></path>
                            <path d="M39.9758189,14.5303621 C39.9758189,14.5303621 39.8109135,12.1284701 37.3758103,12.9152491 C37.3758103,12.9152491 39.1293044,13.1645804 39.9758189,14.5303621 Z" id="Path" fill="#000000" fill-rule="nonzero"></path>
                            <path d="M38.1343752,18.4420939 C37.0982195,18.4864194 36.2956799,19.3646199 36.3396547,20.4090412 C36.3836294,21.4506921 37.2548797,22.2624042 38.2910353,22.2180786 C39.3271909,22.173753 40.1297306,21.2927823 40.0857558,20.2511313 C40.041781,19.2094804 39.1677824,18.3977683 38.1343752,18.4420939 Z" id="Path" fill="#FFC4AA" fill-rule="nonzero"></path>
                            <path d="M28.0174285,16.1925711 C27.9926927,15.6052572 27.7013598,15.0982835 27.2698573,14.7713824 C27.2451215,14.8544929 27.2148889,14.951455 27.1846562,15.0594986 C27.0719708,15.4473474 26.9180591,15.9847949 26.7833864,16.5333239 C26.6432168,17.106786 26.5195377,17.6913295 26.4810598,18.1235038 C27.3852911,17.9572829 28.0559064,17.1455709 28.0174285,16.1925711 Z" id="Path" fill="#FFC4AA" fill-rule="nonzero"></path>
                            <path d="M32.3929186,44.8047281 L32.6457736,33.0445997 L32.5248429,32.9670299 C32.5248429,32.9670299 32.5715661,32.9891927 32.6457736,33.0279776 L32.6595157,32.3907975 C32.6540188,32.3852568 32.648522,32.3824864 32.6430251,32.3769457 C31.4502094,32.5819515 27.0692224,32.2966056 24.9749238,36.2194188 C24.3977548,37.302625 23.3561023,40.8514411 22.4930974,44.0068678 L19.9700447,52.2098691 L23.9085355,56.1742375 L24.1201641,55.9387579 L39.9620767,67.6268573 C39.9813157,67.5714503 40.0033031,67.504962 40.0307873,67.4246219 C40.11324,67.1780609 40.2341707,66.8179156 40.3825855,66.3718895 C40.6821637,65.477067 41.099924,64.2248696 41.5699045,62.8064513 C42.5098653,59.9668443 43.6642031,56.448502 44.513466,53.7391014 C45.0796412,51.9328343 45.5138921,50.4839421 45.6595585,49.8439917 C45.7887344,49.281611 46.1955011,48.4421954 46.7946574,47.500277 C47.3938137,46.5583586 48.1853597,45.519478 49.0758489,44.588641 L49.2737353,44.779795 C48.3942398,45.6967803 47.6136876,46.7218092 47.025525,47.6498758 C46.4373624,48.5751722 46.038841,49.4062766 45.9261556,49.9049393 C45.7777407,50.5670526 45.3434898,52.0131744 44.7745662,53.8249822 C44.2056425,55.6340196 43.5047945,57.8004319 42.8204371,59.8837339 C41.4544707,64.053108 40.1599632,67.8983514 40.1599632,67.8983514 L40.0994979,68.0784241 L24.1558936,56.3155253 L20.6571505,60.2023239 C20.7533454,60.3048268 20.9237476,60.4876698 21.1628604,60.7397715 C21.5448913,61.1442423 22.1000728,61.7260155 22.7871787,62.437995 C24.1613904,63.8591836 26.0687963,65.7901164 28.1878307,67.8346334 C32.4258997,71.9236675 37.5352188,76.469809 40.9542576,78.2733058 C41.9299479,78.7885905 42.7654686,79.0767068 43.3811155,79.0739364 C43.8098696,79.0711661 44.1204414,78.94373 44.3403153,78.6694656 C44.3732964,78.6306807 44.4337617,78.5337185 44.5162144,78.3979714 C44.5959187,78.2622244 44.6976103,78.0821517 44.818541,77.8660646 C45.0576538,77.4311199 45.3682256,76.8410357 45.733766,76.1262858 L45.9783756,76.2537219 C45.428691,77.328617 45.0026853,78.1209366 44.7525788,78.5392592 C44.6673777,78.680547 44.6069123,78.7775091 44.5574407,78.8412272 C44.27985,79.1930614 43.864838,79.3509712 43.3838639,79.3482009 C42.6885128,79.3454305 41.8255078,79.0406922 40.8278301,78.5143261 C39.8329008,77.9907302 38.7087957,77.2427362 37.5077346,76.350684 C35.1056125,74.5638094 32.4039123,72.1840802 29.864369,69.8071214 C26.1869785,66.3635785 22.8586377,62.9228059 21.3002816,61.2855301 L21.4761807,72.9431557 L21.393728,72.9431557 L21.4569418,77.1485444 L20.6434084,85.4595892 C20.9732192,85.5676328 22.6002859,86.0662955 25.6263001,86.5926617 C25.7142497,86.6092837 25.8049476,86.6231355 25.898394,86.6397576 C27.6463913,86.9361848 29.8341364,87.2381528 32.486365,87.4764028 C32.577063,87.4847138 32.6677609,87.4930248 32.7612073,87.5013359 C33.4345711,87.5595132 34.1354191,87.6176905 34.8692481,87.6675568 C37.5956842,87.8559405 39.7944229,87.8448591 41.5534139,87.7368155 C41.6468603,87.7312748 41.7375583,87.7229638 41.8282563,87.7174231 C45.623829,87.4514696 47.2508957,86.7117866 47.5889518,86.540025 L46.0883126,75.7550592 C49.9745833,68.0950462 59.1020975,48.3258408 57.1919433,44.3919462 C56.8126608,43.610708 56.3866552,43.0400163 55.9249201,42.6438565 L55.9276685,42.6355454 L55.8232284,42.5635164 C55.7160399,42.4776356 55.6088514,42.4028362 55.4989144,42.3335775 L43.1529964,33.6208321 L42.7462297,33.7344164 L42.3257209,33.8535414 L32.3929186,44.8047281 Z M30.207922,57.7838099 C29.7626774,57.7838099 29.4026339,57.4208942 29.4026339,56.9720978 C29.4026339,56.5233014 29.7626774,56.1603858 30.207922,56.1603858 C30.6531666,56.1603858 31.01321,56.5233014 31.01321,56.9720978 C31.01321,57.4208942 30.6531666,57.7838099 30.207922,57.7838099 Z M31.4062346,50.5919857 C30.96099,50.5919857 30.6009465,50.2290701 30.6009465,49.7802737 C30.6009465,49.3314772 30.96099,48.9685616 31.4062346,48.9685616 C31.8514792,48.9685616 32.2115227,49.3314772 32.2115227,49.7802737 C32.2115227,50.2290701 31.8514792,50.5919857 31.4062346,50.5919857 Z" id="Shape" fill="#A6D6F5" fill-rule="nonzero"></path>
                            <path d="M40.8113396,26.1325807 C38.9726443,27.6562723 36.4468432,28.720086 33.7039166,28.3627111 L32.6540188,28.1521646 L32.6869999,31.0139344 C32.6869999,31.0139344 37.7413506,30.5291234 40.8113396,26.1325807 Z" id="Path" fill="#FFC4AA" fill-rule="nonzero"></path>
                            <path d="M62.3150045,40.7655603 C62.1858286,40.1477727 62.6145827,39.5521478 62.7025322,38.9814561 C62.817966,38.2445434 62.7245196,37.4716162 62.53213,36.7790292 C62.1720865,35.5018986 61.3942827,35.1445237 60.396605,34.4297738 C59.3796883,33.7039426 59.3329651,33.293931 59.3329651,32.0888295 C59.3329651,31.0000826 59.6627759,30.0637049 59.6545307,28.958336 C59.643537,27.3903188 59.0966007,26.5204295 57.8872944,25.5674297 C56.7659376,24.6809182 55.6775619,24.2986101 54.3693124,23.8248806 C53.2067293,23.4037877 52.8906606,22.905125 52.5526045,21.7609711 C52.4041896,21.2567677 52.0991146,20.8190527 51.7005932,20.4644481 C53.0803018,17.6719371 53.5200495,14.1923796 52.9044027,10.4856536 C51.3268076,0.983358994 39.6679954,-0.861692962 36.0895481,0.315705058 C34.926965,0.698013121 34.154658,1.11079502 33.6461997,1.50695482 C26.7476569,3.10821613 27.3193289,9.99530196 28.5808553,9.89002873 C28.5945974,9.8484735 28.6083395,9.80968863 28.6193332,9.77090375 C29.0288483,8.54640981 29.4493571,7.84274134 29.4493571,7.84274134 C30.8153236,5.62646272 32.2939754,4.77596579 33.330131,4.50170131 C33.615967,4.40196878 34.4487393,4.09168977 34.8939839,3.94209096 C35.0039209,3.9559427 35.1166062,3.97256479 35.2292916,3.98918688 C36.6282391,8.5574912 41.2043641,13.6272286 43.7164232,16.1593269 C43.9280518,16.8269808 44.1506741,17.9046463 43.8153664,18.8714979 C43.8153664,18.8714979 44.6230003,18.4750286 45.1781818,17.7353456 C45.3210998,17.8683223 45.4012067,17.782751 45.4012067,17.782751 L45.3709741,17.8658614 C45.4699173,17.8520097 45.5688605,17.846469 45.6650554,17.846469 C45.8629419,17.8907946 46.0498347,17.9212684 46.2284822,17.9434312 C46.3659033,17.9932975 46.5005761,18.0597858 46.6242551,18.1456666 C47.473518,18.7496025 47.5917002,20.0516662 46.8908522,21.0545323 C46.1900042,22.0573984 44.9312263,22.3815291 44.0819635,21.7775932 C44.0050076,21.7221862 43.936297,21.6612386 43.8730833,21.5975206 L43.2629333,23.1184418 C43.0952795,23.4647353 42.8863993,23.8137992 42.644538,24.1573224 L42.6720222,26.7919236 C45.0576538,26.4871853 47.0722482,25.6117552 48.674579,24.3069212 C51.5384362,24.7972728 51.5521784,28.3654814 51.3515435,30.6039228 C51.2086254,32.2024138 51.2333612,33.9477332 51.8600018,35.4021661 C52.231039,36.260974 52.6185667,36.9978867 53.5475338,37.3330988 C54.366564,37.6295261 55.2405626,37.5076308 55.710543,38.4107643 C56.0760833,39.1144328 55.9908822,40.1616244 56.2877119,40.9290109 C56.6807365,41.9512694 57.5299993,42.3031036 58.4507212,42.6521675 C60.0640457,43.2644145 62.8866766,43.0206238 64.1454545,41.5883538 C63.3951349,41.5689613 62.4881552,41.5966648 62.3150045,40.7655603 Z" id="Path" fill="#333333" fill-rule="nonzero"></path>
                        </g>
                    </g>
                </g>
            </g>
            <circle id="Oval" stroke="#EEEEEE" cx="24" cy="24" r="23.5"></circle>
        </g>
    </g>
</svg>