<svg xmlns="http://www.w3.org/2000/svg" width="80" height="80" viewBox="0 0 80 80">
    <defs>
        <linearGradient id="nkwimagtka" x1="50%" x2="50%" y1="1.347%" y2="74.245%">
            <stop offset="0%" stop-color="#F5F5F5" stop-opacity="0"/>
            <stop offset="100%" stop-color="#F5F5F5"/>
        </linearGradient>
    </defs>
    <g fill="none" fill-rule="evenodd">
        <g>
            <g>
                <g>
                    <g>
                        <g transform="translate(-300 -1081) translate(120 1069) translate(152) translate(28 12) translate(2 11)">
                            <path fill="#FFF" stroke="#CECECE" d="M0.5 0.5H45.5V57.5H0.5z"/>
                            <path fill="#E1E1E1" d="M6 48H12V50H6zM14 48H20V50H14zM22 48H28V50H22zM14 34H25V36H14z"/>
                            <circle cx="9" cy="35" r="3" fill="#C5C5C5"/>
                            <path fill="#C5C5C5" d="M6 8H40V12H6zM6 14H22V18H6z"/>
                            <path fill="#E1E1E1" d="M6 22H40V24H6zM6 26H40V28H6z"/>
                        </g>
                        <g transform="translate(-300 -1081) translate(120 1069) translate(152) translate(28 12) translate(50 11)">
                            <path fill="#FFF" stroke="#CECECE" d="M0.5 0.5H27.5V57.5H0.5z"/>
                            <path fill="#E1E1E1" d="M6 48H12V50H6zM14 48H20V50H14zM22 48H28V50H22zM14 34H25V36H14z"/>
                            <circle cx="9" cy="35" r="3" fill="#C5C5C5"/>
                            <path fill="#C5C5C5" d="M6 8H28V12H6zM6 14H22V18H6z"/>
                            <path fill="#E1E1E1" d="M6 22H28V24H6zM6 26H28V28H6z"/>
                        </g>
                        <path fill="url(#nkwimagtka)" d="M44 35H102V45H44z" transform="translate(-300 -1081) translate(120 1069) translate(152) translate(28 12) rotate(-90 73 40)"/>
                        <path fill="#F5F5F5" d="M67.051 11H78v58h-7.184C67.606 63.682 66 58.634 66 53.857c0-4.777.806-9.543 2.418-14.3 1.599-3.678 2.398-7.864 2.398-12.557 0-4.693-1.255-10.026-3.765-16z" transform="translate(-300 -1081) translate(120 1069) translate(152) translate(28 12)"/>
                    </g>
                </g>
            </g>
        </g>
    </g>
</svg>
