<?xml version="1.0" encoding="UTF-8"?>
<svg width="26px" height="26px" viewBox="0 0 26 26" version="1.1" xmlns="http://www.w3.org/2000/svg" xmlns:xlink="http://www.w3.org/1999/xlink">
    <title>602CC8E6-636E-403E-A271-DAC4B35075E0</title>
    <g id="Tutorial_KOR" stroke="none" stroke-width="1" fill="none" fill-rule="evenodd" stroke-linecap="round" stroke-linejoin="round">
        <g id="4rd_kor_Tutorial_P01_01_default" transform="translate(-727.000000, -343.000000)" stroke-width="2">
            <g id="balloon" transform="translate(515.000000, 317.000000)">
                <g id="Group-4" transform="translate(160.000000, 0.000000)">
                    <g id="tuto_icon_02_off" transform="translate(52.000000, 26.000000)">
                        <g id="icon" transform="translate(1.000000, 2.000000)">
                            <path d="M21.4287535,3.38222757 L10.4567424,3.38222757 L10.4567424,2.20614275 C10.4567424,0.987648923 9.30541516,0 7.8849862,0 L2.57124655,0 C1.15183691,0 0,0.987648923 0,2.20614275 L0,19.79342 C0,21.0123511 1.15183691,22 2.57124655,22 L21.4287535,22 C22.8481631,22 24,21.0123511 24,19.79342 L24,5.58837031 C24,4.36987649 22.8481631,3.38222757 21.4287535,3.38222757 Z" id="Stroke-1" stroke="#555555"></path>
                            <polygon id="Stroke-3" stroke="#FF664D" points="9.5 9 15.5624961 12.4997828 9.5 16"></polygon>
                        </g>
                    </g>
                </g>
            </g>
        </g>
    </g>
</svg>