<?xml version="1.0" encoding="UTF-8"?>
<svg width="26px" height="26px" viewBox="0 0 26 26" version="1.1" xmlns="http://www.w3.org/2000/svg" xmlns:xlink="http://www.w3.org/1999/xlink">
    <title>8190044F-3F78-4852-B4C6-5E8699C8667B</title>
    <g id="Tutorial_KOR" stroke="none" stroke-width="1" fill="none" fill-rule="evenodd">
        <g id="4rd_kor_Tutorial_P01_01_hover" transform="translate(-887.000000, -343.000000)" stroke="#FFFFFF" stroke-width="2">
            <g id="balloon" transform="translate(515.000000, 317.000000)">
                <g id="Group-5" transform="translate(320.000000, 0.000000)">
                    <g id="tuto_icon_03_on" transform="translate(52.000000, 26.000000)">
                        <g id="Group-6" transform="translate(1.000000, 2.000000)">
                            <path d="M3.91651184,20.5 L0.0834881553,20.5 C0.0373750366,20.5 0,20.4542009 0,20.3976942 L0,8.6023058 C0,8.54579911 0.0373750366,8.5 0.0834881553,8.5 L3.91651184,8.5 C3.96262496,8.5 4,8.54579911 4,8.6023058 L4,20.3976942 C4,20.4542009 3.96262496,20.5 3.91651184,20.5" id="Fill-1"></path>
                            <path d="M7,7.7634487 L13.8513991,1.07082635 C13.8513991,1.07082635 15.1690021,-1.33853293 16.2230503,1.07082635 C17.2771327,3.48018562 14.6419609,7.7634487 14.6419609,7.7634487 L22.5474423,7.7634487 C22.5474423,7.7634487 24.9190595,9.10196625 23.6014906,12.5821326 C22.2839217,16.0623336 20.9663529,20.6133072 19.9122705,20.8810176 C18.8582222,21.148728 8.58108948,20.8810176 8.58108948,20.8810176 C8.58108948,20.8810176 7,21.148728 7,19.5425 L7,7.7634487 Z" id="Fill-3"></path>
                        </g>
                    </g>
                </g>
            </g>
        </g>
    </g>
</svg>