<?xml version="1.0" encoding="UTF-8"?>
<svg width="26px" height="26px" viewBox="0 0 26 26" version="1.1" xmlns="http://www.w3.org/2000/svg" xmlns:xlink="http://www.w3.org/1999/xlink">
    <title>9B705500-37B2-4C04-98F6-90C37A32E228</title>
    <g id="Tutorial_KOR" stroke="none" stroke-width="1" fill="none" fill-rule="evenodd" stroke-linecap="round" stroke-linejoin="round">
        <g id="4rd_kor_Tutorial_P01_01_hover" transform="translate(-1047.000000, -343.000000)" stroke="#FFFFFF" stroke-width="2">
            <g id="balloon" transform="translate(515.000000, 317.000000)">
                <g id="Group-6" transform="translate(480.000000, 0.000000)">
                    <g id="tuto_icon_04_on" transform="translate(52.000000, 26.000000)">
                        <g id="icon" transform="translate(1.000000, 2.000000)">
                            <path d="M11.9999756,0.580131438 C11.3852938,1.0609611 10.9919561,1.7959843 10.9919561,2.62270724 L10.9919561,4.63154894 L2.69717273,4.63154894 C1.20737569,4.63154894 0,5.80559053 0,7.25425618 L0,2.62270724 C0,1.17404159 1.20737569,0 2.69717273,0 L7.61776005,0" id="Stroke-1"></path>
                            <path d="M21.3028273,0.000142538437 L13.6891777,0.000142538437 C13.0495764,0.000142538437 12.4617687,0.218226347 12.0000244,0.580273976 C11.3853427,1.06062851 10.992005,1.79565171 10.992005,2.62284978 L10.992005,4.63169148 L2.69722159,4.63169148 C1.20742455,4.63169148 4.88618249e-05,5.80573307 4.88618249e-05,7.25439871 L4.88618249e-05,19.378243 C4.88618249e-05,20.8269087 1.20742455,22 2.69722159,22 L21.3028273,22 C22.7926243,22 24,20.8269087 24,19.378243 L24,7.25439871 L24,2.62284978 C24,1.17418413 22.7926243,0.000142538437 21.3028273,0.000142538437 Z" id="Stroke-3"></path>
                            <line x1="11.9999756" y1="10.0056756" x2="11.9999756" y2="15.8948887" id="Stroke-5"></line>
                            <line x1="8.9718617" y1="12.9492369" x2="15.0282849" y2="12.9492369" id="Stroke-7"></line>
                        </g>
                    </g>
                </g>
            </g>
        </g>
    </g>
</svg>