<svg xmlns="http://www.w3.org/2000/svg" width="48" height="48" viewBox="0 0 48 48">
    <g fill="none" fill-rule="evenodd">
        <g>
            <g>
                <g transform="translate(-868 -338) translate(824 308) translate(44 30)">
                    <path d="M0 0H48V48H0z"/>
                    <path fill="#FFF" d="M41 12h3c1.105 0 2 .895 2 2v20c0 1.105-.895 2-2 2h-3V12z"/>
                    <path fill="#FFF" d="M2 12h3c1.105 0 2 .895 2 2v20c0 1.105-.895 2-2 2H2V12z" transform="matrix(-1 0 0 1 9 0)"/>
                    <rect width="30" height="36" x="9" y="6" fill="#FFF" rx="2"/>
                    <path fill="#FF664D" d="M15 12H33V24H15zM15 27H33V30H15zM15 32H27V35H15z"/>
                </g>
            </g>
        </g>
    </g>
</svg>
