<svg xmlns="http://www.w3.org/2000/svg" width="48" height="48" viewBox="0 0 48 48">
    <g fill="none" fill-rule="evenodd">
        <g>
            <g>
                <g transform="translate(-564 -678) translate(520 648) translate(44 30)">
                    <path d="M0 0H48V48H0z"/>
                    <path fill="#CECECE" d="M4 11H44V37H4zM44 39v1c0 .552-.448 1-1 1h-7v-2h8zm-10 0v2h-9v-2h9zm-11 0v2h-9v-2h9zm-11 2H5c-.552 0-1-.448-1-1v-1h8v2z"/>
                    <path fill="#CECECE" d="M44 7v1c0 .552-.448 1-1 1h-7V7h8zM34 7v2h-9V7h9zM23 7v2h-9V7h9zM12 9H5c-.552 0-1-.448-1-1V7h8v2z" transform="matrix(1 0 0 -1 0 16)"/>
                    <circle cx="24" cy="24" r="9" fill="#F5F5F5"/>
                    <path fill="#CECECE" stroke="#CECECE" stroke-linecap="round" stroke-linejoin="round" stroke-width=".5" d="M22.153 20.379l5.168 3.469-5.168 3.469v-6.938z"/>
                </g>
            </g>
        </g>
    </g>
</svg>
