<?xml version="1.0" encoding="UTF-8"?>
<svg width="48px" height="48px" viewBox="0 0 48 48" version="1.1" xmlns="http://www.w3.org/2000/svg" xmlns:xlink="http://www.w3.org/1999/xlink">
    <title>A2895FCB-CD66-4DF8-BB68-7C4F2387AA1B</title>
    <g id="Admin" stroke="none" stroke-width="1" fill="none" fill-rule="evenodd">
        <g id="CommunityAdmin_04_Intro_02_Select(ID-20-11)" transform="translate(-600.000000, -407.000000)">
            <g id="#pop-up" transform="translate(450.000000, 240.000000)">
                <g id="고르시오" transform="translate(106.000000, 137.000000)">
                    <g id="Type_comp_on" transform="translate(44.000000, 30.000000)">
                        <rect id="Rectangle" fill="#FFFFFF" x="10" y="9.5" width="28" height="28"></rect>
                        <rect id="Rectangle" fill="#FF664D" x="18" y="22" width="12" height="3"></rect>
                        <rect id="Rectangle" fill="#FF664D" transform="translate(24.000000, 23.500000) rotate(-270.000000) translate(-24.000000, -23.500000) " x="18" y="22" width="12" height="3"></rect>
                        <g id="dot" transform="translate(3.500000, 3.000000)" fill="#FFFFFF">
                            <rect id="Rectangle" x="0" y="0" width="5" height="2"></rect>
                            <rect id="Rectangle-Copy-15" x="0" y="39" width="5" height="2"></rect>
                            <rect id="Rectangle-Copy-16" x="9" y="39" width="5" height="2"></rect>
                            <rect id="Rectangle-Copy-17" x="18" y="39" width="5" height="2"></rect>
                            <rect id="Rectangle-Copy-18" x="27" y="39" width="5" height="2"></rect>
                            <rect id="Rectangle-Copy-19" x="36" y="39" width="5" height="2"></rect>
                            <rect id="Rectangle-Copy-10" x="36" y="0" width="5" height="2"></rect>
                            <rect id="Rectangle-Copy-6" x="9" y="0" width="5" height="2"></rect>
                            <rect id="Rectangle-Copy-7" x="18" y="0" width="5" height="2"></rect>
                            <rect id="Rectangle-Copy-8" x="27" y="0" width="5" height="2"></rect>
                            <rect id="Rectangle-Copy-5" transform="translate(1.000000, 2.500000) rotate(-270.000000) translate(-1.000000, -2.500000) " x="-1.5" y="1.5" width="5" height="2"></rect>
                            <rect id="Rectangle-Copy-14" transform="translate(1.000000, 38.500000) rotate(-270.000000) translate(-1.000000, -38.500000) " x="-1.5" y="37.5" width="5" height="2"></rect>
                            <rect id="Rectangle-Copy-20" transform="translate(40.000000, 38.500000) rotate(-270.000000) translate(-40.000000, -38.500000) " x="37.5" y="37.5" width="5" height="2"></rect>
                            <rect id="Rectangle-Copy-9" transform="translate(40.000000, 2.500000) rotate(-270.000000) translate(-40.000000, -2.500000) " x="37.5" y="1.5" width="5" height="2"></rect>
                            <rect id="Rectangle-Copy-11" transform="translate(1.000000, 11.500000) rotate(-270.000000) translate(-1.000000, -11.500000) " x="-1.5" y="10.5" width="5" height="2"></rect>
                            <rect id="Rectangle-Copy-21" transform="translate(40.000000, 11.500000) rotate(-270.000000) translate(-40.000000, -11.500000) " x="37.5" y="10.5" width="5" height="2"></rect>
                            <rect id="Rectangle-Copy-12" transform="translate(1.000000, 20.500000) rotate(-270.000000) translate(-1.000000, -20.500000) " x="-1.5" y="19.5" width="5" height="2"></rect>
                            <rect id="Rectangle-Copy-22" transform="translate(40.000000, 20.500000) rotate(-270.000000) translate(-40.000000, -20.500000) " x="37.5" y="19.5" width="5" height="2"></rect>
                            <rect id="Rectangle-Copy-13" transform="translate(1.000000, 29.500000) rotate(-270.000000) translate(-1.000000, -29.500000) " x="-1.5" y="28.5" width="5" height="2"></rect>
                            <rect id="Rectangle-Copy-23" transform="translate(40.000000, 29.500000) rotate(-270.000000) translate(-40.000000, -29.500000) " x="37.5" y="28.5" width="5" height="2"></rect>
                        </g>
                    </g>
                </g>
            </g>
        </g>
    </g>
</svg>