<svg xmlns="http://www.w3.org/2000/svg" width="48" height="48" viewBox="0 0 48 48">
    <g fill="none" fill-rule="evenodd">
        <g>
            <g>
                <g transform="translate(-716 -678) translate(672 648) translate(44 30)">
                    <path fill="#CECECE" d="M42 20c1.105 0 2 .895 2 2v18c0 1.105-.895 2-2 2H16c-1.105 0-2-.895-2-2v-3h23c1.054 0 1.918-.816 1.995-1.85L39 35V20h3z"/>
                    <rect width="33" height="25" x="4" y="9.84" fill="#CECECE" rx="2"/>
                    <path fill="#F5F5F5" d="M10 16H22V19H10z"/>
                    <path fill="#CECECE" d="M6 6.64h8c1.105 0 2 .895 2 2v4H4v-4c0-1.105.895-2 2-2z"/>
                </g>
            </g>
        </g>
    </g>
</svg>
