<?xml version="1.0" encoding="UTF-8"?>
<svg width="18px" height="18px" viewBox="0 0 18 18" version="1.1" xmlns="http://www.w3.org/2000/svg" xmlns:xlink="http://www.w3.org/1999/xlink">
    <title>58A27695-B228-47D9-8125-408810A011E0</title>
    <g id="[00]-카드" stroke="none" stroke-width="1" fill="none" fill-rule="evenodd">
        <g id="[N]-Card-UI_PC" transform="translate(-148.000000, -1228.000000)" fill="#FFFFFF">
            <g id="2_A_01" transform="translate(142.000000, 1222.000000)">
                <g id="icon_tictoc" transform="translate(6.000000, 6.000000)">
                    <path d="M9,2 C12.8659932,2 16,5.13400675 16,9 C16,12.8659932 12.8659932,16 9,16 C5.13400675,16 2,12.8659932 2,9 C2,5.13400675 5.13400675,2 9,2 Z M8.75,5 C8.33578644,5 8,5.33578644 8,5.75 L8,9.25 C8,9.60327908 8.24425889,9.89950845 8.57307722,9.9788809 C8.63681097,10.0982673 8.73362565,10.2018711 8.85945554,10.2745191 L11.0245191,11.5245191 C11.3832385,11.7316258 11.8419313,11.6087195 12.0490381,11.25 C12.2561449,10.8912805 12.1332385,10.4325877 11.7745191,10.2254809 L9.60945554,8.97548095 C9.57415602,8.95510076 9.53788842,8.93791622 9.50098773,8.92383756 L9.5,5.75 C9.5,5.33578644 9.16421356,5 8.75,5 Z" id="Combined-Shape"></path>
                </g>
            </g>
        </g>
    </g>
</svg>