<?xml version="1.0" encoding="UTF-8"?>
<svg width="24px" height="24px" viewBox="0 0 24 24" version="1.1" xmlns="http://www.w3.org/2000/svg" xmlns:xlink="http://www.w3.org/1999/xlink">
    <title>51084905-9125-41DC-9BFA-6438533BDB42</title>
    <g id="Collection" stroke="none" stroke-width="1" fill="none" fill-rule="evenodd">
        <g id="Collection_Chapter_Overview_01" transform="translate(-420.000000, -1963.000000)">
            <g id="@-Contents" transform="translate(400.000000, 163.000000)">
                <g id="[+]-02_Disscussion" transform="translate(0.000000, 1371.000000)">
                    <g id="contents" transform="translate(0.000000, 85.000000)">
                        <g id="이수조건" transform="translate(0.000000, 280.000000)">
                            <g id="icon_24px_comment_mint" transform="translate(20.000000, 64.000000)">
                                <rect id="area" fill="#FFFFFF" x="0" y="0" width="24" height="24"></rect>
                                <path d="M21,22 L18,19 L5,19 C4.44771525,19 4,18.5522847 4,18 L4,5 C4,4.44771525 4.44771525,4 5,4 L20,4 C20.5522847,4 21,4.44771525 21,5 L21,22 Z" id="Combined-Shape-Copy-3" fill="#00BFAE" transform="translate(12.500000, 13.000000) scale(-1, 1) translate(-12.500000, -13.000000) "></path>
                                <rect id="Rectangle" fill="#FFFFFF" x="7.5" y="8.5" width="10" height="1.5"></rect>
                                <rect id="Rectangle-Copy-11" fill="#FFFFFF" x="7.5" y="12.5" width="7" height="1.5"></rect>
                            </g>
                        </g>
                    </g>
                </g>
            </g>
        </g>
    </g>
</svg>