<?xml version="1.0" encoding="UTF-8"?>
<svg width="24px" height="24px" viewBox="0 0 24 24" version="1.1" xmlns="http://www.w3.org/2000/svg" xmlns:xlink="http://www.w3.org/1999/xlink">
    <title>E1A87658-1FCE-4C48-89D6-598439EFAF4E</title>
    <g id="Collection" stroke="none" stroke-width="1" fill="none" fill-rule="evenodd">
        <g id="Collection_Chapter_Overview_01" transform="translate(-420.000000, -1997.000000)">
            <g id="@-Contents" transform="translate(400.000000, 163.000000)">
                <g id="[+]-02_Disscussion" transform="translate(0.000000, 1371.000000)">
                    <g id="contents" transform="translate(0.000000, 85.000000)">
                        <g id="이수조건" transform="translate(0.000000, 280.000000)">
                            <g id="icon_24px_commentreply_mint" transform="translate(20.000000, 98.000000)">
                                <rect id="area" fill="#FFFFFF" x="0" y="0" width="24" height="24"></rect>
                                <path d="M20,4 C20.5522847,4 21,4.44771525 21,5 L21,13 C21,13.0814547 20.9902611,13.1606348 20.9718843,13.2364393 L21,13.2362242 L21,15.9998924 L19,14 L10,14 C9.44771525,14 9,13.5522847 9,13 L9,5 C9,4.44771525 9.44771525,4 10,4 L20,4 Z" id="Combined-Shape" fill="#00BFAE"></path>
                                <path d="M7.5,9.5 L7.5,15.5 L15.5,15.5 L15.5,18.5 C15.5,19.0128358 15.1139598,19.4355072 14.6166211,19.4932723 L14.5,19.5 L5.5,19.5 L3.5,21.4998924 L3.5,18.7362242 L3.5281157,18.7364393 C3.50973886,18.6606348 3.5,18.5814547 3.5,18.5 L3.5,10.5 C3.5,9.94771525 3.94771525,9.5 4.5,9.5 L7.5,9.5 Z" id="Combined-Shape" fill="#00BFAE"></path>
                            </g>
                        </g>
                    </g>
                </g>
            </g>
        </g>
    </g>
</svg>