<?xml version="1.0" encoding="UTF-8"?><svg version="1.1" width="24px" height="24px" viewBox="0 0 24.0 24.0" xmlns="http://www.w3.org/2000/svg" xmlns:xlink="http://www.w3.org/1999/xlink"><defs><clipPath id="i0"><path d="M1920,0 L1920,1500 L0,1500 L0,0 L1920,0 Z"></path></clipPath><clipPath id="i1"><path d="M764,0 L764,430 L0,430 L0,0 L764,0 Z"></path></clipPath></defs><g transform="translate(-921.0 -658.0)"><g clip-path="url(#i0)"><g transform="translate(400.0 163.0)"><g transform="translate(0.0 210.0)"><g transform="translate(0.0 60.0)"><g clip-path="url(#i1)"><g transform="translate(497.0 213.0)"><g transform="translate(24.0 12.0)"><g transform="translate(4.375 6.366905521281296)"><path d="M14.25,6.34643555 L14.25,10.5 C14.25,11.3284271 13.5784271,12 12.75,12 L1.5,12 C0.671572875,12 0,11.3284271 0,10.5 L0,1.5 C0,0.671572875 0.671572875,0 1.5,0 L8.08331299,0" stroke="#212121" stroke-width="1.5" fill="none" stroke-linecap="round" stroke-miterlimit="10"></path></g><g transform="translate(15.0341796875 4.415306400187546)"><path d="M0,0 L4.97106934,0 L4.97106934,4.97711182" stroke="#212121" stroke-width="1.5" fill="none" stroke-linecap="round" stroke-linejoin="round"></path></g><g transform="translate(13.037353515624773 5.415306400187546)"><path d="M5.96789551,0 L0,5.95159912" stroke="#212121" stroke-width="1.5" fill="none" stroke-linecap="round" stroke-miterlimit="10"></path></g></g></g></g></g></g></g></g></g></svg>