<?xml version="1.0" encoding="UTF-8"?><svg version="1.1" width="24px" height="24px" viewBox="0 0 24.0 24.0" xmlns="http://www.w3.org/2000/svg" xmlns:xlink="http://www.w3.org/1999/xlink"><defs><clipPath id="i0"><path d="M1920,0 L1920,1500 L0,1500 L0,0 L1920,0 Z"></path></clipPath><clipPath id="i1"><path d="M764,0 L764,430 L0,430 L0,0 L764,0 Z"></path></clipPath></defs><g transform="translate(-553.0 -658.0)"><g clip-path="url(#i0)"><g transform="translate(400.0 163.0)"><g transform="translate(0.0 210.0)"><g transform="translate(0.0 60.0)"><g clip-path="url(#i1)"><g transform="translate(137.0 213.0)"><g transform="translate(16.0 12.0)"><g transform="translate(7.647058823529413 4.0)"><path d="M1,0 L11.3529412,0 C11.9052259,-1.01453063e-16 12.3529412,0.44771525 12.3529412,1 L12.3529412,11.3529412 C12.3529412,11.9052259 11.9052259,12.3529412 11.3529412,12.3529412 L1,12.3529412 C0.44771525,12.3529412 6.76353751e-17,11.9052259 0,11.3529412 L0,1 C-6.76353751e-17,0.44771525 0.44771525,1.01453063e-16 1,0 Z" stroke="#FFFFFF" stroke-width="1.5" fill="none" stroke-miterlimit="10"></path></g><g transform="translate(4.000000000000012 8.529411764706095)"><path d="M11.4705882,9.09681817 L11.4705882,8.21446523 L11.4705882,10.6512605 C11.4705882,11.1037627 11.1037627,11.4705882 10.6512605,11.4705882 L0.819327731,11.4705882 C0.36682552,11.4705882 0,11.1037627 0,10.6512605 L0,0.819327731 C0,0.36682552 0.36682552,0 0.819327731,0 L2.43958032,0 L3.32193327,0" stroke="#FFFFFF" stroke-width="1.5" fill="none" stroke-miterlimit="10"></path></g></g></g></g></g></g></g></g></g></svg>