<?xml version="1.0" encoding="UTF-8"?>
<svg width="18px" height="18px" viewBox="0 0 18 18" version="1.1" xmlns="http://www.w3.org/2000/svg" xmlns:xlink="http://www.w3.org/1999/xlink">
    <title>50EC9533-68EB-48B3-BDE6-A9165450FCC8</title>
    <g id="[00]-카드" stroke="none" stroke-width="1" fill="none" fill-rule="evenodd">
        <g id="[N]-Card-UI_PC" transform="translate(-2010.000000, -1228.000000)">
            <g id="2_A_04-Copy" transform="translate(2004.000000, 1222.000000)">
                <g id="icon_18px_today" transform="translate(6.000000, 6.000000)">
                    <g id="icon_people"></g>
                    <path d="M9,2 C12.8659932,2 16,5.13400675 16,9 C16,12.8659932 12.8659932,16 9,16 C5.13400675,16 2,12.8659932 2,9 C2,5.13400675 5.13400675,2 9,2 Z M9,11.5 C8.44771525,11.5 8,11.9477153 8,12.5 C8,13.0522847 8.44771525,13.5 9,13.5 C9.55228475,13.5 10,13.0522847 10,12.5 C10,11.9477153 9.55228475,11.5 9,11.5 Z M9,4.5 C8.98306976,4.5 8.96614255,4.50045363 8.9492366,4.5013604 C8.42653174,4.52939625 8.02552326,4.97585981 8.05355911,5.49856468 L8.28370881,9.78951263 C8.30507747,10.1879134 8.63435179,10.5 9.0333252,10.5 C9.43107816,10.5 9.75816507,10.1865277 9.77506531,9.78913393 L9.95751071,5.49909692 C9.95808763,5.48553101 9.9583762,5.47195437 9.9583762,5.4583762 C9.9583762,4.92907964 9.52929656,4.5 9,4.5 Z" id="Combined-Shape" fill="#FFFFFF"></path>
                </g>
            </g>
        </g>
    </g>
</svg>