<svg width="18" height="16" viewBox="0 0 18 16" xmlns="http://www.w3.org/2000/svg">
    <g fill="none" fill-rule="evenodd">
        <path d="M7.61 15.808a1.506 1.506 0 0 1-2.074-.674 2.924 2.924 0 0 0-2.25-1.635 1.506 1.506 0 0 1-1.282-1.764 2.924 2.924 0 0 0-.86-2.645 1.506 1.506 0 0 1 0-2.18 2.924 2.924 0 0 0 .86-2.645A1.506 1.506 0 0 1 3.286 2.5 2.924 2.924 0 0 0 5.536.866 1.506 1.506 0 0 1 7.609.192c.868.47 1.914.47 2.782 0a1.506 1.506 0 0 1 2.073.674 2.924 2.924 0 0 0 2.25 1.635 1.506 1.506 0 0 1 1.282 1.764c-.178.97.145 1.965.86 2.645a1.506 1.506 0 0 1 0 2.18 2.924 2.924 0 0 0-.86 2.645 1.506 1.506 0 0 1-1.282 1.764 2.924 2.924 0 0 0-2.25 1.635 1.506 1.506 0 0 1-2.073.674 2.924 2.924 0 0 0-2.782 0z" fill="#FF664D"/>
        <path stroke="#FFF" stroke-width="1.5" d="M5.446 8 8 10.5l5-5"/>
    </g>
</svg>
