<?xml version="1.0" encoding="UTF-8"?>
<svg width="100px" height="100px" viewBox="0 0 100 100" version="1.1" xmlns="http://www.w3.org/2000/svg" xmlns:xlink="http://www.w3.org/1999/xlink">
    <title>4FD9A18E-4E6A-4B77-BA94-71AA357539C3</title>
    <defs>
        <path d="M0,1.9998644 C0,3.10448166 0.895307838,4 2,4 L2,4 C3.10469216,4 4,3.10448166 4,1.9998644 L4,1.9998644 C4,0.89551834 3.10469216,0 2,0 L2,0 C0.895307838,0 0,0.89551834 0,1.9998644" id="path-1"></path>
        <path d="M0,1.99972878 C0,3.10469216 0.895307838,4 2,4 L2,4 C3.10442094,4 4,3.10469216 4,1.99972878 L4,1.99972878 C4,0.895307838 3.10442094,0 2,0 L2,0 C0.895307838,0 0,0.895307838 0,1.99972878" id="path-3"></path>
        <path d="M0,10.3616033 C0,12.1661342 0.46825597,13.8626198 1.28969055,15.3406913 L1.28969055,15.3406913 L1.28910192,15.3406913 C1.28910192,15.3406913 1.2943996,15.3476619 1.29704844,15.3531804 L1.29704844,15.3531804 C1.45097545,15.6288121 1.61667508,15.8983445 1.7956189,16.1588731 L1.7956189,16.1588731 C2.98435923,18.1004938 5.86364783,22.9148998 5.84716616,24 L5.84716616,24 L10.4994114,24 L10.5002943,24 L15.1531282,24 C15.1354692,22.9166425 18.0109317,18.1074644 19.2017323,16.1632297 L19.2017323,16.1632297 C19.3836192,15.8983445 19.5525563,15.6232936 19.7100151,15.3415626 L19.7100151,15.3415626 L19.7100151,15.3406913 C20.5320383,13.8626198 21,12.1661342 21,10.3616033 L21,10.3616033 C21,4.63897764 16.2994871,0 10.5002943,0 L10.5002943,0 C4.7013959,0 0,4.63897764 0,10.3616033" id="path-5"></path>
        <polygon id="path-7" points="0 0 23 0 23 26.3462485 0 26.3462485"></polygon>
        <linearGradient x1="50%" y1="0%" x2="50%" y2="100%" id="linearGradient-9">
            <stop stop-color="#08D9D0" offset="0%"></stop>
            <stop stop-color="#3DF0B0" offset="100%"></stop>
        </linearGradient>
    </defs>
    <g id="New_MyPage" stroke="none" stroke-width="1" fill="none" fill-rule="evenodd">
        <g id="My-Page_07_My_Foundation_최종" transform="translate(-650.000000, -866.000000)">
            <g id="Contents" transform="translate(650.000000, 162.000000)">
                <g id="02-copy-2" transform="translate(0.000000, 702.000000)">
                    <g id="icon_100px_fs_04" transform="translate(0.000000, 2.000000)">
                        <circle id="Oval" fill="#F5F5F5" cx="50" cy="50" r="50"></circle>
                        <g id="Group-54" transform="translate(31.000000, 17.999971)">
                            <g id="Group-13" transform="translate(0.000000, 10.000029)">
                                <path d="M36.2884561,17.1399363 C34.5940826,7.35489795 28.7654258,1.1732835 19.4356326,1.1732835 C8.8666135,1.1732835 1.17676434,8.38159801 1.17676434,20.0859788 C1.17676434,25.1983585 3.07179126,30.7601394 6.54027011,34.2526797 L6.8844995,48.8268338 L23.8882544,48.5238106 L22.6687409,39.4979437 C24.370764,39.6836297 25.1377777,39.7443517 26.8130274,39.6619223 C34.9789134,39.2632694 33.8367779,36.6404907 36.1339942,27.7187605 L40.8231634,23.965145 L36.2884561,17.1399363 Z" id="Fill-1" fill="#FFFFFF"></path>
                                <path d="M19.4357208,2.34674301 C9.2185807,2.34674301 2.35370522,9.4755616 2.35370522,20.0860668 C2.35370522,25.1952197 4.27785923,30.3070127 7.37651215,33.4270075 C7.58805141,33.6399744 7.70985565,33.925397 7.71691677,34.2251935 L8.03349012,47.632723 L22.5455538,47.3742879 L21.5025682,39.6546768 C21.4543173,39.2967985 21.5737678,38.9368667 21.8264969,38.678725 C22.079226,38.4199966 22.4375776,38.2929791 22.7968119,38.331407 C24.5850394,38.5267734 25.1664046,38.5681347 26.7551556,38.4901055 C32.5926388,38.2049763 32.8115334,37.1955834 34.0266337,31.5927345 C34.289366,30.3812284 34.5871097,29.0080904 34.9940065,27.4272656 C35.0575566,27.1814443 35.1987789,26.9629039 35.3970785,26.803912 L39.2489171,23.7202917 L35.3073435,17.7880187 C35.2173143,17.6524943 35.1567064,17.4996627 35.1287562,17.3394974 C33.4546833,7.67120957 27.8814036,2.34674301 19.4357208,2.34674301 M6.88399933,50 C6.24643943,50 5.72303424,49.4925168 5.70773515,48.8542027 L5.37439165,34.7359034 C2.04948882,31.1723741 0,25.6102999 0,20.0860668 C0,8.07191594 7.81077076,0 19.4357208,0 C28.9455725,0 35.4838714,6.08158452 37.4047891,16.6953165 L41.8041584,23.3169452 C42.1401498,23.8226684 42.034233,24.5 41.5599614,24.8798761 L37.1779508,28.3879636 C36.8298966,29.7699018 36.5639279,30.9963684 36.3270863,32.0887773 C35.0805052,37.8371243 34.511497,40.4610763 26.8707814,40.8339151 C25.6668612,40.892877 24.9030838,40.8787966 24.033684,40.810741 L25.0546036,48.3672535 C25.0996182,48.6993177 24.99988,49.0343152 24.7809854,49.2883502 C24.562385,49.5423851 24.2452232,49.69111 23.9092318,49.6969768 L6.90547689,50 C6.89841578,50 6.89106045,50 6.88399933,50" id="Fill-3" fill="#515151"></path>
                                <line x1="18.2038504" y1="22.9881665" x2="11.7299842" y2="31.1131775" id="Fill-5" fill="#FFFFFF"></line>
                                <path d="M11.7291309,32.2866371 C11.4725771,32.2866371 11.2142579,32.203621 10.997717,32.0320154 C10.4890225,31.6289623 10.4039949,30.8906183 10.808538,30.3834285 L17.2824042,22.2581241 C17.6866531,21.7509343 18.4268934,21.6661582 18.9358821,22.0695047 C19.4448709,22.4725578 19.5296042,23.2109018 19.1253554,23.7180916 L12.651195,31.8431026 C12.4190608,32.1346854 12.075714,32.2866371 11.7291309,32.2866371" id="Fill-7" fill="#515151"></path>
                                <line x1="11.7298665" y1="31.1132656" x2="16.8385837" y2="39.6944247" id="Fill-9" fill="#FFFFFF"></line>
                                <path d="M16.8397899,40.8680602 C16.4378948,40.8680602 16.0465913,40.6627202 15.826814,40.2934015 L10.7178027,31.7122424 C10.3859302,31.1548909 10.5704019,30.4350275 11.1291126,30.1044301 C11.6884118,29.7735393 12.4101167,29.9571719 12.7416949,30.5142301 L17.8507063,39.0953892 C18.1822845,39.6527407 17.9984013,40.3726041 17.4393963,40.7032015 C17.2510999,40.8146718 17.0439739,40.8680602 16.8397899,40.8680602" id="Fill-11" fill="#515151"></path>
                            </g>
                            <g id="Group-16" transform="translate(10.000000, 39.000029)">
                                <mask id="mask-2" fill="white">
                                    <use xlink:href="#path-1"></use>
                                </mask>
                                <g id="Clip-15"></g>
                                <path d="M0,1.9998644 C0,3.10448166 0.895307838,4 2,4 L2,4 C3.10469216,4 4,3.10448166 4,1.9998644 L4,1.9998644 C4,0.89551834 3.10469216,0 2,0 L2,0 C0.895307838,0 0,0.89551834 0,1.9998644" id="Fill-14" mask="url(#mask-2)"></path>
                            </g>
                            <g id="Group-21" transform="translate(9.729984, 39.000029)">
                                <line x1="7.08176805" y1="11.2338823" x2="1.45809848" y2="20.7660161" id="Fill-17" fill="#FFFFFF"></line>
                                <path d="M1.45705893,21 C1.24558471,21 1.03114036,20.9460037 0.83778402,20.8332051 C0.278208998,20.5069657 0.102376506,19.8106678 0.445131058,19.278055 L6.06850362,10.5402657 C6.41155518,10.0079356 7.1428045,9.84029264 7.70237952,10.1668148 C8.26195454,10.4930542 8.43749002,11.1893521 8.09503248,11.7219649 L2.47136291,20.4597543 C2.24711708,20.8077618 1.85684023,21 1.45705893,21" id="Fill-19" fill="#515151"></path>
                                <circle id="Oval" fill="#515151" cx="2" cy="2" r="2"></circle>
                                <circle id="Oval-Copy" fill="#515151" cx="7" cy="11" r="2"></circle>
                            </g>
                            <g id="Group-27" transform="translate(16.000000, 23.000029)">
                                <mask id="mask-4" fill="white">
                                    <use xlink:href="#path-3"></use>
                                </mask>
                                <g id="Clip-26"></g>
                                <path d="M0,1.99972878 C0,3.10469216 0.895307838,4 2,4 L2,4 C3.10442094,4 4,3.10469216 4,1.99972878 L4,1.99972878 C4,0.895307838 3.10442094,0 2,0 L2,0 C0.895307838,0 0,0.895307838 0,1.99972878" id="Fill-25" mask="url(#mask-4)"></path>
                            </g>
                            <g id="Group-30" transform="translate(8.000000, 1.000029)">
                                <mask id="mask-6" fill="white">
                                    <use xlink:href="#path-5"></use>
                                </mask>
                                <g id="Clip-29"></g>
                                <path d="M0,10.3616033 C0,12.1661342 0.46825597,13.8626198 1.28969055,15.3406913 L1.28969055,15.3406913 L1.28910192,15.3406913 C1.28910192,15.3406913 1.2943996,15.3476619 1.29704844,15.3531804 L1.29704844,15.3531804 C1.45097545,15.6288121 1.61667508,15.8983445 1.7956189,16.1588731 L1.7956189,16.1588731 C2.98435923,18.1004938 5.86364783,22.9148998 5.84716616,24 L5.84716616,24 L10.4994114,24 L10.5002943,24 L15.1531282,24 C15.1354692,22.9166425 18.0109317,18.1074644 19.2017323,16.1632297 L19.2017323,16.1632297 C19.3836192,15.8983445 19.5525563,15.6232936 19.7100151,15.3415626 L19.7100151,15.3415626 L19.7100151,15.3406913 C20.5320383,13.8626198 21,12.1661342 21,10.3616033 L21,10.3616033 C21,4.63897764 16.2994871,0 10.5002943,0 L10.5002943,0 C4.7013959,0 0,4.63897764 0,10.3616033" id="Fill-28" mask="url(#mask-6)"></path>
                            </g>
                            <g id="Group-53" transform="translate(7.000000, 0.000000)">
                                <g id="Group-33" transform="translate(0.000000, 0.000029)">
                                    <mask id="mask-8" fill="white">
                                        <use xlink:href="#path-7"></use>
                                    </mask>
                                    <g id="Clip-32"></g>
                                    <path d="M7.82009275,24.0206878 L15.1857042,24.0206878 C15.5845347,22.9395928 16.5839298,20.8753669 19.0772003,16.738485 C19.087345,16.7219154 19.0980694,16.7053458 19.1090836,16.6887762 C19.2629927,16.4605805 19.412844,16.2140711 19.5551593,15.9556432 C20.2910828,14.6094342 20.6812179,13.0792152 20.6812179,11.5332987 C20.6812179,6.45601824 16.5627709,2.32553167 11.5002898,2.32553167 C6.4375189,2.32553167 2.31878214,6.45601824 2.31878214,11.5332987 C2.31878214,13.0771804 2.70746799,14.6047831 3.44281178,15.9518641 C3.4460001,15.9570966 3.44860873,15.9623291 3.45150721,15.9675617 L3.45179706,15.9675617 C3.59150368,16.2213385 3.7378768,16.462034 3.88743825,16.683253 C3.89874231,16.6998226 3.90975653,16.7169736 3.92019105,16.7344153 C6.42708438,20.8965876 7.4247404,22.9474415 7.82009275,24.0206878 M16.0822033,26.3462485 L6.91779665,26.3462485 C6.60707985,26.3462485 6.30969604,26.2212496 6.09202036,25.99974 C5.88159089,25.7854977 5.76217361,25.498291 5.75840559,25.198875 C5.69261014,24.7462628 4.82103791,22.7300016 1.95067547,17.9620207 C1.77357849,17.6983602 1.60111906,17.4155139 1.43764492,17.1201677 C1.4217033,17.0937144 1.40663121,17.0669705 1.39300837,17.0393545 C0.481437141,15.3582647 0,13.455084 0,11.5332987 C0,5.17376218 5.1590004,-2.90695088e-05 11.5002898,-2.90695088e-05 C17.8412894,-2.90695088e-05 23,5.17376218 23,11.5332987 C23,13.469328 22.5113167,15.3858808 21.5867023,17.075982 C21.4156921,17.3876072 21.2345373,17.6864417 21.0470057,17.9660904 C18.5453297,22.1186698 17.3244909,24.6171941 17.2413046,25.1977122 C17.2378264,25.4974189 17.118699,25.7846256 16.9082695,25.9991586 C16.6905938,26.220959 16.3929202,26.3462485 16.0822033,26.3462485" id="Fill-31" fill="#515151" mask="url(#mask-8)"></path>
                                </g>
                                <path d="M11.4396537,14.2909486 C10.79938,14.2909486 10.2802626,13.7703137 10.2802626,13.1281683 L10.2802626,8.18780518 C10.2802626,7.54565972 10.79938,7.02502481 11.4396537,7.02502481 C12.0799274,7.02502481 12.5990448,7.54565972 12.5990448,8.18780518 L12.5990448,13.1281683 C12.5990448,13.7703137 12.0799274,14.2909486 11.4396537,14.2909486" id="Fill-34" fill="#FFFFFF"></path>
                                <path d="M12.7817358,17.052552 C12.7817358,17.7961501 12.1814611,18.3978889 11.4397406,18.3978889 C10.6988898,18.3978889 10.0974556,17.7961501 10.0974556,17.052552 C10.0974556,16.3083726 10.6988898,15.705471 11.4397406,15.705471 C12.1814611,15.705471 12.7817358,16.3083726 12.7817358,17.052552" id="Fill-36" fill="#FFFFFF"></path>
                                <g id="Group-40">
                                    <path d="M11,1.00002907 C3.73389988,3.87265938 0.540443868,7.65490705 1.41963196,12.3467721 C2.29882005,17.0386371 4.23560412,21.1080905 7.22998416,24.5551324 L15.822197,22.9172085 L21.1771469,15.106627 C22.6566865,9.76748004 21.6273362,5.98229836 18.0890961,3.75108193 C14.5508559,1.5198655 12.1878239,0.602847876 11,1.00002907 Z" id="Path-6" fill="url(#linearGradient-9)"></path>
                                    <path d="M7.82009275,24.0207169 L15.1857042,24.0207169 C15.5845347,22.9396218 16.5839298,20.875396 19.0772003,16.7385141 C19.087345,16.7219445 19.0980694,16.7053749 19.1090836,16.6888053 C19.2629927,16.4606096 19.412844,16.2141002 19.5551593,15.9556722 C20.2910828,14.6094633 20.6812179,13.0792443 20.6812179,11.5333278 C20.6812179,6.45604731 16.5627709,2.32556074 11.5002898,2.32556074 C6.4375189,2.32556074 2.31878214,6.45604731 2.31878214,11.5333278 C2.31878214,13.0772094 2.70746799,14.6048121 3.44281178,15.9518932 C3.4460001,15.9571257 3.44860873,15.9623582 3.45150721,15.9675907 L3.45179706,15.9675907 C3.59150368,16.2213675 3.7378768,16.4620631 3.88743825,16.683282 C3.89874231,16.6998517 3.90975653,16.7170027 3.92019105,16.7344444 C6.42708438,20.8966167 7.4247404,22.9474706 7.82009275,24.0207169 M16.0822033,26.3462776 L6.91779665,26.3462776 C6.60707985,26.3462776 6.30969604,26.2212787 6.09202036,25.9997691 C5.88159089,25.7855268 5.76217361,25.49832 5.75840559,25.1989041 C5.69261014,24.7462918 4.82103791,22.7300307 1.95067547,17.9620498 C1.77357849,17.6983893 1.60111906,17.415543 1.43764492,17.1201968 C1.4217033,17.0937435 1.40663121,17.0669996 1.39300837,17.0393835 C0.481437141,15.3582938 0,13.455113 0,11.5333278 C0,5.17379125 5.1590004,0 11.5002898,0 C17.8412894,0 23,5.17379125 23,11.5333278 C23,13.4693571 22.5113167,15.3859098 21.5867023,17.0760111 C21.4156921,17.3876363 21.2345373,17.6864708 21.0470057,17.9661195 C18.5453297,22.1186989 17.3244909,24.6172232 17.2413046,25.1977413 C17.2378264,25.4974479 17.118699,25.7846547 16.9082695,25.9991877 C16.6905938,26.220988 16.3929202,26.3462776 16.0822033,26.3462776" id="Fill-38" fill="#515151"></path>
                                    <rect id="Rectangle" fill="#FFFFFF" x="10.25" y="6.00002907" width="2.5" height="9" rx="1"></rect>
                                    <circle id="Oval" fill="#FFFFFF" cx="11.5" cy="17.5" r="1.5"></circle>
                                </g>
                                <path d="M17.6599027,24.3982717 C17.8375794,25.3782048 17.1894798,26.318022 16.2121131,26.4965088 L7.43117502,28.0979481 C6.4540982,28.2767256 5.51760006,27.62615 5.33992338,26.6459261 C5.16195685,25.6662836 5.81034631,24.7273385 6.78742313,24.5491424 L15.5683612,22.9465404 C16.5457279,22.768635 17.482226,23.4183385 17.6599027,24.3982717" id="Fill-41" fill="#FFFFFF"></path>
                                <path d="M15.8920922,24.0800477 C15.8535424,24.0800477 15.814413,24.0835361 15.7755734,24.0905128 L6.99521499,25.6931148 C6.82710329,25.7236378 6.68102001,25.8181137 6.58392101,25.9588101 C6.48682201,26.0995065 6.45001134,26.2695632 6.48044536,26.4375849 C6.54305248,26.7814772 6.87637741,27.018103 7.22303534,26.9541501 L16.004843,25.3524202 C16.1726648,25.3216065 16.3184583,25.2271306 16.4158471,25.0864341 C16.513236,24.945447 16.5497568,24.7750997 16.5193228,24.6064966 C16.4639618,24.3015574 16.2002004,24.0800477 15.8920922,24.0800477 M7.10680638,29.2901759 C5.67814674,29.2901759 4.45527901,28.2654757 4.19934343,26.854151 C4.05760787,26.0747975 4.22745867,25.2867231 4.6773024,24.6349847 C5.12714613,23.9838277 5.80278128,23.5469129 6.58015299,23.4050537 L15.3608012,21.8024517 C15.536449,21.7707659 15.7149952,21.754487 15.8920922,21.754487 C17.3213315,21.754487 18.5444891,22.7786058 18.8007145,24.1902212 C18.9418704,24.9698654 18.7720196,25.7576491 18.3227556,26.4096782 C17.8729118,27.0614166 17.1969868,27.498622 16.4196151,27.6404812 L7.63867703,29.2419205 C7.46360898,29.273897 7.28448306,29.2901759 7.10680638,29.2901759" id="Fill-43" fill="#515151"></path>
                                <path d="M13.6388446,32.6924712 C13.6388446,33.876763 12.6811876,34.8372196 11.500058,34.8372196 C10.3186385,34.8372196 9.3612713,33.876763 9.3612713,32.6924712 C9.3612713,31.5073073 10.3186385,30.5468508 11.500058,30.5468508 C12.6811876,30.5468508 13.6388446,31.5073073 13.6388446,32.6924712" id="Fill-45" fill="#FFFFFF"></path>
                                <path d="M11.499942,31.7096602 C10.9599556,31.7096602 10.5205464,32.1506447 10.5205464,32.6925003 C10.5205464,33.2337746 10.9599556,33.6744683 11.499942,33.6744683 C12.0399284,33.6744683 12.4793376,33.2337746 12.4793376,32.6925003 C12.4793376,32.1506447 12.0399284,31.7096602 11.499942,31.7096602 M11.499942,36.0000291 C9.68143714,36.0000291 8.20176429,34.5160306 8.20176429,32.6925003 C8.20176429,30.8680979 9.68143714,29.3840995 11.499942,29.3840995 C13.3184469,29.3840995 14.7981198,30.8680979 14.7981198,32.6925003 C14.7981198,34.5160306 13.3184469,36.0000291 11.499942,36.0000291" id="Fill-47" fill="#515151"></path>
                                <path d="M17.6599027,28.171087 C17.8375794,29.1510201 17.1894798,30.090256 16.2121131,30.2690335 L7.43117502,31.870182 C6.4540982,32.0486688 5.51760006,31.3989653 5.33992338,30.4184507 C5.16195685,29.4382269 5.81034631,28.4995724 6.78742313,28.321667 L15.5683612,26.719065 C16.5457279,26.5411596 17.482226,27.1908631 17.6599027,28.171087" id="Fill-49" fill="#FFFFFF"></path>
                                <path d="M15.8920922,27.8525724 C15.8535424,27.8525724 15.814413,27.8560607 15.7755734,27.8630374 L6.99521499,29.4659301 C6.82681344,29.4964531 6.68073016,29.5906383 6.58392101,29.7313348 C6.48682201,29.8717405 6.45001134,30.0417971 6.48073521,30.2104003 C6.54305248,30.5537112 6.87521802,30.7909184 7.22390488,30.7263841 L16.004843,29.1249448 C16.3512111,29.0615733 16.5822197,28.7269832 16.5193228,28.3793119 C16.4639618,28.074082 16.1999105,27.8525724 15.8920922,27.8525724 M7.10738608,33.0627005 C5.67814674,33.0627005 4.45527901,32.0380003 4.19934343,30.6266756 C4.05760787,29.8470314 4.22745867,29.0586663 4.67759225,28.4072186 C5.12714613,27.7557709 5.80307113,27.3191469 6.58044284,27.1778691 L15.3608012,25.5749763 C15.536449,25.5432906 15.7149952,25.5270116 15.8920922,25.5270116 C17.3213315,25.5270116 18.5444891,26.5514211 18.8007145,27.9630365 C19.0923014,29.5720338 18.0245022,31.1196945 16.419905,31.4130059 L7.63867703,33.0144451 C7.46331913,33.0464216 7.28477291,33.0627005 7.10738608,33.0627005" id="Fill-51" fill="#515151"></path>
                            </g>
                        </g>
                    </g>
                </g>
            </g>
        </g>
    </g>
</svg>