<?xml version="1.0" encoding="UTF-8"?>
<svg width="100px" height="100px" viewBox="0 0 100 100" version="1.1" xmlns="http://www.w3.org/2000/svg" xmlns:xlink="http://www.w3.org/1999/xlink">
    <title>76EE6089-9EBB-45BC-BF50-499EDB730B51</title>
    <defs>
        <linearGradient x1="50%" y1="0%" x2="50%" y2="100%" id="linearGradient-1">
            <stop stop-color="#44F3AC" offset="0%"></stop>
            <stop stop-color="#08D9D0" offset="100%"></stop>
        </linearGradient>
        <path d="M0,8.76417378 L0,15 L18,15 L18,8.76417378 C18,3.92397576 13.970438,0 9,0 L9,0 C4.02956202,0 0,3.92397576 0,8.76417378" id="path-2"></path>
        <polygon id="path-4" points="0 0 19.3091097 0 19.3091097 19.370274 0 19.370274"></polygon>
        <path d="M0.588552815,0.228437335 L1.86533271,3.34351803 L0,14.1154159 L2.9988832,18 L6,14.1154159 L4.13466729,3.34351803 L5.41284318,0.228437335 C4.62689623,0.0870647957 3.8244765,0 2.9988832,0 L2.9988832,0 C2.1760819,0 1.37338297,0.0870647957 0.588552815,0.228437335" id="path-6"></path>
        <linearGradient x1="50%" y1="0%" x2="50%" y2="100%" id="linearGradient-8">
            <stop stop-color="#44F3AC" offset="0%"></stop>
            <stop stop-color="#08D9D0" offset="100%"></stop>
        </linearGradient>
    </defs>
    <g id="New_MyPage" stroke="none" stroke-width="1" fill="none" fill-rule="evenodd">
        <g id="My-Page_07_My_Foundation_최종" transform="translate(-650.000000, -691.000000)">
            <g id="Contents" transform="translate(650.000000, 162.000000)">
                <g id="icon_100px_fs_03" transform="translate(0.000000, 529.000000)">
                    <circle id="Oval" fill="#F5F5F5" cx="50" cy="50" r="50"></circle>
                    <g id="Group-37" transform="translate(21.000000, 24.000000)">
                        <g id="Group-5" transform="translate(3.000000, 15.000000)">
                            <path d="M13.905159,7.49931566 C13.905159,11.0371006 11.0372101,13.9050495 7.49969889,13.9050495 C3.96246145,13.9050495 1.09478621,11.0371006 1.09478621,7.49931566 C1.09478621,3.96235195 3.96246145,1.09495045 7.49969889,1.09495045 C11.0372101,1.09495045 13.905159,3.96235195 13.905159,7.49931566" id="Fill-1" fill="#FFFFFF"></path>
                            <path d="M7.49958939,2.18990091 C4.57169188,2.18990091 2.18990091,4.57169188 2.18990091,7.49931566 C2.18990091,10.4277606 4.57169188,12.8100991 7.49958939,12.8100991 C10.4277606,12.8100991 12.8100991,10.4277606 12.8100991,7.49931566 C12.8100991,4.57169188 10.4277606,2.18990091 7.49958939,2.18990091 M7.49958939,15 C3.36423527,15 0,11.6352173 0,7.49931566 C0,3.36423527 3.36423527,0 7.49958939,0 C11.6352173,0 15,3.36423527 15,7.49931566 C15,11.6352173 11.6352173,15 7.49958939,15" id="Fill-3" fill="#515151"></path>
                        </g>
                        <g id="Group-8" transform="translate(0.983293, 28.940770)">
                            <path d="M0.0167067475,14.9425832 C-0.253176055,4.35368104 2.74673049,-0.607436727 9.01642638,0.0592299399 C12.6185488,0.604686914 14.555342,1.27135358 14.8268058,2.05922994 C15.0982697,2.8471063 14.8659263,7.14155739 14.1297756,14.9425832 L0.0167067475,14.9425832 Z" id="Path-5" fill="url(#linearGradient-1)"></path>
                            <path d="M0.0167067475,8.82340372 L0.0167067475,15.0592299 L18.0167067,15.0592299 L18.0167067,8.82340372 C18.0167067,3.9832057 13.9867388,0.0592299399 9.01642638,0.0592299399 L9.01642638,0.0592299399 C4.04583357,0.0592299399 0.0167067475,3.9832057 0.0167067475,8.82340372" id="Fill-6"></path>
                        </g>
                        <g id="Group-15" transform="translate(0.000000, 14.000000)">
                            <path d="M2,29 L18,29 L18,23.7824976 C18,19.4910741 14.4109462,16 9.99971531,16 C5.5884844,16 2,19.4910741 2,23.7824976 L2,29 Z M18.8919975,31 L1.10800255,31 C0.496108141,31 0,30.5162689 0,29.9196403 L0,23.7507864 C0,18.3741063 4.48574832,14 9.999723,14 C15.5139747,14 20,18.3741063 20,23.7507864 L20,29.9196403 C20,30.5162689 19.5038919,31 18.8919975,31 L18.8919975,31 Z" id="Fill-9" fill="#515151"></path>
                            <path d="M53.8951825,7.73903242 C53.8951825,11.3899032 51.0013761,14.3495266 47.4316301,14.3495266 C43.861884,14.3495266 40.9680776,11.3899032 40.9680776,7.73903242 C40.9680776,4.08900913 43.861884,1.12995071 47.4316301,1.12995071 C51.0013761,1.12995071 53.8951825,4.08900913 53.8951825,7.73903242" id="Fill-11" fill="#FFFFFF"></path>
                            <path d="M47.4315196,2.25990142 C44.4769422,2.25990142 42.0731713,4.7178267 42.0731713,7.73903242 C42.0731713,10.7610856 44.4769422,13.2195758 47.4315196,13.2195758 C50.3863732,13.2195758 52.790144,10.7610856 52.790144,7.73903242 C52.790144,4.7178267 50.3863732,2.25990142 47.4315196,2.25990142 M47.4315196,15.4794773 C43.2584828,15.4794773 39.8633154,12.0071387 39.8633154,7.73903242 C39.8633154,3.47177356 43.2584828,0 47.4315196,0 C51.6048326,0 55,3.47177356 55,7.73903242 C55,12.0071387 51.6048326,15.4794773 47.4315196,15.4794773" id="Fill-13" fill="#515151"></path>
                        </g>
                        <g id="Group-18" transform="translate(39.000000, 29.000000)">
                            <mask id="mask-3" fill="white">
                                <use xlink:href="#path-2"></use>
                            </mask>
                            <g id="Clip-17"></g>
                            <path d="M0,8.76417378 L0,15 L18,15 L18,8.76417378 C18,3.92397576 13.970438,0 9,0 L9,0 C4.02956202,0 0,3.92397576 0,8.76417378" id="Fill-16" mask="url(#mask-3)"></path>
                        </g>
                        <g id="Group-31" transform="translate(14.000000, 0.000000)">
                            <g id="Group-21" transform="translate(23.909110, 27.430323)">
                                <path d="M4.09089018,16.4530299 C3.82100737,5.86412773 6.82091392,0.903009964 13.0906098,1.56967663 C16.6927322,2.11513361 18.6295254,2.78180027 18.9009893,3.56967663 C19.1724531,4.35755299 18.9401097,8.65200409 18.203959,16.4530299 L4.09089018,16.4530299 Z" id="Path-5" fill="url(#linearGradient-1)" transform="translate(11.542438, 8.981738) scale(-1, 1) translate(-11.542438, -8.981738) "></path>
                                <path d="M2.22602642,15.3365507 L17.8649751,15.3365507 L17.8649751,10.0775391 C17.8649751,5.75197415 14.3570357,2.23312594 10.0455007,2.23312594 C5.73396581,2.23312594 2.22602642,5.75197415 2.22602642,10.0775391 L2.22602642,15.3365507 Z M18.9779883,17.5696766 L1.11301321,17.5696766 C0.498351665,17.5696766 0,17.0697356 0,16.4531137 L0,10.0775391 C0,4.52068433 4.50631224,0 10.0455007,0 C15.5846892,0 20.0910015,4.52068433 20.0910015,10.0775391 L20.0910015,16.4531137 C20.0910015,17.0697356 19.5926498,17.5696766 18.9779883,17.5696766 L18.9779883,17.5696766 Z" id="Fill-19" fill="#515151"></path>
                            </g>
                            <path d="M23.6004434,9.68459267 C23.6004434,14.417424 19.77613,18.2539343 15.0583453,18.2539343 C10.3405605,18.2539343 6.51708191,14.417424 6.51708191,9.68459267 C6.51708191,4.95231966 10.3405605,1.11636757 15.0583453,1.11636757 C19.77613,1.11636757 23.6004434,4.95231966 23.6004434,9.68459267" id="Fill-22" fill="#FFFFFF"></path>
                            <g id="Group-26" transform="translate(5.404263, 0.000000)">
                                <mask id="mask-5" fill="white">
                                    <use xlink:href="#path-4"></use>
                                </mask>
                                <g id="Clip-25"></g>
                                <path d="M9.65399834,1.93312594 C5.55810972,1.93312594 2.22602642,5.27583634 2.22602642,9.38478807 C2.22602642,13.4942981 5.55810972,16.8372876 9.65399834,16.8372876 C13.7504435,16.8372876 17.0830833,13.4942981 17.0830833,9.38478807 C17.0830833,5.27583634 13.7504435,1.93312594 9.65399834,1.93312594 M9.65399834,19.0704136 C4.33073441,19.0704136 2.85993451e-13,14.7255879 2.85993451e-13,9.38478807 C2.85993451e-13,4.04454652 4.33073441,-0.3 9.65399834,-0.3 C14.9778188,-0.3 19.3091097,4.04454652 19.3091097,9.38478807 C19.3091097,14.7255879 14.9778188,19.0704136 9.65399834,19.0704136" id="Fill-24" fill="#515151" mask="url(#mask-5)"></path>
                            </g>
                            <path d="M29.0051799,32.24458 C29.0051799,24.5179643 22.7608976,18.2537668 15.0582896,18.2537668 C7.35651647,18.2537668 1.11306886,24.5179643 1.11306886,32.24458 L1.11306886,43.8833533 L29.0051799,43.8833533 L29.0051799,32.24458 Z" id="Fill-27" fill="#FFFFFF"></path>
                            <path d="M2.22602642,42.7668741 L27.8921111,42.7668741 L27.8921111,32.2446638 C27.8921111,25.1455564 22.134772,19.3704136 15.058234,19.3704136 C7.98253075,19.3704136 2.22602642,25.1455564 2.22602642,32.2446638 L2.22602642,42.7668741 Z M29.0051243,45 L1.11301321,45 C0.498351665,45 0,44.5000589 0,43.883437 L0,32.2446638 C0,23.9142666 6.75515543,17.1372876 15.058234,17.1372876 C23.3624256,17.1372876 30.1181375,23.9142666 30.1181375,32.2446638 L30.1181375,43.883437 C30.1181375,44.5000589 29.6197858,45 29.0051243,45 L29.0051243,45 Z" id="Fill-29" fill="#515151"></path>
                        </g>
                        <g id="Group-34" transform="translate(26.000000, 20.000000)">
                            <mask id="mask-7" fill="white">
                                <use xlink:href="#path-6"></use>
                            </mask>
                            <g id="Clip-33"></g>
                            <path d="M0.588552815,0.228437335 L1.86533271,3.34351803 L0,14.1154159 L2.9988832,18 L6,14.1154159 L4.13466729,3.34351803 L5.41284318,0.228437335 C4.62689623,0.0870647957 3.8244765,0 2.9988832,0 L2.9988832,0 C2.1760819,0 1.37338297,0.0870647957 0.588552815,0.228437335" id="Fill-32" mask="url(#mask-7)"></path>
                        </g>
                        <polygon id="Path-4" stroke="#515151" stroke-width="2" fill="url(#linearGradient-8)" points="26.2895737 18.2537668 27.5132141 21.153965 25.9552383 32.1994133 29.2835655 36.2151617 32.6118927 32.1994133 30.7887726 21.153965 32 18.2537668"></polygon>
                        <path d="M16.2172949,42.7558708 L41.7827051,42.7558708 L41.7827051,32.1818145 C41.7827051,25.0477278 36.047949,19.2441292 28.9991685,19.2441292 C21.9512195,19.2441292 16.2172949,25.0477278 16.2172949,32.1818145 L16.2172949,42.7558708 Z M42.8913525,45 L15.1086475,45 C14.4963969,45 14,44.4975956 14,43.8779354 L14,32.1818145 C14,23.8103711 20.7286585,17 28.9991685,17 C37.2707871,17 44,23.8103711 44,32.1818145 L44,43.8779354 C44,44.4975956 43.5036031,45 42.8913525,45 L42.8913525,45 Z" id="Fill-35" fill="#515151"></path>
                    </g>
                </g>
            </g>
        </g>
    </g>
</svg>