<?xml version="1.0" encoding="UTF-8"?>
<svg width="16px" height="16px" viewBox="0 0 16 16" version="1.1" xmlns="http://www.w3.org/2000/svg" xmlns:xlink="http://www.w3.org/1999/xlink">
    <title>27C674E1-488D-4738-AD44-E2C136B18C2A</title>
    <defs>
        <path d="M8.79240287,17 C13.2106809,17 16.7924029,13.418278 16.7924029,9 C16.7924029,4.581722 13.2106809,1 8.79240287,1 C4.37412487,1 0.792402869,4.581722 0.792402869,9 C0.792402869,13.418278 4.37412487,17 8.79240287,17 Z" id="path-1"></path>
        <mask id="mask-2" maskContentUnits="userSpaceOnUse" maskUnits="objectBoundingBox" x="0" y="0" width="16" height="16" fill="white">
            <use xlink:href="#path-1"></use>
        </mask>
        <rect id="path-3" x="0" y="0" width="8" height="18"></rect>
    </defs>
    <g id="New_MyPage" stroke="none" stroke-width="1" fill="none" fill-rule="evenodd">
        <g id="My-Page_07_My_Foundation_최종" transform="translate(-1114.000000, -425.000000)">
            <g id="Contents" transform="translate(650.000000, 162.000000)">
                <g id="01" transform="translate(0.000000, 156.000000)">
                    <g id="List" transform="translate(462.000000, 2.000000)">
                        <g id="icons-/-16-/-ic_learning" transform="translate(0.000000, 103.000000)">
                            <g transform="translate(1.207597, 1.000000)">
                                <use id="Oval" stroke="#FF664D" mask="url(#mask-2)" stroke-width="4" stroke-dasharray="3,2" transform="translate(8.792403, 9.000000) rotate(-6.000000) translate(-8.792403, -9.000000) " xlink:href="#path-1"></use>
                                <g id="Oval" transform="translate(9.935260, 0.000000)">
                                    <mask id="mask-4" fill="white">
                                        <use xlink:href="#path-3"></use>
                                    </mask>
                                    <g id="Mask"></g>
                                    <circle stroke="#FF664D" stroke-width="2" mask="url(#mask-4)" cx="-1.14285714" cy="9" r="7"></circle>
                                </g>
                                <polygon id="Path-3" stroke="#FF664D" fill="#FF664D" stroke-linejoin="round" points="7.61548254 6.9895861 10.5693232 8.9895861 7.61548254 10.9895861"></polygon>
                            </g>
                        </g>
                    </g>
                </g>
            </g>
        </g>
    </g>
</svg>