<?xml version="1.0" encoding="UTF-8"?>
<svg width="100px" height="100px" viewBox="0 0 100 100" version="1.1" xmlns="http://www.w3.org/2000/svg" xmlns:xlink="http://www.w3.org/1999/xlink">
    <title>E28D34F5-A0C8-4B98-A149-AAB4D603CC52</title>
    <defs>
        <polygon id="path-1" points="0 0 63 0 63 12.4124895 0 12.4124895"></polygon>
        <polygon id="path-3" points="-4.23772823e-16 0 32.5081024 0 32.5081024 45.4596278 -4.23772823e-16 45.4596278"></polygon>
        <polygon id="path-5" points="15.1164022 5.76686205 2.90500513e-16 31.2439859 8.4617444 36 23.5788007 10.5212848 27 4.75410445 18.5379285 0"></polygon>
        <linearGradient x1="50%" y1="0%" x2="50%" y2="100%" id="linearGradient-7">
            <stop stop-color="#44F3AC" offset="0%"></stop>
            <stop stop-color="#08D9D0" offset="100%"></stop>
        </linearGradient>
        <polygon id="path-8" points="0 0 11.1977407 0 11.1977407 12.9543707 0 12.9543707"></polygon>
    </defs>
    <g id="New_MyPage" stroke="none" stroke-width="1" fill="none" fill-rule="evenodd">
        <g id="My-Page_07_My_Foundation_최종" transform="translate(-650.000000, -517.000000)">
            <g id="Contents" transform="translate(650.000000, 162.000000)">
                <g id="icon_100px_fs_02" transform="translate(0.000000, 355.000000)">
                    <circle id="Oval" fill="#F5F5F5" cx="50" cy="50" r="50"></circle>
                    <g id="Group-21" transform="translate(19.000000, 22.000000)">
                        <g id="Group-9">
                            <g id="Group-3" transform="translate(0.000000, 41.587511)">
                                <mask id="mask-2" fill="white">
                                    <use xlink:href="#path-1"></use>
                                </mask>
                                <g id="Clip-2"></g>
                                <path d="M29.5090845,12.4124895 C26.9437382,12.4124895 23.8182463,12.3077489 20.0037847,12.0731171 C10.5780058,11.4930642 1.20980013,10.3390072 1.11628348,10.3275462 C0.418725586,10.2412705 -0.0765309754,9.60550442 0.00966974918,8.90733971 C0.0961885576,8.20949336 0.734900938,7.71635285 1.42864182,7.80008168 C1.51675105,7.81090594 10.351212,8.89906234 19.447456,9.48611921 C35.0936827,10.4965956 38.140608,9.1722157 38.698209,8.76025713 C38.5153108,8.45972476 37.7891253,7.60174305 34.9826715,6.08475498 C33.0153228,5.0214307 31.0797826,3.70532814 31.6392921,2.00560111 C32.1129189,0.566929733 33.748188,-0.735164962 47.7699605,0.482564184 C54.8190168,1.09477154 61.8369009,2.08996666 61.9068794,2.09983583 C62.6025287,2.19916433 63.0863343,2.84384447 62.9870921,3.54009901 C62.8884861,4.2360352 62.243094,4.72026161 61.5483989,4.62125148 C61.4851002,4.61233738 55.134556,3.71201372 48.4894662,3.10394504 C39.2411781,2.25774267 35.8122342,2.54681406 34.5577115,2.8282448 C34.8757953,3.07083555 35.3847295,3.40766102 36.1920263,3.84381499 C39.0640054,5.39614108 41.9044942,7.28338249 41.194213,9.50935953 C40.7021373,11.0514981 38.7535556,12.4124895 29.5090845,12.4124895" id="Fill-1" fill="#515151" mask="url(#mask-2)"></path>
                            </g>
                            <path d="M10.2775756,44.1858671 L31.7698655,6.92781233 C32.2644859,6.07014898 31.968986,4.967348 31.1123862,4.47293405 L25.9925085,1.51504607 C25.1355906,1.01872196 24.0327938,1.31479728 23.5400819,2.17214227 L2.04747396,39.429242" id="Fill-4" fill="#FFFFFF"></path>
                            <g id="Group-8" transform="translate(0.774933, 0.000000)">
                                <mask id="mask-4" fill="white">
                                    <use xlink:href="#path-3"></use>
                                </mask>
                                <g id="Clip-7"></g>
                                <path d="M9.50140209,45.4596278 C9.28542315,45.4596278 9.06689955,45.4045514 8.86650672,45.2886681 C8.2580123,44.9368797 8.0493493,44.1581698 8.40083195,43.549146 L29.8931218,6.29109121 C29.9863204,6.12904568 29.9650088,5.97273065 29.9440153,5.89377723 C29.9227036,5.81514217 29.863222,5.66933303 29.7019534,5.57605339 L24.5814396,2.61784706 C24.4188987,2.52361233 24.2624015,2.54526085 24.1838347,2.56627265 C24.1055861,2.58728444 23.9605399,2.64649951 23.8679775,2.80695323 L2.37441524,40.0659631 C2.02293259,40.6749869 1.24489948,40.8838314 0.636405063,40.5317246 C0.0279106493,40.1802546 -0.180752359,39.4015446 0.1707303,38.7925209 L21.6633383,1.53542115 C22.0701675,0.827387262 22.7314639,0.319283807 23.5244469,0.106300591 C24.31743,-0.106364263 25.1450841,0.00187832731 25.8547292,0.412881812 L30.9733346,3.37013306 C31.6820254,3.77858966 32.1893692,4.44109799 32.4018492,5.23445251 C32.6143292,6.02780703 32.5058626,6.85490776 32.0968068,7.56453345 L10.6045169,44.8225883 C10.3688168,45.2310449 9.94099398,45.4596278 9.50140209,45.4596278" id="Fill-6" fill="#515151" mask="url(#mask-4)"></path>
                            </g>
                        </g>
                        <g id="Group-12" transform="translate(1.000000, 8.000000)">
                            <mask id="mask-6" fill="white">
                                <use xlink:href="#path-5"></use>
                            </mask>
                            <g id="Clip-11"></g>
                            <polygon id="Fill-10" mask="url(#mask-6)" points="15.1164022 5.76686205 2.90500513e-16 31.2439859 8.4617444 36 23.5788007 10.5212848 27 4.75410445 18.5379285 0"></polygon>
                        </g>
                        <g id="Group-20" transform="translate(0.000000, 7.000000)">
                            <polygon id="Path-7" fill="url(#linearGradient-7)" points="19.4625626 2.06580353 2.04747396 31.8934898 10.3362045 37 28 6.2509079"></polygon>
                            <path d="M9.94018585,38.3016829 C9.72692365,38.3016829 9.51114878,38.2469713 9.31327664,38.1318557 C8.71243629,37.7823977 8.50639799,37.0088461 8.85345946,36.4038567 L26.0271914,6.45229537 L20.0772074,2.99345107 L2.90378947,32.9431149 C2.556728,33.5481043 1.78785337,33.7555654 1.18764119,33.4061073 C0.586800846,33.0566493 0.380762547,32.2830977 0.727824012,31.6781083 L18.5290934,0.632948746 C18.6958713,0.342313479 18.9703797,0.130424873 19.2920004,0.0434556691 C19.6133071,-0.0441460382 19.9569137,0.00202670284 20.2455557,0.169956329 L28.3715053,4.89380724 C28.9723456,5.24326531 29.1783839,6.01681685 28.8316365,6.62180626 L11.0294249,37.6688633 C10.7966896,38.0746142 10.3742482,38.3016829 9.94018585,38.3016829" id="Fill-13" fill="#515151"></path>
                            <polygon id="Fill-15" fill="#FFFFFF" points="9.94141078 37.03636 1.25639391 42.7352148 1.81577533 32.3106116"></polygon>
                            <g id="Group-19" transform="translate(0.000000, 31.045629)">
                                <mask id="mask-9" fill="white">
                                    <use xlink:href="#path-8"></use>
                                </mask>
                                <g id="Clip-18"></g>
                                <path d="M2.95982184,3.39123706 L2.64448273,9.26877399 L7.54134726,6.05565721 L2.95982184,3.39123706 Z M1.25655095,12.9543707 C1.03983384,12.9543707 0.823116726,12.8983942 0.628385406,12.7848598 C0.218507386,12.5467223 -0.0236504329,12.0966962 0.00179027181,11.6210538 L0.561171692,1.19676685 C0.5847279,0.757493308 0.833167374,0.362178744 1.21729061,0.152820151 C1.60109976,-0.0565384415 2.06594226,-0.0505296602 2.44409792,0.169265237 L10.5697334,4.89532991 C10.947889,5.1151248 11.1856497,5.5173969 11.1972707,5.95667045 C11.2092059,6.39626024 10.9931169,6.81054991 10.6275246,7.05058491 L1.94250773,12.7494397 C1.73427085,12.8857441 1.49556794,12.9543707 1.25655095,12.9543707 L1.25655095,12.9543707 Z" id="Fill-17" fill="#515151" mask="url(#mask-9)"></path>
                            </g>
                        </g>
                    </g>
                </g>
            </g>
        </g>
    </g>
</svg>