<?xml version="1.0" encoding="UTF-8"?>
<svg width="20px" height="20px" viewBox="0 0 20 20" version="1.1" xmlns="http://www.w3.org/2000/svg" xmlns:xlink="http://www.w3.org/1999/xlink">
    <title>3AFC7599-B4E2-4868-8385-6A5A7B7F537C</title>
    <g id="New_MyPage" stroke="none" stroke-width="1" fill="none" fill-rule="evenodd">
        <g id="My-Page_07_My_Foundation_최종" transform="translate(-1112.000000, -321.000000)">
            <g id="Contents" transform="translate(650.000000, 162.000000)">
                <g id="01" transform="translate(0.000000, 156.000000)">
                    <g id="List" transform="translate(462.000000, 2.000000)">
                        <g id="icons-/-16-/-ic_learned" transform="translate(0.000000, 1.000000)">
                            <path d="M8.70590477,18.8302184 C8.05431337,19.2476492 7.18769963,19.0578246 6.77026881,18.4062332 C6.74700379,18.3699175 6.72542793,18.332547 6.70561013,18.2942411 C6.27518583,17.4622713 5.39989057,16.9569193 4.46417145,17.0001459 C3.69116134,17.0358559 3.03556415,16.438156 2.99985415,15.6651459 C2.99786389,15.6220631 2.99786389,15.5789114 2.99985415,15.5358285 C3.04308066,14.6001094 2.5377287,13.7248142 1.70575892,13.2943899 C1.01845752,12.9388106 0.749543623,12.0933887 1.10512292,11.4060873 C1.12494071,11.3677814 1.14651657,11.3304109 1.16978159,11.2940952 C1.6750764,10.505352 1.6750764,9.49464805 1.16978159,8.70590477 C0.752350763,8.05431337 0.942175415,7.18769963 1.59376682,6.77026881 C1.6300825,6.74700379 1.66745299,6.72542793 1.70575892,6.70561013 C2.5377287,6.27518583 3.04308066,5.39989057 2.99985415,4.46417145 C2.96414415,3.69116134 3.56184399,3.03556415 4.33485411,2.99985415 C4.37793692,2.99786389 4.42108865,2.99786389 4.46417145,2.99985415 C5.39989057,3.04308066 6.27518583,2.5377287 6.70561013,1.70575892 C7.06118943,1.01845752 7.90661127,0.749543623 8.59391267,1.10512292 C8.6322186,1.12494071 8.6695891,1.14651657 8.70590477,1.16978159 C9.49464805,1.6750764 10.505352,1.6750764 11.2940952,1.16978159 C11.9456866,0.752350763 12.8123004,0.942175415 13.2297312,1.59376682 C13.2529962,1.6300825 13.2745721,1.66745299 13.2943899,1.70575892 C13.7248142,2.5377287 14.6001094,3.04308066 15.5358285,2.99985415 C16.3088387,2.96414415 16.9644359,3.56184399 17.0001459,4.33485411 C17.0021361,4.37793692 17.0021361,4.42108865 17.0001459,4.46417145 C16.9569193,5.39989057 17.4622713,6.27518583 18.2942411,6.70561013 C18.9815425,7.06118943 19.2504564,7.90661127 18.8948771,8.59391267 C18.8750593,8.6322186 18.8534834,8.6695891 18.8302184,8.70590477 C18.3249236,9.49464805 18.3249236,10.505352 18.8302184,11.2940952 C19.2476492,11.9456866 19.0578246,12.8123004 18.4062332,13.2297312 C18.3699175,13.2529962 18.332547,13.2745721 18.2942411,13.2943899 C17.4622713,13.7248142 16.9569193,14.6001094 17.0001459,15.5358285 C17.0358559,16.3088387 16.438156,16.9644359 15.6651459,17.0001459 C15.6220631,17.0021361 15.5789114,17.0021361 15.5358285,17.0001459 C14.6001094,16.9569193 13.7248142,17.4622713 13.2943899,18.2942411 C12.9388106,18.9815425 12.0933887,19.2504564 11.4060873,18.8948771 C11.3677814,18.8750593 11.3304109,18.8534834 11.2940952,18.8302184 C10.505352,18.3249236 9.49464805,18.3249236 8.70590477,18.8302184 Z" id="Star" fill="#A4A6AA"></path>
                            <polyline id="Path" stroke="#FFFFFF" stroke-width="1.5" stroke-linecap="round" stroke-linejoin="round" points="6.94628507 10 9.08440907 12 13.0844091 8"></polyline>
                        </g>
                    </g>
                </g>
            </g>
        </g>
    </g>
</svg>