<?xml version="1.0" encoding="UTF-8"?>
<svg width="100px" height="100px" viewBox="0 0 100 100" version="1.1" xmlns="http://www.w3.org/2000/svg" xmlns:xlink="http://www.w3.org/1999/xlink">
    <title>3E9E3C2B-A8E6-40F4-9B2D-830910B3C803</title>
    <defs>
        <linearGradient x1="50%" y1="0%" x2="50%" y2="100%" id="linearGradient-1">
            <stop stop-color="#08D9D0" offset="0%"></stop>
            <stop stop-color="#44F3AC" offset="100%"></stop>
        </linearGradient>
        <linearGradient x1="50%" y1="0%" x2="50%" y2="100%" id="linearGradient-2">
            <stop stop-color="#44F3AC" offset="0%"></stop>
            <stop stop-color="#08D9D0" offset="100%"></stop>
        </linearGradient>
        <path d="M21,21 L0,0 L21,21 Z" id="path-3"></path>
        <path d="M0,2.00099612 C0,3.10588704 0.896194461,4 2,4 L2,4 C3.10619645,4 4,3.10588704 4,2.00099612 L4,2.00099612 C4,0.895706744 3.10619645,0 2,0 L2,0 C0.896194461,0 0,0.895706744 0,2.00099612" id="path-5"></path>
    </defs>
    <g id="New_MyPage" stroke="none" stroke-width="1" fill="none" fill-rule="evenodd">
        <g id="My-Page_07_My_Foundation_최종" transform="translate(-650.000000, -320.000000)">
            <g id="Contents" transform="translate(650.000000, 162.000000)">
                <g id="01" transform="translate(0.000000, 156.000000)">
                    <g id="icon_100px_fs_01" transform="translate(0.000000, 2.000000)">
                        <circle id="Oval" fill="#F5F5F5" cx="50" cy="50" r="50"></circle>
                        <path d="M45.7190254,30 L25.3892107,50.4092676 L29.9217383,54.3944008 L26.3783449,59.0586556 C26.6011536,62.8232721 28.1861512,64.3780921 31.133338,63.7231156 C31.5568199,67.6163148 33.2715622,69.2355544 36.2775649,68.5808346 C35.3225223,72.7307834 36.8255237,74.3497353 40.786569,73.43769 C41.6813124,77.5879011 43.44057,79.2069555 46.064342,78.2948532 C48.688114,77.382751 50,76.2197305 50,74.805792 L54.7458496,78.2948532 C57.4815725,78.7226305 59.2217095,78.0522347 59.9662603,76.2836657 C60.7108112,74.5150967 65.2036197,69.8721699 73.4446857,62.3548853 C74.6006089,59.5697655 73.8785223,57.372279 71.2784259,55.762426 L76.5930991,49.9644479 L56,30 L50.5,34.8371909 L45.7190254,30 Z" id="Path-8" fill="#FFFFFF"></path>
                        <g id="Group-76" transform="translate(15.576989, 20.113628)">
                            <line x1="40.4230112" y1="8.88637225" x2="35.4230112" y2="13.8863722" id="Fill-1" fill="#FFFFFF"></line>
                            <g id="Group-52" transform="translate(8.423011, 8.886372)">
                                <path d="M26.7404765,7.06850149 C26.3848453,7.06850149 26.0295613,6.93477119 25.758323,6.66799463 C25.2154991,6.13375746 25.2154991,5.26741768 25.7579757,4.73318052 L29.9529661,0.601906064 C30.4950954,0.0673268794 31.3747966,0.0676689006 31.9172732,0.601564043 C32.4600971,1.13580121 32.4600971,2.00214099 31.9172732,2.53637815 L27.7226301,6.6676526 C27.4513918,6.93477119 27.0961078,7.06850149 26.7404765,7.06850149" id="Fill-2" fill="#515151"></path>
                                <line x1="47.2784259" y1="26.201135" x2="51.6109456" y2="21.932368" id="Fill-4" fill="#FFFFFF"></line>
                                <path d="M47.2784259,27.5692199 C46.9231419,27.5692199 46.5675106,27.4358316 46.2962723,27.168713 C45.7534484,26.6348179 45.7534484,25.7684781 46.295925,25.2338989 L50.6284447,20.9651319 C51.170574,20.4308948 52.0499279,20.4302107 52.5930991,20.9644479 C53.1355757,21.4986851 53.1355757,22.3650248 52.5934464,22.899262 L48.2609267,27.168371 C47.9896884,27.4354896 47.6340571,27.5692199 47.2784259,27.5692199" id="Fill-6" fill="#515151"></path>
                                <path d="M31.6500983,51 C30.101852,51 28.5536057,50.419932 27.3745352,49.259454 L24.7448086,46.6703532 C24.2019847,46.1364581 24.2019847,45.2701183 24.744114,44.7358811 C25.2862433,44.201302 26.1662918,44.2009599 26.7087684,44.7351971 L29.3391896,47.3242978 C30.6137665,48.5788317 32.6871246,48.5784897 33.961007,47.3242978 L48.0518544,33.4471284 C49.3243476,32.1925945 49.3246949,30.1510698 48.0515071,28.8965359 L30.7582417,11.8652467 C30.2154178,11.3310095 30.2154178,10.4646697 30.7582417,9.93043255 C31.3000238,9.39619538 32.1797249,9.39619538 32.7225489,9.93043255 L50.0161615,26.9617218 C52.3718715,29.2830199 52.3718715,33.0599603 50.0168561,35.3816005 L35.9256614,49.2591119 C34.7469382,50.41959 33.1986919,51 31.6500983,51" id="Fill-10" fill="#515151"></path>
                                <line x1="1.38921073" y1="21.7329696" x2="6.03082402" y2="26.3033993" id="Fill-12" fill="#FFFFFF"></line>
                                <path d="M6.03092821,27.6714158 C5.67529693,27.6714158 5.32001295,27.5380276 5.04877464,27.270909 L0.407161356,22.7004793 C-0.135662555,22.1662421 -0.135662555,21.2999023 0.406814059,20.7656652 C0.949290674,20.231428 1.82864457,20.231086 2.37146848,20.7656652 L7.01308177,25.3357529 C7.55590568,25.86999 7.55590568,26.7363298 7.01342907,27.270567 C6.74219076,27.5376855 6.38655948,27.6714158 6.03092821,27.6714158" id="Fill-14" fill="#515151"></path>
                                <line x1="26.6024611" y1="5.83719085" x2="22.064342" y2="1.36799942" id="Fill-16" fill="#FFFFFF"></line>
                                <path d="M26.6024611,7.20527578 C26.2468298,7.20527578 25.8915458,7.07154548 25.6199602,6.80476892 L21.0818412,2.33557748 C20.5393645,1.80134032 20.5393645,0.935000542 21.0818412,0.400421357 C21.6243178,-0.133473786 22.504019,-0.133473786 23.0464956,0.400421357 L27.5849619,4.86961279 C28.1274385,5.40384995 28.1274385,6.27018973 27.5849619,6.80476892 C27.3133763,7.07154548 26.9580923,7.20527578 26.6024611,7.20527578" id="Fill-18" fill="#515151"></path>
                                <path d="M19.9300682,22.4240577 L19.928679,22.4240577 C18.5922833,22.4237157 17.3357658,21.9110259 16.3907729,20.9800441 C15.4461273,20.0500883 14.9255304,18.8129975 14.9255304,17.4968998 C14.9255304,16.1808021 15.44578,14.9433693 16.3907729,14.0130716 L25.7865234,4.76002919 C26.3296946,4.22579202 27.2090485,4.22613404 27.7511779,4.76002919 C28.2940018,5.29460837 28.2940018,6.16060613 27.7511779,6.69484329 L18.3554273,15.9478857 C17.935199,16.3613894 17.7038997,16.9117015 17.7038997,17.4968998 C17.7038997,18.0820982 17.935199,18.6317263 18.35508,19.04523 C18.776003,19.4597597 19.3351498,19.6875458 19.9293736,19.6878879 L19.9297209,19.6878879 C20.5239446,19.6878879 21.0823968,19.4601017 21.5022779,19.046256 L30.7573735,9.93139021 C31.2995028,9.39681102 32.179204,9.39715304 32.7220279,9.93104818 C33.2645045,10.4652853 33.2645045,11.3316251 32.7220279,11.8658623 L23.4669323,20.9807281 C22.522634,21.9113679 21.2664638,22.4240577 19.9300682,22.4240577" id="Fill-22" fill="#515151"></path>
                                <path d="M10.837785,26.3953688 C9.48194077,25.061486 7.28425062,25.0601179 5.92840638,26.3950268 L3.39522813,28.8883616 C2.03938389,30.2222444 2.03938389,32.3879228 3.39522813,33.7221477 C4.75141966,35.0560305 6.94876252,35.0573985 8.30321758,33.7224897 L10.837785,31.2284709 C12.1936293,29.893904 12.1922401,27.7292516 10.837785,26.3953688" id="Fill-24" fill="#FFFFFF"></path>
                                <path d="M8.38229691,26.762426 C7.82627575,26.762426 7.30359501,26.9755052 6.91045575,27.3623313 L4.3772775,29.8560081 C3.98413824,30.2428341 3.76742543,30.757234 3.76742543,31.30481 C3.76742543,31.852728 3.98413824,32.36747 4.3772775,32.754296 C4.77111136,33.141464 5.29413939,33.3548853 5.85085514,33.3548853 L5.85085514,33.3548853 C6.40652901,33.3548853 6.92816786,33.142148 7.32061253,32.7556641 L9.85587455,30.2609612 C10.2486665,29.8741352 10.465032,29.3593932 10.465032,28.8121593 C10.465032,28.2645833 10.2486665,27.7498413 9.85552726,27.3626733 C9.4620407,26.9758473 8.93866537,26.762426 8.38229691,26.762426 M5.85085514,36.0910551 L5.85050785,36.0910551 C4.55266207,36.0910551 3.33191604,35.5934142 2.41366497,34.6901361 C1.49471931,33.786174 0.989056085,32.5839694 0.989056085,31.30481 C0.989056085,30.0256506 1.4950666,28.823788 2.41366497,27.9201679 L4.94649592,25.4271751 C5.8640524,24.5238971 7.08445113,24.0262562 8.38229691,24.0262562 C9.68048999,24.0262562 10.901236,24.5238971 11.8194871,25.4275172 C12.7377382,26.3314793 13.2434014,27.5333419 13.2434014,28.8114752 C13.2434014,30.0902926 12.7380855,31.2924972 11.8198344,32.1961173 L9.28526695,34.6904782 C8.36875236,35.5934142 7.14870092,36.0910551 5.85085514,36.0910551" id="Fill-26" fill="#515151"></path>
                                <path d="M15.7704672,31.2526176 C14.4149703,29.9187347 12.2172801,29.9173667 10.8610886,31.2519335 L8.32791033,33.7445842 C6.97206609,35.0798351 6.97206609,37.2451715 8.32791033,38.5790544 C9.68410187,39.9146473 11.8814447,39.9146473 13.2352052,38.5797384 L15.7704672,36.0864036 C17.1252696,34.7521788 17.1252696,32.5865004 15.7704672,31.2526176" id="Fill-28" fill="#FFFFFF"></path>
                                <path d="M13.3149791,31.6195379 C12.758958,31.6195379 12.2362772,31.8326172 11.843138,32.2194432 L9.30995971,34.7120939 C8.91682044,35.0992619 8.70010764,35.6143459 8.70010764,36.1622639 C8.70010764,36.7098399 8.91682044,37.2245819 9.30995971,37.6114079 C9.70379356,37.99926 10.2268216,38.2126812 10.7828428,38.2126812 C11.3381693,38.2126812 11.8601555,37.999602 12.2522528,37.612776 L14.7889041,35.1184151 C15.1810014,34.7322732 15.3973669,34.2171892 15.3973669,33.6692712 C15.3973669,33.1216952 15.1813487,32.6069532 14.7882095,32.2201272 C14.3947229,31.8329592 13.8716949,31.6195379 13.3149791,31.6195379 M10.7828428,40.9488511 C9.48464968,40.9488511 8.26390365,40.4508681 7.34565258,39.546564 C6.42774881,38.643628 5.92173829,37.4414233 5.92173829,36.1622639 C5.92173829,34.8837886 6.42774881,33.6812419 7.34565258,32.7769378 L9.87917813,30.284287 C10.7970819,29.381009 12.0171333,28.8833681 13.3149791,28.8833681 C14.6131722,28.8833681 15.8339182,29.381351 16.7525166,30.2849711 C17.6704204,31.1885912 18.1757363,32.3904538 18.1757363,33.6692712 C18.1757363,34.9480886 17.6704204,36.1499512 16.7528639,37.0539133 L14.2169073,39.5479321 C13.3010873,40.4508681 12.0806885,40.9488511 10.7828428,40.9488511" id="Fill-30" fill="#515151"></path>
                                <path d="M20.7021423,36.1097295 C19.3466453,34.7758467 17.1489552,34.7744786 15.7931109,36.1093874 L13.2606273,38.6027222 C11.904783,39.936947 11.904783,42.1019414 13.2606273,43.4358242 C14.6154296,44.7714172 16.8141617,44.7714172 18.1686167,43.4371923 L20.7021423,40.9431735 C22.0579865,39.6092907 22.0579865,37.4446383 20.7021423,36.1097295" id="Fill-32" fill="#FFFFFF"></path>
                                <path d="M18.2468278,36.4768209 C17.6908066,36.4768209 17.1684732,36.6899001 16.7753339,37.0767261 L14.2428503,39.5700609 C13.8493637,39.9572289 13.6329982,40.4719709 13.6329982,41.0192048 C13.6329982,41.5667808 13.8493637,42.0815228 14.242503,42.4683488 C14.6363368,42.8562009 15.1590176,43.0696221 15.715386,43.0696221 L15.715386,43.0696221 C16.2714072,43.0696221 16.7933933,42.8565429 17.1861853,42.4697169 L19.7200582,39.975356 C20.1135447,39.58853 20.3299102,39.0741301 20.3299102,38.5268961 C20.3299102,37.9793201 20.1135447,37.4645782 19.7200582,37.0774101 C19.3265716,36.6902421 18.8035436,36.4768209 18.2468278,36.4768209 M15.715386,45.805792 L15.715386,45.805792 C14.4161511,45.8054499 13.195405,45.307467 12.2778486,44.4028209 C11.3602921,43.5002268 10.8546289,42.2980222 10.8546289,41.0192048 C10.8546289,39.7403874 11.3602921,38.5385248 12.2788905,37.6349047 L14.8110268,35.141912 C15.7285833,34.2382919 16.948982,33.740651 18.2468278,33.740651 C19.5450209,33.740651 20.7657669,34.2382919 21.684018,35.141912 C22.6026164,36.0462161 23.1082796,37.2480787 23.1082796,38.5268961 C23.1082796,39.8057135 22.6026164,41.0075761 21.6836707,41.9111962 L19.1508397,44.404873 C18.2336306,45.3081511 17.0135791,45.805792 15.715386,45.805792" id="Fill-34" fill="#515151"></path>
                                <path d="M25.6351718,40.9676622 C24.2793275,39.6344635 22.0816374,39.6324113 20.7264877,40.9673202 L18.1919203,43.460997 C16.8364233,44.7952218 16.8374652,46.9591902 18.1919203,48.293073 C19.5481118,49.6283239 21.7454547,49.6290079 23.1009516,48.293757 L25.6351718,45.8004222 C26.9906687,44.4665394 26.9906687,42.3018871 25.6351718,40.9676622" id="Fill-36" fill="#FFFFFF"></path>
                                <path d="M23.1793364,41.3349246 C22.6236625,41.3349246 22.1013291,41.5476618 21.7088844,41.9344878 L19.1739697,44.4288487 C18.7811777,44.8153327 18.5648122,45.3297326 18.5648122,45.8769666 C18.5648122,46.4242006 18.781525,46.9386005 19.174317,47.3257685 C19.5678035,47.7132786 20.0908315,47.9266998 20.6475473,47.9266998 L20.6475473,47.9266998 C21.2032212,47.9266998 21.7255546,47.7132786 22.1186939,47.3264526 L24.6532613,44.8324337 C25.0464006,44.4459497 25.2627661,43.9315498 25.2627661,43.3839738 C25.2627661,42.8367399 25.0464006,42.3223399 24.6532613,41.9351719 C24.2594275,41.5483459 23.7360521,41.3349246 23.1793364,41.3349246 M20.6475473,50.6628697 L20.6472,50.6628697 C19.3486596,50.6628697 18.1282609,50.1645447 17.2096625,49.2605826 C16.2921061,48.3569625 15.7867901,47.1554419 15.7864428,45.8773086 C15.7864428,44.5984912 16.2921061,43.3969706 17.2103571,42.4933505 L19.7445773,39.9993317 C20.6610919,39.0963957 21.8814906,38.5987548 23.1793364,38.5987548 C24.4771822,38.5987548 25.6982755,39.0960536 26.6168738,39.9996737 C27.5354722,40.9036359 28.0411354,42.1054985 28.0411354,43.3839738 C28.0411354,44.6627912 27.5354722,45.8646538 26.6168738,46.7682739 L24.083001,49.2616087 C23.1654445,50.1648868 21.9453931,50.6628697 20.6475473,50.6628697" id="Fill-38" fill="#515151"></path>
                                <line x1="38.4722453" y1="27.9630231" x2="47.0282337" y2="36.3904263" id="Fill-40" fill="#FFFFFF"></line>
                                <path d="M47.0281295,37.7585454 C46.6728455,37.7585454 46.316867,37.6248151 46.0456286,37.3576965 L37.4896402,28.9302934 C36.9475109,28.3960562 36.9475109,27.5297164 37.4899875,26.9954793 C38.0328115,26.4615841 38.9121654,26.4612421 39.454642,26.9958213 L48.0106304,35.4232244 C48.553107,35.9574616 48.553107,36.8238014 48.0102831,37.3580386 C47.7390448,37.6248151 47.3834135,37.7585454 47.0281295,37.7585454" id="Fill-42" fill="#515151"></path>
                                <line x1="33.4323875" y1="32.9261616" x2="41.9890705" y2="41.3539068" id="Fill-44" fill="#FFFFFF"></line>
                                <path d="M41.9889663,42.7220259 C41.6336823,42.7220259 41.2777037,42.5882956 41.0064654,42.321177 L32.4497824,33.8934319 C31.9076531,33.3591947 31.9076531,32.4928549 32.4501297,31.9586178 C32.9929537,31.4247226 33.8723076,31.4243806 34.4147842,31.9589598 L42.9714672,40.386705 C43.5139438,40.9209421 43.5139438,41.7872819 42.9711199,42.3215191 C42.6998816,42.5882956 42.3442503,42.7220259 41.9889663,42.7220259" id="Fill-46" fill="#515151"></path>
                                <line x1="28.3921824" y1="37.8901552" x2="36.9485181" y2="46.3161902" id="Fill-48" fill="#FFFFFF"></line>
                                <path d="M36.9484139,47.6841726 C36.5931299,47.6841726 36.2374986,47.5504423 35.9662603,47.2836657 L27.4099246,38.8576306 C26.867448,38.3233935 26.867448,37.4570537 27.4099246,36.9228165 C27.9524013,36.3885794 28.8317552,36.3885794 29.3742318,36.9228165 L37.9305675,45.3485096 C38.4733914,45.8827467 38.4733914,46.7490865 37.9305675,47.2833237 C37.6596765,47.5504423 37.3036979,47.6841726 36.9484139,47.6841726" id="Fill-50" fill="#515151"></path>
                            </g>
                            <rect id="Rectangle" stroke="#515151" stroke-width="2.5" fill="url(#linearGradient-1)" transform="translate(53.514362, 16.635359) rotate(44.000000) translate(-53.514362, -16.635359) " x="36.7643616" y="12.3853589" width="33.5" height="8.5" rx="3"></rect>
                            <rect id="Rectangle-Copy-4" stroke="#515151" stroke-width="2.5" fill="url(#linearGradient-2)" transform="translate(16.617009, 16.617009) rotate(-225.000000) translate(-16.617009, -16.617009) " x="-0.132990642" y="12.3670094" width="33.5" height="8.5" rx="3"></rect>
                            <g id="Group-60" transform="translate(40.423011, 9.886372)">
                                <mask id="mask-4" fill="white">
                                    <use xlink:href="#path-3"></use>
                                </mask>
                                <g id="Clip-59"></g>
                                <path d="M21,21 L0,0 L21,21 Z" id="Fill-58" mask="url(#mask-4)"></path>
                            </g>
                            <g id="Group-72" transform="translate(10.250004, 9.626742)" fill="#FFFFFF">
                                <line x1="20.901144" y1="0" x2="0" y2="20.6688977" id="Fill-68"></line>
                            </g>
                            <g id="Group-75" transform="translate(8.423011, 19.886372)">
                                <mask id="mask-6" fill="white">
                                    <use xlink:href="#path-5"></use>
                                </mask>
                                <g id="Clip-74"></g>
                                <path d="M0,2.00099612 C0,3.10588704 0.896194461,4 2,4 L2,4 C3.10619645,4 4,3.10588704 4,2.00099612 L4,2.00099612 C4,0.895706744 3.10619645,0 2,0 L2,0 C0.896194461,0 0,0.895706744 0,2.00099612" id="Fill-73" mask="url(#mask-6)"></path>
                            </g>
                        </g>
                    </g>
                </g>
            </g>
        </g>
    </g>
</svg>